<svg width="64" height="63" viewBox="0 0 64 63" fill="none" xmlns="http://www.w3.org/2000/svg">
<path d="M32.6864 62.6652C49.9804 62.6652 64 48.6457 64 31.3517C64 14.0577 49.9804 0.0380859 32.6864 0.0380859C15.3924 0.0380859 1.37283 14.0577 1.37283 31.3517C1.37283 48.6457 15.3924 62.6652 32.6864 62.6652Z" fill="#F4ECFF"/>
<path d="M20.0159 12.701C18.827 10.4151 17.4609 8.44178 16.1178 6.9645L15.6214 10.6522L14.9249 5.77777C13.3486 4.37894 11.8916 3.77647 10.9013 4.29159C8.84055 5.3634 9.5802 10.8662 12.5533 16.5824C15.5264 22.2986 19.6071 26.0637 21.6679 24.9918C23.7287 23.92 22.9891 18.4172 20.0159 12.701Z" fill="white"/>
<path d="M27.7835 15.5753L25.2481 17.0586L27.629 14.3807C26.8808 9.52051 24.8451 5.93203 22.8021 6.11931C20.5471 6.326 19.1371 11.0543 19.6528 16.6801C20.1685 22.306 22.4147 26.699 24.6696 26.4923C26.9246 26.2856 28.3346 21.5574 27.8189 15.9315C27.8079 15.8122 27.7959 15.6936 27.7835 15.5753Z" fill="#E2CCFF"/>
<path d="M12.9515 22.2998L15.0787 21.9443L12.4769 21.5534C10.6138 18.4607 10.0748 15.4798 11.315 14.6249C12.684 13.6813 15.7021 15.685 18.0563 19.1002C20.4105 22.5155 21.2092 26.0491 19.8403 26.9927C18.4713 27.9363 15.4532 25.9326 13.099 22.5174C13.049 22.4449 13 22.3723 12.9515 22.2998Z" fill="#E2CCFF"/>
<path d="M25.9378 38.5462C25.9041 38.5462 25.8734 38.5235 25.8647 38.4894C23.0959 27.6233 19.439 19.5021 16.8589 14.6027C14.0632 9.2941 11.8945 6.51952 11.8729 6.49219C11.8471 6.45939 11.8527 6.41196 11.8855 6.38618C11.9182 6.3606 11.9657 6.36614 11.9915 6.39878C12.0131 6.42627 14.1883 9.20863 16.99 14.5278C19.5747 19.4352 23.2378 27.5693 26.011 38.4522C26.0212 38.4925 25.9969 38.5337 25.9565 38.5439C25.9502 38.5455 25.9439 38.5462 25.9378 38.5462Z" fill="#E2CCFF"/>
<path d="M26.716 38.3481C26.6818 38.3481 26.6508 38.3247 26.6426 38.2899C22.9415 22.5801 22.6396 10.0195 22.6369 9.8944C22.6361 9.85276 22.6691 9.81827 22.7108 9.81738C22.7533 9.81803 22.787 9.84957 22.7879 9.89128C22.7905 10.0161 23.0923 22.5619 26.7895 38.2553C26.7991 38.2959 26.774 38.3365 26.7334 38.3461C26.7276 38.3474 26.7217 38.3481 26.716 38.3481Z" fill="#F7F1EB"/>
<path d="M24.9235 38.674C24.8903 38.674 24.8599 38.652 24.8508 38.6184C23.0129 31.9045 19.9808 26.3841 17.761 22.9353C15.325 19.151 13.251 16.8861 13.0755 16.7714C13.0406 16.7558 13.0225 16.716 13.0347 16.6789C13.0477 16.6393 13.0903 16.6176 13.13 16.6308C13.2821 16.6809 15.3741 18.9642 17.827 22.7593C20.0736 26.2352 23.141 31.8011 24.9963 38.5786C25.0073 38.6188 24.9836 38.6602 24.9434 38.6713C24.9368 38.6731 24.9301 38.674 24.9235 38.674ZM13.0826 16.7742C13.0827 16.7742 13.0827 16.7742 13.0828 16.7742C13.0827 16.7742 13.0827 16.7742 13.0826 16.7742Z" fill="#F7F1EB"/>
<path d="M45.078 48.6065H44.3249C44.2575 48.2394 44.1613 47.8825 44.0391 47.5378L44.6908 47.1616L43.4166 44.9545L42.7634 45.3316C42.5237 45.051 42.2622 44.7896 41.9817 44.5499L42.3587 43.8968L40.1517 42.6225L39.7754 43.2742C39.4308 43.152 39.0738 43.0558 38.7068 42.9884V42.2354H36.1583V42.9884C35.7912 43.0558 35.4342 43.152 35.0896 43.2742L34.7134 42.6225L32.5063 43.8968L32.8834 44.5499C32.6028 44.7896 32.3414 45.0511 32.1017 45.3316L31.4485 44.9545L30.1743 47.1616L30.8259 47.5378C30.7037 47.8825 30.6075 48.2394 30.5401 48.6065H29.7871V51.155H30.5401C30.6076 51.5221 30.7038 51.879 30.826 52.2237L30.1743 52.6L31.4485 54.807L32.1017 54.4299C32.3414 54.7105 32.6028 54.9719 32.8834 55.2116L32.5063 55.8647L34.7134 57.139L35.0896 56.4873C35.4343 56.6095 35.7912 56.7057 36.1583 56.7731V57.5261H38.7068V56.7731C39.0739 56.7057 39.4308 56.6095 39.7755 56.4873L40.1517 57.1389L42.3588 55.8647L41.9817 55.2115C42.2623 54.9718 42.5237 54.7104 42.7634 54.4298L43.4166 54.807L44.6908 52.5999L44.0391 52.2237C44.1613 51.879 44.2575 51.522 44.325 51.155H45.078L45.078 48.6065ZM41.9612 51.7694C41.5019 52.9843 40.5359 53.9502 39.321 54.4095C35.1933 55.9698 31.3434 52.1198 32.9039 47.9921C33.3631 46.7772 34.3292 45.8112 35.5441 45.352C39.6718 43.7917 43.5217 47.6417 41.9612 51.7694Z" fill="white"/>
<path d="M37.4326 55.5313C34.3171 55.5313 31.7823 52.9966 31.7823 49.881C31.7823 48.5198 32.2733 47.2047 33.1647 46.1781C34.0473 45.1617 35.2625 44.4925 36.5865 44.2937C36.6274 44.2879 36.6662 44.3159 36.6723 44.3572C36.6785 44.3984 36.6501 44.4368 36.6089 44.443C33.9434 44.8432 31.9333 47.1811 31.9333 49.881C31.9333 52.9134 34.4003 55.3804 37.4326 55.3804C39.9381 55.3804 42.1272 53.6888 42.7559 51.2669C42.7663 51.2266 42.8073 51.2022 42.8479 51.2128C42.8882 51.2232 42.9124 51.2644 42.9019 51.3047C42.2559 53.7933 40.0069 55.5313 37.4326 55.5313Z" fill="#F2E6DC"/>
<path d="M41.7874 47.9277H63.8148C63.8163 47.9277 63.8239 32.5352 63.8239 32.5352H41.7952C41.7937 32.5352 41.7924 32.5364 41.7924 32.538C41.7924 32.538 41.7866 47.9277 41.7874 47.9277Z" fill="#DABEFF"/>
<path d="M43.1041 47.003C43.1041 47.0037 43.1046 47.0042 43.1052 47.0042H62.4948C62.4962 47.0042 62.4973 47.0031 62.4973 47.0017L62.5029 33.7295H43.1121C43.1108 33.7295 43.1096 33.7306 43.1096 33.732L43.1041 47.003Z" fill="#FFEEEA"/>
<path d="M63.8187 47.8791L63.8194 48.1523C63.8213 48.8253 63.2989 49.372 62.6534 49.3718C57.8149 49.3707 38.2373 49.3664 33.4123 49.3652C32.7696 49.365 32.2487 48.8228 32.2468 48.1526L32.2461 47.8721L63.8187 47.8791Z" fill="#DABEFF"/>
<path d="M51.451 49.3232C51.4399 49.3232 51.4286 49.3208 51.4179 49.3155C50.9898 49.106 50.723 48.6798 50.7216 48.2031L50.7209 47.9341C50.7208 47.8924 50.7544 47.8585 50.7961 47.8584C50.7962 47.8584 50.7963 47.8584 50.7963 47.8584C50.8379 47.8584 50.8717 47.8921 50.8718 47.9336L50.8725 48.2026C50.8738 48.6214 51.1082 48.9959 51.4843 49.1799C51.5217 49.1983 51.5372 49.2435 51.5189 49.2809C51.5058 49.3076 51.479 49.3232 51.451 49.3232Z" fill="white"/>
<path d="M42.2349 48.4624H40.3557C40.314 48.4624 40.2802 48.4287 40.2802 48.387C40.2802 48.3453 40.314 48.3115 40.3557 48.3115H42.2349C42.2766 48.3115 42.3104 48.3453 42.3104 48.387C42.3104 48.4287 42.2766 48.4624 42.2349 48.4624Z" fill="white"/>
<path d="M62.0106 47.9015L41.2248 47.897C41.1831 47.897 41.1494 47.8631 41.1494 47.8215C41.1494 47.7798 41.1832 47.7461 41.2248 47.7461L62.0106 47.7506C62.0523 47.7506 62.086 47.7844 62.086 47.826C62.086 47.8677 62.0523 47.9015 62.0106 47.9015Z" fill="white"/>
<path opacity="0.4" d="M58.8533 43.7508H32.2458V6.28232C32.2458 5.32385 33.0228 4.54688 33.9813 4.54688H58.8533V43.7508Z" fill="white"/>
<path d="M55.7755 41.0306H29.168C29.1264 41.0306 29.0926 40.9968 29.0926 40.9552V3.48669C29.0926 2.48816 29.9049 1.67578 30.9035 1.67578H55.7755C55.8172 1.67578 55.8509 1.70954 55.8509 1.75125V40.9551C55.8509 40.9968 55.8171 41.0306 55.7755 41.0306ZM29.2435 40.8797H55.7V1.82672H30.9035C29.9881 1.82672 29.2435 2.57141 29.2435 3.48673V40.8797Z" fill="#C6ADE7"/>
<path d="M47.401 16.6173C50.1236 13.8946 50.1236 9.48036 47.401 6.75772C44.6783 4.03508 40.2641 4.03508 37.5414 6.75772C34.8188 9.48036 34.8188 13.8946 37.5414 16.6173C40.2641 19.3399 44.6783 19.3399 47.401 16.6173Z" fill="#EADDFF"/>
<path d="M42.4717 18.7346C41.1546 18.7346 39.87 18.3688 38.7568 17.677C38.7214 17.655 38.7106 17.6085 38.7326 17.5731C38.7545 17.5376 38.801 17.5268 38.8365 17.5488C39.9257 18.2258 41.1828 18.5837 42.4717 18.5837C46.2744 18.5837 49.3681 15.49 49.3681 11.6873C49.3681 9.13817 47.9707 6.80683 45.7212 5.60295C45.6844 5.58326 45.6706 5.53751 45.6903 5.5008C45.7099 5.46402 45.7557 5.45026 45.7924 5.46985C48.0911 6.70003 49.519 9.08246 49.519 11.6873C49.519 15.5731 46.3576 18.7346 42.4717 18.7346Z" fill="#363E44"/>
<path d="M46.818 16.7989C46.8017 16.7989 46.7852 16.7936 46.7714 16.7827C45.7366 15.9679 44.2496 15.5005 42.6917 15.5005C41.1448 15.5005 39.665 15.9623 38.6314 16.7675C38.5985 16.793 38.5511 16.7872 38.5255 16.7544C38.4999 16.7215 38.5058 16.6741 38.5387 16.6485C39.5983 15.8231 41.1119 15.3496 42.6917 15.3496C44.2828 15.3496 45.8038 15.8288 46.8648 16.6642C46.8975 16.69 46.9032 16.7374 46.8774 16.7702C46.8625 16.7891 46.8404 16.7989 46.818 16.7989Z" fill="#FF562F"/>
<path d="M42.6579 18.456C41.7837 18.456 41.075 17.7473 41.075 16.873V12.3936H44.2409V16.873C44.2409 17.7473 43.5322 18.456 42.6579 18.456Z" fill="#84524D"/>
<path d="M40.7011 8.83302C41.221 8.31309 41.221 7.47012 40.7011 6.95019C40.1811 6.43026 39.3382 6.43026 38.8182 6.95019C38.2983 7.47012 38.2983 8.31309 38.8182 8.83302C39.3382 9.35294 40.1811 9.35294 40.7011 8.83302Z" fill="#363E44"/>
<path d="M43.1309 7.16509C44.0921 6.20395 44.0921 4.64565 43.1309 3.68452C42.1698 2.72339 40.6115 2.72339 39.6504 3.68452C38.6892 4.64565 38.6892 6.20396 39.6504 7.16509C40.6115 8.12622 42.1698 8.12622 43.1309 7.16509Z" fill="#363E44"/>
<path d="M41.5496 7.61919C42.243 7.15955 42.9657 7.21807 43.4281 7.40825C44.7423 7.94885 45.5173 9.62652 45.2365 11.7096C43.1687 11.7486 41.101 11.7876 39.0332 11.8266C38.7406 10.5099 38.6126 9.14674 39.2965 8.28608C40.1802 7.17417 41.4108 7.62505 41.5496 7.61919Z" fill="#363E44"/>
<path d="M39.3828 11.5584C39.4185 13.2669 40.6262 14.6274 42.0803 14.5971C43.5344 14.5667 44.6843 13.157 44.6486 11.4485C44.613 9.73992 43.4053 8.51416 41.9512 8.5445C40.497 8.57484 39.3471 9.84981 39.3828 11.5584Z" fill="#84524D"/>
<path d="M45.6759 12.2368C45.9935 11.737 45.9061 11.1127 45.4807 10.8424C45.0553 10.5721 44.453 10.7582 44.1354 11.2581C43.8179 11.7579 43.9053 12.3822 44.3307 12.6525C44.7561 12.9227 45.3584 12.7366 45.6759 12.2368Z" fill="#84524D"/>
<path d="M39.8421 11.0137C40.1802 11.4998 40.1189 12.1272 39.7052 12.415C39.2915 12.7027 38.682 12.5419 38.3439 12.0558C38.0058 11.5697 38.067 10.9423 38.4807 10.6545C38.8944 10.3668 39.5039 10.5276 39.8421 11.0137Z" fill="#84524D"/>
<path d="M42.0322 14.6729C41.4858 14.6729 40.9592 14.4837 40.5062 14.1241C40.4735 14.0982 40.468 14.0507 40.494 14.0181C40.5198 13.9855 40.5673 13.9799 40.5999 14.006C41.0388 14.3543 41.5512 14.5343 42.0786 14.5215C42.6177 14.5102 43.1293 14.3036 43.558 13.9241C43.5892 13.8967 43.637 13.8995 43.6645 13.9306C43.6921 13.9618 43.6892 14.0096 43.658 14.0372C43.2022 14.4407 42.6571 14.6603 42.0818 14.6724C42.0652 14.6727 42.0487 14.6729 42.0322 14.6729Z" fill="#363E44"/>
<path d="M39.4946 12.4562C39.4609 12.4562 39.4303 12.4335 39.4215 12.3995C39.3712 12.2034 39.3369 12.0002 39.3197 11.7957C39.3163 11.7542 39.3471 11.7177 39.3886 11.7142C39.4299 11.7101 39.4666 11.7416 39.4701 11.7831C39.4866 11.9792 39.5194 12.1739 39.5677 12.3619C39.5781 12.4023 39.5537 12.4434 39.5134 12.4538C39.5071 12.4555 39.5008 12.4562 39.4946 12.4562Z" fill="#363E44"/>
<path d="M44.5742 12.3361C44.5691 12.3361 44.5639 12.3356 44.5587 12.3345C44.518 12.3261 44.4918 12.2861 44.5003 12.2453C44.546 12.0262 44.5706 11.7999 44.5736 11.5726C44.5742 11.5312 44.6078 11.498 44.649 11.498C44.6494 11.498 44.6497 11.498 44.65 11.498C44.6917 11.4986 44.7251 11.5328 44.7245 11.5745C44.7214 11.8115 44.6956 12.0476 44.6479 12.2761C44.6405 12.3117 44.6092 12.3361 44.5742 12.3361Z" fill="#363E44"/>
<path d="M43.7485 10.9664V10.9665L43.7422 10.9658C43.7388 10.9791 43.7298 10.9961 43.7158 10.9957C43.6989 11.0157 43.6912 11.048 43.6799 11.0693C43.6595 11.1076 43.6014 11.0735 43.6217 11.0353C43.6355 11.0095 43.544 11.0588 43.504 11.0742C43.3762 11.1233 43.2467 11.1667 43.1155 11.206C43.0544 11.2244 42.9932 11.2432 42.9314 11.2594C42.8819 11.2724 42.7184 11.3239 42.7055 11.3163C42.5388 11.4689 42.4468 11.6131 42.4468 11.6131C42.4468 11.6131 42.6859 11.7192 42.9948 11.7356C42.9957 11.7315 42.9966 11.7274 42.9973 11.7232C43.0045 11.6817 43.717 11.5136 43.7362 11.5452C44.0378 11.3532 44.2114 11.0821 44.2114 11.0821C44.2114 11.0821 44.0151 10.995 43.7485 10.9664Z" fill="white"/>
<path d="M43.2268 11.008C43.0128 11.0724 42.8364 11.197 42.7058 11.3165C42.722 11.4501 42.7855 11.5782 42.8955 11.6729C42.9238 11.6973 42.954 11.7181 42.9853 11.7358C43.1246 11.7441 43.2785 11.7344 43.4314 11.6884C43.542 11.6551 43.642 11.6053 43.7314 11.5488C43.8454 11.3702 43.8467 11.1446 43.7422 10.9664C43.5857 10.9502 43.4056 10.9542 43.2268 11.008Z" fill="#363E44"/>
<path d="M40.256 11.0162L40.2624 11.0156C40.2658 11.0289 40.2747 11.0459 40.2888 11.0455C40.3056 11.0655 40.3134 11.0978 40.3247 11.1191C40.3451 11.1574 40.4032 11.1233 40.3829 11.0851C40.3692 11.0593 40.4606 11.1086 40.5006 11.124C40.6284 11.1732 40.7579 11.2165 40.889 11.2559C40.9502 11.2742 41.0114 11.2931 41.0732 11.3093C41.1226 11.3223 41.2862 11.3738 41.2991 11.3661C41.4658 11.5187 41.5578 11.663 41.5578 11.663C41.5578 11.663 41.3187 11.7691 41.0098 11.7855C41.0089 11.7813 41.0079 11.7773 41.0072 11.773C41 11.7316 40.2876 11.5635 40.2683 11.5951C39.9668 11.4031 39.7932 11.132 39.7932 11.132C39.7932 11.132 39.9894 11.0448 40.256 11.0162Z" fill="white"/>
<path d="M40.7778 11.0569C40.9918 11.1213 41.1681 11.2458 41.2988 11.3654C41.2825 11.4989 41.219 11.6271 41.109 11.7217C41.0807 11.7461 41.0506 11.7669 41.0193 11.7847C40.88 11.7929 40.7261 11.7832 40.5731 11.7372C40.4625 11.7039 40.3626 11.6541 40.2731 11.5977C40.1592 11.419 40.1579 11.1934 40.2624 11.0152C40.4189 10.999 40.5989 11.003 40.7778 11.0569Z" fill="#363E44"/>
<path d="M41.903 12.5605C41.8887 12.5605 41.8743 12.5565 41.8614 12.548C41.7527 12.4761 41.6934 12.3945 41.6852 12.3054C41.6778 12.2245 41.7143 12.1652 41.7466 12.1128C41.7733 12.0695 41.7985 12.0285 41.8062 11.9703C41.8134 11.917 41.8042 11.8602 41.7789 11.8016C41.7623 11.7633 41.78 11.719 41.8183 11.7025C41.8564 11.686 41.9009 11.7035 41.9174 11.7418C41.9537 11.8259 41.9666 11.9095 41.9558 11.9903C41.9438 12.0802 41.9057 12.1421 41.8751 12.192C41.8472 12.2372 41.8328 12.2622 41.8355 12.2916C41.8402 12.3429 41.8974 12.3909 41.9446 12.4221C41.9794 12.4451 41.9889 12.4919 41.966 12.5266C41.9515 12.5486 41.9275 12.5605 41.903 12.5605Z" fill="#363E44"/>
<path d="M42.3025 13.131C42.3008 13.131 42.2992 13.131 42.2976 13.131C42.2558 13.1307 42.2223 13.0967 42.2226 13.055C42.2229 13.0134 42.2557 12.9787 42.2985 12.9801C42.3821 12.9792 42.5427 12.9647 42.6916 12.8526C42.7693 12.794 42.8337 12.7161 42.8778 12.627C42.8963 12.5896 42.9415 12.5743 42.9789 12.5928C43.0163 12.6113 43.0315 12.6566 43.013 12.6939C42.9586 12.8039 42.8788 12.9005 42.7824 12.9731C42.6009 13.1098 42.4058 13.131 42.3025 13.131Z" fill="#363E44"/>
<path d="M53.4178 22.1619C53.4178 22.6083 53.0559 22.9702 52.6095 22.9702H32.3339C31.8875 22.9702 31.5256 22.6083 31.5256 22.1619C31.5256 21.7154 31.8875 21.3535 32.3339 21.3535H52.6095C53.0559 21.3535 53.4178 21.7154 53.4178 22.1619Z" fill="#E2CCFF"/>
<path d="M53.4307 24.9236C53.4307 25.37 53.0688 25.7319 52.6224 25.7319H32.3469C31.9004 25.7319 31.5385 25.37 31.5385 24.9236C31.5385 24.4771 31.9004 24.1152 32.3469 24.1152H52.6224C53.0688 24.1152 53.4307 24.4771 53.4307 24.9236Z" fill="#E2CCFF"/>
<path d="M53.4307 27.7529H38.4093V36.914H53.4307V27.7529Z" fill="white"/>
<path d="M24.5455 43.3477C27.3179 49.2533 29.7536 54.9976 30.2051 59.7921H6.18328C5.47068 56.3823 8.94605 50.2577 12.6604 43.9783L24.5455 43.3477Z" fill="#84524D"/>
<path d="M23.1327 37.8619C26.0104 38.4615 34.2096 40.7003 35.1115 37.2477C35.8576 34.3919 27.7765 32.5638 24.9575 31.7832C24.3492 33.8094 23.7409 35.8357 23.1327 37.8619Z" fill="#E2A18D"/>
<path d="M30.0292 34.7525C30.0292 34.7525 36.4939 30.8764 38.715 29.7323C41.0477 28.5308 44.6667 27.0966 44.8608 27.6055C44.9714 27.8953 44.5183 28.193 43.2543 28.908C43.3543 28.9357 43.6366 29.0948 43.6951 29.3804C43.7816 29.8031 43.4593 29.9668 43.4378 29.9946C43.4725 30.0013 43.8636 30.0983 43.9694 30.3714C44.0886 30.6791 43.9681 30.9319 43.7832 31.1133C43.8688 31.1325 44.218 31.2739 44.3065 31.5414C44.4214 31.889 44.1543 32.194 43.8836 32.3284C43.3869 32.575 42.0127 33.2151 41.3293 33.6465C39.9843 34.4952 35.6127 38.1505 33.3446 38.8634C33.4121 36.8067 30.0292 34.7525 30.0292 34.7525Z" fill="#E2A18D"/>
<path d="M40.0863 32.3107C40.0676 32.3107 40.049 32.3039 40.0344 32.29C40.0041 32.2613 40.0028 32.2136 40.0315 32.1834C40.4162 31.7773 40.546 31.3397 40.6504 30.9882C40.7611 30.6151 40.8486 30.3204 41.1912 30.294C41.3992 30.278 41.6445 30.1528 41.9007 29.9318C41.9633 29.8778 41.9653 29.8039 41.9463 29.7527C41.9269 29.7007 41.8762 29.645 41.7919 29.645H40.0863C40.0446 29.645 40.0108 29.6113 40.0108 29.5696C40.0108 29.5279 40.0446 29.4941 40.0863 29.4941H41.7919C41.9251 29.4941 42.0412 29.575 42.0877 29.7001C42.1338 29.8242 42.0991 29.96 41.9993 30.046C41.7146 30.2917 41.4466 30.4258 41.2028 30.4445C40.9739 30.4621 40.909 30.6474 40.7951 31.0311C40.6862 31.3982 40.5506 31.8549 40.1411 32.2871C40.1262 32.3028 40.1062 32.3107 40.0863 32.3107Z" fill="#363E44"/>
<path d="M42.8853 32.5327C42.8576 32.5327 42.831 32.5174 42.8177 32.4909C42.6365 32.1284 42.7164 31.6965 42.9913 31.4204L42.8961 31.452C42.6118 31.547 42.3003 31.4251 42.1558 31.1622C42.0744 31.0143 42.0567 30.8439 42.1058 30.6823C42.1549 30.5209 42.2646 30.3892 42.4145 30.3116L42.5892 30.2213C42.4239 30.1903 42.2765 30.0791 42.2085 29.9138C42.1092 29.673 42.2065 29.3967 42.4348 29.2712L42.9821 28.9702C43.0187 28.9503 43.0646 28.9635 43.0846 29C43.1047 29.0365 43.0913 29.0824 43.0548 29.1024L42.5075 29.4034C42.3467 29.4919 42.278 29.6866 42.348 29.8564C42.4222 30.0365 42.6302 30.1256 42.8119 30.0551L43.2132 29.8989C43.2506 29.8841 43.2928 29.9016 43.3093 29.9382C43.3259 29.9748 43.3109 30.0178 43.2753 30.0363L42.4838 30.4457C42.3703 30.5044 42.2873 30.604 42.2501 30.7262C42.2129 30.8485 42.2264 30.9775 42.288 31.0896C42.3973 31.2884 42.6331 31.3807 42.8483 31.3089L43.4833 31.0973C43.5199 31.0848 43.5598 31.1024 43.5758 31.1375C43.5918 31.1726 43.5788 31.2141 43.5456 31.2338L43.2524 31.407C42.9027 31.6136 42.771 32.0602 42.9527 32.4234C42.9714 32.4607 42.9563 32.506 42.919 32.5247C42.9081 32.5301 42.8966 32.5327 42.8853 32.5327Z" fill="#363E44"/>
<path d="M6.28187 39.2627C4.61447 41.6835 -0.625338 48.3755 2.20842 50.5444C4.55236 52.3384 9.36773 45.5961 11.1794 43.2995C9.54685 41.9539 7.91438 40.6083 6.28187 39.2627Z" fill="#E2A18D"/>
<path d="M4.6395 39.9273C4.6395 39.9273 11.235 33.1856 16.4555 31.8632C20.5482 30.8265 23.9973 30.7841 29.2127 32.55L27.9527 39.5931L26.792 39.1638C27.9116 41.7444 28.5839 43.6864 29.256 45.9272L9.68689 47.2716L10.0402 45.1544L8.99477 46.108L4.6395 39.9273Z" fill="#EFBC73"/>
<path d="M23.6271 51.2559L14.7775 42.4062L3.48557 53.6981L12.3352 62.5478L23.6271 51.2559Z" fill="#DABEFF"/>
<path d="M18.8189 50.4312C18.7996 50.4312 18.7802 50.4238 18.7655 50.4091L15.3173 46.9608C15.2878 46.9314 15.2878 46.8836 15.3173 46.8541C15.3468 46.8247 15.3945 46.8247 15.424 46.8541L18.8723 50.3024C18.9017 50.3318 18.9017 50.3796 18.8723 50.4091C18.8575 50.4238 18.8382 50.4312 18.8189 50.4312Z" fill="#363E44"/>
<path d="M17.2313 52.0191C17.2119 52.0191 17.1926 52.0117 17.1779 51.9969L13.7297 48.5487C13.7002 48.5193 13.7002 48.4715 13.7297 48.442C13.7591 48.4126 13.8069 48.4126 13.8364 48.442L17.2846 51.8902C17.3141 51.9197 17.3141 51.9675 17.2846 51.9969C17.2699 52.0117 17.2506 52.0191 17.2313 52.0191Z" fill="#363E44"/>
<path d="M17.6282 50.8279C17.6089 50.8279 17.5895 50.8205 17.5748 50.8057L14.9204 48.1513C14.8909 48.1218 14.8909 48.0741 14.9204 48.0446C14.9499 48.0151 14.9976 48.0151 15.0271 48.0446L17.6815 50.699C17.711 50.7285 17.711 50.7762 17.6815 50.8057C17.6668 50.8205 17.6475 50.8279 17.6282 50.8279Z" fill="#363E44"/>
<path d="M7.9968 47.3994C10.3676 49.2938 16.1717 53.4788 16.7219 53.9099C17.7506 54.7157 19.9906 56.372 19.5949 57.1767C19.4633 57.4443 19.1535 57.6131 18.7976 57.6339C18.9065 58.0005 18.7904 58.3928 18.5065 58.6242C18.1333 58.9282 17.6731 58.7891 17.6395 58.7783C17.7605 59.0487 17.7401 59.356 17.5762 59.5703C17.35 59.8659 16.878 59.9486 16.4962 59.7097C16.4886 59.7933 16.4512 60.0903 16.2066 60.3062C15.9357 60.5454 15.5199 60.5884 15.1546 60.4132C14.24 59.698 12.6323 58.8162 10.7735 57.6442C6.40795 54.8916 4.57687 53.4811 2.7088 51.7695C1.98422 51.1057 0.934156 49.543 1.60368 47.4621C3.75185 47.4366 5.84859 47.425 7.9968 47.3994Z" fill="#E2A18D"/>
<path d="M8.8961 48.1862C8.8799 48.1862 8.86354 48.1809 8.84974 48.1702C8.24791 47.7014 7.8697 47.4055 7.65958 47.2391C7.62691 47.2133 7.62137 47.1658 7.64726 47.1331C7.67318 47.1005 7.7206 47.0949 7.75324 47.1208C7.96304 47.2869 8.34095 47.5826 8.9425 48.0511C8.97537 48.0768 8.98126 48.1242 8.95565 48.157C8.94079 48.1761 8.91853 48.1862 8.8961 48.1862Z" fill="#363E44"/>
<path d="M17.8892 56.4398C17.8713 56.4398 17.8533 56.4334 17.8389 56.4205C17.8078 56.3927 17.8052 56.345 17.833 56.314L18.2165 55.8855C18.2443 55.8545 18.292 55.8517 18.323 55.8796C18.3541 55.9074 18.3567 55.9552 18.3289 55.9862L17.9454 56.4147C17.9305 56.4313 17.9099 56.4398 17.8892 56.4398Z" fill="#363E44"/>
<path d="M16.9176 57.5286C16.8996 57.5286 16.8817 57.5222 16.8673 57.5093C16.8362 57.4815 16.8336 57.4338 16.8614 57.4027L17.2449 56.9743C17.2727 56.9433 17.3204 56.9407 17.3514 56.9684C17.3825 56.9962 17.3851 57.044 17.3573 57.075L16.9738 57.5034C16.9589 57.5201 16.9383 57.5286 16.9176 57.5286Z" fill="#363E44"/>
<path d="M15.9405 58.6477C15.9226 58.6477 15.9046 58.6413 15.8902 58.6284C15.8591 58.6007 15.8565 58.553 15.8843 58.5219L16.2678 58.0935C16.2956 58.0625 16.3433 58.0598 16.3743 58.0876C16.4054 58.1154 16.408 58.1631 16.3802 58.1941L15.9967 58.6226C15.9818 58.6392 15.9612 58.6477 15.9405 58.6477Z" fill="#363E44"/>
<path d="M15.0334 59.6448C15.0155 59.6448 14.9975 59.6384 14.9831 59.6255C14.952 59.5978 14.9494 59.55 14.9772 59.519L15.3607 59.0905C15.3885 59.0595 15.4361 59.0569 15.4672 59.0846C15.4983 59.1124 15.5009 59.1602 15.4731 59.1912L15.0896 59.6196C15.0747 59.6363 15.0541 59.6448 15.0334 59.6448Z" fill="#363E44"/>
<path d="M17.0195 34.2529C18.592 33.7841 19.7027 32.8536 19.5002 32.1745C19.2977 31.4954 17.8588 31.3249 16.2863 31.7937C14.7138 32.2625 13.6032 33.1931 13.8056 33.8722C14.0081 34.5513 15.447 34.7218 17.0195 34.2529Z" fill="#E2A18D"/>
<path d="M18.8832 29.7287C18.2247 30.571 15.3849 29.6638 15.3849 29.6638L13.1929 27.2423C12.7632 25.8009 13.5833 24.2841 15.0247 23.8545C16.466 23.4248 17.9828 24.2449 18.4125 25.6862C18.4125 25.6862 19.5539 28.8708 18.8832 29.7287Z" fill="#E2A18D"/>
<path d="M16.3464 26.2691L13.1841 27.2119L15.1511 33.8097L18.3134 32.8669L16.3464 26.2691Z" fill="#E2A18D"/>
<path d="M18.3171 26.4619C18.3171 26.4619 19.2778 27.0106 19.2992 27.2247C19.3248 27.4803 18.5533 27.8708 18.5533 27.8708C18.5533 27.8708 18.3371 26.458 18.3171 26.4619Z" fill="#E2A18D"/>
<path d="M15.9286 27.0524C15.9286 27.0524 16.2955 26.6871 16.8222 26.5301C16.9342 26.4968 16.9902 27.4565 16.8687 27.4374C16.3344 27.3536 15.9286 27.0524 15.9286 27.0524Z" fill="white"/>
<path d="M17.2499 27.4551C17.9598 27.4036 18.4993 26.8664 18.4993 26.8664C18.4993 26.8664 17.888 26.4126 17.1781 26.464C17.0538 26.473 16.9351 26.4975 16.8232 26.5308C16.6752 26.8295 16.7018 27.1716 16.8681 27.4375C16.9898 27.4566 17.1181 27.4646 17.2499 27.4551Z" fill="#363E44"/>
<path d="M17.9326 28.6062C17.8899 28.6062 17.8468 28.6002 17.8047 28.5877C17.639 28.5391 17.5127 28.397 17.4831 28.226C17.4759 28.185 17.5035 28.1459 17.5445 28.1388C17.5855 28.1318 17.6247 28.1591 17.6318 28.2002C17.6517 28.3151 17.7362 28.4104 17.8472 28.443C17.9625 28.4768 18.0878 28.4394 18.1667 28.3476C18.1939 28.3159 18.2415 28.3124 18.2731 28.3395C18.3047 28.3667 18.3083 28.4143 18.2812 28.4459C18.1925 28.5492 18.0641 28.6062 17.9326 28.6062Z" fill="#363E44"/>
<path d="M17.4952 30.198C17.4937 30.198 17.4921 30.1979 17.4905 30.1979C16.5011 30.137 15.3864 29.7838 15.3753 29.7802C15.3356 29.7675 15.3137 29.7251 15.3264 29.6854C15.3391 29.6457 15.3814 29.6236 15.4212 29.6365C15.4322 29.64 16.5295 29.9875 17.4997 30.0473C17.5413 30.0498 17.573 30.0856 17.5704 30.1272C17.568 30.1672 17.5348 30.198 17.4952 30.198Z" fill="#363E44"/>
<path d="M13.0568 28.8959C12.2791 28.5233 12.0402 26.69 12.5179 25.5157C13.1339 24.0017 14.9204 23.108 16.3638 23.2298C16.7186 23.2597 17.5294 23.4332 17.7988 23.939C18.0085 24.3328 17.6089 25.1511 16.9319 25.3863C15.9801 25.717 14.6463 25.4968 15.1393 26.5813C16.6332 29.8678 13.9112 29.3054 13.0568 28.8959Z" fill="#363E44"/>
<path d="M12.1209 31.4065C14.3523 29.1751 14.3523 25.5573 12.1209 23.3259C9.88952 21.0945 6.2717 21.0945 4.0403 23.3259C1.80891 25.5573 1.80891 29.1751 4.04031 31.4065C6.2717 33.6379 9.88952 33.6379 12.1209 31.4065Z" fill="#363E44"/>
<path d="M8.71591 30.0925C6.20318 30.0925 4.15894 28.0482 4.15894 25.5355C4.15894 23.0228 6.20318 20.9785 8.71591 20.9785C11.2286 20.9785 13.2728 23.0228 13.2728 25.5355C13.2728 28.0482 11.2286 30.0925 8.71591 30.0925ZM8.71591 21.1295C6.28639 21.1295 4.30985 23.106 4.30985 25.5355C4.30985 27.965 6.28639 29.9416 8.71591 29.9416C11.1454 29.9416 13.1219 27.965 13.1219 25.5355C13.1219 23.106 11.1454 21.1295 8.71591 21.1295Z" fill="#363E44"/>
<path d="M9.27604 32.3334C7.67791 32.3334 6.20491 31.3989 5.5234 29.9525C5.50567 29.9148 5.52183 29.8699 5.55953 29.8521C5.59716 29.8342 5.64212 29.8505 5.65997 29.8882C6.31668 31.2819 7.73609 32.1825 9.27607 32.1825C11.0361 32.1825 12.5695 31.0544 13.0917 29.3753C13.1041 29.3356 13.1466 29.3133 13.1862 29.3257C13.2259 29.3381 13.2482 29.3804 13.2358 29.4202C12.6938 31.1627 11.1025 32.3334 9.27604 32.3334Z" fill="white"/>
<path d="M17.3967 28.1464C17.1765 28.1464 16.9597 28.0625 16.774 27.9031C16.5517 27.7122 16.4002 27.435 16.3477 27.1225C16.2383 26.4722 16.5957 25.8681 17.1444 25.7758C17.4127 25.7306 17.6852 25.8126 17.9116 26.007C18.1339 26.1979 18.2853 26.4751 18.3379 26.7876C18.4473 27.4379 18.0899 28.042 17.5412 28.1343C17.493 28.1424 17.4447 28.1464 17.3967 28.1464ZM17.2881 25.9147C17.2486 25.9147 17.2089 25.918 17.1695 25.9246C16.7028 26.0031 16.4009 26.5292 16.4965 27.0974C16.5432 27.3751 16.6767 27.6207 16.8723 27.7886C17.064 27.9531 17.2927 28.0227 17.5161 27.9855C17.9828 27.907 18.2847 27.3809 18.1891 26.8127C18.1424 26.535 18.0089 26.2895 17.8132 26.1215C17.6554 25.986 17.4725 25.9147 17.2881 25.9147Z" fill="white"/>
<path d="M14.9153 27.5536C14.8818 27.5536 14.8512 27.5312 14.8423 27.4974C14.8318 27.4571 14.8558 27.4158 14.8961 27.4052L16.3153 27.0318C16.3556 27.0213 16.3968 27.0452 16.4075 27.0855C16.418 27.1258 16.394 27.167 16.3537 27.1777L14.9346 27.5511C14.9281 27.5528 14.9216 27.5536 14.9153 27.5536Z" fill="white"/>
<path d="M18.2763 26.6574C18.2614 26.6574 18.2463 26.653 18.2332 26.6438C18.199 26.6199 18.1907 26.5728 18.2146 26.5387C18.3018 26.4141 18.5452 26.2325 18.842 26.437C18.8764 26.4606 18.885 26.5076 18.8614 26.5419C18.8378 26.5762 18.7907 26.585 18.7565 26.5612C18.5072 26.3897 18.3451 26.6156 18.3383 26.6252C18.3236 26.6462 18.3002 26.6574 18.2763 26.6574Z" fill="white"/>
<path d="M35.9843 1.75136H32.4816V0H34.5695C35.3509 0 35.9843 0.633429 35.9843 1.41475V1.75136Z" fill="#84524D"/>
<path d="M33.2225 11.3166L30.2587 8.55482L27.2274 11.3166V1.31353C27.2274 0.588091 27.8155 0 28.5409 0H34.5361C33.8106 0 33.2225 0.588091 33.2225 1.31353V11.3166Z" fill="#FF562F"/>
<path d="M30.2587 3.43555L30.8004 4.53324L32.0118 4.70929L31.1353 5.56372L31.3422 6.77024L30.2587 6.20057L29.1751 6.77024L29.3821 5.56372L28.5055 4.70929L29.7169 4.53324L30.2587 3.43555Z" fill="white"/>
<path d="M33.5377 15.6279H23.4366C22.1765 15.6279 21.155 16.6494 21.155 17.9095C21.155 19.1666 22.1716 20.1861 23.4276 20.191L23.0442 22.7505L25.4455 20.1912H33.5377C34.7978 20.1912 35.8193 19.1697 35.8193 17.9095C35.8193 16.6494 34.7978 15.6279 33.5377 15.6279Z" fill="white"/>
</svg>
