<svg width="24" height="24" viewBox="0 0 24 24" fill="none" xmlns="http://www.w3.org/2000/svg">
<rect width="24" height="24" rx="12" fill="#F5EBFF"/>
<path d="M6 9.9418C6 9.22363 6.2892 8.78386 6.888 8.45027L9.354 7.07814C10.6458 6.35998 11.292 6 12 6C12.708 6 13.3542 6.35998 14.646 7.07814L17.112 8.45027C17.7102 8.78386 18 9.22363 18 9.9418C18 10.1362 18 10.234 17.979 10.3138C17.8674 10.7338 17.4864 10.8004 17.1186 10.8004H6.8814C6.5136 10.8004 6.1332 10.7344 6.021 10.3138C6 10.2334 6 10.1362 6 9.9418Z" stroke="#542980" stroke-width="0.5"/>
<path d="M11.998 9H12.0025" stroke="#542980" stroke-linecap="round" stroke-linejoin="round"/>
<path d="M7.2 10.8008V15.9005M9.6 10.8008V15.9005M14.4 10.8008V15.9005M16.8 10.8008V15.9005M16.2 15.9005H7.8C7.32261 15.9005 6.86477 16.0902 6.52721 16.4277C6.18964 16.7652 6 17.2231 6 17.7004C6 17.78 6.03161 17.8563 6.08787 17.9125C6.14413 17.9688 6.22044 18.0004 6.3 18.0004H17.7C17.7796 18.0004 17.8559 17.9688 17.9121 17.9125C17.9684 17.8563 18 17.78 18 17.7004C18 17.2231 17.8104 16.7652 17.4728 16.4277C17.1352 16.0902 16.6774 15.9005 16.2 15.9005Z" stroke="#542980" stroke-width="0.5"/>
</svg>
