<svg width="32" height="32" viewBox="0 0 32 32" fill="none" xmlns="http://www.w3.org/2000/svg">
<rect width="32" height="32" rx="16" fill="#F8F2FF"/>
<g clip-path="url(#clip0_406_9480)">
<path d="M25 16C25 11.0295 20.9705 7 16 7C11.0295 7 7 11.0295 7 16C7 20.2206 9.90592 23.7623 13.826 24.735V18.7504H11.9702V16H13.826V14.8149C13.826 11.7516 15.2123 10.3318 18.2198 10.3318C18.79 10.3318 19.7739 10.4438 20.1764 10.5554V13.0484C19.964 13.026 19.595 13.0149 19.1367 13.0149C17.661 13.0149 17.0908 13.574 17.0908 15.0273V16H20.0306L19.5255 18.7504H17.0908V24.9341C21.5472 24.3959 25.0004 20.6015 25.0004 16H25Z" fill="#0866FF"/>
<path d="M19.525 18.7506L20.0301 16.0002H17.0904V15.0275C17.0904 13.5742 17.6606 13.0151 19.1362 13.0151C19.5945 13.0151 19.9635 13.0263 20.1759 13.0486V10.5556C19.7734 10.4436 18.7896 10.332 18.2193 10.332C15.2119 10.332 13.8255 11.7519 13.8255 14.8151V16.0002H11.9697V18.7506H13.8255V24.7353C14.5218 24.9081 15.25 25.0002 15.9996 25.0002C16.3686 25.0002 16.7325 24.9776 17.09 24.9344V18.7506H19.5247H19.525Z" fill="white"/>
</g>
<defs>
<clipPath id="clip0_406_9480">
<rect width="18" height="18" fill="white" transform="translate(7 7)"/>
</clipPath>
</defs>
</svg>
