<svg width="544" height="187" viewBox="0 0 544 187" fill="none" xmlns="http://www.w3.org/2000/svg">
<path d="M544 0.0898438C480.232 79.8826 382.086 131 272 131C161.914 131 63.768 79.8825 0 0.0898438V0H544V0.0898438Z" fill="#FAF0F3"/>
<path d="M255.2 151.104L272 134.304L288.8 151.104L292.104 147.8L275.304 131L292.104 114.2L288.8 110.896L272 127.696L255.2 110.896L251.896 114.2L268.696 131L251.896 147.8L255.2 151.104ZM272.014 173C266.209 173 260.749 171.899 255.634 169.696C250.522 167.49 246.075 164.497 242.292 160.717C238.509 156.937 235.514 152.495 233.309 147.389C231.103 142.284 230 136.826 230 131.014C230 125.202 231.103 119.742 233.309 114.634C235.511 109.522 238.5 105.075 242.273 101.292C246.047 97.5089 250.491 94.5144 255.606 92.3087C260.721 90.1029 266.181 89 271.986 89C277.791 89 283.251 90.1029 288.366 92.3087C293.478 94.5113 297.925 97.5011 301.708 101.278C305.491 105.055 308.486 109.499 310.691 114.611C312.897 119.722 314 125.181 314 130.986C314 136.791 312.899 142.251 310.696 147.366C308.493 152.481 305.5 156.928 301.717 160.708C297.934 164.488 293.492 167.482 288.389 169.691C283.287 171.9 277.829 173.003 272.014 173Z" fill="#D12953"/>
</svg>
