<svg width="34" height="34" viewBox="0 0 34 34" fill="none" xmlns="http://www.w3.org/2000/svg">
<rect width="34" height="34" rx="6" fill="#542980"/>
<path d="M20 18.5C20.9946 18.5 21.9484 18.8951 22.6517 19.5983C23.3549 20.3016 23.75 21.2554 23.75 22.25V23C23.75 23.3978 23.592 23.7794 23.3107 24.0607C23.0294 24.342 22.6478 24.5 22.25 24.5H11.75C11.3522 24.5 10.9706 24.342 10.6893 24.0607C10.408 23.7794 10.25 23.3978 10.25 23V22.25C10.25 21.2554 10.6451 20.3016 11.3483 19.5983C12.0516 18.8951 13.0054 18.5 14 18.5H20ZM24.0605 14.8108C24.1952 14.6748 24.3767 14.5955 24.5679 14.589C24.7591 14.5825 24.9456 14.6493 25.0892 14.7758C25.2327 14.9024 25.3225 15.0789 25.3402 15.2695C25.3578 15.46 25.3019 15.6501 25.184 15.8007L25.121 15.872L23 17.993C22.8709 18.1221 22.699 18.1997 22.5168 18.2112C22.3345 18.2226 22.1543 18.1672 22.01 18.0553L21.9395 17.993L20.879 16.9325C20.7431 16.7978 20.6637 16.6163 20.6572 16.4251C20.6507 16.2339 20.7176 16.0474 20.8441 15.9038C20.9706 15.7603 21.1472 15.6705 21.3377 15.6528C21.5282 15.6352 21.7183 15.6911 21.869 15.809L21.9395 15.872L22.4697 16.4023L24.0605 14.8108ZM17 9.5C17.9946 9.5 18.9484 9.89509 19.6517 10.5983C20.3549 11.3016 20.75 12.2554 20.75 13.25C20.75 14.2446 20.3549 15.1984 19.6517 15.9017C18.9484 16.6049 17.9946 17 17 17C16.0054 17 15.0516 16.6049 14.3483 15.9017C13.6451 15.1984 13.25 14.2446 13.25 13.25C13.25 12.2554 13.6451 11.3016 14.3483 10.5983C15.0516 9.89509 16.0054 9.5 17 9.5Z" fill="#FEFDFF"/>
</svg>
