<svg width="665" height="608" viewBox="0 0 665 608" fill="none" xmlns="http://www.w3.org/2000/svg">
<g filter="url(#filter0_d_288_5732)">
<path d="M324.969 121.748C329.301 119.248 334.638 119.248 338.969 121.748L482.153 204.416C486.484 206.916 489.153 211.538 489.153 216.54V381.874C489.153 386.876 486.484 391.498 482.153 393.998L338.969 476.666C334.638 479.166 329.301 479.166 324.969 476.666L181.786 393.998C177.454 391.498 174.786 386.876 174.786 381.874V216.54C174.786 211.538 177.454 206.916 181.786 204.416L324.969 121.748Z" fill="url(#paint0_linear_288_5732)"/>
<path d="M325.469 122.614C329.366 120.365 334.138 120.294 338.089 122.403L338.469 122.614L481.653 205.281C485.675 207.603 488.153 211.896 488.153 216.54V381.874C488.153 386.518 485.675 390.811 481.653 393.133L338.469 475.8C334.573 478.049 329.8 478.12 325.849 476.011L325.469 475.8L182.286 393.133C178.263 390.811 175.786 386.518 175.786 381.874V216.54C175.786 211.896 178.263 207.603 182.286 205.281L325.469 122.614Z" stroke="#FFB19F" stroke-width="2"/>
</g>
<path d="M258.88 263.707V241.307H264.032V263.707H258.88ZM268.38 263.707V241.307H273.788L283.612 254.971V241.307H288.764V263.707H283.612L273.532 249.659V263.707H268.38ZM293.13 263.707V241.307H307.978V246.043H298.282V250.363H306.122V255.067H298.282V263.707H293.13ZM311.005 263.707V241.307H316.157V258.971H325.693V263.707H311.005ZM337.434 264.123C335.514 264.123 333.85 263.76 332.442 263.035C331.055 262.31 329.989 261.286 329.242 259.963C328.495 258.619 328.122 257.03 328.122 255.195V241.307H333.274V255.195C333.274 256.048 333.445 256.784 333.786 257.403C334.127 258.022 334.607 258.502 335.226 258.843C335.866 259.184 336.623 259.355 337.498 259.355C338.351 259.355 339.098 259.184 339.738 258.843C340.378 258.502 340.869 258.022 341.21 257.403C341.551 256.784 341.722 256.048 341.722 255.195V241.307H346.874V255.195C346.874 257.03 346.49 258.619 345.722 259.963C344.975 261.286 343.887 262.31 342.458 263.035C341.05 263.76 339.375 264.123 337.434 264.123ZM350.911 263.707V241.307H365.503V246.043H356.063V250.139H363.967V254.715H356.063V258.971H365.663V263.707H350.911ZM369.692 263.707V241.307H378.492C380.113 241.307 381.553 241.627 382.812 242.267C384.071 242.886 385.052 243.76 385.756 244.891C386.481 246 386.844 247.28 386.844 248.731C386.844 250.182 386.481 251.472 385.756 252.603C385.031 253.734 384.028 254.619 382.748 255.259C381.489 255.878 380.039 256.187 378.396 256.187H374.844V263.707H369.692ZM381.852 263.707L376.796 254.811L380.668 251.963L387.74 263.707H381.852ZM374.844 251.451H378.332C378.929 251.451 379.463 251.334 379.932 251.099C380.401 250.864 380.764 250.544 381.02 250.139C381.297 249.712 381.436 249.243 381.436 248.731C381.436 247.942 381.137 247.291 380.54 246.779C379.964 246.267 379.196 246.011 378.236 246.011H374.844V251.451ZM390.63 263.707V241.307H405.222V246.043H395.782V250.139H403.686V254.715H395.782V258.971H405.382V263.707H390.63Z" fill="#FF562F"/>
<line x1="318.719" y1="272.957" x2="345.219" y2="272.957" stroke="#FF562F" stroke-width="1.5" stroke-linecap="round"/>
<path d="M271.969 305.707V283.307H279.873C281.409 283.307 282.764 283.616 283.937 284.235C285.11 284.854 286.028 285.718 286.689 286.827C287.35 287.915 287.681 289.184 287.681 290.635C287.681 292.043 287.372 293.302 286.753 294.411C286.134 295.52 285.27 296.395 284.161 297.035C283.073 297.654 281.804 297.963 280.353 297.963H275.681V305.707H271.969ZM275.681 294.539H280.289C281.356 294.539 282.23 294.176 282.913 293.451C283.596 292.726 283.937 291.787 283.937 290.635C283.937 289.462 283.553 288.512 282.785 287.787C282.017 287.062 281.025 286.699 279.809 286.699H275.681V294.539ZM292.571 297.195C292.571 295.467 292.902 294.048 293.563 292.939C294.224 291.83 295.078 291.008 296.123 290.475C297.19 289.92 298.299 289.643 299.451 289.643V293.067C298.47 293.067 297.542 293.206 296.667 293.483C295.814 293.739 295.12 294.166 294.587 294.763C294.054 295.36 293.787 296.15 293.787 297.131L292.571 297.195ZM290.203 305.707V289.707H293.787V305.707H290.203ZM309.188 306.091C307.588 306.091 306.159 305.739 304.9 305.035C303.663 304.31 302.692 303.318 301.988 302.059C301.284 300.8 300.932 299.35 300.932 297.707C300.932 296.064 301.273 294.614 301.956 293.355C302.66 292.096 303.631 291.115 304.868 290.411C306.105 289.686 307.524 289.323 309.124 289.323C310.724 289.323 312.143 289.686 313.38 290.411C314.617 291.115 315.577 292.096 316.26 293.355C316.964 294.614 317.316 296.064 317.316 297.707C317.316 299.35 316.975 300.8 316.292 302.059C315.609 303.318 314.649 304.31 313.412 305.035C312.175 305.739 310.767 306.091 309.188 306.091ZM309.188 302.795C310.063 302.795 310.841 302.582 311.524 302.155C312.207 301.707 312.74 301.11 313.124 300.363C313.508 299.595 313.7 298.71 313.7 297.707C313.7 296.704 313.497 295.83 313.092 295.083C312.708 294.315 312.175 293.718 311.492 293.291C310.809 292.843 310.02 292.619 309.124 292.619C308.228 292.619 307.439 292.832 306.756 293.259C306.073 293.686 305.54 294.283 305.156 295.051C304.772 295.819 304.58 296.704 304.58 297.707C304.58 298.71 304.772 299.595 305.156 300.363C305.561 301.11 306.105 301.707 306.788 302.155C307.492 302.582 308.292 302.795 309.188 302.795ZM324.98 305.707L331.22 289.707H334.932L328.34 305.707H324.98ZM324.724 305.707L318.1 289.707H321.78L328.052 305.707H324.724ZM337.396 305.707V289.707H340.948V305.707H337.396ZM339.188 286.667C338.612 286.667 338.111 286.464 337.684 286.059C337.279 285.632 337.076 285.131 337.076 284.555C337.076 283.979 337.279 283.488 337.684 283.083C338.111 282.678 338.612 282.475 339.188 282.475C339.764 282.475 340.255 282.678 340.66 283.083C341.087 283.488 341.3 283.979 341.3 284.555C341.3 285.131 341.087 285.632 340.66 286.059C340.255 286.464 339.764 286.667 339.188 286.667ZM356.724 305.707L356.564 302.731V283.307H360.116V305.707H356.724ZM351.508 306.091C350.057 306.091 348.788 305.75 347.7 305.067C346.633 304.363 345.791 303.382 345.172 302.123C344.575 300.864 344.276 299.392 344.276 297.707C344.276 296 344.575 294.528 345.172 293.291C345.791 292.032 346.633 291.062 347.7 290.379C348.788 289.675 350.057 289.323 351.508 289.323C352.852 289.323 354.004 289.675 354.964 290.379C355.945 291.062 356.692 292.032 357.204 293.291C357.716 294.528 357.972 296 357.972 297.707C357.972 299.392 357.716 300.864 357.204 302.123C356.692 303.382 355.945 304.363 354.964 305.067C354.004 305.75 352.852 306.091 351.508 306.091ZM352.404 302.827C353.215 302.827 353.929 302.614 354.548 302.187C355.188 301.739 355.679 301.131 356.02 300.363C356.383 299.595 356.564 298.71 356.564 297.707C356.564 296.704 356.383 295.819 356.02 295.051C355.679 294.283 355.188 293.686 354.548 293.259C353.929 292.832 353.204 292.619 352.372 292.619C351.519 292.619 350.761 292.832 350.1 293.259C349.439 293.686 348.916 294.283 348.532 295.051C348.169 295.819 347.977 296.704 347.956 297.707C347.977 298.71 348.169 299.595 348.532 300.363C348.916 301.131 349.439 301.739 350.1 302.187C350.783 302.614 351.551 302.827 352.404 302.827ZM371.214 306.091C369.657 306.091 368.27 305.739 367.054 305.035C365.859 304.31 364.91 303.318 364.206 302.059C363.523 300.8 363.182 299.35 363.182 297.707C363.182 296.064 363.534 294.614 364.238 293.355C364.942 292.096 365.902 291.115 367.118 290.411C368.355 289.686 369.763 289.323 371.342 289.323C372.771 289.323 374.062 289.696 375.214 290.443C376.366 291.168 377.273 292.224 377.934 293.611C378.617 294.998 378.958 296.651 378.958 298.571H366.382L366.862 298.123C366.862 299.104 367.075 299.958 367.502 300.683C367.929 301.387 368.494 301.931 369.198 302.315C369.902 302.699 370.681 302.891 371.534 302.891C372.515 302.891 373.326 302.678 373.966 302.251C374.606 301.803 375.107 301.227 375.47 300.523L378.638 301.867C378.19 302.72 377.614 303.467 376.91 304.107C376.227 304.747 375.406 305.238 374.446 305.579C373.507 305.92 372.43 306.091 371.214 306.091ZM367.086 296.267L366.574 295.819H375.598L375.118 296.267C375.118 295.392 374.926 294.678 374.542 294.123C374.158 293.547 373.667 293.12 373.07 292.843C372.494 292.544 371.886 292.395 371.246 292.395C370.606 292.395 369.966 292.544 369.326 292.843C368.686 293.12 368.153 293.547 367.726 294.123C367.299 294.678 367.086 295.392 367.086 296.267ZM387.527 306.091C386.46 306.091 385.479 305.931 384.583 305.611C383.687 305.291 382.919 304.843 382.279 304.267C381.639 303.67 381.148 302.976 380.807 302.187L383.911 300.811C384.231 301.408 384.7 301.91 385.319 302.315C385.959 302.72 386.663 302.923 387.431 302.923C388.263 302.923 388.924 302.784 389.415 302.507C389.927 302.208 390.183 301.803 390.183 301.291C390.183 300.8 389.991 300.427 389.607 300.171C389.223 299.894 388.679 299.67 387.975 299.499L386.471 299.083C384.956 298.699 383.772 298.091 382.919 297.259C382.066 296.406 381.639 295.435 381.639 294.347C381.639 292.747 382.151 291.51 383.175 290.635C384.22 289.76 385.714 289.323 387.655 289.323C388.636 289.323 389.532 289.472 390.343 289.771C391.175 290.048 391.89 290.454 392.487 290.987C393.084 291.499 393.5 292.107 393.735 292.811L390.759 294.155C390.546 293.622 390.14 293.216 389.543 292.939C388.946 292.64 388.284 292.491 387.559 292.491C386.834 292.491 386.268 292.651 385.863 292.971C385.458 293.27 385.255 293.696 385.255 294.251C385.255 294.571 385.436 294.87 385.799 295.147C386.162 295.403 386.684 295.616 387.367 295.787L389.255 296.235C390.3 296.491 391.154 296.896 391.815 297.451C392.476 297.984 392.967 298.592 393.287 299.275C393.607 299.936 393.767 300.608 393.767 301.291C393.767 302.251 393.49 303.094 392.935 303.819C392.402 304.544 391.666 305.11 390.727 305.515C389.788 305.899 388.722 306.091 387.527 306.091Z" fill="#292A2A"/>
<path d="M217.847 328.875C216.914 328.875 216.088 328.66 215.369 328.231C214.651 327.792 214.086 327.195 213.675 326.439C213.265 325.674 213.059 324.796 213.059 323.807C213.059 322.818 213.26 321.945 213.661 321.189C214.072 320.424 214.632 319.826 215.341 319.397C216.06 318.958 216.881 318.739 217.805 318.739C218.393 318.739 218.958 318.846 219.499 319.061C220.041 319.266 220.526 319.56 220.955 319.943C221.385 320.316 221.716 320.75 221.949 321.245L220.927 321.763C220.741 321.371 220.484 321.03 220.157 320.741C219.831 320.452 219.467 320.228 219.065 320.069C218.664 319.901 218.244 319.817 217.805 319.817C217.124 319.817 216.513 319.99 215.971 320.335C215.43 320.671 215.005 321.138 214.697 321.735C214.399 322.332 214.249 323.023 214.249 323.807C214.249 324.591 214.403 325.286 214.711 325.893C215.019 326.5 215.444 326.976 215.985 327.321C216.536 327.657 217.157 327.825 217.847 327.825C218.295 327.825 218.72 327.736 219.121 327.559C219.523 327.372 219.882 327.12 220.199 326.803C220.526 326.486 220.783 326.122 220.969 325.711L222.005 326.229C221.763 326.742 221.427 327.2 220.997 327.601C220.577 328.002 220.092 328.315 219.541 328.539C219 328.763 218.435 328.875 217.847 328.875ZM226.579 328.875C225.898 328.875 225.291 328.721 224.759 328.413C224.237 328.096 223.826 327.662 223.527 327.111C223.229 326.56 223.079 325.926 223.079 325.207C223.079 324.488 223.224 323.854 223.513 323.303C223.812 322.752 224.223 322.323 224.745 322.015C225.277 321.698 225.879 321.539 226.551 321.539C227.242 321.539 227.849 321.698 228.371 322.015C228.903 322.323 229.314 322.752 229.603 323.303C229.902 323.854 230.051 324.488 230.051 325.207C230.051 325.926 229.902 326.56 229.603 327.111C229.314 327.662 228.908 328.096 228.385 328.413C227.863 328.721 227.261 328.875 226.579 328.875ZM226.579 327.839C227.046 327.839 227.452 327.727 227.797 327.503C228.143 327.279 228.413 326.971 228.609 326.579C228.815 326.187 228.917 325.73 228.917 325.207C228.917 324.684 228.815 324.227 228.609 323.835C228.413 323.443 228.138 323.135 227.783 322.911C227.429 322.687 227.018 322.575 226.551 322.575C226.094 322.575 225.688 322.687 225.333 322.911C224.988 323.135 224.713 323.443 224.507 323.835C224.311 324.227 224.213 324.684 224.213 325.207C224.213 325.72 224.311 326.178 224.507 326.579C224.713 326.971 224.993 327.279 225.347 327.503C225.711 327.727 226.122 327.839 226.579 327.839ZM231.606 328.707V321.707H232.656L232.712 322.687C232.927 322.314 233.202 322.029 233.538 321.833C233.874 321.637 234.266 321.539 234.714 321.539C235.274 321.539 235.75 321.67 236.142 321.931C236.544 322.192 236.833 322.589 237.01 323.121C237.206 322.608 237.491 322.216 237.864 321.945C238.247 321.674 238.7 321.539 239.222 321.539C240.006 321.539 240.622 321.8 241.07 322.323C241.528 322.846 241.752 323.639 241.742 324.703V328.707H240.622V325.123C240.622 324.432 240.548 323.905 240.398 323.541C240.258 323.177 240.067 322.93 239.824 322.799C239.582 322.659 239.302 322.589 238.984 322.589C238.434 322.589 238.004 322.808 237.696 323.247C237.388 323.676 237.234 324.288 237.234 325.081V328.707H236.114V325.123C236.114 324.432 236.04 323.905 235.89 323.541C235.75 323.177 235.554 322.93 235.302 322.799C235.06 322.659 234.78 322.589 234.462 322.589C233.921 322.589 233.496 322.808 233.188 323.247C232.88 323.676 232.726 324.288 232.726 325.081V328.707H231.606ZM243.585 331.507V321.707H244.635L244.705 322.995V331.507H243.585ZM247.071 328.875C246.483 328.875 245.965 328.721 245.517 328.413C245.078 328.105 244.737 327.676 244.495 327.125C244.252 326.565 244.131 325.926 244.131 325.207C244.131 324.479 244.252 323.84 244.495 323.289C244.737 322.738 245.078 322.309 245.517 322.001C245.965 321.693 246.483 321.539 247.071 321.539C247.696 321.539 248.247 321.693 248.723 322.001C249.199 322.309 249.567 322.738 249.829 323.289C250.099 323.84 250.235 324.479 250.235 325.207C250.235 325.926 250.099 326.565 249.829 327.125C249.567 327.676 249.199 328.105 248.723 328.413C248.247 328.721 247.696 328.875 247.071 328.875ZM246.819 327.853C247.257 327.853 247.645 327.741 247.981 327.517C248.326 327.293 248.597 326.98 248.793 326.579C248.998 326.178 249.101 325.72 249.101 325.207C249.101 324.694 249.003 324.236 248.807 323.835C248.62 323.434 248.354 323.121 248.009 322.897C247.663 322.673 247.271 322.561 246.833 322.561C246.422 322.561 246.053 322.673 245.727 322.897C245.409 323.121 245.157 323.434 244.971 323.835C244.793 324.236 244.705 324.694 244.705 325.207C244.705 325.72 244.793 326.178 244.971 326.579C245.157 326.98 245.409 327.293 245.727 327.517C246.044 327.741 246.408 327.853 246.819 327.853ZM252.402 324.913C252.402 324.157 252.547 323.546 252.836 323.079C253.125 322.603 253.494 322.253 253.942 322.029C254.399 321.796 254.88 321.679 255.384 321.679V322.729C254.973 322.729 254.577 322.799 254.194 322.939C253.821 323.07 253.513 323.289 253.27 323.597C253.027 323.905 252.906 324.325 252.906 324.857L252.402 324.913ZM251.786 328.707V321.707H252.906V328.707H251.786ZM259.583 328.875C258.901 328.875 258.299 328.721 257.777 328.413C257.254 328.096 256.843 327.662 256.545 327.111C256.255 326.56 256.111 325.926 256.111 325.207C256.111 324.488 256.255 323.854 256.545 323.303C256.843 322.752 257.249 322.323 257.763 322.015C258.285 321.698 258.883 321.539 259.555 321.539C260.208 321.539 260.773 321.702 261.249 322.029C261.725 322.346 262.093 322.794 262.355 323.373C262.616 323.952 262.747 324.633 262.747 325.417H256.965L257.245 325.179C257.245 325.739 257.343 326.22 257.539 326.621C257.744 327.022 258.029 327.33 258.393 327.545C258.757 327.75 259.172 327.853 259.639 327.853C260.133 327.853 260.549 327.736 260.885 327.503C261.23 327.27 261.496 326.962 261.683 326.579L262.649 327.069C262.471 327.433 262.233 327.75 261.935 328.021C261.645 328.292 261.3 328.502 260.899 328.651C260.507 328.8 260.068 328.875 259.583 328.875ZM257.315 324.703L257.021 324.479H261.851L261.557 324.717C261.557 324.269 261.468 323.882 261.291 323.555C261.113 323.228 260.875 322.976 260.577 322.799C260.278 322.622 259.933 322.533 259.541 322.533C259.158 322.533 258.794 322.622 258.449 322.799C258.113 322.976 257.837 323.228 257.623 323.555C257.417 323.872 257.315 324.255 257.315 324.703ZM264.159 328.707V318.907H265.279V328.707H264.159ZM269.087 328.707V325.123H270.207V328.707H269.087ZM269.087 325.123C269.087 324.432 269.003 323.905 268.835 323.541C268.676 323.177 268.457 322.93 268.177 322.799C267.897 322.659 267.58 322.589 267.225 322.589C266.609 322.589 266.128 322.808 265.783 323.247C265.447 323.676 265.279 324.288 265.279 325.081H264.733C264.733 324.344 264.84 323.709 265.055 323.177C265.279 322.645 265.596 322.239 266.007 321.959C266.418 321.679 266.912 321.539 267.491 321.539C268.032 321.539 268.508 321.651 268.919 321.875C269.33 322.09 269.647 322.435 269.871 322.911C270.104 323.387 270.216 324.012 270.207 324.787V325.123H269.087ZM275.032 328.875C274.35 328.875 273.748 328.721 273.226 328.413C272.703 328.096 272.292 327.662 271.994 327.111C271.704 326.56 271.56 325.926 271.56 325.207C271.56 324.488 271.704 323.854 271.994 323.303C272.292 322.752 272.698 322.323 273.212 322.015C273.734 321.698 274.332 321.539 275.004 321.539C275.657 321.539 276.222 321.702 276.698 322.029C277.174 322.346 277.542 322.794 277.804 323.373C278.065 323.952 278.196 324.633 278.196 325.417H272.414L272.694 325.179C272.694 325.739 272.792 326.22 272.988 326.621C273.193 327.022 273.478 327.33 273.842 327.545C274.206 327.75 274.621 327.853 275.088 327.853C275.582 327.853 275.998 327.736 276.334 327.503C276.679 327.27 276.945 326.962 277.132 326.579L278.098 327.069C277.92 327.433 277.682 327.75 277.384 328.021C277.094 328.292 276.749 328.502 276.348 328.651C275.956 328.8 275.517 328.875 275.032 328.875ZM272.764 324.703L272.47 324.479H277.3L277.006 324.717C277.006 324.269 276.917 323.882 276.74 323.555C276.562 323.228 276.324 322.976 276.026 322.799C275.727 322.622 275.382 322.533 274.99 322.533C274.607 322.533 274.243 322.622 273.898 322.799C273.562 322.976 273.286 323.228 273.072 323.555C272.866 323.872 272.764 324.255 272.764 324.703ZM279.608 328.707V321.707H280.658L280.728 322.995V328.707H279.608ZM284.522 328.707V325.123H285.642V328.707H284.522ZM284.522 325.123C284.522 324.432 284.443 323.905 284.284 323.541C284.126 323.177 283.906 322.93 283.626 322.799C283.346 322.659 283.029 322.589 282.674 322.589C282.058 322.589 281.578 322.808 281.232 323.247C280.896 323.676 280.728 324.288 280.728 325.081H280.182C280.182 324.344 280.29 323.709 280.504 323.177C280.719 322.645 281.032 322.239 281.442 321.959C281.853 321.679 282.348 321.539 282.926 321.539C283.477 321.539 283.953 321.651 284.354 321.875C284.765 322.09 285.082 322.435 285.306 322.911C285.54 323.387 285.652 324.012 285.642 324.787V325.123H284.522ZM289.865 328.875C289.352 328.875 288.904 328.8 288.521 328.651C288.138 328.492 287.816 328.287 287.555 328.035C287.303 327.783 287.121 327.508 287.009 327.209L287.989 326.803C288.148 327.12 288.386 327.377 288.703 327.573C289.02 327.769 289.37 327.867 289.753 327.867C290.192 327.867 290.56 327.783 290.859 327.615C291.158 327.438 291.307 327.19 291.307 326.873C291.307 326.584 291.195 326.35 290.971 326.173C290.756 325.996 290.434 325.851 290.005 325.739L289.333 325.557C288.698 325.389 288.204 325.137 287.849 324.801C287.494 324.456 287.317 324.068 287.317 323.639C287.317 322.976 287.532 322.463 287.961 322.099C288.4 321.726 289.048 321.539 289.907 321.539C290.318 321.539 290.691 321.6 291.027 321.721C291.363 321.842 291.652 322.015 291.895 322.239C292.138 322.454 292.315 322.71 292.427 323.009L291.447 323.443C291.326 323.126 291.125 322.897 290.845 322.757C290.565 322.617 290.224 322.547 289.823 322.547C289.394 322.547 289.058 322.64 288.815 322.827C288.572 323.004 288.451 323.256 288.451 323.583C288.451 323.77 288.549 323.947 288.745 324.115C288.95 324.274 289.249 324.404 289.641 324.507L290.341 324.689C290.798 324.801 291.181 324.969 291.489 325.193C291.797 325.408 292.03 325.655 292.189 325.935C292.348 326.215 292.427 326.514 292.427 326.831C292.427 327.251 292.315 327.615 292.091 327.923C291.867 328.231 291.564 328.469 291.181 328.637C290.798 328.796 290.36 328.875 289.865 328.875ZM294.006 328.707V321.707H295.126V328.707H294.006ZM294.58 320.083C294.394 320.083 294.23 320.013 294.09 319.873C293.95 319.733 293.88 319.57 293.88 319.383C293.88 319.187 293.95 319.024 294.09 318.893C294.23 318.753 294.394 318.683 294.58 318.683C294.776 318.683 294.94 318.753 295.07 318.893C295.21 319.024 295.28 319.187 295.28 319.383C295.28 319.57 295.21 319.733 295.07 319.873C294.94 320.013 294.776 320.083 294.58 320.083ZM299.332 328.707L302.188 321.707H303.364L300.438 328.707H299.332ZM299.262 328.707L296.336 321.707H297.498L300.354 328.707H299.262ZM307.366 328.875C306.684 328.875 306.082 328.721 305.56 328.413C305.037 328.096 304.626 327.662 304.328 327.111C304.038 326.56 303.894 325.926 303.894 325.207C303.894 324.488 304.038 323.854 304.328 323.303C304.626 322.752 305.032 322.323 305.546 322.015C306.068 321.698 306.666 321.539 307.338 321.539C307.991 321.539 308.556 321.702 309.032 322.029C309.508 322.346 309.876 322.794 310.138 323.373C310.399 323.952 310.53 324.633 310.53 325.417H304.748L305.028 325.179C305.028 325.739 305.126 326.22 305.322 326.621C305.527 327.022 305.812 327.33 306.176 327.545C306.54 327.75 306.955 327.853 307.422 327.853C307.916 327.853 308.332 327.736 308.668 327.503C309.013 327.27 309.279 326.962 309.466 326.579L310.432 327.069C310.254 327.433 310.016 327.75 309.718 328.021C309.428 328.292 309.083 328.502 308.682 328.651C308.29 328.8 307.851 328.875 307.366 328.875ZM305.098 324.703L304.804 324.479H309.634L309.34 324.717C309.34 324.269 309.251 323.882 309.074 323.555C308.896 323.228 308.658 322.976 308.36 322.799C308.061 322.622 307.716 322.533 307.324 322.533C306.941 322.533 306.577 322.622 306.232 322.799C305.896 322.976 305.62 323.228 305.406 323.555C305.2 323.872 305.098 324.255 305.098 324.703ZM318.859 328.875C318.318 328.875 317.837 328.819 317.417 328.707C316.997 328.586 316.633 328.422 316.325 328.217C316.017 328.002 315.765 327.769 315.569 327.517C315.373 327.256 315.229 326.98 315.135 326.691L316.269 326.299C316.409 326.71 316.689 327.069 317.109 327.377C317.539 327.676 318.061 327.825 318.677 327.825C319.433 327.825 320.026 327.676 320.455 327.377C320.885 327.078 321.099 326.682 321.099 326.187C321.099 325.73 320.908 325.361 320.525 325.081C320.143 324.792 319.639 324.568 319.013 324.409L317.935 324.129C317.497 324.017 317.091 323.854 316.717 323.639C316.353 323.415 316.059 323.135 315.835 322.799C315.621 322.454 315.513 322.043 315.513 321.567C315.513 320.68 315.798 319.99 316.367 319.495C316.946 318.991 317.777 318.739 318.859 318.739C319.503 318.739 320.059 318.846 320.525 319.061C320.992 319.266 321.37 319.532 321.659 319.859C321.958 320.176 322.168 320.522 322.289 320.895L321.169 321.287C320.992 320.82 320.693 320.456 320.273 320.195C319.853 319.924 319.345 319.789 318.747 319.789C318.122 319.789 317.623 319.943 317.249 320.251C316.885 320.55 316.703 320.96 316.703 321.483C316.703 321.931 316.848 322.276 317.137 322.519C317.427 322.752 317.805 322.925 318.271 323.037L319.349 323.303C320.301 323.527 321.029 323.9 321.533 324.423C322.047 324.936 322.303 325.492 322.303 326.089C322.303 326.602 322.173 327.074 321.911 327.503C321.65 327.923 321.263 328.259 320.749 328.511C320.245 328.754 319.615 328.875 318.859 328.875ZM328.803 328.707L328.733 327.419V321.707H329.853V328.707H328.803ZM323.819 325.291V321.707H324.939V325.291H323.819ZM324.939 325.291C324.939 325.982 325.018 326.509 325.177 326.873C325.336 327.237 325.555 327.489 325.835 327.629C326.124 327.76 326.446 327.825 326.801 327.825C327.408 327.825 327.879 327.606 328.215 327.167C328.56 326.728 328.733 326.117 328.733 325.333H329.279C329.279 326.07 329.172 326.705 328.957 327.237C328.742 327.769 328.43 328.175 328.019 328.455C327.618 328.735 327.123 328.875 326.535 328.875C325.994 328.875 325.518 328.768 325.107 328.553C324.696 328.329 324.379 327.979 324.155 327.503C323.931 327.018 323.819 326.392 323.819 325.627V325.291H324.939ZM331.878 331.507V321.707H332.928L332.998 322.995V331.507H331.878ZM335.364 328.875C334.776 328.875 334.258 328.721 333.81 328.413C333.371 328.105 333.03 327.676 332.788 327.125C332.545 326.565 332.424 325.926 332.424 325.207C332.424 324.479 332.545 323.84 332.788 323.289C333.03 322.738 333.371 322.309 333.81 322.001C334.258 321.693 334.776 321.539 335.364 321.539C335.989 321.539 336.54 321.693 337.016 322.001C337.492 322.309 337.86 322.738 338.122 323.289C338.392 323.84 338.528 324.479 338.528 325.207C338.528 325.926 338.392 326.565 338.122 327.125C337.86 327.676 337.492 328.105 337.016 328.413C336.54 328.721 335.989 328.875 335.364 328.875ZM335.112 327.853C335.55 327.853 335.938 327.741 336.274 327.517C336.619 327.293 336.89 326.98 337.086 326.579C337.291 326.178 337.394 325.72 337.394 325.207C337.394 324.694 337.296 324.236 337.1 323.835C336.913 323.434 336.647 323.121 336.302 322.897C335.956 322.673 335.564 322.561 335.126 322.561C334.715 322.561 334.346 322.673 334.02 322.897C333.702 323.121 333.45 323.434 333.264 323.835C333.086 324.236 332.998 324.694 332.998 325.207C332.998 325.72 333.086 326.178 333.264 326.579C333.45 326.98 333.702 327.293 334.02 327.517C334.337 327.741 334.701 327.853 335.112 327.853ZM340.149 331.507V321.707H341.199L341.269 322.995V331.507H340.149ZM343.635 328.875C343.047 328.875 342.529 328.721 342.081 328.413C341.642 328.105 341.302 327.676 341.059 327.125C340.816 326.565 340.695 325.926 340.695 325.207C340.695 324.479 340.816 323.84 341.059 323.289C341.302 322.738 341.642 322.309 342.081 322.001C342.529 321.693 343.047 321.539 343.635 321.539C344.26 321.539 344.811 321.693 345.287 322.001C345.763 322.309 346.132 322.738 346.393 323.289C346.664 323.84 346.799 324.479 346.799 325.207C346.799 325.926 346.664 326.565 346.393 327.125C346.132 327.676 345.763 328.105 345.287 328.413C344.811 328.721 344.26 328.875 343.635 328.875ZM343.383 327.853C343.822 327.853 344.209 327.741 344.545 327.517C344.89 327.293 345.161 326.98 345.357 326.579C345.562 326.178 345.665 325.72 345.665 325.207C345.665 324.694 345.567 324.236 345.371 323.835C345.184 323.434 344.918 323.121 344.573 322.897C344.228 322.673 343.836 322.561 343.397 322.561C342.986 322.561 342.618 322.673 342.291 322.897C341.974 323.121 341.722 323.434 341.535 323.835C341.358 324.236 341.269 324.694 341.269 325.207C341.269 325.72 341.358 326.178 341.535 326.579C341.722 326.98 341.974 327.293 342.291 327.517C342.608 327.741 342.972 327.853 343.383 327.853ZM351.445 328.875C350.763 328.875 350.157 328.721 349.625 328.413C349.102 328.096 348.691 327.662 348.393 327.111C348.094 326.56 347.945 325.926 347.945 325.207C347.945 324.488 348.089 323.854 348.379 323.303C348.677 322.752 349.088 322.323 349.611 322.015C350.143 321.698 350.745 321.539 351.417 321.539C352.107 321.539 352.714 321.698 353.237 322.015C353.769 322.323 354.179 322.752 354.469 323.303C354.767 323.854 354.917 324.488 354.917 325.207C354.917 325.926 354.767 326.56 354.469 327.111C354.179 327.662 353.773 328.096 353.251 328.413C352.728 328.721 352.126 328.875 351.445 328.875ZM351.445 327.839C351.911 327.839 352.317 327.727 352.663 327.503C353.008 327.279 353.279 326.971 353.475 326.579C353.68 326.187 353.783 325.73 353.783 325.207C353.783 324.684 353.68 324.227 353.475 323.835C353.279 323.443 353.003 323.135 352.649 322.911C352.294 322.687 351.883 322.575 351.417 322.575C350.959 322.575 350.553 322.687 350.199 322.911C349.853 323.135 349.578 323.443 349.373 323.835C349.177 324.227 349.079 324.684 349.079 325.207C349.079 325.72 349.177 326.178 349.373 326.579C349.578 326.971 349.858 327.279 350.213 327.503C350.577 327.727 350.987 327.839 351.445 327.839ZM357.088 324.913C357.088 324.157 357.232 323.546 357.522 323.079C357.811 322.603 358.18 322.253 358.628 322.029C359.085 321.796 359.566 321.679 360.07 321.679V322.729C359.659 322.729 359.262 322.799 358.88 322.939C358.506 323.07 358.198 323.289 357.956 323.597C357.713 323.905 357.592 324.325 357.592 324.857L357.088 324.913ZM356.472 328.707V321.707H357.592V328.707H356.472ZM363.834 328.875C363.153 328.875 362.625 328.698 362.252 328.343C361.879 327.988 361.692 327.489 361.692 326.845V319.523H362.812V326.733C362.812 327.088 362.905 327.363 363.092 327.559C363.288 327.746 363.559 327.839 363.904 327.839C364.016 327.839 364.123 327.825 364.226 327.797C364.338 327.76 364.483 327.676 364.66 327.545L365.094 328.455C364.851 328.614 364.632 328.721 364.436 328.777C364.24 328.842 364.039 328.875 363.834 328.875ZM360.474 322.701V321.707H364.912V322.701H360.474ZM372.248 328.707V319.985H369.126V318.907H376.546V319.985H373.424V328.707H372.248ZM379.909 328.875C379.228 328.875 378.621 328.721 378.089 328.413C377.567 328.096 377.156 327.662 376.857 327.111C376.559 326.56 376.409 325.926 376.409 325.207C376.409 324.488 376.554 323.854 376.843 323.303C377.142 322.752 377.553 322.323 378.075 322.015C378.607 321.698 379.209 321.539 379.881 321.539C380.572 321.539 381.179 321.698 381.701 322.015C382.233 322.323 382.644 322.752 382.933 323.303C383.232 323.854 383.381 324.488 383.381 325.207C383.381 325.926 383.232 326.56 382.933 327.111C382.644 327.662 382.238 328.096 381.715 328.413C381.193 328.721 380.591 328.875 379.909 328.875ZM379.909 327.839C380.376 327.839 380.782 327.727 381.127 327.503C381.473 327.279 381.743 326.971 381.939 326.579C382.145 326.187 382.247 325.73 382.247 325.207C382.247 324.684 382.145 324.227 381.939 323.835C381.743 323.443 381.468 323.135 381.113 322.911C380.759 322.687 380.348 322.575 379.881 322.575C379.424 322.575 379.018 322.687 378.663 322.911C378.318 323.135 378.043 323.443 377.837 323.835C377.641 324.227 377.543 324.684 377.543 325.207C377.543 325.72 377.641 326.178 377.837 326.579C378.043 326.971 378.323 327.279 378.677 327.503C379.041 327.727 379.452 327.839 379.909 327.839ZM388.717 328.707V318.907H391.699C392.623 318.907 393.435 319.117 394.135 319.537C394.845 319.948 395.4 320.522 395.801 321.259C396.203 321.996 396.403 322.846 396.403 323.807C396.403 324.759 396.203 325.604 395.801 326.341C395.4 327.078 394.845 327.657 394.135 328.077C393.435 328.497 392.623 328.707 391.699 328.707H388.717ZM389.907 327.615H391.699C392.194 327.615 392.651 327.522 393.071 327.335C393.491 327.139 393.86 326.864 394.177 326.509C394.504 326.154 394.756 325.748 394.933 325.291C395.12 324.824 395.213 324.33 395.213 323.807C395.213 323.284 395.12 322.794 394.933 322.337C394.756 321.87 394.504 321.46 394.177 321.105C393.86 320.75 393.491 320.48 393.071 320.293C392.651 320.097 392.194 319.999 391.699 319.999H389.907V327.615ZM398.65 324.913C398.65 324.157 398.795 323.546 399.084 323.079C399.373 322.603 399.742 322.253 400.19 322.029C400.647 321.796 401.128 321.679 401.632 321.679V322.729C401.221 322.729 400.825 322.799 400.442 322.939C400.069 323.07 399.761 323.289 399.518 323.597C399.275 323.905 399.154 324.325 399.154 324.857L398.65 324.913ZM398.034 328.707V321.707H399.154V328.707H398.034ZM402.835 328.707V321.707H403.955V328.707H402.835ZM403.409 320.083C403.222 320.083 403.059 320.013 402.919 319.873C402.779 319.733 402.709 319.57 402.709 319.383C402.709 319.187 402.779 319.024 402.919 318.893C403.059 318.753 403.222 318.683 403.409 318.683C403.605 318.683 403.768 318.753 403.899 318.893C404.039 319.024 404.109 319.187 404.109 319.383C404.109 319.57 404.039 319.733 403.899 319.873C403.768 320.013 403.605 320.083 403.409 320.083ZM408.16 328.707L411.016 321.707H412.192L409.266 328.707H408.16ZM408.09 328.707L405.164 321.707H406.326L409.182 328.707H408.09ZM416.194 328.875C415.513 328.875 414.911 328.721 414.388 328.413C413.865 328.096 413.455 327.662 413.156 327.111C412.867 326.56 412.722 325.926 412.722 325.207C412.722 324.488 412.867 323.854 413.156 323.303C413.455 322.752 413.861 322.323 414.374 322.015C414.897 321.698 415.494 321.539 416.166 321.539C416.819 321.539 417.384 321.702 417.86 322.029C418.336 322.346 418.705 322.794 418.966 323.373C419.227 323.952 419.358 324.633 419.358 325.417H413.576L413.856 325.179C413.856 325.739 413.954 326.22 414.15 326.621C414.355 327.022 414.64 327.33 415.004 327.545C415.368 327.75 415.783 327.853 416.25 327.853C416.745 327.853 417.16 327.736 417.496 327.503C417.841 327.27 418.107 326.962 418.294 326.579L419.26 327.069C419.083 327.433 418.845 327.75 418.546 328.021C418.257 328.292 417.911 328.502 417.51 328.651C417.118 328.8 416.679 328.875 416.194 328.875ZM413.926 324.703L413.632 324.479H418.462L418.168 324.717C418.168 324.269 418.079 323.882 417.902 323.555C417.725 323.228 417.487 322.976 417.188 322.799C416.889 322.622 416.544 322.533 416.152 322.533C415.769 322.533 415.405 322.622 415.06 322.799C414.724 322.976 414.449 323.228 414.234 323.555C414.029 323.872 413.926 324.255 413.926 324.703ZM428.051 324.633L427.029 324.143L430.221 318.907H431.579L428.051 324.633ZM426.889 328.707V324.003H428.065V328.707H426.889ZM426.903 324.633L423.375 318.907H424.747L427.925 324.143L426.903 324.633ZM434.939 328.875C434.257 328.875 433.651 328.721 433.119 328.413C432.596 328.096 432.185 327.662 431.887 327.111C431.588 326.56 431.439 325.926 431.439 325.207C431.439 324.488 431.583 323.854 431.873 323.303C432.171 322.752 432.582 322.323 433.105 322.015C433.637 321.698 434.239 321.539 434.911 321.539C435.601 321.539 436.208 321.698 436.731 322.015C437.263 322.323 437.673 322.752 437.963 323.303C438.261 323.854 438.411 324.488 438.411 325.207C438.411 325.926 438.261 326.56 437.963 327.111C437.673 327.662 437.267 328.096 436.745 328.413C436.222 328.721 435.62 328.875 434.939 328.875ZM434.939 327.839C435.405 327.839 435.811 327.727 436.157 327.503C436.502 327.279 436.773 326.971 436.969 326.579C437.174 326.187 437.277 325.73 437.277 325.207C437.277 324.684 437.174 324.227 436.969 323.835C436.773 323.443 436.497 323.135 436.143 322.911C435.788 322.687 435.377 322.575 434.911 322.575C434.453 322.575 434.047 322.687 433.693 322.911C433.347 323.135 433.072 323.443 432.867 323.835C432.671 324.227 432.573 324.684 432.573 325.207C432.573 325.72 432.671 326.178 432.867 326.579C433.072 326.971 433.352 327.279 433.707 327.503C434.071 327.727 434.481 327.839 434.939 327.839ZM444.768 328.707L444.698 327.419V321.707H445.818V328.707H444.768ZM439.784 325.291V321.707H440.904V325.291H439.784ZM440.904 325.291C440.904 325.982 440.983 326.509 441.142 326.873C441.3 327.237 441.52 327.489 441.8 327.629C442.089 327.76 442.411 327.825 442.766 327.825C443.372 327.825 443.844 327.606 444.18 327.167C444.525 326.728 444.698 326.117 444.698 325.333H445.244C445.244 326.07 445.136 326.705 444.922 327.237C444.707 327.769 444.394 328.175 443.984 328.455C443.582 328.735 443.088 328.875 442.5 328.875C441.958 328.875 441.482 328.768 441.072 328.553C440.661 328.329 440.344 327.979 440.12 327.503C439.896 327.018 439.784 326.392 439.784 325.627V325.291H440.904ZM448.388 324.913C448.388 324.157 448.533 323.546 448.822 323.079C449.112 322.603 449.48 322.253 449.928 322.029C450.386 321.796 450.866 321.679 451.37 321.679V322.729C450.96 322.729 450.563 322.799 450.18 322.939C449.807 323.07 449.499 323.289 449.256 323.597C449.014 323.905 448.892 324.325 448.892 324.857L448.388 324.913ZM447.772 328.707V321.707H448.892V328.707H447.772ZM212.782 345.875C211.784 345.875 210.902 345.66 210.136 345.231C209.371 344.792 208.769 344.195 208.33 343.439C207.901 342.674 207.686 341.801 207.686 340.821C207.686 339.822 207.901 338.945 208.33 338.189C208.769 337.424 209.371 336.826 210.136 336.397C210.902 335.958 211.784 335.739 212.782 335.739C213.305 335.739 213.814 335.828 214.308 336.005C214.803 336.173 215.256 336.406 215.666 336.705C216.077 337.004 216.408 337.344 216.66 337.727L215.722 338.371C215.536 338.072 215.284 337.806 214.966 337.573C214.649 337.33 214.299 337.144 213.916 337.013C213.543 336.882 213.165 336.817 212.782 336.817C212.026 336.817 211.354 336.99 210.766 337.335C210.178 337.671 209.716 338.138 209.38 338.735C209.044 339.332 208.876 340.028 208.876 340.821C208.876 341.586 209.04 342.272 209.366 342.879C209.702 343.476 210.164 343.948 210.752 344.293C211.35 344.638 212.026 344.811 212.782 344.811C213.417 344.811 213.977 344.68 214.462 344.419C214.957 344.148 215.344 343.78 215.624 343.313C215.904 342.837 216.044 342.291 216.044 341.675L217.178 341.591C217.178 342.45 216.992 343.201 216.618 343.845C216.245 344.48 215.727 344.979 215.064 345.343C214.402 345.698 213.641 345.875 212.782 345.875ZM213.636 341.731V340.709H217.178V341.633L216.618 341.731H213.636ZM219.275 341.913C219.275 341.157 219.42 340.546 219.709 340.079C219.998 339.603 220.367 339.253 220.815 339.029C221.272 338.796 221.753 338.679 222.257 338.679V339.729C221.846 339.729 221.45 339.799 221.067 339.939C220.694 340.07 220.386 340.289 220.143 340.597C219.9 340.905 219.779 341.325 219.779 341.857L219.275 341.913ZM218.659 345.707V338.707H219.779V345.707H218.659ZM226.484 345.875C225.802 345.875 225.196 345.721 224.664 345.413C224.141 345.096 223.73 344.662 223.432 344.111C223.133 343.56 222.984 342.926 222.984 342.207C222.984 341.488 223.128 340.854 223.418 340.303C223.716 339.752 224.127 339.323 224.65 339.015C225.182 338.698 225.784 338.539 226.456 338.539C227.146 338.539 227.753 338.698 228.276 339.015C228.808 339.323 229.218 339.752 229.508 340.303C229.806 340.854 229.956 341.488 229.956 342.207C229.956 342.926 229.806 343.56 229.508 344.111C229.218 344.662 228.812 345.096 228.29 345.413C227.767 345.721 227.165 345.875 226.484 345.875ZM226.484 344.839C226.95 344.839 227.356 344.727 227.702 344.503C228.047 344.279 228.318 343.971 228.514 343.579C228.719 343.187 228.822 342.73 228.822 342.207C228.822 341.684 228.719 341.227 228.514 340.835C228.318 340.443 228.042 340.135 227.688 339.911C227.333 339.687 226.922 339.575 226.456 339.575C225.998 339.575 225.592 339.687 225.238 339.911C224.892 340.135 224.617 340.443 224.412 340.835C224.216 341.227 224.118 341.684 224.118 342.207C224.118 342.72 224.216 343.178 224.412 343.579C224.617 343.971 224.897 344.279 225.252 344.503C225.616 344.727 226.026 344.839 226.484 344.839ZM237.689 345.707L240.055 338.707H241.189L238.809 345.707H237.689ZM232.929 345.707L235.295 338.707H236.345L234.007 345.707H232.929ZM232.873 345.707L230.493 338.707H231.627L233.965 345.707H232.873ZM237.689 345.707L235.351 338.707H236.415L238.753 345.707H237.689ZM244.943 345.875C244.262 345.875 243.735 345.698 243.361 345.343C242.988 344.988 242.801 344.489 242.801 343.845V336.523H243.921V343.733C243.921 344.088 244.015 344.363 244.201 344.559C244.397 344.746 244.668 344.839 245.013 344.839C245.125 344.839 245.233 344.825 245.335 344.797C245.447 344.76 245.592 344.676 245.769 344.545L246.203 345.455C245.961 345.614 245.741 345.721 245.545 345.777C245.349 345.842 245.149 345.875 244.943 345.875ZM241.583 339.701V338.707H246.021V339.701H241.583ZM247.602 345.707V335.907H248.722V345.707H247.602ZM252.53 345.707V342.123H253.65V345.707H252.53ZM252.53 342.123C252.53 341.432 252.446 340.905 252.278 340.541C252.12 340.177 251.9 339.93 251.62 339.799C251.34 339.659 251.023 339.589 250.668 339.589C250.052 339.589 249.572 339.808 249.226 340.247C248.89 340.676 248.722 341.288 248.722 342.081H248.176C248.176 341.344 248.284 340.709 248.498 340.177C248.722 339.645 249.04 339.239 249.45 338.959C249.861 338.679 250.356 338.539 250.934 338.539C251.476 338.539 251.952 338.651 252.362 338.875C252.773 339.09 253.09 339.435 253.314 339.911C253.548 340.387 253.66 341.012 253.65 341.787V342.123H252.53ZM255.941 342.865L255.899 335.907H257.117L257.089 342.865H255.941ZM256.515 345.903C256.3 345.903 256.114 345.828 255.955 345.679C255.806 345.53 255.731 345.348 255.731 345.133C255.731 344.918 255.806 344.736 255.955 344.587C256.114 344.428 256.3 344.349 256.515 344.349C256.73 344.349 256.912 344.428 257.061 344.587C257.21 344.736 257.285 344.918 257.285 345.133C257.285 345.348 257.21 345.53 257.061 345.679C256.912 345.828 256.73 345.903 256.515 345.903ZM267.532 345.875C266.589 345.875 265.754 345.66 265.026 345.231C264.298 344.802 263.729 344.204 263.318 343.439C262.907 342.674 262.702 341.796 262.702 340.807C262.702 339.808 262.903 338.931 263.304 338.175C263.715 337.41 264.279 336.812 264.998 336.383C265.717 335.954 266.547 335.739 267.49 335.739C268.433 335.739 269.263 335.958 269.982 336.397C270.71 336.826 271.275 337.424 271.676 338.189C272.077 338.945 272.278 339.818 272.278 340.807C272.278 341.796 272.077 342.674 271.676 343.439C271.275 344.204 270.715 344.802 269.996 345.231C269.287 345.66 268.465 345.875 267.532 345.875ZM267.532 344.797C268.232 344.797 268.848 344.629 269.38 344.293C269.912 343.948 270.327 343.476 270.626 342.879C270.934 342.282 271.088 341.591 271.088 340.807C271.088 340.032 270.934 339.346 270.626 338.749C270.318 338.142 269.893 337.671 269.352 337.335C268.82 336.99 268.199 336.817 267.49 336.817C266.79 336.817 266.169 336.99 265.628 337.335C265.087 337.671 264.662 338.142 264.354 338.749C264.046 339.346 263.892 340.032 263.892 340.807C263.892 341.591 264.046 342.282 264.354 342.879C264.662 343.476 265.091 343.948 265.642 344.293C266.193 344.629 266.823 344.797 267.532 344.797ZM278.709 345.707L278.639 344.419V338.707H279.759V345.707H278.709ZM273.725 342.291V338.707H274.845V342.291H273.725ZM274.845 342.291C274.845 342.982 274.924 343.509 275.083 343.873C275.242 344.237 275.461 344.489 275.741 344.629C276.03 344.76 276.352 344.825 276.707 344.825C277.314 344.825 277.785 344.606 278.121 344.167C278.466 343.728 278.639 343.117 278.639 342.333H279.185C279.185 343.07 279.078 343.705 278.863 344.237C278.648 344.769 278.336 345.175 277.925 345.455C277.524 345.735 277.029 345.875 276.441 345.875C275.9 345.875 275.424 345.768 275.013 345.553C274.602 345.329 274.285 344.979 274.061 344.503C273.837 344.018 273.725 343.392 273.725 342.627V342.291H274.845ZM282.33 341.913C282.33 341.157 282.474 340.546 282.764 340.079C283.053 339.603 283.422 339.253 283.87 339.029C284.327 338.796 284.808 338.679 285.312 338.679V339.729C284.901 339.729 284.504 339.799 284.122 339.939C283.748 340.07 283.44 340.289 283.198 340.597C282.955 340.905 282.834 341.325 282.834 341.857L282.33 341.913ZM281.714 345.707V338.707H282.834V345.707H281.714ZM290.225 345.707V335.907H291.457L294.845 340.919L298.233 335.907H299.451V345.707H298.275V337.811L294.845 342.921L291.415 337.839V345.707H290.225ZM301.813 345.707V338.707H302.933V345.707H301.813ZM302.387 337.083C302.2 337.083 302.037 337.013 301.897 336.873C301.757 336.733 301.687 336.57 301.687 336.383C301.687 336.187 301.757 336.024 301.897 335.893C302.037 335.753 302.2 335.683 302.387 335.683C302.583 335.683 302.746 335.753 302.877 335.893C303.017 336.024 303.087 336.187 303.087 336.383C303.087 336.57 303.017 336.733 302.877 336.873C302.746 337.013 302.583 337.083 302.387 337.083ZM307.447 345.875C306.934 345.875 306.486 345.8 306.103 345.651C305.72 345.492 305.398 345.287 305.137 345.035C304.885 344.783 304.703 344.508 304.591 344.209L305.571 343.803C305.73 344.12 305.968 344.377 306.285 344.573C306.602 344.769 306.952 344.867 307.335 344.867C307.774 344.867 308.142 344.783 308.441 344.615C308.74 344.438 308.889 344.19 308.889 343.873C308.889 343.584 308.777 343.35 308.553 343.173C308.338 342.996 308.016 342.851 307.587 342.739L306.915 342.557C306.28 342.389 305.786 342.137 305.431 341.801C305.076 341.456 304.899 341.068 304.899 340.639C304.899 339.976 305.114 339.463 305.543 339.099C305.982 338.726 306.63 338.539 307.489 338.539C307.9 338.539 308.273 338.6 308.609 338.721C308.945 338.842 309.234 339.015 309.477 339.239C309.72 339.454 309.897 339.71 310.009 340.009L309.029 340.443C308.908 340.126 308.707 339.897 308.427 339.757C308.147 339.617 307.806 339.547 307.405 339.547C306.976 339.547 306.64 339.64 306.397 339.827C306.154 340.004 306.033 340.256 306.033 340.583C306.033 340.77 306.131 340.947 306.327 341.115C306.532 341.274 306.831 341.404 307.223 341.507L307.923 341.689C308.38 341.801 308.763 341.969 309.071 342.193C309.379 342.408 309.612 342.655 309.771 342.935C309.93 343.215 310.009 343.514 310.009 343.831C310.009 344.251 309.897 344.615 309.673 344.923C309.449 345.231 309.146 345.469 308.763 345.637C308.38 345.796 307.942 345.875 307.447 345.875ZM313.968 345.875C313.455 345.875 313.007 345.8 312.624 345.651C312.242 345.492 311.92 345.287 311.658 345.035C311.406 344.783 311.224 344.508 311.112 344.209L312.092 343.803C312.251 344.12 312.489 344.377 312.806 344.573C313.124 344.769 313.474 344.867 313.856 344.867C314.295 344.867 314.664 344.783 314.962 344.615C315.261 344.438 315.41 344.19 315.41 343.873C315.41 343.584 315.298 343.35 315.074 343.173C314.86 342.996 314.538 342.851 314.108 342.739L313.436 342.557C312.802 342.389 312.307 342.137 311.952 341.801C311.598 341.456 311.42 341.068 311.42 340.639C311.42 339.976 311.635 339.463 312.064 339.099C312.503 338.726 313.152 338.539 314.01 338.539C314.421 338.539 314.794 338.6 315.13 338.721C315.466 338.842 315.756 339.015 315.998 339.239C316.241 339.454 316.418 339.71 316.53 340.009L315.55 340.443C315.429 340.126 315.228 339.897 314.948 339.757C314.668 339.617 314.328 339.547 313.926 339.547C313.497 339.547 313.161 339.64 312.918 339.827C312.676 340.004 312.554 340.256 312.554 340.583C312.554 340.77 312.652 340.947 312.848 341.115C313.054 341.274 313.352 341.404 313.744 341.507L314.444 341.689C314.902 341.801 315.284 341.969 315.592 342.193C315.9 342.408 316.134 342.655 316.292 342.935C316.451 343.215 316.53 343.514 316.53 343.831C316.53 344.251 316.418 344.615 316.194 344.923C315.97 345.231 315.667 345.469 315.284 345.637C314.902 345.796 314.463 345.875 313.968 345.875ZM318.11 345.707V338.707H319.23V345.707H318.11ZM318.684 337.083C318.497 337.083 318.334 337.013 318.194 336.873C318.054 336.733 317.984 336.57 317.984 336.383C317.984 336.187 318.054 336.024 318.194 335.893C318.334 335.753 318.497 335.683 318.684 335.683C318.88 335.683 319.043 335.753 319.174 335.893C319.314 336.024 319.384 336.187 319.384 336.383C319.384 336.57 319.314 336.733 319.174 336.873C319.043 337.013 318.88 337.083 318.684 337.083ZM324.388 345.875C323.707 345.875 323.1 345.721 322.568 345.413C322.045 345.096 321.635 344.662 321.336 344.111C321.037 343.56 320.888 342.926 320.888 342.207C320.888 341.488 321.033 340.854 321.322 340.303C321.621 339.752 322.031 339.323 322.554 339.015C323.086 338.698 323.688 338.539 324.36 338.539C325.051 338.539 325.657 338.698 326.18 339.015C326.712 339.323 327.123 339.752 327.412 340.303C327.711 340.854 327.86 341.488 327.86 342.207C327.86 342.926 327.711 343.56 327.412 344.111C327.123 344.662 326.717 345.096 326.194 345.413C325.671 345.721 325.069 345.875 324.388 345.875ZM324.388 344.839C324.855 344.839 325.261 344.727 325.606 344.503C325.951 344.279 326.222 343.971 326.418 343.579C326.623 343.187 326.726 342.73 326.726 342.207C326.726 341.684 326.623 341.227 326.418 340.835C326.222 340.443 325.947 340.135 325.592 339.911C325.237 339.687 324.827 339.575 324.36 339.575C323.903 339.575 323.497 339.687 323.142 339.911C322.797 340.135 322.521 340.443 322.316 340.835C322.12 341.227 322.022 341.684 322.022 342.207C322.022 342.72 322.12 343.178 322.316 343.579C322.521 343.971 322.801 344.279 323.156 344.503C323.52 344.727 323.931 344.839 324.388 344.839ZM329.415 345.707V338.707H330.465L330.535 339.995V345.707H329.415ZM334.329 345.707V342.123H335.449V345.707H334.329ZM334.329 342.123C334.329 341.432 334.25 340.905 334.091 340.541C333.932 340.177 333.713 339.93 333.433 339.799C333.153 339.659 332.836 339.589 332.481 339.589C331.865 339.589 331.384 339.808 331.039 340.247C330.703 340.676 330.535 341.288 330.535 342.081H329.989C329.989 341.344 330.096 340.709 330.311 340.177C330.526 339.645 330.838 339.239 331.249 338.959C331.66 338.679 332.154 338.539 332.733 338.539C333.284 338.539 333.76 338.651 334.161 338.875C334.572 339.09 334.889 339.435 335.113 339.911C335.346 340.387 335.458 341.012 335.449 341.787V342.123H334.329ZM341.003 345.707V335.907H342.193V345.707H341.003ZM346.931 345.875C346.418 345.875 345.97 345.8 345.587 345.651C345.205 345.492 344.883 345.287 344.621 345.035C344.369 344.783 344.187 344.508 344.075 344.209L345.055 343.803C345.214 344.12 345.452 344.377 345.769 344.573C346.087 344.769 346.437 344.867 346.819 344.867C347.258 344.867 347.627 344.783 347.925 344.615C348.224 344.438 348.373 344.19 348.373 343.873C348.373 343.584 348.261 343.35 348.037 343.173C347.823 342.996 347.501 342.851 347.071 342.739L346.399 342.557C345.765 342.389 345.27 342.137 344.915 341.801C344.561 341.456 344.383 341.068 344.383 340.639C344.383 339.976 344.598 339.463 345.027 339.099C345.466 338.726 346.115 338.539 346.973 338.539C347.384 338.539 347.757 338.6 348.093 338.721C348.429 338.842 348.719 339.015 348.961 339.239C349.204 339.454 349.381 339.71 349.493 340.009L348.513 340.443C348.392 340.126 348.191 339.897 347.911 339.757C347.631 339.617 347.291 339.547 346.889 339.547C346.46 339.547 346.124 339.64 345.881 339.827C345.639 340.004 345.517 340.256 345.517 340.583C345.517 340.77 345.615 340.947 345.811 341.115C346.017 341.274 346.315 341.404 346.707 341.507L347.407 341.689C347.865 341.801 348.247 341.969 348.555 342.193C348.863 342.408 349.097 342.655 349.255 342.935C349.414 343.215 349.493 343.514 349.493 343.831C349.493 344.251 349.381 344.615 349.157 344.923C348.933 345.231 348.63 345.469 348.247 345.637C347.865 345.796 347.426 345.875 346.931 345.875ZM356.758 345.707V336.985H353.636V335.907H361.056V336.985H357.934V345.707H356.758ZM364.419 345.875C363.738 345.875 363.131 345.721 362.599 345.413C362.076 345.096 361.666 344.662 361.367 344.111C361.068 343.56 360.919 342.926 360.919 342.207C360.919 341.488 361.064 340.854 361.353 340.303C361.652 339.752 362.062 339.323 362.585 339.015C363.117 338.698 363.719 338.539 364.391 338.539C365.082 338.539 365.688 338.698 366.211 339.015C366.743 339.323 367.154 339.752 367.443 340.303C367.742 340.854 367.891 341.488 367.891 342.207C367.891 342.926 367.742 343.56 367.443 344.111C367.154 344.662 366.748 345.096 366.225 345.413C365.702 345.721 365.1 345.875 364.419 345.875ZM364.419 344.839C364.886 344.839 365.292 344.727 365.637 344.503C365.982 344.279 366.253 343.971 366.449 343.579C366.654 343.187 366.757 342.73 366.757 342.207C366.757 341.684 366.654 341.227 366.449 340.835C366.253 340.443 365.978 340.135 365.623 339.911C365.268 339.687 364.858 339.575 364.391 339.575C363.934 339.575 363.528 339.687 363.173 339.911C362.828 340.135 362.552 340.443 362.347 340.835C362.151 341.227 362.053 341.684 362.053 342.207C362.053 342.72 362.151 343.178 362.347 343.579C362.552 343.971 362.832 344.279 363.187 344.503C363.551 344.727 363.962 344.839 364.419 344.839ZM373.227 345.707V335.907H379.023V336.985H374.417V340.149H378.617V341.213H374.417V344.629H379.051V345.707H373.227ZM381.19 345.707V338.707H382.24L382.31 339.995V345.707H381.19ZM386.104 345.707V342.123H387.224V345.707H386.104ZM386.104 342.123C386.104 341.432 386.025 340.905 385.866 340.541C385.708 340.177 385.488 339.93 385.208 339.799C384.928 339.659 384.611 339.589 384.256 339.589C383.64 339.589 383.16 339.808 382.814 340.247C382.478 340.676 382.31 341.288 382.31 342.081H381.764C381.764 341.344 381.872 340.709 382.086 340.177C382.301 339.645 382.614 339.239 383.024 338.959C383.435 338.679 383.93 338.539 384.508 338.539C385.059 338.539 385.535 338.651 385.936 338.875C386.347 339.09 386.664 339.435 386.888 339.911C387.122 340.387 387.234 341.012 387.224 341.787V342.123H386.104ZM391.447 345.875C390.934 345.875 390.486 345.8 390.103 345.651C389.72 345.492 389.398 345.287 389.137 345.035C388.885 344.783 388.703 344.508 388.591 344.209L389.571 343.803C389.73 344.12 389.968 344.377 390.285 344.573C390.602 344.769 390.952 344.867 391.335 344.867C391.774 344.867 392.142 344.783 392.441 344.615C392.74 344.438 392.889 344.19 392.889 343.873C392.889 343.584 392.777 343.35 392.553 343.173C392.338 342.996 392.016 342.851 391.587 342.739L390.915 342.557C390.28 342.389 389.786 342.137 389.431 341.801C389.076 341.456 388.899 341.068 388.899 340.639C388.899 339.976 389.114 339.463 389.543 339.099C389.982 338.726 390.63 338.539 391.489 338.539C391.9 338.539 392.273 338.6 392.609 338.721C392.945 338.842 393.234 339.015 393.477 339.239C393.72 339.454 393.897 339.71 394.009 340.009L393.029 340.443C392.908 340.126 392.707 339.897 392.427 339.757C392.147 339.617 391.806 339.547 391.405 339.547C390.976 339.547 390.64 339.64 390.397 339.827C390.154 340.004 390.033 340.256 390.033 340.583C390.033 340.77 390.131 340.947 390.327 341.115C390.532 341.274 390.831 341.404 391.223 341.507L391.923 341.689C392.38 341.801 392.763 341.969 393.071 342.193C393.379 342.408 393.612 342.655 393.771 342.935C393.93 343.215 394.009 343.514 394.009 343.831C394.009 344.251 393.897 344.615 393.673 344.923C393.449 345.231 393.146 345.469 392.763 345.637C392.38 345.796 391.942 345.875 391.447 345.875ZM400.32 345.707L400.25 344.419V338.707H401.37V345.707H400.32ZM395.336 342.291V338.707H396.456V342.291H395.336ZM396.456 342.291C396.456 342.982 396.536 343.509 396.694 343.873C396.853 344.237 397.072 344.489 397.352 344.629C397.642 344.76 397.964 344.825 398.318 344.825C398.925 344.825 399.396 344.606 399.732 344.167C400.078 343.728 400.25 343.117 400.25 342.333H400.796C400.796 343.07 400.689 343.705 400.474 344.237C400.26 344.769 399.947 345.175 399.536 345.455C399.135 345.735 398.64 345.875 398.052 345.875C397.511 345.875 397.035 345.768 396.624 345.553C396.214 345.329 395.896 344.979 395.672 344.503C395.448 344.018 395.336 343.392 395.336 342.627V342.291H396.456ZM403.941 341.913C403.941 341.157 404.086 340.546 404.375 340.079C404.664 339.603 405.033 339.253 405.481 339.029C405.938 338.796 406.419 338.679 406.923 338.679V339.729C406.512 339.729 406.116 339.799 405.733 339.939C405.36 340.07 405.052 340.289 404.809 340.597C404.566 340.905 404.445 341.325 404.445 341.857L403.941 341.913ZM403.325 345.707V338.707H404.445V345.707H403.325ZM411.122 345.875C410.44 345.875 409.838 345.721 409.316 345.413C408.793 345.096 408.382 344.662 408.084 344.111C407.794 343.56 407.65 342.926 407.65 342.207C407.65 341.488 407.794 340.854 408.084 340.303C408.382 339.752 408.788 339.323 409.302 339.015C409.824 338.698 410.422 338.539 411.094 338.539C411.747 338.539 412.312 338.702 412.788 339.029C413.264 339.346 413.632 339.794 413.894 340.373C414.155 340.952 414.286 341.633 414.286 342.417H408.504L408.784 342.179C408.784 342.739 408.882 343.22 409.078 343.621C409.283 344.022 409.568 344.33 409.932 344.545C410.296 344.75 410.711 344.853 411.178 344.853C411.672 344.853 412.088 344.736 412.424 344.503C412.769 344.27 413.035 343.962 413.222 343.579L414.188 344.069C414.01 344.433 413.772 344.75 413.474 345.021C413.184 345.292 412.839 345.502 412.438 345.651C412.046 345.8 411.607 345.875 411.122 345.875ZM408.854 341.703L408.56 341.479H413.39L413.096 341.717C413.096 341.269 413.007 340.882 412.83 340.555C412.652 340.228 412.414 339.976 412.116 339.799C411.817 339.622 411.472 339.533 411.08 339.533C410.697 339.533 410.333 339.622 409.988 339.799C409.652 339.976 409.376 340.228 409.162 340.555C408.956 340.872 408.854 341.255 408.854 341.703ZM422.979 341.633L421.957 341.143L425.149 335.907H426.507L422.979 341.633ZM421.817 345.707V341.003H422.993V345.707H421.817ZM421.831 341.633L418.303 335.907H419.675L422.853 341.143L421.831 341.633ZM429.866 345.875C429.185 345.875 428.578 345.721 428.046 345.413C427.524 345.096 427.113 344.662 426.814 344.111C426.516 343.56 426.366 342.926 426.366 342.207C426.366 341.488 426.511 340.854 426.8 340.303C427.099 339.752 427.51 339.323 428.032 339.015C428.564 338.698 429.166 338.539 429.838 338.539C430.529 338.539 431.136 338.698 431.658 339.015C432.19 339.323 432.601 339.752 432.89 340.303C433.189 340.854 433.338 341.488 433.338 342.207C433.338 342.926 433.189 343.56 432.89 344.111C432.601 344.662 432.195 345.096 431.672 345.413C431.15 345.721 430.548 345.875 429.866 345.875ZM429.866 344.839C430.333 344.839 430.739 344.727 431.084 344.503C431.43 344.279 431.7 343.971 431.896 343.579C432.102 343.187 432.204 342.73 432.204 342.207C432.204 341.684 432.102 341.227 431.896 340.835C431.7 340.443 431.425 340.135 431.07 339.911C430.716 339.687 430.305 339.575 429.838 339.575C429.381 339.575 428.975 339.687 428.62 339.911C428.275 340.135 428 340.443 427.794 340.835C427.598 341.227 427.5 341.684 427.5 342.207C427.5 342.72 427.598 343.178 427.794 343.579C428 343.971 428.28 344.279 428.634 344.503C428.998 344.727 429.409 344.839 429.866 344.839ZM439.695 345.707L439.625 344.419V338.707H440.745V345.707H439.695ZM434.711 342.291V338.707H435.831V342.291H434.711ZM435.831 342.291C435.831 342.982 435.911 343.509 436.069 343.873C436.228 344.237 436.447 344.489 436.727 344.629C437.017 344.76 437.339 344.825 437.693 344.825C438.3 344.825 438.771 344.606 439.107 344.167C439.453 343.728 439.625 343.117 439.625 342.333H440.171C440.171 343.07 440.064 343.705 439.849 344.237C439.635 344.769 439.322 345.175 438.911 345.455C438.51 345.735 438.015 345.875 437.427 345.875C436.886 345.875 436.41 345.768 435.999 345.553C435.589 345.329 435.271 344.979 435.047 344.503C434.823 344.018 434.711 343.392 434.711 342.627V342.291H435.831ZM442.672 338.959L442.56 335.683H443.68L443.568 338.959H442.672ZM446.119 341.913C446.119 341.157 446.264 340.546 446.553 340.079C446.842 339.603 447.211 339.253 447.659 339.029C448.116 338.796 448.597 338.679 449.101 338.679V339.729C448.69 339.729 448.294 339.799 447.911 339.939C447.538 340.07 447.23 340.289 446.987 340.597C446.744 340.905 446.623 341.325 446.623 341.857L446.119 341.913ZM445.503 345.707V338.707H446.623V345.707H445.503ZM453.299 345.875C452.618 345.875 452.016 345.721 451.493 345.413C450.971 345.096 450.56 344.662 450.261 344.111C449.972 343.56 449.827 342.926 449.827 342.207C449.827 341.488 449.972 340.854 450.261 340.303C450.56 339.752 450.966 339.323 451.479 339.015C452.002 338.698 452.599 338.539 453.271 338.539C453.925 338.539 454.489 338.702 454.965 339.029C455.441 339.346 455.81 339.794 456.071 340.373C456.333 340.952 456.463 341.633 456.463 342.417H450.681L450.961 342.179C450.961 342.739 451.059 343.22 451.255 343.621C451.461 344.022 451.745 344.33 452.109 344.545C452.473 344.75 452.889 344.853 453.355 344.853C453.85 344.853 454.265 344.736 454.601 344.503C454.947 344.27 455.213 343.962 455.399 343.579L456.365 344.069C456.188 344.433 455.95 344.75 455.651 345.021C455.362 345.292 455.017 345.502 454.615 345.651C454.223 345.8 453.785 345.875 453.299 345.875ZM451.031 341.703L450.737 341.479H455.567L455.273 341.717C455.273 341.269 455.185 340.882 455.007 340.555C454.83 340.228 454.592 339.976 454.293 339.799C453.995 339.622 453.649 339.533 453.257 339.533C452.875 339.533 452.511 339.622 452.165 339.799C451.829 339.976 451.554 340.228 451.339 340.555C451.134 340.872 451.031 341.255 451.031 341.703ZM211.072 362.707V352.907H216.868V353.985H212.262V357.149H216.462V358.213H212.262V361.629H216.896V362.707H211.072ZM224.159 365.507V357.009L224.215 355.707H225.279V365.507H224.159ZM221.793 362.875C221.168 362.875 220.617 362.721 220.141 362.413C219.665 362.105 219.292 361.676 219.021 361.125C218.76 360.565 218.629 359.926 218.629 359.207C218.629 358.479 218.76 357.84 219.021 357.289C219.292 356.738 219.665 356.309 220.141 356.001C220.617 355.693 221.168 355.539 221.793 355.539C222.381 355.539 222.894 355.693 223.333 356.001C223.781 356.309 224.126 356.738 224.369 357.289C224.612 357.84 224.733 358.479 224.733 359.207C224.733 359.926 224.612 360.565 224.369 361.125C224.126 361.676 223.781 362.105 223.333 362.413C222.894 362.721 222.381 362.875 221.793 362.875ZM222.045 361.853C222.456 361.853 222.82 361.741 223.137 361.517C223.454 361.293 223.702 360.98 223.879 360.579C224.066 360.178 224.159 359.72 224.159 359.207C224.159 358.694 224.066 358.236 223.879 357.835C223.702 357.434 223.454 357.121 223.137 356.897C222.82 356.673 222.451 356.561 222.031 356.561C221.592 356.561 221.2 356.673 220.855 356.897C220.519 357.121 220.253 357.434 220.057 357.835C219.861 358.236 219.763 358.694 219.763 359.207C219.763 359.72 219.861 360.178 220.057 360.579C220.253 360.98 220.524 361.293 220.869 361.517C221.214 361.741 221.606 361.853 222.045 361.853ZM231.931 362.707L231.861 361.419V355.707H232.981V362.707H231.931ZM226.947 359.291V355.707H228.067V359.291H226.947ZM228.067 359.291C228.067 359.982 228.146 360.509 228.305 360.873C228.464 361.237 228.683 361.489 228.963 361.629C229.252 361.76 229.574 361.825 229.929 361.825C230.536 361.825 231.007 361.606 231.343 361.167C231.688 360.728 231.861 360.117 231.861 359.333H232.407C232.407 360.07 232.3 360.705 232.085 361.237C231.87 361.769 231.558 362.175 231.147 362.455C230.746 362.735 230.251 362.875 229.663 362.875C229.122 362.875 228.646 362.768 228.235 362.553C227.824 362.329 227.507 361.979 227.283 361.503C227.059 361.018 226.947 360.392 226.947 359.627V359.291H228.067ZM235.005 362.707V355.707H236.125V362.707H235.005ZM235.579 354.083C235.393 354.083 235.229 354.013 235.089 353.873C234.949 353.733 234.879 353.57 234.879 353.383C234.879 353.187 234.949 353.024 235.089 352.893C235.229 352.753 235.393 352.683 235.579 352.683C235.775 352.683 235.939 352.753 236.069 352.893C236.209 353.024 236.279 353.187 236.279 353.383C236.279 353.57 236.209 353.733 236.069 353.873C235.939 354.013 235.775 354.083 235.579 354.083ZM238.259 365.507V355.707H239.309L239.379 356.995V365.507H238.259ZM241.745 362.875C241.157 362.875 240.639 362.721 240.191 362.413C239.753 362.105 239.412 361.676 239.169 361.125C238.927 360.565 238.805 359.926 238.805 359.207C238.805 358.479 238.927 357.84 239.169 357.289C239.412 356.738 239.753 356.309 240.191 356.001C240.639 355.693 241.157 355.539 241.745 355.539C242.371 355.539 242.921 355.693 243.397 356.001C243.873 356.309 244.242 356.738 244.503 357.289C244.774 357.84 244.909 358.479 244.909 359.207C244.909 359.926 244.774 360.565 244.503 361.125C244.242 361.676 243.873 362.105 243.397 362.413C242.921 362.721 242.371 362.875 241.745 362.875ZM241.493 361.853C241.932 361.853 242.319 361.741 242.655 361.517C243.001 361.293 243.271 360.98 243.467 360.579C243.673 360.178 243.775 359.72 243.775 359.207C243.775 358.694 243.677 358.236 243.481 357.835C243.295 357.434 243.029 357.121 242.683 356.897C242.338 356.673 241.946 356.561 241.507 356.561C241.097 356.561 240.728 356.673 240.401 356.897C240.084 357.121 239.832 357.434 239.645 357.835C239.468 358.236 239.379 358.694 239.379 359.207C239.379 359.72 239.468 360.178 239.645 360.579C239.832 360.98 240.084 361.293 240.401 361.517C240.719 361.741 241.083 361.853 241.493 361.853ZM246.531 365.507V355.707H247.581L247.651 356.995V365.507H246.531ZM250.017 362.875C249.429 362.875 248.911 362.721 248.463 362.413C248.024 362.105 247.684 361.676 247.441 361.125C247.198 360.565 247.077 359.926 247.077 359.207C247.077 358.479 247.198 357.84 247.441 357.289C247.684 356.738 248.024 356.309 248.463 356.001C248.911 355.693 249.429 355.539 250.017 355.539C250.642 355.539 251.193 355.693 251.669 356.001C252.145 356.309 252.514 356.738 252.775 357.289C253.046 357.84 253.181 358.479 253.181 359.207C253.181 359.926 253.046 360.565 252.775 361.125C252.514 361.676 252.145 362.105 251.669 362.413C251.193 362.721 250.642 362.875 250.017 362.875ZM249.765 361.853C250.204 361.853 250.591 361.741 250.927 361.517C251.272 361.293 251.543 360.98 251.739 360.579C251.944 360.178 252.047 359.72 252.047 359.207C252.047 358.694 251.949 358.236 251.753 357.835C251.566 357.434 251.3 357.121 250.955 356.897C250.61 356.673 250.218 356.561 249.779 356.561C249.368 356.561 249 356.673 248.673 356.897C248.356 357.121 248.104 357.434 247.917 357.835C247.74 358.236 247.651 358.694 247.651 359.207C247.651 359.72 247.74 360.178 247.917 360.579C248.104 360.98 248.356 361.293 248.673 361.517C248.99 361.741 249.354 361.853 249.765 361.853ZM257.798 362.875C257.117 362.875 256.515 362.721 255.992 362.413C255.47 362.096 255.059 361.662 254.76 361.111C254.471 360.56 254.326 359.926 254.326 359.207C254.326 358.488 254.471 357.854 254.76 357.303C255.059 356.752 255.465 356.323 255.978 356.015C256.501 355.698 257.098 355.539 257.77 355.539C258.424 355.539 258.988 355.702 259.464 356.029C259.94 356.346 260.309 356.794 260.57 357.373C260.832 357.952 260.962 358.633 260.962 359.417H255.18L255.46 359.179C255.46 359.739 255.558 360.22 255.754 360.621C255.96 361.022 256.244 361.33 256.608 361.545C256.972 361.75 257.388 361.853 257.854 361.853C258.349 361.853 258.764 361.736 259.1 361.503C259.446 361.27 259.712 360.962 259.898 360.579L260.864 361.069C260.687 361.433 260.449 361.75 260.15 362.021C259.861 362.292 259.516 362.502 259.114 362.651C258.722 362.8 258.284 362.875 257.798 362.875ZM255.53 358.703L255.236 358.479H260.066L259.772 358.717C259.772 358.269 259.684 357.882 259.506 357.555C259.329 357.228 259.091 356.976 258.792 356.799C258.494 356.622 258.148 356.533 257.756 356.533C257.374 356.533 257.01 356.622 256.664 356.799C256.328 356.976 256.053 357.228 255.838 357.555C255.633 357.872 255.53 358.255 255.53 358.703ZM267.555 362.707L267.499 361.405V352.907H268.619V362.707H267.555ZM265.133 362.875C264.508 362.875 263.957 362.721 263.481 362.413C263.005 362.105 262.632 361.676 262.361 361.125C262.1 360.565 261.969 359.926 261.969 359.207C261.969 358.479 262.1 357.84 262.361 357.289C262.632 356.738 263.005 356.309 263.481 356.001C263.957 355.693 264.508 355.539 265.133 355.539C265.721 355.539 266.234 355.693 266.673 356.001C267.121 356.309 267.466 356.738 267.709 357.289C267.952 357.84 268.073 358.479 268.073 359.207C268.073 359.926 267.952 360.565 267.709 361.125C267.466 361.676 267.121 362.105 266.673 362.413C266.234 362.721 265.721 362.875 265.133 362.875ZM265.385 361.853C265.796 361.853 266.16 361.741 266.477 361.517C266.794 361.293 267.042 360.98 267.219 360.579C267.406 360.178 267.499 359.72 267.499 359.207C267.499 358.694 267.406 358.236 267.219 357.835C267.042 357.434 266.794 357.121 266.477 356.897C266.16 356.673 265.791 356.561 265.371 356.561C264.932 356.561 264.54 356.673 264.195 356.897C263.859 357.121 263.593 357.434 263.397 357.835C263.201 358.236 263.103 358.694 263.103 359.207C263.103 359.72 263.201 360.178 263.397 360.579C263.593 360.98 263.864 361.293 264.209 361.517C264.554 361.741 264.946 361.853 265.385 361.853ZM282.143 362.707L285.167 352.907H286.357L283.319 362.707H282.143ZM276.179 362.707L273.183 352.907H274.373L277.341 362.707H276.179ZM276.305 362.707L279.189 352.907H280.323L277.439 362.707H276.305ZM282.045 362.707L279.231 352.907H280.365L283.221 362.707H282.045ZM287.546 362.707V355.707H288.666V362.707H287.546ZM288.12 354.083C287.934 354.083 287.77 354.013 287.63 353.873C287.49 353.733 287.42 353.57 287.42 353.383C287.42 353.187 287.49 353.024 287.63 352.893C287.77 352.753 287.934 352.683 288.12 352.683C288.316 352.683 288.48 352.753 288.61 352.893C288.75 353.024 288.82 353.187 288.82 353.383C288.82 353.57 288.75 353.733 288.61 353.873C288.48 354.013 288.316 354.083 288.12 354.083ZM293.362 362.875C292.681 362.875 292.154 362.698 291.78 362.343C291.407 361.988 291.22 361.489 291.22 360.845V353.523H292.34V360.733C292.34 361.088 292.434 361.363 292.62 361.559C292.816 361.746 293.087 361.839 293.432 361.839C293.544 361.839 293.652 361.825 293.754 361.797C293.866 361.76 294.011 361.676 294.188 361.545L294.622 362.455C294.38 362.614 294.16 362.721 293.964 362.777C293.768 362.842 293.568 362.875 293.362 362.875ZM290.002 356.701V355.707H294.44V356.701H290.002ZM296.021 362.707V352.907H297.141V362.707H296.021ZM300.949 362.707V359.123H302.069V362.707H300.949ZM300.949 359.123C300.949 358.432 300.865 357.905 300.697 357.541C300.539 357.177 300.319 356.93 300.039 356.799C299.759 356.659 299.442 356.589 299.087 356.589C298.471 356.589 297.991 356.808 297.645 357.247C297.309 357.676 297.141 358.288 297.141 359.081H296.595C296.595 358.344 296.703 357.709 296.917 357.177C297.141 356.645 297.459 356.239 297.869 355.959C298.28 355.679 298.775 355.539 299.353 355.539C299.895 355.539 300.371 355.651 300.781 355.875C301.192 356.09 301.509 356.435 301.733 356.911C301.967 357.387 302.079 358.012 302.069 358.787V359.123H300.949ZM314.399 362.707L310.465 352.907H311.655L315.645 362.707H314.399ZM306.433 362.707L310.423 352.907H311.627L307.693 362.707H306.433ZM308.323 359.921V358.857H313.769V359.921H308.323ZM316.762 362.707V352.907H317.882V362.707H316.762ZM319.838 362.707V352.907H320.958V362.707H319.838ZM328.669 362.707V353.985H325.547V352.907H332.967V353.985H329.845V362.707H328.669ZM334.098 362.707V352.907H335.218V362.707H334.098ZM339.026 362.707V359.123H340.146V362.707H339.026ZM339.026 359.123C339.026 358.432 338.942 357.905 338.774 357.541C338.615 357.177 338.396 356.93 338.116 356.799C337.836 356.659 337.518 356.589 337.164 356.589C336.548 356.589 336.067 356.808 335.722 357.247C335.386 357.676 335.218 358.288 335.218 359.081H334.672C334.672 358.344 334.779 357.709 334.994 357.177C335.218 356.645 335.535 356.239 335.946 355.959C336.356 355.679 336.851 355.539 337.43 355.539C337.971 355.539 338.447 355.651 338.858 355.875C339.268 356.09 339.586 356.435 339.81 356.911C340.043 357.387 340.155 358.012 340.146 358.787V359.123H339.026ZM344.97 362.875C344.289 362.875 343.687 362.721 343.164 362.413C342.642 362.096 342.231 361.662 341.932 361.111C341.643 360.56 341.498 359.926 341.498 359.207C341.498 358.488 341.643 357.854 341.932 357.303C342.231 356.752 342.637 356.323 343.15 356.015C343.673 355.698 344.27 355.539 344.942 355.539C345.596 355.539 346.16 355.702 346.636 356.029C347.112 356.346 347.481 356.794 347.742 357.373C348.004 357.952 348.134 358.633 348.134 359.417H342.352L342.632 359.179C342.632 359.739 342.73 360.22 342.926 360.621C343.132 361.022 343.416 361.33 343.78 361.545C344.144 361.75 344.56 361.853 345.026 361.853C345.521 361.853 345.936 361.736 346.272 361.503C346.618 361.27 346.884 360.962 347.07 360.579L348.036 361.069C347.859 361.433 347.621 361.75 347.322 362.021C347.033 362.292 346.688 362.502 346.286 362.651C345.894 362.8 345.456 362.875 344.97 362.875ZM342.702 358.703L342.408 358.479H347.238L346.944 358.717C346.944 358.269 346.856 357.882 346.678 357.555C346.501 357.228 346.263 356.976 345.964 356.799C345.666 356.622 345.32 356.533 344.928 356.533C344.546 356.533 344.182 356.622 343.836 356.799C343.5 356.976 343.225 357.228 343.01 357.555C342.805 357.872 342.702 358.255 342.702 358.703ZM355.302 362.707V353.985H352.18V352.907H359.6V353.985H356.478V362.707H355.302ZM362.963 362.875C362.282 362.875 361.675 362.721 361.143 362.413C360.62 362.096 360.21 361.662 359.911 361.111C359.612 360.56 359.463 359.926 359.463 359.207C359.463 358.488 359.608 357.854 359.897 357.303C360.196 356.752 360.606 356.323 361.129 356.015C361.661 355.698 362.263 355.539 362.935 355.539C363.626 355.539 364.232 355.698 364.755 356.015C365.287 356.323 365.698 356.752 365.987 357.303C366.286 357.854 366.435 358.488 366.435 359.207C366.435 359.926 366.286 360.56 365.987 361.111C365.698 361.662 365.292 362.096 364.769 362.413C364.246 362.721 363.644 362.875 362.963 362.875ZM362.963 361.839C363.43 361.839 363.836 361.727 364.181 361.503C364.526 361.279 364.797 360.971 364.993 360.579C365.198 360.187 365.301 359.73 365.301 359.207C365.301 358.684 365.198 358.227 364.993 357.835C364.797 357.443 364.522 357.135 364.167 356.911C363.812 356.687 363.402 356.575 362.935 356.575C362.478 356.575 362.072 356.687 361.717 356.911C361.372 357.135 361.096 357.443 360.891 357.835C360.695 358.227 360.597 358.684 360.597 359.207C360.597 359.72 360.695 360.178 360.891 360.579C361.096 360.971 361.376 361.279 361.731 361.503C362.095 361.727 362.506 361.839 362.963 361.839ZM371.084 362.875C370.403 362.875 369.796 362.721 369.264 362.413C368.742 362.096 368.331 361.662 368.032 361.111C367.734 360.56 367.584 359.926 367.584 359.207C367.584 358.488 367.729 357.854 368.018 357.303C368.317 356.752 368.728 356.323 369.25 356.015C369.782 355.698 370.384 355.539 371.056 355.539C371.747 355.539 372.354 355.698 372.876 356.015C373.408 356.323 373.819 356.752 374.108 357.303C374.407 357.854 374.556 358.488 374.556 359.207C374.556 359.926 374.407 360.56 374.108 361.111C373.819 361.662 373.413 362.096 372.89 362.413C372.368 362.721 371.766 362.875 371.084 362.875ZM371.084 361.839C371.551 361.839 371.957 361.727 372.302 361.503C372.648 361.279 372.918 360.971 373.114 360.579C373.32 360.187 373.422 359.73 373.422 359.207C373.422 358.684 373.32 358.227 373.114 357.835C372.918 357.443 372.643 357.135 372.288 356.911C371.934 356.687 371.523 356.575 371.056 356.575C370.599 356.575 370.193 356.687 369.838 356.911C369.493 357.135 369.218 357.443 369.012 357.835C368.816 358.227 368.718 358.684 368.718 359.207C368.718 359.72 368.816 360.178 369.012 360.579C369.218 360.971 369.498 361.279 369.852 361.503C370.216 361.727 370.627 361.839 371.084 361.839ZM376.111 362.707V352.907H377.231V362.707H376.111ZM381.637 362.875C381.124 362.875 380.676 362.8 380.293 362.651C379.911 362.492 379.589 362.287 379.327 362.035C379.075 361.783 378.893 361.508 378.781 361.209L379.761 360.803C379.92 361.12 380.158 361.377 380.475 361.573C380.793 361.769 381.143 361.867 381.525 361.867C381.964 361.867 382.333 361.783 382.631 361.615C382.93 361.438 383.079 361.19 383.079 360.873C383.079 360.584 382.967 360.35 382.743 360.173C382.529 359.996 382.207 359.851 381.777 359.739L381.105 359.557C380.471 359.389 379.976 359.137 379.621 358.801C379.267 358.456 379.089 358.068 379.089 357.639C379.089 356.976 379.304 356.463 379.733 356.099C380.172 355.726 380.821 355.539 381.679 355.539C382.09 355.539 382.463 355.6 382.799 355.721C383.135 355.842 383.425 356.015 383.667 356.239C383.91 356.454 384.087 356.71 384.199 357.009L383.219 357.443C383.098 357.126 382.897 356.897 382.617 356.757C382.337 356.617 381.997 356.547 381.595 356.547C381.166 356.547 380.83 356.64 380.587 356.827C380.345 357.004 380.223 357.256 380.223 357.583C380.223 357.77 380.321 357.947 380.517 358.115C380.723 358.274 381.021 358.404 381.413 358.507L382.113 358.689C382.571 358.801 382.953 358.969 383.261 359.193C383.569 359.408 383.803 359.655 383.961 359.935C384.12 360.215 384.199 360.514 384.199 360.831C384.199 361.251 384.087 361.615 383.863 361.923C383.639 362.231 383.336 362.469 382.953 362.637C382.571 362.796 382.132 362.875 381.637 362.875ZM389.49 362.707V352.907H390.694L396.532 360.775V352.907H397.722V362.707H396.532L390.68 354.797V362.707H389.49ZM403.076 362.875C402.394 362.875 401.792 362.721 401.27 362.413C400.747 362.096 400.336 361.662 400.038 361.111C399.748 360.56 399.604 359.926 399.604 359.207C399.604 358.488 399.748 357.854 400.038 357.303C400.336 356.752 400.742 356.323 401.256 356.015C401.778 355.698 402.376 355.539 403.048 355.539C403.701 355.539 404.266 355.702 404.742 356.029C405.218 356.346 405.586 356.794 405.848 357.373C406.109 357.952 406.24 358.633 406.24 359.417H400.458L400.738 359.179C400.738 359.739 400.836 360.22 401.032 360.621C401.237 361.022 401.522 361.33 401.886 361.545C402.25 361.75 402.665 361.853 403.132 361.853C403.626 361.853 404.042 361.736 404.378 361.503C404.723 361.27 404.989 360.962 405.176 360.579L406.142 361.069C405.964 361.433 405.726 361.75 405.428 362.021C405.138 362.292 404.793 362.502 404.392 362.651C404 362.8 403.561 362.875 403.076 362.875ZM400.808 358.703L400.514 358.479H405.344L405.05 358.717C405.05 358.269 404.961 357.882 404.784 357.555C404.606 357.228 404.368 356.976 404.07 356.799C403.771 356.622 403.426 356.533 403.034 356.533C402.651 356.533 402.287 356.622 401.942 356.799C401.606 356.976 401.33 357.228 401.116 357.555C400.91 357.872 400.808 358.255 400.808 358.703ZM410.774 362.875C410.084 362.875 409.472 362.721 408.94 362.413C408.408 362.096 407.993 361.662 407.694 361.111C407.396 360.56 407.246 359.926 407.246 359.207C407.246 358.488 407.391 357.854 407.68 357.303C407.979 356.752 408.394 356.323 408.926 356.015C409.458 355.698 410.065 355.539 410.746 355.539C411.418 355.539 412.02 355.693 412.552 356.001C413.084 356.309 413.49 356.743 413.77 357.303L412.748 357.765C412.562 357.392 412.291 357.102 411.936 356.897C411.582 356.682 411.176 356.575 410.718 356.575C410.261 356.575 409.855 356.687 409.5 356.911C409.155 357.135 408.88 357.448 408.674 357.849C408.478 358.241 408.38 358.694 408.38 359.207C408.38 359.72 408.478 360.178 408.674 360.579C408.88 360.971 409.16 361.279 409.514 361.503C409.878 361.727 410.289 361.839 410.746 361.839C411.204 361.839 411.61 361.722 411.964 361.489C412.328 361.256 412.604 360.929 412.79 360.509L413.812 360.971C413.532 361.568 413.126 362.035 412.594 362.371C412.062 362.707 411.456 362.875 410.774 362.875ZM418.292 362.875C417.611 362.875 417.009 362.721 416.486 362.413C415.964 362.096 415.553 361.662 415.254 361.111C414.965 360.56 414.82 359.926 414.82 359.207C414.82 358.488 414.965 357.854 415.254 357.303C415.553 356.752 415.959 356.323 416.472 356.015C416.995 355.698 417.592 355.539 418.264 355.539C418.918 355.539 419.482 355.702 419.958 356.029C420.434 356.346 420.803 356.794 421.064 357.373C421.326 357.952 421.456 358.633 421.456 359.417H415.674L415.954 359.179C415.954 359.739 416.052 360.22 416.248 360.621C416.454 361.022 416.738 361.33 417.102 361.545C417.466 361.75 417.882 361.853 418.348 361.853C418.843 361.853 419.258 361.736 419.594 361.503C419.94 361.27 420.206 360.962 420.392 360.579L421.358 361.069C421.181 361.433 420.943 361.75 420.644 362.021C420.355 362.292 420.01 362.502 419.608 362.651C419.216 362.8 418.778 362.875 418.292 362.875ZM416.024 358.703L415.73 358.479H420.56L420.266 358.717C420.266 358.269 420.178 357.882 420 357.555C419.823 357.228 419.585 356.976 419.286 356.799C418.988 356.622 418.642 356.533 418.25 356.533C417.868 356.533 417.504 356.622 417.158 356.799C416.822 356.976 416.547 357.228 416.332 357.555C416.127 357.872 416.024 358.255 416.024 358.703ZM425.319 362.875C424.806 362.875 424.358 362.8 423.975 362.651C423.592 362.492 423.27 362.287 423.009 362.035C422.757 361.783 422.575 361.508 422.463 361.209L423.443 360.803C423.602 361.12 423.84 361.377 424.157 361.573C424.474 361.769 424.824 361.867 425.207 361.867C425.646 361.867 426.014 361.783 426.313 361.615C426.612 361.438 426.761 361.19 426.761 360.873C426.761 360.584 426.649 360.35 426.425 360.173C426.21 359.996 425.888 359.851 425.459 359.739L424.787 359.557C424.152 359.389 423.658 359.137 423.303 358.801C422.948 358.456 422.771 358.068 422.771 357.639C422.771 356.976 422.986 356.463 423.415 356.099C423.854 355.726 424.502 355.539 425.361 355.539C425.772 355.539 426.145 355.6 426.481 355.721C426.817 355.842 427.106 356.015 427.349 356.239C427.592 356.454 427.769 356.71 427.881 357.009L426.901 357.443C426.78 357.126 426.579 356.897 426.299 356.757C426.019 356.617 425.678 356.547 425.277 356.547C424.848 356.547 424.512 356.64 424.269 356.827C424.026 357.004 423.905 357.256 423.905 357.583C423.905 357.77 424.003 357.947 424.199 358.115C424.404 358.274 424.703 358.404 425.095 358.507L425.795 358.689C426.252 358.801 426.635 358.969 426.943 359.193C427.251 359.408 427.484 359.655 427.643 359.935C427.802 360.215 427.881 360.514 427.881 360.831C427.881 361.251 427.769 361.615 427.545 361.923C427.321 362.231 427.018 362.469 426.635 362.637C426.252 362.796 425.814 362.875 425.319 362.875ZM431.841 362.875C431.327 362.875 430.879 362.8 430.497 362.651C430.114 362.492 429.792 362.287 429.531 362.035C429.279 361.783 429.097 361.508 428.985 361.209L429.965 360.803C430.123 361.12 430.361 361.377 430.679 361.573C430.996 361.769 431.346 361.867 431.729 361.867C432.167 361.867 432.536 361.783 432.835 361.615C433.133 361.438 433.283 361.19 433.283 360.873C433.283 360.584 433.171 360.35 432.947 360.173C432.732 359.996 432.41 359.851 431.981 359.739L431.309 359.557C430.674 359.389 430.179 359.137 429.825 358.801C429.47 358.456 429.293 358.068 429.293 357.639C429.293 356.976 429.507 356.463 429.937 356.099C430.375 355.726 431.024 355.539 431.883 355.539C432.293 355.539 432.667 355.6 433.003 355.721C433.339 355.842 433.628 356.015 433.871 356.239C434.113 356.454 434.291 356.71 434.403 357.009L433.423 357.443C433.301 357.126 433.101 356.897 432.821 356.757C432.541 356.617 432.2 356.547 431.799 356.547C431.369 356.547 431.033 356.64 430.791 356.827C430.548 357.004 430.427 357.256 430.427 357.583C430.427 357.77 430.525 357.947 430.721 358.115C430.926 358.274 431.225 358.404 431.617 358.507L432.317 358.689C432.774 358.801 433.157 358.969 433.465 359.193C433.773 359.408 434.006 359.655 434.165 359.935C434.323 360.215 434.403 360.514 434.403 360.831C434.403 361.251 434.291 361.615 434.067 361.923C433.843 362.231 433.539 362.469 433.157 362.637C432.774 362.796 432.335 362.875 431.841 362.875ZM440.224 362.707L440.168 361.559V359.011C440.168 358.46 440.107 358.008 439.986 357.653C439.865 357.289 439.673 357.014 439.412 356.827C439.151 356.64 438.81 356.547 438.39 356.547C438.007 356.547 437.676 356.626 437.396 356.785C437.125 356.934 436.901 357.177 436.724 357.513L435.716 357.121C435.893 356.794 436.108 356.514 436.36 356.281C436.612 356.038 436.906 355.856 437.242 355.735C437.578 355.604 437.961 355.539 438.39 355.539C439.043 355.539 439.58 355.67 440 355.931C440.429 356.183 440.751 356.561 440.966 357.065C441.181 357.56 441.283 358.176 441.274 358.913L441.26 362.707H440.224ZM438.124 362.875C437.303 362.875 436.659 362.688 436.192 362.315C435.735 361.932 435.506 361.405 435.506 360.733C435.506 360.024 435.739 359.482 436.206 359.109C436.682 358.726 437.345 358.535 438.194 358.535H440.196V359.473H438.446C437.793 359.473 437.326 359.58 437.046 359.795C436.775 360.01 436.64 360.318 436.64 360.719C436.64 361.083 436.775 361.372 437.046 361.587C437.317 361.792 437.695 361.895 438.18 361.895C438.581 361.895 438.931 361.811 439.23 361.643C439.529 361.466 439.757 361.218 439.916 360.901C440.084 360.574 440.168 360.192 440.168 359.753H440.644C440.644 360.705 440.429 361.466 440 362.035C439.571 362.595 438.945 362.875 438.124 362.875ZM443.665 358.913C443.665 358.157 443.809 357.546 444.099 357.079C444.388 356.603 444.757 356.253 445.205 356.029C445.662 355.796 446.143 355.679 446.647 355.679V356.729C446.236 356.729 445.839 356.799 445.457 356.939C445.083 357.07 444.775 357.289 444.533 357.597C444.29 357.905 444.169 358.325 444.169 358.857L443.665 358.913ZM443.049 362.707V355.707H444.169V362.707H443.049ZM448.409 365.675C448.232 365.675 448.027 365.638 447.793 365.563C447.56 365.498 447.313 365.409 447.051 365.297L447.471 364.359C447.686 364.452 447.873 364.522 448.031 364.569C448.199 364.616 448.33 364.639 448.423 364.639C448.675 364.639 448.881 364.569 449.039 364.429C449.207 364.298 449.347 364.107 449.459 363.855L450.257 361.951L452.847 355.707H454.051L450.691 363.687C450.514 364.098 450.327 364.452 450.131 364.751C449.945 365.05 449.716 365.278 449.445 365.437C449.175 365.596 448.829 365.675 448.409 365.675ZM449.949 362.707L446.925 355.707H448.115L450.719 361.937L451.055 362.707H449.949Z" fill="#4B4C4C"/>
<line y1="-0.5" x2="90" y2="-0.5" transform="matrix(4.37114e-08 1 1 -4.37114e-08 332.469 492.707)" stroke="url(#paint1_linear_288_5732)"/>
<line x1="331.969" y1="106.707" x2="331.969" y2="16.707" stroke="url(#paint2_linear_288_5732)"/>
<line y1="-0.5" x2="181.177" y2="-0.5" transform="matrix(-0.883116 0.469155 0.469155 0.883116 160.469 426.707)" stroke="url(#paint3_linear_288_5732)"/>
<line y1="-0.5" x2="120" y2="-0.5" transform="matrix(-1 -8.74228e-08 -8.74228e-08 1 132.469 334.707)" stroke="url(#paint4_linear_288_5732)"/>
<line y1="-0.5" x2="154.156" y2="-0.5" transform="matrix(-0.713564 -0.70059 -0.70059 0.713564 122.469 235.707)" stroke="url(#paint5_linear_288_5732)"/>
<line y1="-0.5" x2="196.576" y2="-0.5" transform="matrix(-0.707107 0.707107 0.707107 0.707107 239.469 468.707)" stroke="url(#paint6_linear_288_5732)"/>
<line y1="-0.5" x2="230.517" y2="-0.5" transform="matrix(-0.707107 -0.707107 -0.707107 0.707107 242.469 163.707)" stroke="url(#paint7_linear_288_5732)"/>
<line x1="504.704" y1="426.265" x2="664.704" y2="511.265" stroke="url(#paint8_linear_288_5732)"/>
<line x1="532.469" y1="334.207" x2="652.469" y2="334.207" stroke="url(#paint9_linear_288_5732)"/>
<line x1="542.119" y1="235.35" x2="652.119" y2="127.35" stroke="url(#paint10_linear_288_5732)"/>
<line x1="425.823" y1="468.353" x2="564.823" y2="607.353" stroke="url(#paint11_linear_288_5732)"/>
<line x1="422.116" y1="163.353" x2="585.116" y2="0.353477" stroke="url(#paint12_linear_288_5732)"/>
<defs>
<filter id="filter0_d_288_5732" x="144.786" y="89.873" width="374.367" height="418.668" filterUnits="userSpaceOnUse" color-interpolation-filters="sRGB">
<feFlood flood-opacity="0" result="BackgroundImageFix"/>
<feColorMatrix in="SourceAlpha" type="matrix" values="0 0 0 0 0 0 0 0 0 0 0 0 0 0 0 0 0 0 127 0" result="hardAlpha"/>
<feOffset/>
<feGaussianBlur stdDeviation="15"/>
<feComposite in2="hardAlpha" operator="out"/>
<feColorMatrix type="matrix" values="0 0 0 0 0 0 0 0 0 0 0 0 0 0 0 0 0 0 0.1 0"/>
<feBlend mode="normal" in2="BackgroundImageFix" result="effect1_dropShadow_288_5732"/>
<feBlend mode="normal" in="SourceGraphic" in2="effect1_dropShadow_288_5732" result="shape"/>
</filter>
<linearGradient id="paint0_linear_288_5732" x1="331.969" y1="117.707" x2="331.969" y2="480.707" gradientUnits="userSpaceOnUse">
<stop stop-color="white"/>
<stop offset="1" stop-color="#F9F9F9"/>
</linearGradient>
<linearGradient id="paint1_linear_288_5732" x1="0" y1="0.5" x2="90" y2="0.5" gradientUnits="userSpaceOnUse">
<stop offset="0.192308" stop-color="white" stop-opacity="0"/>
<stop offset="1" stop-color="#989898"/>
</linearGradient>
<linearGradient id="paint2_linear_288_5732" x1="332.969" y1="106.707" x2="332.969" y2="16.707" gradientUnits="userSpaceOnUse">
<stop offset="0.192308" stop-color="white" stop-opacity="0"/>
<stop offset="1" stop-color="#989898"/>
</linearGradient>
<linearGradient id="paint3_linear_288_5732" x1="0" y1="0.5" x2="181.177" y2="0.5" gradientUnits="userSpaceOnUse">
<stop offset="0.192308" stop-color="white" stop-opacity="0"/>
<stop offset="1" stop-color="#989898"/>
</linearGradient>
<linearGradient id="paint4_linear_288_5732" x1="0" y1="0.5" x2="120" y2="0.5" gradientUnits="userSpaceOnUse">
<stop offset="0.192308" stop-color="white" stop-opacity="0"/>
<stop offset="1" stop-color="#989898"/>
</linearGradient>
<linearGradient id="paint5_linear_288_5732" x1="0" y1="0.5" x2="154.156" y2="0.5" gradientUnits="userSpaceOnUse">
<stop offset="0.192308" stop-color="white" stop-opacity="0"/>
<stop offset="1" stop-color="#989898"/>
</linearGradient>
<linearGradient id="paint6_linear_288_5732" x1="0" y1="0.5" x2="196.576" y2="0.5" gradientUnits="userSpaceOnUse">
<stop offset="0.192308" stop-color="white" stop-opacity="0"/>
<stop offset="1" stop-color="#989898"/>
</linearGradient>
<linearGradient id="paint7_linear_288_5732" x1="0" y1="0.5" x2="230.517" y2="0.5" gradientUnits="userSpaceOnUse">
<stop offset="0.192308" stop-color="white" stop-opacity="0"/>
<stop offset="1" stop-color="#989898"/>
</linearGradient>
<linearGradient id="paint8_linear_288_5732" x1="504.235" y1="427.149" x2="664.235" y2="512.149" gradientUnits="userSpaceOnUse">
<stop offset="0.192308" stop-color="white" stop-opacity="0"/>
<stop offset="1" stop-color="#989898"/>
</linearGradient>
<linearGradient id="paint9_linear_288_5732" x1="532.469" y1="335.207" x2="652.469" y2="335.207" gradientUnits="userSpaceOnUse">
<stop offset="0.192308" stop-color="white" stop-opacity="0"/>
<stop offset="1" stop-color="#989898"/>
</linearGradient>
<linearGradient id="paint10_linear_288_5732" x1="542.819" y1="236.064" x2="652.819" y2="128.064" gradientUnits="userSpaceOnUse">
<stop offset="0.192308" stop-color="white" stop-opacity="0"/>
<stop offset="1" stop-color="#989898"/>
</linearGradient>
<linearGradient id="paint11_linear_288_5732" x1="425.116" y1="469.061" x2="564.116" y2="608.061" gradientUnits="userSpaceOnUse">
<stop offset="0.192308" stop-color="white" stop-opacity="0"/>
<stop offset="1" stop-color="#989898"/>
</linearGradient>
<linearGradient id="paint12_linear_288_5732" x1="422.823" y1="164.061" x2="585.823" y2="1.06058" gradientUnits="userSpaceOnUse">
<stop offset="0.192308" stop-color="white" stop-opacity="0"/>
<stop offset="1" stop-color="#989898"/>
</linearGradient>
</defs>
</svg>
