<svg width="32" height="32" viewBox="0 0 32 32" fill="none" xmlns="http://www.w3.org/2000/svg">
<path fill-rule="evenodd" clip-rule="evenodd" d="M17.016 6.93312C18.0905 5.89219 19.5312 5.31544 21.0272 5.32733C22.5232 5.33921 23.9546 5.93877 25.0125 6.99664C26.0703 8.05451 26.6699 9.48587 26.6818 10.9819C26.6937 12.4779 26.1169 13.9186 25.076 14.9931L25.068 15.0011L22.048 18.0211C21.47 18.5987 20.7746 19.0452 20.009 19.3306C19.2434 19.616 18.4254 19.7336 17.6104 19.6753C16.7954 19.617 16.0024 19.3842 15.2852 18.9928C14.568 18.6014 13.9432 18.0604 13.4533 17.4065C13.3472 17.265 13.3017 17.0872 13.3267 16.9122C13.3517 16.7371 13.4452 16.5792 13.5867 16.4731C13.7281 16.367 13.9059 16.3215 14.0809 16.3465C14.256 16.3715 14.4139 16.465 14.52 16.6065C14.895 17.1079 15.3735 17.5229 15.923 17.8232C16.4725 18.1235 17.0802 18.3021 17.7048 18.3469C18.3294 18.3916 18.9564 18.3015 19.5431 18.0827C20.1298 17.8638 20.6626 17.5213 21.1053 17.0785L24.1213 14.0625C24.9114 13.2378 25.347 12.1365 25.3347 10.9946C25.3224 9.85262 24.8633 8.76092 24.0556 7.95348C23.248 7.14604 22.1562 6.68712 21.0143 6.67509C19.8723 6.66306 18.7711 7.09887 17.9467 7.88912L16.2187 9.60645C16.157 9.66993 16.0833 9.72048 16.0018 9.75517C15.9204 9.78986 15.8329 9.80799 15.7444 9.8085C15.6559 9.80901 15.5682 9.79189 15.4863 9.75813C15.4045 9.72438 15.3302 9.67468 15.2678 9.61191C15.2054 9.54915 15.1561 9.47459 15.1228 9.39258C15.0895 9.31057 15.0729 9.22275 15.0739 9.13424C15.0749 9.04574 15.0936 8.95832 15.1287 8.87709C15.1639 8.79586 15.2148 8.72244 15.2787 8.66112L17.016 6.93312ZM11.9893 12.6665C13.1437 12.2357 14.4066 12.1906 15.5888 12.538C16.7709 12.8853 17.8087 13.6064 18.5467 14.5931C18.6527 14.7346 18.6983 14.9124 18.6733 15.0874C18.6483 15.2624 18.5548 15.4204 18.4133 15.5265C18.2719 15.6325 18.0941 15.6781 17.919 15.6531C17.744 15.6281 17.5861 15.5346 17.48 15.3931C17.1047 14.8918 16.626 14.477 16.0764 14.1768C15.5268 13.8766 14.9191 13.6981 14.2944 13.6533C13.6698 13.6086 13.0428 13.6986 12.456 13.9174C11.8692 14.1361 11.3363 14.4784 10.8933 14.9211L7.87999 17.9371C7.09601 18.7628 6.66549 19.8619 6.68022 21.0004C6.69494 22.1389 7.15374 23.2265 7.95882 24.0316C8.7639 24.8367 9.85159 25.2955 10.99 25.3102C12.1285 25.3249 13.2277 24.8944 14.0533 24.1105L15.772 22.3945C15.8977 22.273 16.0661 22.2058 16.2409 22.2073C16.4157 22.2089 16.5829 22.279 16.7065 22.4026C16.8301 22.5262 16.9003 22.6934 16.9018 22.8682C16.9033 23.043 16.8361 23.2114 16.7147 23.3371L14.984 25.0665C13.9095 26.1074 12.4687 26.6841 10.9727 26.6722C9.47674 26.6604 8.04538 26.0608 6.98752 25.0029C5.92965 23.9451 5.33009 22.5137 5.3182 21.0177C5.30632 19.5217 5.88306 18.081 6.92399 17.0065L6.93199 16.9985L9.95199 13.9785C10.5303 13.4008 11.2254 12.9535 11.9907 12.6665" fill="#FF562F"/>
</svg>
