<svg width="42" height="54" viewBox="0 0 42 54" fill="none" xmlns="http://www.w3.org/2000/svg">
<g clip-path="url(#clip0_758_7515)">
<path d="M30.625 42C24.353 42 19.25 36.897 19.25 30.625C19.25 24.353 24.353 19.25 30.625 19.25C36.897 19.25 42 24.353 42 30.625C42 36.897 36.897 42 30.625 42ZM30.625 22.75C26.2833 22.75 22.75 26.2833 22.75 30.625C22.75 34.9667 26.2833 38.5 30.625 38.5C34.9667 38.5 38.5 34.9667 38.5 30.625C38.5 26.2833 34.9667 22.75 30.625 22.75ZM32.3733 33.8695L35.6738 30.6617C36.3668 29.988 36.3825 28.8803 35.7105 28.1873C35.0368 27.496 33.929 27.4767 33.236 28.1522L29.925 31.3687C29.7518 31.5437 29.4665 31.5437 29.2915 31.3687L27.7585 29.8672C27.0673 29.1917 25.9612 29.204 25.284 29.8953C24.6067 30.5865 24.619 31.6925 25.3103 32.3697L26.8432 33.8712C27.608 34.6202 28.6107 34.993 29.6117 34.993C30.6127 34.993 31.6173 34.6168 32.375 33.8678L32.3733 33.8695ZM15.75 21C9.95925 21 5.25 16.2908 5.25 10.5C5.25 4.70925 9.95925 0 15.75 0C21.5408 0 26.25 4.70925 26.25 10.5C26.25 16.2908 21.5408 21 15.75 21ZM15.75 3.5C11.8895 3.5 8.75 6.6395 8.75 10.5C8.75 14.3605 11.8895 17.5 15.75 17.5C19.6105 17.5 22.75 14.3605 22.75 10.5C22.75 6.6395 19.6105 3.5 15.75 3.5ZM3.5 40.25C3.5 34.083 8.10775 28.8558 14.217 28.0945C15.176 27.9755 15.8568 27.1005 15.7378 26.1415C15.6188 25.1825 14.7332 24.5122 13.7847 24.6225C5.9255 25.6007 0 32.3207 0 40.25C0 41.2177 0.784 42 1.75 42C2.716 42 3.5 41.2177 3.5 40.25Z" fill="#FF562F"/>
</g>
<line x1="8.5" y1="52.5" x2="33.5" y2="52.5" stroke="#FF562F" stroke-width="3" stroke-linecap="round"/>
<defs>
<clipPath id="clip0_758_7515">
<rect width="42" height="42" fill="white"/>
</clipPath>
</defs>
</svg>
