<svg width="32" height="32" viewBox="0 0 32 32" fill="none" xmlns="http://www.w3.org/2000/svg">
<path d="M13.3333 15.5024L6.76667 23.2291C6.55858 23.4742 6.30187 23.6736 6.01278 23.8144C5.72369 23.9553 5.40851 24.0346 5.08718 24.0474C4.76586 24.0602 4.44537 24.0061 4.14601 23.8887C3.84664 23.7712 3.57491 23.5929 3.348 23.3651C3.12019 23.1373 2.94202 22.8648 2.82471 22.5647C2.70741 22.2647 2.65351 21.9436 2.66641 21.6217C2.67931 21.2998 2.75873 20.984 2.89967 20.6943C3.04062 20.4046 3.24002 20.1472 3.48533 19.9384L11.1933 13.3584" stroke="#FF562F" stroke-linejoin="round"/>
<path d="M24 13.4226L17.3973 20.04M13.2693 2.66797L6.66666 9.28664M26.6667 15.5453L29.3333 13.3586M26.6667 19.9186L29.3333 21.376M14.6693 29.332H28M16.3027 29.332C17.0373 28.0146 17.5867 25.496 20.1893 25.3546C20.9627 25.312 21.7493 25.312 22.5227 25.3546C25.124 25.496 25.676 28.0146 26.412 29.332M12.444 3.49597L7.49333 8.45864C7.49333 8.45864 9.96933 11.768 12.4453 14.2493C14.9227 16.7306 18.224 19.2133 18.224 19.2133L23.176 14.2493C23.176 14.2493 20.7 10.9413 18.224 8.45864C15.748 5.97864 12.444 3.49597 12.444 3.49597Z" stroke="#FF562F" stroke-linecap="round" stroke-linejoin="round"/>
</svg>
