<svg width="32" height="32" viewBox="0 0 32 32" fill="none" xmlns="http://www.w3.org/2000/svg">
<path d="M29 16.8468V8.26676C29 7.55952 28.719 6.88124 28.219 6.38115C27.7189 5.88105 27.0406 5.6001 26.3333 5.6001H5.66667C4.95942 5.6001 4.28115 5.88105 3.78105 6.38115C3.28095 6.88124 3 7.55952 3 8.26676V23.7334C3 24.4407 3.28095 25.119 3.78105 25.6191C4.28115 26.1191 4.95942 26.4001 5.66667 26.4001H22.51M3 10.4241H29" stroke="#FF562F" stroke-width="0.666667" stroke-linecap="round" stroke-linejoin="round"/>
<path d="M24.992 27.7333C27.8833 26.7366 29.944 24.42 30.2673 21.4706C30.394 20.3113 30.3107 18.5986 30.2447 17.626C30.2307 17.4243 30.1421 17.2351 29.9961 17.0952C29.8502 16.9553 29.6574 16.8748 29.4553 16.8693C28.1473 16.8293 26.6273 16.6106 25.4527 15.454C25.33 15.3331 25.1646 15.2653 24.9923 15.2653C24.8201 15.2653 24.6547 15.3331 24.532 15.454C23.3567 16.6106 21.8367 16.8286 20.5293 16.8693C20.3273 16.8748 20.1345 16.9553 19.9886 17.0952C19.8426 17.2351 19.754 17.4243 19.74 17.626C19.6733 18.5993 19.59 20.3113 19.7173 21.4706C20.0407 24.42 22.1013 26.7373 24.992 27.7333ZM24.992 27.7333V15.2646" stroke="#FF562F" stroke-width="0.666667" stroke-linecap="round" stroke-linejoin="round"/>
</svg>
