<svg width="32" height="32" viewBox="0 0 32 32" fill="none" xmlns="http://www.w3.org/2000/svg">
<path d="M27.3547 18.872L18.872 27.3547C18.6542 27.5698 18.4093 27.7311 18.1373 27.8387C17.8653 27.9462 17.5942 28 17.324 28C17.0538 28 16.7849 27.9462 16.5173 27.8387C16.2498 27.7311 16.0071 27.5698 15.7893 27.3547L4.64001 16.2267C4.42934 16.0338 4.27023 15.8036 4.16268 15.536C4.05512 15.2693 4.00134 14.9884 4.00134 14.6933V6.17867C4.00134 5.57956 4.21112 5.06667 4.63068 4.64C5.05023 4.21333 5.56668 4 6.18001 4H14.6947C14.9827 4 15.2622 4.05822 15.5333 4.17467C15.8045 4.29111 16.0387 4.44844 16.236 4.64667L27.3547 15.772C27.5769 15.9898 27.7387 16.2347 27.84 16.5067C27.9413 16.7787 27.992 17.0529 27.992 17.3293C27.992 17.6058 27.9413 17.8769 27.84 18.1427C27.7387 18.4084 27.5769 18.6516 27.3547 18.872ZM17.9213 26.4107L26.4027 17.928C26.5733 17.7573 26.6587 17.5564 26.6587 17.3253C26.6587 17.0942 26.5733 16.8933 26.4027 16.7227L15.0213 5.36H6.18001C5.94001 5.36 5.73912 5.43689 5.57734 5.59067C5.41468 5.74444 5.33334 5.94089 5.33334 6.18V14.6867C5.33334 14.7898 5.35068 14.8924 5.38534 14.9947C5.41912 15.0978 5.47868 15.192 5.56401 15.2773L16.716 26.4107C16.8867 26.5813 17.0871 26.6667 17.3173 26.6667C17.5485 26.6667 17.7498 26.5813 17.9213 26.4107ZM8.73334 10.0773C9.10757 10.0773 9.4249 9.94756 9.68534 9.688C9.94579 9.42844 10.0765 9.11378 10.0773 8.744C10.0773 8.36622 9.94756 8.04533 9.68801 7.78133C9.42845 7.51733 9.11379 7.38489 8.74401 7.384C8.36623 7.384 8.04534 7.51511 7.78134 7.77733C7.51734 8.03956 7.38534 8.35822 7.38534 8.73333C7.38534 9.10844 7.51645 9.42578 7.77868 9.68533C8.0409 9.94489 8.35912 10.0756 8.73334 10.0773Z" fill="#FF562F"/>
</svg>
