<svg width="32" height="32" viewBox="0 0 32 32" fill="none" xmlns="http://www.w3.org/2000/svg">
<path d="M31.3412 13.7113L28.15 7.33628C28.0619 7.16005 27.94 7.00289 27.7912 6.87378C27.6424 6.74467 27.4697 6.64613 27.2828 6.5838C27.0959 6.52147 26.8986 6.49656 26.7021 6.5105C26.5056 6.52443 26.3137 6.57694 26.1375 6.66503L22.86 8.29753L16.125 6.51753C16.0431 6.4958 15.9569 6.4958 15.875 6.51753L9.14 8.29753L5.8625 6.65878C5.68628 6.57069 5.49444 6.51818 5.29793 6.50425C5.10142 6.49031 4.90409 6.51522 4.71721 6.57755C4.53033 6.63988 4.35755 6.73842 4.20876 6.86753C4.05996 6.99664 3.93805 7.1538 3.85 7.33003L0.658747 13.7113C0.570663 13.8875 0.518153 14.0793 0.504216 14.2758C0.490279 14.4724 0.515189 14.6697 0.577521 14.8566C0.639854 15.0434 0.738389 15.2162 0.8675 15.365C0.996611 15.5138 1.15377 15.6357 1.33 15.7238L4.74125 17.43L11.71 22.4075C11.7608 22.4439 11.8181 22.4702 11.8787 22.485L19.8787 24.485C19.962 24.5068 20.0494 24.5068 20.1327 24.4849C20.2159 24.463 20.292 24.42 20.3537 24.36L27.2962 17.4175L30.6712 15.73C30.8475 15.642 31.0046 15.5201 31.1337 15.3713C31.2629 15.2225 31.3614 15.0497 31.4237 14.8628C31.4861 14.6759 31.511 14.4786 31.497 14.2821C31.4831 14.0856 31.4306 13.8937 31.3425 13.7175L31.3412 13.7113ZM24.9662 18.33L20.3162 14.605C20.22 14.5278 20.0985 14.4889 19.9753 14.4958C19.8521 14.5027 19.7358 14.555 19.6487 14.6425C17.2125 17.0975 14.4812 16.7813 12.7375 15.6675C12.6733 15.6263 12.6192 15.5713 12.5792 15.5064C12.5391 15.4414 12.5142 15.3684 12.5062 15.2925C12.4977 15.2195 12.5058 15.1455 12.5298 15.076C12.5538 15.0066 12.5932 14.9434 12.645 14.8913L18.2025 9.50003H22.6912L26.3912 16.9013L24.9662 18.33ZM1.52625 14.54C1.48627 14.4162 1.49614 14.2817 1.55375 14.165L4.75 7.77753C4.79101 7.69498 4.85404 7.62538 4.93213 7.5764C5.01022 7.52743 5.10033 7.501 5.1925 7.50003C5.26982 7.5005 5.34598 7.5189 5.415 7.55378L8.415 9.05378L4.77625 16.33L1.77625 14.83C1.71757 14.8005 1.66528 14.7597 1.62239 14.7099C1.57949 14.6601 1.54682 14.6024 1.52625 14.54ZM19.8462 23.4463L12.2137 21.5375L5.63875 16.8413L9.43125 9.25003L16 7.51753L19.715 8.50003H18C17.8698 8.4999 17.7447 8.55058 17.6512 8.64128L11.9387 14.1825C11.7798 14.3415 11.6586 14.5342 11.5841 14.7463C11.5096 14.9585 11.4838 15.1846 11.5085 15.4081C11.5332 15.6316 11.6079 15.8466 11.7269 16.0374C11.846 16.2281 12.0064 16.3896 12.1962 16.51C14.6812 18.0988 17.7125 17.76 20.0287 15.6588L24.25 19.0413L19.8462 23.4463ZM30.4712 14.54C30.4507 14.6024 30.418 14.6601 30.3751 14.7099C30.3322 14.7597 30.2799 14.8005 30.2212 14.83L27.2212 16.33L23.585 9.05378L26.585 7.55378C26.703 7.49631 26.8389 7.48756 26.9633 7.52943C27.0878 7.57129 27.1907 7.6604 27.25 7.77753L30.4412 14.1588C30.5022 14.2765 30.5139 14.4137 30.4737 14.54H30.4712ZM15.9925 27.125C15.9647 27.2325 15.902 27.3277 15.8142 27.3956C15.7264 27.4635 15.6185 27.5002 15.5075 27.5C15.4654 27.5003 15.4234 27.4953 15.3825 27.485L10.1725 26.1813C10.1115 26.1664 10.0538 26.1401 10.0025 26.1038L6.71 23.75C6.60209 23.6729 6.52922 23.5562 6.50741 23.4254C6.48561 23.2945 6.51667 23.1604 6.59375 23.0525C6.67083 22.9446 6.78761 22.8717 6.91842 22.8499C7.04923 22.8281 7.18334 22.8592 7.29125 22.9363L10.5062 25.2325L15.6312 26.5138C15.6952 26.5299 15.7554 26.5586 15.8083 26.5982C15.8611 26.6377 15.9056 26.6873 15.9392 26.7441C15.9728 26.801 15.9948 26.8639 16.0039 26.9293C16.0131 26.9946 16.0092 27.0612 15.9925 27.125Z" fill="#FF562F"/>
</svg>
