<svg width="32" height="32" viewBox="0 0 32 32" fill="none" xmlns="http://www.w3.org/2000/svg">
<path d="M14.0133 4.88685C14.2634 4.60751 14.5697 4.38406 14.912 4.23108C15.2543 4.0781 15.625 3.99902 16 3.99902C16.375 3.99902 16.7457 4.0781 17.088 4.23108C17.4303 4.38406 17.7365 4.60751 17.9867 4.88685L18.92 5.92952C19.1867 6.22751 19.5171 6.46169 19.8866 6.61471C20.2561 6.76773 20.6553 6.83568 21.0547 6.81352L22.4547 6.73619C22.8291 6.71554 23.2037 6.77412 23.554 6.90808C23.9043 7.04205 24.2224 7.24839 24.4875 7.51364C24.7526 7.77889 24.9588 8.09707 25.0926 8.44742C25.2264 8.79777 25.2848 9.1724 25.264 9.54685L25.1867 10.9455C25.1647 11.3446 25.2328 11.7436 25.3858 12.1128C25.5388 12.4821 25.7729 12.8122 26.0707 13.0789L27.1133 14.0122C27.3929 14.2623 27.6165 14.5686 27.7696 14.911C27.9228 15.2535 28.0019 15.6244 28.0019 15.9995C28.0019 16.3746 27.9228 16.7455 27.7696 17.088C27.6165 17.4304 27.3929 17.7367 27.1133 17.9869L26.0707 18.9202C25.7727 19.1869 25.5385 19.5173 25.3855 19.8868C25.2325 20.2563 25.1645 20.6555 25.1867 21.0549L25.264 22.4549C25.2846 22.8293 25.2261 23.2039 25.0921 23.5542C24.9581 23.9045 24.7518 24.2226 24.4865 24.4877C24.2213 24.7528 23.9031 24.959 23.5528 25.0928C23.2024 25.2266 22.8278 25.285 22.4533 25.2642L21.0547 25.1869C20.6556 25.1649 20.2566 25.2329 19.8873 25.386C19.5181 25.539 19.1879 25.773 18.9213 26.0709L17.988 27.1135C17.7379 27.3931 17.4316 27.6167 17.0891 27.7698C16.7467 27.9229 16.3758 28.0021 16.0007 28.0021C15.6255 28.0021 15.2546 27.9229 14.9122 27.7698C14.5697 27.6167 14.2635 27.3931 14.0133 27.1135L13.08 26.0709C12.8133 25.7729 12.4829 25.5387 12.1134 25.3857C11.7439 25.2326 11.3447 25.1647 10.9453 25.1869L9.54533 25.2642C9.17087 25.2848 8.79627 25.2263 8.44598 25.0923C8.0957 24.9583 7.77761 24.752 7.51249 24.4867C7.24737 24.2215 7.04117 23.9033 6.90737 23.5529C6.77357 23.2026 6.71518 22.828 6.736 22.4535L6.81333 21.0549C6.83529 20.6557 6.76724 20.2568 6.61423 19.8875C6.46122 19.5183 6.22715 19.1881 5.92933 18.9215L4.88667 17.9882C4.60711 17.7381 4.38347 17.4318 4.23035 17.0893C4.07724 16.7469 3.99809 16.376 3.99809 16.0009C3.99809 15.6257 4.07724 15.2548 4.23035 14.9124C4.38347 14.5699 4.60711 14.2636 4.88667 14.0135L5.92933 13.0802C6.22733 12.8134 6.4615 12.4831 6.61453 12.1136C6.76755 11.744 6.83549 11.3448 6.81333 10.9455L6.736 9.54552C6.71555 9.17117 6.77427 8.79671 6.90832 8.44659C7.04237 8.09646 7.24875 7.77854 7.51397 7.51356C7.7792 7.24859 8.09732 7.04252 8.44757 6.9088C8.79782 6.77508 9.17233 6.71672 9.54667 6.73752L10.9453 6.81485C11.3444 6.83681 11.7434 6.76876 12.1126 6.61575C12.4819 6.46274 12.8121 6.22867 13.0787 5.93085L14.0133 4.88685Z" stroke="#FF562F" stroke-width="1.33333"/>
<path d="M12.6667 12.667H12.68V12.6803H12.6667V12.667ZM19.3333 19.3337H19.3467V19.347H19.3333V19.3337Z" stroke="#FF562F" stroke-width="2" stroke-linejoin="round"/>
<path d="M20 12L12 20" stroke="#FF562F" stroke-width="1.33333" stroke-linecap="round" stroke-linejoin="round"/>
</svg>
