<svg width="32" height="32" viewBox="0 0 32 32" fill="none" xmlns="http://www.w3.org/2000/svg">
<path d="M28 8L20 16M18.6669 22.6669H9.33312M14.6669 17.3331H9.33312" stroke="#FF562F" stroke-width="1.28" stroke-linecap="round" stroke-linejoin="round"/>
<path d="M20.6003 8.66699H20.7334M27.2666 15.3332H27.4003" stroke="#FF562F" stroke-width="1.92" stroke-linecap="round" stroke-linejoin="round"/>
<path d="M24 21.3331V26.6669C24 27.0204 23.8595 27.3595 23.6095 27.6095C23.3595 27.8595 23.0204 28 22.6669 28H5.33312C4.97955 28 4.64047 27.8595 4.39046 27.6095C4.14045 27.3595 4 27.0204 4 26.6669V5.33312C4 4.97955 4.14045 4.64047 4.39046 4.39046C4.64047 4.14045 4.97955 4 5.33312 4H14.6669" stroke="#FF562F" stroke-width="1.28" stroke-linecap="round" stroke-linejoin="round"/>
</svg>
