<svg width="32" height="32" viewBox="0 0 32 32" fill="none" xmlns="http://www.w3.org/2000/svg">
<path d="M2.66666 16C2.66666 10.3427 2.66666 7.51467 4.61866 5.75733C6.57332 4 9.71466 4 16 4C22.2853 4 25.428 4 27.38 5.75733C29.332 7.51467 29.3333 10.344 29.3333 16C29.3333 21.656 29.3333 24.4853 27.38 26.2427C25.4293 28 22.2853 28 16 28C9.71466 28 6.57199 28 4.61866 26.2427C2.66532 24.4853 2.66666 21.656 2.66666 16Z" stroke="#FF562F" stroke-width="1.5" stroke-linecap="round" stroke-linejoin="round"/>
<path d="M11.2 10.6665H10.1333C9.128 10.6665 8.62533 10.6665 8.312 10.9785C8 11.2932 8 11.7945 8 12.7998V13.8665C8 14.8718 8 15.3745 8.312 15.6878C8.62667 15.9998 9.128 15.9998 10.1333 15.9998H11.2C12.2053 15.9998 12.708 15.9998 13.0213 15.6878C13.3333 15.3732 13.3333 14.8718 13.3333 13.8665V12.7998C13.3333 11.7945 13.3333 11.2918 13.0213 10.9785C12.7067 10.6665 12.2053 10.6665 11.2 10.6665Z" stroke="#FF562F" stroke-width="1.5" stroke-linejoin="round"/>
<path d="M8 21.3332H13.3333M18.6667 10.6665H24M18.6667 15.9998H24M18.6667 21.3332H24" stroke="#FF562F" stroke-width="1.5" stroke-linecap="round" stroke-linejoin="round"/>
</svg>
