<svg width="32" height="32" viewBox="0 0 32 32" fill="none" xmlns="http://www.w3.org/2000/svg">
<path d="M21.5893 26.0002C20.3698 26.0002 19.3253 25.5669 18.456 24.7002C17.5867 23.8336 17.1524 22.7918 17.1533 21.5749C17.1542 20.358 17.588 19.3167 18.4547 18.4509C19.3213 17.5851 20.3631 17.1531 21.58 17.1549C22.7969 17.1567 23.8378 17.5882 24.7027 18.4496C25.5676 19.3109 26 20.3491 26 21.5642C26 22.0567 25.9244 22.5224 25.7733 22.9616C25.624 23.4007 25.4098 23.8033 25.1307 24.1696L28.3747 27.4309C28.4396 27.4869 28.4884 27.5562 28.5213 27.6389C28.5533 27.7224 28.5693 27.802 28.5693 27.8776C28.5693 27.9531 28.5529 28.0322 28.52 28.1149C28.4871 28.1976 28.4382 28.2758 28.3733 28.3496C28.3209 28.4056 28.2547 28.4509 28.1747 28.4856C28.0947 28.5202 28.0124 28.5371 27.928 28.5362C27.8329 28.5362 27.744 28.5193 27.6613 28.4856C27.5787 28.4509 27.5018 28.4056 27.4307 28.3496L24.188 25.1389C23.8218 25.4171 23.4196 25.6304 22.9813 25.7789C22.5431 25.9273 22.0791 26.0011 21.5893 26.0002ZM7.744 26.0269C6.53067 26.0269 5.49244 25.594 4.62933 24.7282C3.76533 23.8633 3.33333 22.8087 3.33333 21.5642C3.33333 20.3518 3.76533 19.3136 4.62933 18.4496C5.49244 17.5856 6.53067 17.1536 7.744 17.1536C8.98844 17.1536 10.0431 17.5856 10.908 18.4496C11.7729 19.3136 12.2053 20.3518 12.2053 21.5642C12.2053 22.8087 11.7729 23.8633 10.908 24.7282C10.0431 25.5931 8.98844 26.0269 7.744 26.0269ZM7.744 24.6922C8.63111 24.6922 9.37422 24.3927 9.97333 23.7936C10.5724 23.1944 10.872 22.4513 10.872 21.5642C10.872 20.718 10.5724 19.9936 9.97333 19.3909C9.37422 18.7882 8.63111 18.4869 7.744 18.4869C6.89778 18.4869 6.17333 18.7882 5.57067 19.3909C4.968 19.9936 4.66667 20.718 4.66667 21.5642C4.66667 22.4513 4.968 23.1944 5.57067 23.7936C6.17333 24.3927 6.89778 24.6922 7.744 24.6922ZM21.5893 24.6922C22.4356 24.6922 23.16 24.3927 23.7627 23.7936C24.3653 23.1944 24.6667 22.4513 24.6667 21.5642C24.6667 20.718 24.3653 19.9936 23.7627 19.3909C23.16 18.7882 22.4356 18.4869 21.5893 18.4869C20.7022 18.4869 19.9591 18.7882 19.36 19.3909C18.7609 19.9936 18.4613 20.718 18.4613 21.5642C18.4613 22.4513 18.7609 23.1944 19.36 23.7936C19.9591 24.3927 20.7022 24.6922 21.5893 24.6922ZM7.744 12.2309C6.53067 12.2309 5.49244 11.7984 4.62933 10.9336C3.76533 10.0687 3.33333 9.014 3.33333 7.76955C3.33333 6.55711 3.76533 5.51889 4.62933 4.65489C5.49244 3.79089 6.53067 3.35889 7.744 3.35889C8.98844 3.35889 10.0431 3.79089 10.908 4.65489C11.7729 5.51889 12.2053 6.55711 12.2053 7.76955C12.2053 9.014 11.7729 10.0687 10.908 10.9336C10.0431 11.7984 8.98844 12.2309 7.744 12.2309ZM21.5893 12.2309C20.3449 12.2309 19.2902 11.7984 18.4253 10.9336C17.5604 10.0687 17.128 9.014 17.128 7.76955C17.128 6.55622 17.5604 5.518 18.4253 4.65489C19.2902 3.79089 20.3449 3.35889 21.5893 3.35889C22.8027 3.35889 23.8409 3.79089 24.704 4.65489C25.568 5.51889 26 6.55711 26 7.76955C26 9.014 25.568 10.0687 24.704 10.9336C23.8409 11.7984 22.8027 12.2309 21.5893 12.2309ZM7.744 10.8976C8.63111 10.8976 9.37422 10.598 9.97333 9.99889C10.5724 9.39978 10.872 8.65666 10.872 7.76955C10.872 6.92333 10.5724 6.19889 9.97333 5.59622C9.37422 4.99355 8.63111 4.69222 7.744 4.69222C6.89778 4.69222 6.17333 4.99355 5.57067 5.59622C4.968 6.19889 4.66667 6.92333 4.66667 7.76955C4.66667 8.65666 4.968 9.39978 5.57067 9.99889C6.17333 10.598 6.89778 10.8976 7.744 10.8976ZM21.5893 10.8976C22.4356 10.8976 23.16 10.598 23.7627 9.99889C24.3653 9.39978 24.6667 8.65666 24.6667 7.76955C24.6667 6.92333 24.3653 6.19889 23.7627 5.59622C23.16 4.99355 22.4356 4.69222 21.5893 4.69222C20.7022 4.69222 19.9591 4.99355 19.36 5.59622C18.7609 6.19889 18.4613 6.92333 18.4613 7.76955C18.4613 8.65666 18.7609 9.39978 19.36 9.99889C19.9591 10.598 20.7022 10.8976 21.5893 10.8976Z" fill="#FF562F"/>
</svg>
