<svg width="18" height="18" viewBox="0 0 18 18" fill="none" xmlns="http://www.w3.org/2000/svg">
<g clip-path="url(#clip0_636_1958)">
<path d="M8.94394 0.5625C5.28769 0.5625 2.16582 2.925 1.0127 6.1875H16.9314C15.7502 2.925 12.6283 0.5625 8.94394 0.5625Z" fill="#FC9700"/>
<path d="M8.94394 17.4375C12.6283 17.4375 15.7502 15.1031 16.9033 11.8125H1.0127C2.16582 15.1031 5.28769 17.4375 8.94394 17.4375Z" fill="#5EC307"/>
<path d="M1.0123 6.1875C0.70293 7.05937 0.53418 8.01562 0.53418 9C0.53418 9.98438 0.70293 10.9406 1.0123 11.8125H16.9311C17.2404 10.9406 17.4092 9.98438 17.4092 9C17.4092 8.01562 17.2404 7.05937 16.9311 6.1875H1.0123Z" fill="white"/>
<path d="M8.94336 11.25C10.186 11.25 11.1934 10.2426 11.1934 9C11.1934 7.75736 10.186 6.75 8.94336 6.75C7.70072 6.75 6.69336 7.75736 6.69336 9C6.69336 10.2426 7.70072 11.25 8.94336 11.25Z" fill="#428BC1"/>
<path d="M8.94336 10.9688C10.0307 10.9688 10.9121 10.0873 10.9121 9C10.9121 7.91269 10.0307 7.03125 8.94336 7.03125C7.85605 7.03125 6.97461 7.91269 6.97461 9C6.97461 10.0873 7.85605 10.9688 8.94336 10.9688Z" fill="white"/>
<path d="M8.21191 7.3125C8.28958 7.3125 8.35254 7.24954 8.35254 7.17188C8.35254 7.09421 8.28958 7.03125 8.21191 7.03125C8.13425 7.03125 8.07129 7.09421 8.07129 7.17188C8.07129 7.24954 8.13425 7.3125 8.21191 7.3125Z" fill="#428BC1"/>
<path d="M7.7627 7.56641C7.84036 7.56641 7.90332 7.50345 7.90332 7.42578C7.90332 7.34812 7.84036 7.28516 7.7627 7.28516C7.68503 7.28516 7.62207 7.34812 7.62207 7.42578C7.62207 7.50345 7.68503 7.56641 7.7627 7.56641Z" fill="#428BC1"/>
<path d="M7.39648 7.93164C7.47415 7.93164 7.53711 7.86868 7.53711 7.79102C7.53711 7.71335 7.47415 7.65039 7.39648 7.65039C7.31882 7.65039 7.25586 7.71335 7.25586 7.79102C7.25586 7.86868 7.31882 7.93164 7.39648 7.93164Z" fill="#428BC1"/>
<path d="M7.14355 8.38184C7.22122 8.38184 7.28418 8.31888 7.28418 8.24121C7.28418 8.16355 7.22122 8.10059 7.14355 8.10059C7.06589 8.10059 7.00293 8.16355 7.00293 8.24121C7.00293 8.31888 7.06589 8.38184 7.14355 8.38184Z" fill="#428BC1"/>
<path d="M7.00293 8.8877C7.08059 8.8877 7.14355 8.82474 7.14355 8.74707C7.14355 8.66941 7.08059 8.60645 7.00293 8.60645C6.92526 8.60645 6.8623 8.66941 6.8623 8.74707C6.8623 8.82474 6.92526 8.8877 7.00293 8.8877Z" fill="#428BC1"/>
<path d="M7.00293 9.39453C7.08059 9.39453 7.14355 9.33157 7.14355 9.25391C7.14355 9.17624 7.08059 9.11328 7.00293 9.11328C6.92526 9.11328 6.8623 9.17624 6.8623 9.25391C6.8623 9.33157 6.92526 9.39453 7.00293 9.39453Z" fill="#428BC1"/>
<path d="M7.14355 9.90039C7.22122 9.90039 7.28418 9.83743 7.28418 9.75977C7.28418 9.6821 7.22122 9.61914 7.14355 9.61914C7.06589 9.61914 7.00293 9.6821 7.00293 9.75977C7.00293 9.83743 7.06589 9.90039 7.14355 9.90039Z" fill="#428BC1"/>
<path d="M7.39648 10.3506C7.47415 10.3506 7.53711 10.2876 7.53711 10.21C7.53711 10.1323 7.47415 10.0693 7.39648 10.0693C7.31882 10.0693 7.25586 10.1323 7.25586 10.21C7.25586 10.2876 7.31882 10.3506 7.39648 10.3506Z" fill="#428BC1"/>
<path d="M7.7627 10.7158C7.84036 10.7158 7.90332 10.6529 7.90332 10.5752C7.90332 10.4975 7.84036 10.4346 7.7627 10.4346C7.68503 10.4346 7.62207 10.4975 7.62207 10.5752C7.62207 10.6529 7.68503 10.7158 7.7627 10.7158Z" fill="#428BC1"/>
<path d="M8.21191 10.9688C8.28958 10.9688 8.35254 10.9058 8.35254 10.8281C8.35254 10.7505 8.28958 10.6875 8.21191 10.6875C8.13425 10.6875 8.07129 10.7505 8.07129 10.8281C8.07129 10.9058 8.13425 10.9688 8.21191 10.9688Z" fill="#428BC1"/>
<path d="M8.69043 11.082C8.76809 11.082 8.83105 11.0191 8.83105 10.9414C8.83105 10.8637 8.76809 10.8008 8.69043 10.8008C8.61276 10.8008 8.5498 10.8637 8.5498 10.9414C8.5498 11.0191 8.61276 11.082 8.69043 11.082Z" fill="#428BC1"/>
<path d="M9.08398 10.9695C9.08398 10.8852 9.14023 10.8289 9.19648 10.8008C9.28086 10.8008 9.33711 10.857 9.36523 10.9133C9.36523 10.9977 9.30899 11.0539 9.25274 11.082C9.14024 11.1102 9.08398 11.0539 9.08398 10.9695Z" fill="#428BC1"/>
<path d="M9.70312 10.9688C9.78079 10.9688 9.84375 10.9058 9.84375 10.8281C9.84375 10.7505 9.78079 10.6875 9.70312 10.6875C9.62546 10.6875 9.5625 10.7505 9.5625 10.8281C9.5625 10.9058 9.62546 10.9688 9.70312 10.9688Z" fill="#428BC1"/>
<path d="M10.1533 10.7158C10.231 10.7158 10.2939 10.6529 10.2939 10.5752C10.2939 10.4975 10.231 10.4346 10.1533 10.4346C10.0757 10.4346 10.0127 10.4975 10.0127 10.5752C10.0127 10.6529 10.0757 10.7158 10.1533 10.7158Z" fill="#428BC1"/>
<path d="M10.5186 10.3506C10.5962 10.3506 10.6592 10.2876 10.6592 10.21C10.6592 10.1323 10.5962 10.0693 10.5186 10.0693C10.4409 10.0693 10.3779 10.1323 10.3779 10.21C10.3779 10.2876 10.4409 10.3506 10.5186 10.3506Z" fill="#428BC1"/>
<path d="M10.7715 9.90039C10.8491 9.90039 10.9121 9.83743 10.9121 9.75977C10.9121 9.6821 10.8491 9.61914 10.7715 9.61914C10.6938 9.61914 10.6309 9.6821 10.6309 9.75977C10.6309 9.83743 10.6938 9.90039 10.7715 9.90039Z" fill="#428BC1"/>
<path d="M10.9121 9.39453C10.9898 9.39453 11.0527 9.33157 11.0527 9.25391C11.0527 9.17624 10.9898 9.11328 10.9121 9.11328C10.8344 9.11328 10.7715 9.17624 10.7715 9.25391C10.7715 9.33157 10.8344 9.39453 10.9121 9.39453Z" fill="#428BC1"/>
<path d="M10.9119 8.8877C10.8275 8.8877 10.7713 8.83145 10.7432 8.7752C10.7432 8.69082 10.7994 8.63457 10.8557 8.60645C10.94 8.60645 10.9963 8.6627 11.0244 8.71895C11.0525 8.80332 10.9963 8.85957 10.9119 8.8877Z" fill="#428BC1"/>
<path d="M10.7715 8.38184C10.8491 8.38184 10.9121 8.31888 10.9121 8.24121C10.9121 8.16355 10.8491 8.10059 10.7715 8.10059C10.6938 8.10059 10.6309 8.16355 10.6309 8.24121C10.6309 8.31888 10.6938 8.38184 10.7715 8.38184Z" fill="#428BC1"/>
<path d="M10.5186 7.93164C10.5962 7.93164 10.6592 7.86868 10.6592 7.79102C10.6592 7.71335 10.5962 7.65039 10.5186 7.65039C10.4409 7.65039 10.3779 7.71335 10.3779 7.79102C10.3779 7.86868 10.4409 7.93164 10.5186 7.93164Z" fill="#428BC1"/>
<path d="M10.1533 7.56641C10.231 7.56641 10.2939 7.50345 10.2939 7.42578C10.2939 7.34812 10.231 7.28516 10.1533 7.28516C10.0757 7.28516 10.0127 7.34812 10.0127 7.42578C10.0127 7.50345 10.0757 7.56641 10.1533 7.56641Z" fill="#428BC1"/>
<path d="M9.84355 7.22861C9.81543 7.31298 9.73105 7.34111 9.64668 7.31298C9.5623 7.28486 9.53418 7.20048 9.5623 7.11611C9.59043 7.03173 9.67481 7.00361 9.75918 7.03173C9.84356 7.08798 9.87168 7.17236 9.84355 7.22861ZM9.33731 7.05986C9.33731 7.14423 9.25293 7.20048 9.16855 7.17236C9.08418 7.17236 9.02793 7.08798 9.05606 7.00361C9.05606 6.91923 9.14043 6.86298 9.2248 6.89111C9.30918 6.91923 9.36543 7.00361 9.33731 7.05986ZM8.83105 7.03173C8.83105 7.11611 8.7748 7.17236 8.71855 7.20048C8.63418 7.20048 8.57793 7.14423 8.5498 7.08798C8.5498 7.00361 8.60605 6.94736 8.6623 6.91923C8.74668 6.89111 8.83105 6.94736 8.83105 7.03173Z" fill="#428BC1"/>
<path d="M8.94336 9.42188C9.17635 9.42188 9.36523 9.233 9.36523 9C9.36523 8.767 9.17635 8.57812 8.94336 8.57812C8.71036 8.57812 8.52148 8.767 8.52148 9C8.52148 9.233 8.71036 9.42188 8.94336 9.42188Z" fill="#428BC1"/>
<path d="M8.94375 7.03125L8.8875 8.24062L8.94375 9L9.02812 8.24062L8.94375 7.03125ZM8.4375 7.0875L8.69062 8.29688L8.94375 9L8.83125 8.24062L8.4375 7.0875Z" fill="#428BC1"/>
<path d="M7.95918 7.28516L8.52168 8.38203L8.94355 9.00078L8.63418 8.29766L7.95918 7.28516ZM7.56543 7.59453L8.38105 8.52266L8.94355 9.00078L8.46543 8.41016L7.56543 7.59453Z" fill="#428BC1"/>
<path d="M7.25586 8.01562L8.26836 8.69062L8.94336 9L8.32461 8.55L7.25586 8.01562Z" fill="#428BC1"/>
<path d="M7.05898 8.49414L8.21211 8.85977L8.94336 9.00039L8.24023 8.74727L7.05898 8.49414ZM6.97461 9.00039L8.21211 9.05664L8.94336 9.00039L8.21211 8.94414L6.97461 9.00039Z" fill="#428BC1"/>
<path d="M7.05957 9.50625L8.24082 9.25313L8.94394 9L8.2127 9.14062L7.05957 9.50625ZM7.25644 9.98438L8.3252 9.45L8.94394 9L8.26895 9.30937L7.25644 9.98438Z" fill="#428BC1"/>
<path d="M7.56543 10.3781L8.46543 9.59062L8.94355 9L8.38105 9.47813L7.56543 10.3781ZM7.95918 10.7156L8.63418 9.675L8.94355 9L8.52168 9.61875L7.95918 10.7156Z" fill="#428BC1"/>
<path d="M8.4375 10.9125L8.83125 9.75938L8.94375 9L8.69062 9.70312L8.4375 10.9125ZM8.94375 10.9688L9.02812 9.75938L8.94375 9L8.8875 9.75938L8.94375 10.9688ZM9.45 10.9125L9.225 9.70312L8.94375 9L9.08437 9.75938L9.45 10.9125Z" fill="#428BC1"/>
<path d="M9.92773 10.7156L9.39336 9.61875L8.94336 9L9.28086 9.70312L9.92773 10.7156ZM10.3496 10.3781L9.53399 9.47813L8.94336 9L9.44961 9.59062L10.3496 10.3781Z" fill="#428BC1"/>
<path d="M10.659 9.98477L9.64648 9.30976L8.94336 9.00039L9.56211 9.45039L10.659 9.98477ZM10.8559 9.50664L9.70273 9.14102L8.94336 9.00039L9.67461 9.25352L10.8559 9.50664ZM10.9121 9.00039L9.70273 8.91602L8.94336 9.00039L9.70273 9.05664L10.9121 9.00039ZM10.8559 8.49414L9.67461 8.74727L8.94336 9.00039L9.70273 8.85977L10.8559 8.49414Z" fill="#428BC1"/>
<path d="M10.659 8.01582L9.56211 8.5502L8.94336 9.0002L9.64648 8.69082L10.659 8.01582ZM10.3496 7.62207L9.44961 8.40957L8.94336 9.0002L9.53399 8.52207L10.3496 7.62207Z" fill="#428BC1"/>
<path d="M9.92773 7.28516L9.28086 8.32578L8.94336 9.00078L9.39336 8.38203L9.92773 7.28516Z" fill="#428BC1"/>
<path d="M9.47773 7.08789L9.08398 8.24102L8.94336 9.00039L9.22461 8.29727L9.47773 7.08789Z" fill="#428BC1"/>
</g>
<defs>
<clipPath id="clip0_636_1958">
<rect width="18" height="18" fill="white"/>
</clipPath>
</defs>
</svg>
