<svg width="666" height="608" viewBox="0 0 666 608" fill="none" xmlns="http://www.w3.org/2000/svg">
<g filter="url(#filter0_d_288_5732)">
<path d="M325.5 122.041C329.832 119.541 335.168 119.541 339.5 122.041L482.684 204.709C487.015 207.209 489.684 211.831 489.684 216.833V382.167C489.684 387.169 487.015 391.791 482.684 394.291L339.5 476.959C335.168 479.459 329.832 479.459 325.5 476.959L182.316 394.291C177.985 391.791 175.316 387.169 175.316 382.167V216.833C175.316 211.831 177.985 207.209 182.316 204.709L325.5 122.041Z" fill="url(#paint0_linear_288_5732)"/>
<path d="M326 122.907C330.022 120.585 334.978 120.585 339 122.907L482.184 205.574C486.206 207.896 488.684 212.189 488.684 216.833V382.167C488.684 386.811 486.206 391.104 482.184 393.426L339 476.093C334.978 478.415 330.022 478.415 326 476.093L182.816 393.426C178.794 391.104 176.316 386.811 176.316 382.167V216.833C176.316 212.189 178.794 207.896 182.816 205.574L326 122.907Z" stroke="#FFB19F" stroke-width="2"/>
</g>
<path d="M259.41 264V241.6H264.562V264H259.41ZM268.91 264V241.6H274.318L284.142 255.264V241.6H289.294V264H284.142L274.062 249.952V264H268.91ZM293.66 264V241.6H308.508V246.336H298.812V250.656H306.652V255.36H298.812V264H293.66ZM311.535 264V241.6H316.687V259.264H326.223V264H311.535ZM337.965 264.416C336.045 264.416 334.381 264.053 332.973 263.328C331.586 262.603 330.52 261.579 329.773 260.256C329.026 258.912 328.653 257.323 328.653 255.488V241.6H333.805V255.488C333.805 256.341 333.976 257.077 334.317 257.696C334.658 258.315 335.138 258.795 335.757 259.136C336.397 259.477 337.154 259.648 338.029 259.648C338.882 259.648 339.629 259.477 340.269 259.136C340.909 258.795 341.4 258.315 341.741 257.696C342.082 257.077 342.253 256.341 342.253 255.488V241.6H347.405V255.488C347.405 257.323 347.021 258.912 346.253 260.256C345.506 261.579 344.418 262.603 342.989 263.328C341.581 264.053 339.906 264.416 337.965 264.416ZM351.442 264V241.6H366.034V246.336H356.594V250.432H364.498V255.008H356.594V259.264H366.194V264H351.442ZM370.223 264V241.6H379.023C380.644 241.6 382.084 241.92 383.343 242.56C384.602 243.179 385.583 244.053 386.287 245.184C387.012 246.293 387.375 247.573 387.375 249.024C387.375 250.475 387.012 251.765 386.287 252.896C385.562 254.027 384.559 254.912 383.279 255.552C382.02 256.171 380.57 256.48 378.927 256.48H375.375V264H370.223ZM382.383 264L377.327 255.104L381.199 252.256L388.271 264H382.383ZM375.375 251.744H378.863C379.46 251.744 379.994 251.627 380.463 251.392C380.932 251.157 381.295 250.837 381.551 250.432C381.828 250.005 381.967 249.536 381.967 249.024C381.967 248.235 381.668 247.584 381.071 247.072C380.495 246.56 379.727 246.304 378.767 246.304H375.375V251.744ZM391.16 264V241.6H405.752V246.336H396.312V250.432H404.216V255.008H396.312V259.264H405.912V264H391.16Z" fill="#FF562F"/>
<line x1="319.25" y1="273.25" x2="345.75" y2="273.25" stroke="#FF562F" stroke-width="1.5" stroke-linecap="round"/>
<path d="M272.5 306V283.6H280.404C281.94 283.6 283.294 283.909 284.468 284.528C285.641 285.147 286.558 286.011 287.22 287.12C287.881 288.208 288.212 289.477 288.212 290.928C288.212 292.336 287.902 293.595 287.284 294.704C286.665 295.813 285.801 296.688 284.692 297.328C283.604 297.947 282.334 298.256 280.884 298.256H276.212V306H272.5ZM276.212 294.832H280.82C281.886 294.832 282.761 294.469 283.444 293.744C284.126 293.019 284.468 292.08 284.468 290.928C284.468 289.755 284.084 288.805 283.316 288.08C282.548 287.355 281.556 286.992 280.34 286.992H276.212V294.832ZM293.102 297.488C293.102 295.76 293.433 294.341 294.094 293.232C294.755 292.123 295.609 291.301 296.654 290.768C297.721 290.213 298.83 289.936 299.982 289.936V293.36C299.001 293.36 298.073 293.499 297.198 293.776C296.345 294.032 295.651 294.459 295.118 295.056C294.585 295.653 294.318 296.443 294.318 297.424L293.102 297.488ZM290.734 306V290H294.318V306H290.734ZM309.719 306.384C308.119 306.384 306.69 306.032 305.431 305.328C304.194 304.603 303.223 303.611 302.519 302.352C301.815 301.093 301.463 299.643 301.463 298C301.463 296.357 301.804 294.907 302.487 293.648C303.191 292.389 304.162 291.408 305.399 290.704C306.636 289.979 308.055 289.616 309.655 289.616C311.255 289.616 312.674 289.979 313.911 290.704C315.148 291.408 316.108 292.389 316.791 293.648C317.495 294.907 317.847 296.357 317.847 298C317.847 299.643 317.506 301.093 316.823 302.352C316.14 303.611 315.18 304.603 313.943 305.328C312.706 306.032 311.298 306.384 309.719 306.384ZM309.719 303.088C310.594 303.088 311.372 302.875 312.055 302.448C312.738 302 313.271 301.403 313.655 300.656C314.039 299.888 314.231 299.003 314.231 298C314.231 296.997 314.028 296.123 313.623 295.376C313.239 294.608 312.706 294.011 312.023 293.584C311.34 293.136 310.551 292.912 309.655 292.912C308.759 292.912 307.97 293.125 307.287 293.552C306.604 293.979 306.071 294.576 305.687 295.344C305.303 296.112 305.111 296.997 305.111 298C305.111 299.003 305.303 299.888 305.687 300.656C306.092 301.403 306.636 302 307.319 302.448C308.023 302.875 308.823 303.088 309.719 303.088ZM325.511 306L331.751 290H335.463L328.871 306H325.511ZM325.255 306L318.631 290H322.311L328.583 306H325.255ZM337.927 306V290H341.479V306H337.927ZM339.719 286.96C339.143 286.96 338.641 286.757 338.215 286.352C337.809 285.925 337.607 285.424 337.607 284.848C337.607 284.272 337.809 283.781 338.215 283.376C338.641 282.971 339.143 282.768 339.719 282.768C340.295 282.768 340.785 282.971 341.191 283.376C341.617 283.781 341.831 284.272 341.831 284.848C341.831 285.424 341.617 285.925 341.191 286.352C340.785 286.757 340.295 286.96 339.719 286.96ZM357.255 306L357.095 303.024V283.6H360.647V306H357.255ZM352.039 306.384C350.588 306.384 349.319 306.043 348.231 305.36C347.164 304.656 346.321 303.675 345.703 302.416C345.105 301.157 344.807 299.685 344.807 298C344.807 296.293 345.105 294.821 345.703 293.584C346.321 292.325 347.164 291.355 348.231 290.672C349.319 289.968 350.588 289.616 352.039 289.616C353.383 289.616 354.535 289.968 355.495 290.672C356.476 291.355 357.223 292.325 357.735 293.584C358.247 294.821 358.503 296.293 358.503 298C358.503 299.685 358.247 301.157 357.735 302.416C357.223 303.675 356.476 304.656 355.495 305.36C354.535 306.043 353.383 306.384 352.039 306.384ZM352.935 303.12C353.745 303.12 354.46 302.907 355.079 302.48C355.719 302.032 356.209 301.424 356.551 300.656C356.913 299.888 357.095 299.003 357.095 298C357.095 296.997 356.913 296.112 356.551 295.344C356.209 294.576 355.719 293.979 355.079 293.552C354.46 293.125 353.735 292.912 352.903 292.912C352.049 292.912 351.292 293.125 350.631 293.552C349.969 293.979 349.447 294.576 349.063 295.344C348.7 296.112 348.508 296.997 348.487 298C348.508 299.003 348.7 299.888 349.063 300.656C349.447 301.424 349.969 302.032 350.631 302.48C351.313 302.907 352.081 303.12 352.935 303.12ZM371.745 306.384C370.188 306.384 368.801 306.032 367.585 305.328C366.39 304.603 365.441 303.611 364.737 302.352C364.054 301.093 363.713 299.643 363.713 298C363.713 296.357 364.065 294.907 364.769 293.648C365.473 292.389 366.433 291.408 367.649 290.704C368.886 289.979 370.294 289.616 371.873 289.616C373.302 289.616 374.593 289.989 375.745 290.736C376.897 291.461 377.804 292.517 378.465 293.904C379.148 295.291 379.489 296.944 379.489 298.864H366.913L367.393 298.416C367.393 299.397 367.606 300.251 368.033 300.976C368.46 301.68 369.025 302.224 369.729 302.608C370.433 302.992 371.212 303.184 372.065 303.184C373.046 303.184 373.857 302.971 374.497 302.544C375.137 302.096 375.638 301.52 376.001 300.816L379.169 302.16C378.721 303.013 378.145 303.76 377.441 304.4C376.758 305.04 375.937 305.531 374.977 305.872C374.038 306.213 372.961 306.384 371.745 306.384ZM367.617 296.56L367.105 296.112H376.129L375.649 296.56C375.649 295.685 375.457 294.971 375.073 294.416C374.689 293.84 374.198 293.413 373.601 293.136C373.025 292.837 372.417 292.688 371.777 292.688C371.137 292.688 370.497 292.837 369.857 293.136C369.217 293.413 368.684 293.84 368.257 294.416C367.83 294.971 367.617 295.685 367.617 296.56ZM388.058 306.384C386.991 306.384 386.01 306.224 385.114 305.904C384.218 305.584 383.45 305.136 382.81 304.56C382.17 303.963 381.679 303.269 381.338 302.48L384.442 301.104C384.762 301.701 385.231 302.203 385.85 302.608C386.49 303.013 387.194 303.216 387.962 303.216C388.794 303.216 389.455 303.077 389.946 302.8C390.458 302.501 390.714 302.096 390.714 301.584C390.714 301.093 390.522 300.72 390.138 300.464C389.754 300.187 389.21 299.963 388.506 299.792L387.002 299.376C385.487 298.992 384.303 298.384 383.45 297.552C382.597 296.699 382.17 295.728 382.17 294.64C382.17 293.04 382.682 291.803 383.706 290.928C384.751 290.053 386.245 289.616 388.186 289.616C389.167 289.616 390.063 289.765 390.874 290.064C391.706 290.341 392.421 290.747 393.018 291.28C393.615 291.792 394.031 292.4 394.266 293.104L391.29 294.448C391.077 293.915 390.671 293.509 390.074 293.232C389.477 292.933 388.815 292.784 388.09 292.784C387.365 292.784 386.799 292.944 386.394 293.264C385.989 293.563 385.786 293.989 385.786 294.544C385.786 294.864 385.967 295.163 386.33 295.44C386.693 295.696 387.215 295.909 387.898 296.08L389.786 296.528C390.831 296.784 391.685 297.189 392.346 297.744C393.007 298.277 393.498 298.885 393.818 299.568C394.138 300.229 394.298 300.901 394.298 301.584C394.298 302.544 394.021 303.387 393.466 304.112C392.933 304.837 392.197 305.403 391.258 305.808C390.319 306.192 389.253 306.384 388.058 306.384Z" fill="#292A2A"/>
<path d="M221.075 329.168C220.384 329.168 219.773 329.014 219.241 328.706C218.709 328.389 218.293 327.955 217.995 327.404C217.696 326.853 217.547 326.219 217.547 325.5C217.547 324.781 217.691 324.147 217.981 323.596C218.279 323.045 218.695 322.616 219.227 322.308C219.759 321.991 220.365 321.832 221.047 321.832C221.719 321.832 222.321 321.986 222.853 322.294C223.385 322.602 223.791 323.036 224.071 323.596L223.049 324.058C222.862 323.685 222.591 323.395 222.237 323.19C221.882 322.975 221.476 322.868 221.019 322.868C220.561 322.868 220.155 322.98 219.801 323.204C219.455 323.428 219.18 323.741 218.975 324.142C218.779 324.534 218.681 324.987 218.681 325.5C218.681 326.013 218.779 326.471 218.975 326.872C219.18 327.264 219.46 327.572 219.815 327.796C220.179 328.02 220.589 328.132 221.047 328.132C221.504 328.132 221.91 328.015 222.265 327.782C222.629 327.549 222.904 327.222 223.091 326.802L224.113 327.264C223.833 327.861 223.427 328.328 222.895 328.664C222.363 329 221.756 329.168 221.075 329.168ZM228.621 329.168C227.94 329.168 227.333 329.014 226.801 328.706C226.278 328.389 225.868 327.955 225.569 327.404C225.27 326.853 225.121 326.219 225.121 325.5C225.121 324.781 225.266 324.147 225.555 323.596C225.854 323.045 226.264 322.616 226.787 322.308C227.319 321.991 227.921 321.832 228.593 321.832C229.284 321.832 229.89 321.991 230.413 322.308C230.945 322.616 231.356 323.045 231.645 323.596C231.944 324.147 232.093 324.781 232.093 325.5C232.093 326.219 231.944 326.853 231.645 327.404C231.356 327.955 230.95 328.389 230.427 328.706C229.904 329.014 229.302 329.168 228.621 329.168ZM228.621 328.132C229.088 328.132 229.494 328.02 229.839 327.796C230.184 327.572 230.455 327.264 230.651 326.872C230.856 326.48 230.959 326.023 230.959 325.5C230.959 324.977 230.856 324.52 230.651 324.128C230.455 323.736 230.18 323.428 229.825 323.204C229.47 322.98 229.06 322.868 228.593 322.868C228.136 322.868 227.73 322.98 227.375 323.204C227.03 323.428 226.754 323.736 226.549 324.128C226.353 324.52 226.255 324.977 226.255 325.5C226.255 326.013 226.353 326.471 226.549 326.872C226.754 327.264 227.034 327.572 227.389 327.796C227.753 328.02 228.164 328.132 228.621 328.132ZM233.648 329V322H234.698L234.754 322.98C234.969 322.607 235.244 322.322 235.58 322.126C235.916 321.93 236.308 321.832 236.756 321.832C237.316 321.832 237.792 321.963 238.184 322.224C238.585 322.485 238.875 322.882 239.052 323.414C239.248 322.901 239.533 322.509 239.906 322.238C240.289 321.967 240.741 321.832 241.264 321.832C242.048 321.832 242.664 322.093 243.112 322.616C243.569 323.139 243.793 323.932 243.784 324.996V329H242.664V325.416C242.664 324.725 242.589 324.198 242.44 323.834C242.3 323.47 242.109 323.223 241.866 323.092C241.623 322.952 241.343 322.882 241.026 322.882C240.475 322.882 240.046 323.101 239.738 323.54C239.43 323.969 239.276 324.581 239.276 325.374V329H238.156V325.416C238.156 324.725 238.081 324.198 237.932 323.834C237.792 323.47 237.596 323.223 237.344 323.092C237.101 322.952 236.821 322.882 236.504 322.882C235.963 322.882 235.538 323.101 235.23 323.54C234.922 323.969 234.768 324.581 234.768 325.374V329H233.648ZM245.626 331.8V322H246.676L246.746 323.288V331.8H245.626ZM249.112 329.168C248.524 329.168 248.006 329.014 247.558 328.706C247.12 328.398 246.779 327.969 246.536 327.418C246.294 326.858 246.172 326.219 246.172 325.5C246.172 324.772 246.294 324.133 246.536 323.582C246.779 323.031 247.12 322.602 247.558 322.294C248.006 321.986 248.524 321.832 249.112 321.832C249.738 321.832 250.288 321.986 250.764 322.294C251.24 322.602 251.609 323.031 251.87 323.582C252.141 324.133 252.276 324.772 252.276 325.5C252.276 326.219 252.141 326.858 251.87 327.418C251.609 327.969 251.24 328.398 250.764 328.706C250.288 329.014 249.738 329.168 249.112 329.168ZM248.86 328.146C249.299 328.146 249.686 328.034 250.022 327.81C250.368 327.586 250.638 327.273 250.834 326.872C251.04 326.471 251.142 326.013 251.142 325.5C251.142 324.987 251.044 324.529 250.848 324.128C250.662 323.727 250.396 323.414 250.05 323.19C249.705 322.966 249.313 322.854 248.874 322.854C248.464 322.854 248.095 322.966 247.768 323.19C247.451 323.414 247.199 323.727 247.012 324.128C246.835 324.529 246.746 324.987 246.746 325.5C246.746 326.013 246.835 326.471 247.012 326.872C247.199 327.273 247.451 327.586 247.768 327.81C248.086 328.034 248.45 328.146 248.86 328.146ZM254.444 325.206C254.444 324.45 254.588 323.839 254.878 323.372C255.167 322.896 255.536 322.546 255.984 322.322C256.441 322.089 256.922 321.972 257.426 321.972V323.022C257.015 323.022 256.618 323.092 256.236 323.232C255.862 323.363 255.554 323.582 255.312 323.89C255.069 324.198 254.948 324.618 254.948 325.15L254.444 325.206ZM253.828 329V322H254.948V329H253.828ZM261.624 329.168C260.943 329.168 260.341 329.014 259.818 328.706C259.295 328.389 258.885 327.955 258.586 327.404C258.297 326.853 258.152 326.219 258.152 325.5C258.152 324.781 258.297 324.147 258.586 323.596C258.885 323.045 259.291 322.616 259.804 322.308C260.327 321.991 260.924 321.832 261.596 321.832C262.249 321.832 262.814 321.995 263.29 322.322C263.766 322.639 264.135 323.087 264.396 323.666C264.657 324.245 264.788 324.926 264.788 325.71H259.006L259.286 325.472C259.286 326.032 259.384 326.513 259.58 326.914C259.785 327.315 260.07 327.623 260.434 327.838C260.798 328.043 261.213 328.146 261.68 328.146C262.175 328.146 262.59 328.029 262.926 327.796C263.271 327.563 263.537 327.255 263.724 326.872L264.69 327.362C264.513 327.726 264.275 328.043 263.976 328.314C263.687 328.585 263.341 328.795 262.94 328.944C262.548 329.093 262.109 329.168 261.624 329.168ZM259.356 324.996L259.062 324.772H263.892L263.598 325.01C263.598 324.562 263.509 324.175 263.332 323.848C263.155 323.521 262.917 323.269 262.618 323.092C262.319 322.915 261.974 322.826 261.582 322.826C261.199 322.826 260.835 322.915 260.49 323.092C260.154 323.269 259.879 323.521 259.664 323.848C259.459 324.165 259.356 324.548 259.356 324.996ZM266.201 329V319.2H267.321V329H266.201ZM271.129 329V325.416H272.249V329H271.129ZM271.129 325.416C271.129 324.725 271.045 324.198 270.877 323.834C270.718 323.47 270.499 323.223 270.219 323.092C269.939 322.952 269.621 322.882 269.267 322.882C268.651 322.882 268.17 323.101 267.825 323.54C267.489 323.969 267.321 324.581 267.321 325.374H266.775C266.775 324.637 266.882 324.002 267.097 323.47C267.321 322.938 267.638 322.532 268.049 322.252C268.459 321.972 268.954 321.832 269.533 321.832C270.074 321.832 270.55 321.944 270.961 322.168C271.371 322.383 271.689 322.728 271.913 323.204C272.146 323.68 272.258 324.305 272.249 325.08V325.416H271.129ZM277.073 329.168C276.392 329.168 275.79 329.014 275.267 328.706C274.745 328.389 274.334 327.955 274.035 327.404C273.746 326.853 273.601 326.219 273.601 325.5C273.601 324.781 273.746 324.147 274.035 323.596C274.334 323.045 274.74 322.616 275.253 322.308C275.776 321.991 276.373 321.832 277.045 321.832C277.699 321.832 278.263 321.995 278.739 322.322C279.215 322.639 279.584 323.087 279.845 323.666C280.107 324.245 280.237 324.926 280.237 325.71H274.455L274.735 325.472C274.735 326.032 274.833 326.513 275.029 326.914C275.235 327.315 275.519 327.623 275.883 327.838C276.247 328.043 276.663 328.146 277.129 328.146C277.624 328.146 278.039 328.029 278.375 327.796C278.721 327.563 278.987 327.255 279.173 326.872L280.139 327.362C279.962 327.726 279.724 328.043 279.425 328.314C279.136 328.585 278.791 328.795 278.389 328.944C277.997 329.093 277.559 329.168 277.073 329.168ZM274.805 324.996L274.511 324.772H279.341L279.047 325.01C279.047 324.562 278.959 324.175 278.781 323.848C278.604 323.521 278.366 323.269 278.067 323.092C277.769 322.915 277.423 322.826 277.031 322.826C276.649 322.826 276.285 322.915 275.939 323.092C275.603 323.269 275.328 323.521 275.113 323.848C274.908 324.165 274.805 324.548 274.805 324.996ZM281.65 329V322H282.7L282.77 323.288V329H281.65ZM286.564 329V325.416H287.684V329H286.564ZM286.564 325.416C286.564 324.725 286.485 324.198 286.326 323.834C286.167 323.47 285.948 323.223 285.668 323.092C285.388 322.952 285.071 322.882 284.716 322.882C284.1 322.882 283.619 323.101 283.274 323.54C282.938 323.969 282.77 324.581 282.77 325.374H282.224C282.224 324.637 282.331 324.002 282.546 323.47C282.761 322.938 283.073 322.532 283.484 322.252C283.895 321.972 284.389 321.832 284.968 321.832C285.519 321.832 285.995 321.944 286.396 322.168C286.807 322.383 287.124 322.728 287.348 323.204C287.581 323.68 287.693 324.305 287.684 325.08V325.416H286.564ZM291.907 329.168C291.393 329.168 290.945 329.093 290.563 328.944C290.18 328.785 289.858 328.58 289.597 328.328C289.345 328.076 289.163 327.801 289.051 327.502L290.031 327.096C290.189 327.413 290.427 327.67 290.745 327.866C291.062 328.062 291.412 328.16 291.795 328.16C292.233 328.16 292.602 328.076 292.901 327.908C293.199 327.731 293.349 327.483 293.349 327.166C293.349 326.877 293.237 326.643 293.013 326.466C292.798 326.289 292.476 326.144 292.047 326.032L291.375 325.85C290.74 325.682 290.245 325.43 289.891 325.094C289.536 324.749 289.359 324.361 289.359 323.932C289.359 323.269 289.573 322.756 290.003 322.392C290.441 322.019 291.09 321.832 291.949 321.832C292.359 321.832 292.733 321.893 293.069 322.014C293.405 322.135 293.694 322.308 293.937 322.532C294.179 322.747 294.357 323.003 294.469 323.302L293.489 323.736C293.367 323.419 293.167 323.19 292.887 323.05C292.607 322.91 292.266 322.84 291.865 322.84C291.435 322.84 291.099 322.933 290.857 323.12C290.614 323.297 290.493 323.549 290.493 323.876C290.493 324.063 290.591 324.24 290.787 324.408C290.992 324.567 291.291 324.697 291.683 324.8L292.383 324.982C292.84 325.094 293.223 325.262 293.531 325.486C293.839 325.701 294.072 325.948 294.231 326.228C294.389 326.508 294.469 326.807 294.469 327.124C294.469 327.544 294.357 327.908 294.133 328.216C293.909 328.524 293.605 328.762 293.223 328.93C292.84 329.089 292.401 329.168 291.907 329.168ZM296.048 329V322H297.168V329H296.048ZM296.622 320.376C296.435 320.376 296.272 320.306 296.132 320.166C295.992 320.026 295.922 319.863 295.922 319.676C295.922 319.48 295.992 319.317 296.132 319.186C296.272 319.046 296.435 318.976 296.622 318.976C296.818 318.976 296.981 319.046 297.112 319.186C297.252 319.317 297.322 319.48 297.322 319.676C297.322 319.863 297.252 320.026 297.112 320.166C296.981 320.306 296.818 320.376 296.622 320.376ZM301.374 329L304.23 322H305.406L302.48 329H301.374ZM301.304 329L298.378 322H299.54L302.396 329H301.304ZM309.407 329.168C308.726 329.168 308.124 329.014 307.601 328.706C307.079 328.389 306.668 327.955 306.369 327.404C306.08 326.853 305.935 326.219 305.935 325.5C305.935 324.781 306.08 324.147 306.369 323.596C306.668 323.045 307.074 322.616 307.587 322.308C308.11 321.991 308.707 321.832 309.379 321.832C310.033 321.832 310.597 321.995 311.073 322.322C311.549 322.639 311.918 323.087 312.179 323.666C312.441 324.245 312.571 324.926 312.571 325.71H306.789L307.069 325.472C307.069 326.032 307.167 326.513 307.363 326.914C307.569 327.315 307.853 327.623 308.217 327.838C308.581 328.043 308.997 328.146 309.463 328.146C309.958 328.146 310.373 328.029 310.709 327.796C311.055 327.563 311.321 327.255 311.507 326.872L312.473 327.362C312.296 327.726 312.058 328.043 311.759 328.314C311.47 328.585 311.125 328.795 310.723 328.944C310.331 329.093 309.893 329.168 309.407 329.168ZM307.139 324.996L306.845 324.772H311.675L311.381 325.01C311.381 324.562 311.293 324.175 311.115 323.848C310.938 323.521 310.7 323.269 310.401 323.092C310.103 322.915 309.757 322.826 309.365 322.826C308.983 322.826 308.619 322.915 308.273 323.092C307.937 323.269 307.662 323.521 307.447 323.848C307.242 324.165 307.139 324.548 307.139 324.996ZM319.893 329.168C319.38 329.168 318.932 329.093 318.549 328.944C318.166 328.785 317.844 328.58 317.583 328.328C317.331 328.076 317.149 327.801 317.037 327.502L318.017 327.096C318.176 327.413 318.414 327.67 318.731 327.866C319.048 328.062 319.398 328.16 319.781 328.16C320.22 328.16 320.588 328.076 320.887 327.908C321.186 327.731 321.335 327.483 321.335 327.166C321.335 326.877 321.223 326.643 320.999 326.466C320.784 326.289 320.462 326.144 320.033 326.032L319.361 325.85C318.726 325.682 318.232 325.43 317.877 325.094C317.522 324.749 317.345 324.361 317.345 323.932C317.345 323.269 317.56 322.756 317.989 322.392C318.428 322.019 319.076 321.832 319.935 321.832C320.346 321.832 320.719 321.893 321.055 322.014C321.391 322.135 321.68 322.308 321.923 322.532C322.166 322.747 322.343 323.003 322.455 323.302L321.475 323.736C321.354 323.419 321.153 323.19 320.873 323.05C320.593 322.91 320.252 322.84 319.851 322.84C319.422 322.84 319.086 322.933 318.843 323.12C318.6 323.297 318.479 323.549 318.479 323.876C318.479 324.063 318.577 324.24 318.773 324.408C318.978 324.567 319.277 324.697 319.669 324.8L320.369 324.982C320.826 325.094 321.209 325.262 321.517 325.486C321.825 325.701 322.058 325.948 322.217 326.228C322.376 326.508 322.455 326.807 322.455 327.124C322.455 327.544 322.343 327.908 322.119 328.216C321.895 328.524 321.592 328.762 321.209 328.93C320.826 329.089 320.388 329.168 319.893 329.168ZM328.766 329L328.696 327.712V322H329.816V329H328.766ZM323.782 325.584V322H324.902V325.584H323.782ZM324.902 325.584C324.902 326.275 324.982 326.802 325.14 327.166C325.299 327.53 325.518 327.782 325.798 327.922C326.088 328.053 326.41 328.118 326.764 328.118C327.371 328.118 327.842 327.899 328.178 327.46C328.524 327.021 328.696 326.41 328.696 325.626H329.242C329.242 326.363 329.135 326.998 328.92 327.53C328.706 328.062 328.393 328.468 327.982 328.748C327.581 329.028 327.086 329.168 326.498 329.168C325.957 329.168 325.481 329.061 325.07 328.846C324.66 328.622 324.342 328.272 324.118 327.796C323.894 327.311 323.782 326.685 323.782 325.92V325.584H324.902ZM331.841 331.8V322H332.891L332.961 323.288V331.8H331.841ZM335.327 329.168C334.739 329.168 334.221 329.014 333.773 328.706C333.334 328.398 332.994 327.969 332.751 327.418C332.508 326.858 332.387 326.219 332.387 325.5C332.387 324.772 332.508 324.133 332.751 323.582C332.994 323.031 333.334 322.602 333.773 322.294C334.221 321.986 334.739 321.832 335.327 321.832C335.952 321.832 336.503 321.986 336.979 322.294C337.455 322.602 337.824 323.031 338.085 323.582C338.356 324.133 338.491 324.772 338.491 325.5C338.491 326.219 338.356 326.858 338.085 327.418C337.824 327.969 337.455 328.398 336.979 328.706C336.503 329.014 335.952 329.168 335.327 329.168ZM335.075 328.146C335.514 328.146 335.901 328.034 336.237 327.81C336.582 327.586 336.853 327.273 337.049 326.872C337.254 326.471 337.357 326.013 337.357 325.5C337.357 324.987 337.259 324.529 337.063 324.128C336.876 323.727 336.61 323.414 336.265 323.19C335.92 322.966 335.528 322.854 335.089 322.854C334.678 322.854 334.31 322.966 333.983 323.19C333.666 323.414 333.414 323.727 333.227 324.128C333.05 324.529 332.961 324.987 332.961 325.5C332.961 326.013 333.05 326.471 333.227 326.872C333.414 327.273 333.666 327.586 333.983 327.81C334.3 328.034 334.664 328.146 335.075 328.146ZM340.113 331.8V322H341.163L341.233 323.288V331.8H340.113ZM343.599 329.168C343.011 329.168 342.493 329.014 342.045 328.706C341.606 328.398 341.265 327.969 341.023 327.418C340.78 326.858 340.659 326.219 340.659 325.5C340.659 324.772 340.78 324.133 341.023 323.582C341.265 323.031 341.606 322.602 342.045 322.294C342.493 321.986 343.011 321.832 343.599 321.832C344.224 321.832 344.775 321.986 345.251 322.294C345.727 322.602 346.095 323.031 346.357 323.582C346.627 324.133 346.763 324.772 346.763 325.5C346.763 326.219 346.627 326.858 346.357 327.418C346.095 327.969 345.727 328.398 345.251 328.706C344.775 329.014 344.224 329.168 343.599 329.168ZM343.347 328.146C343.785 328.146 344.173 328.034 344.509 327.81C344.854 327.586 345.125 327.273 345.321 326.872C345.526 326.471 345.629 326.013 345.629 325.5C345.629 324.987 345.531 324.529 345.335 324.128C345.148 323.727 344.882 323.414 344.537 323.19C344.191 322.966 343.799 322.854 343.361 322.854C342.95 322.854 342.581 322.966 342.255 323.19C341.937 323.414 341.685 323.727 341.499 324.128C341.321 324.529 341.233 324.987 341.233 325.5C341.233 326.013 341.321 326.471 341.499 326.872C341.685 327.273 341.937 327.586 342.255 327.81C342.572 328.034 342.936 328.146 343.347 328.146ZM351.408 329.168C350.727 329.168 350.12 329.014 349.588 328.706C349.065 328.389 348.655 327.955 348.356 327.404C348.057 326.853 347.908 326.219 347.908 325.5C347.908 324.781 348.053 324.147 348.342 323.596C348.641 323.045 349.051 322.616 349.574 322.308C350.106 321.991 350.708 321.832 351.38 321.832C352.071 321.832 352.677 321.991 353.2 322.308C353.732 322.616 354.143 323.045 354.432 323.596C354.731 324.147 354.88 324.781 354.88 325.5C354.88 326.219 354.731 326.853 354.432 327.404C354.143 327.955 353.737 328.389 353.214 328.706C352.691 329.014 352.089 329.168 351.408 329.168ZM351.408 328.132C351.875 328.132 352.281 328.02 352.626 327.796C352.971 327.572 353.242 327.264 353.438 326.872C353.643 326.48 353.746 326.023 353.746 325.5C353.746 324.977 353.643 324.52 353.438 324.128C353.242 323.736 352.967 323.428 352.612 323.204C352.257 322.98 351.847 322.868 351.38 322.868C350.923 322.868 350.517 322.98 350.162 323.204C349.817 323.428 349.541 323.736 349.336 324.128C349.14 324.52 349.042 324.977 349.042 325.5C349.042 326.013 349.14 326.471 349.336 326.872C349.541 327.264 349.821 327.572 350.176 327.796C350.54 328.02 350.951 328.132 351.408 328.132ZM357.051 325.206C357.051 324.45 357.196 323.839 357.485 323.372C357.774 322.896 358.143 322.546 358.591 322.322C359.048 322.089 359.529 321.972 360.033 321.972V323.022C359.622 323.022 359.226 323.092 358.843 323.232C358.47 323.363 358.162 323.582 357.919 323.89C357.676 324.198 357.555 324.618 357.555 325.15L357.051 325.206ZM356.435 329V322H357.555V329H356.435ZM363.798 329.168C363.116 329.168 362.589 328.991 362.216 328.636C361.842 328.281 361.656 327.782 361.656 327.138V319.816H362.776V327.026C362.776 327.381 362.869 327.656 363.056 327.852C363.252 328.039 363.522 328.132 363.868 328.132C363.98 328.132 364.087 328.118 364.19 328.09C364.302 328.053 364.446 327.969 364.624 327.838L365.058 328.748C364.815 328.907 364.596 329.014 364.4 329.07C364.204 329.135 364.003 329.168 363.798 329.168ZM360.438 322.994V322H364.876V322.994H360.438ZM372.548 329.168C371.866 329.168 371.339 328.991 370.966 328.636C370.592 328.281 370.406 327.782 370.406 327.138V319.816H371.526V327.026C371.526 327.381 371.619 327.656 371.806 327.852C372.002 328.039 372.272 328.132 372.618 328.132C372.73 328.132 372.837 328.118 372.94 328.09C373.052 328.053 373.196 327.969 373.374 327.838L373.808 328.748C373.565 328.907 373.346 329.014 373.15 329.07C372.954 329.135 372.753 329.168 372.548 329.168ZM369.188 322.994V322H373.626V322.994H369.188ZM378.26 329.168C377.578 329.168 376.972 329.014 376.44 328.706C375.917 328.389 375.506 327.955 375.208 327.404C374.909 326.853 374.76 326.219 374.76 325.5C374.76 324.781 374.904 324.147 375.194 323.596C375.492 323.045 375.903 322.616 376.426 322.308C376.958 321.991 377.56 321.832 378.232 321.832C378.922 321.832 379.529 321.991 380.052 322.308C380.584 322.616 380.994 323.045 381.284 323.596C381.582 324.147 381.732 324.781 381.732 325.5C381.732 326.219 381.582 326.853 381.284 327.404C380.994 327.955 380.588 328.389 380.066 328.706C379.543 329.014 378.941 329.168 378.26 329.168ZM378.26 328.132C378.726 328.132 379.132 328.02 379.478 327.796C379.823 327.572 380.094 327.264 380.29 326.872C380.495 326.48 380.598 326.023 380.598 325.5C380.598 324.977 380.495 324.52 380.29 324.128C380.094 323.736 379.818 323.428 379.464 323.204C379.109 322.98 378.698 322.868 378.232 322.868C377.774 322.868 377.368 322.98 377.014 323.204C376.668 323.428 376.393 323.736 376.188 324.128C375.992 324.52 375.894 324.977 375.894 325.5C375.894 326.013 375.992 326.471 376.188 326.872C376.393 327.264 376.673 327.572 377.028 327.796C377.392 328.02 377.802 328.132 378.26 328.132ZM391.926 329L391.87 327.698V319.2H392.99V329H391.926ZM389.504 329.168C388.878 329.168 388.328 329.014 387.852 328.706C387.376 328.398 387.002 327.969 386.732 327.418C386.47 326.858 386.34 326.219 386.34 325.5C386.34 324.772 386.47 324.133 386.732 323.582C387.002 323.031 387.376 322.602 387.852 322.294C388.328 321.986 388.878 321.832 389.504 321.832C390.092 321.832 390.605 321.986 391.044 322.294C391.492 322.602 391.837 323.031 392.08 323.582C392.322 324.133 392.444 324.772 392.444 325.5C392.444 326.219 392.322 326.858 392.08 327.418C391.837 327.969 391.492 328.398 391.044 328.706C390.605 329.014 390.092 329.168 389.504 329.168ZM389.756 328.146C390.166 328.146 390.53 328.034 390.848 327.81C391.165 327.586 391.412 327.273 391.59 326.872C391.776 326.471 391.87 326.013 391.87 325.5C391.87 324.987 391.776 324.529 391.59 324.128C391.412 323.727 391.165 323.414 390.848 323.19C390.53 322.966 390.162 322.854 389.742 322.854C389.303 322.854 388.911 322.966 388.566 323.19C388.23 323.414 387.964 323.727 387.768 324.128C387.572 324.529 387.474 324.987 387.474 325.5C387.474 326.013 387.572 326.471 387.768 326.872C387.964 327.273 388.234 327.586 388.58 327.81C388.925 328.034 389.317 328.146 389.756 328.146ZM395.565 325.206C395.565 324.45 395.709 323.839 395.999 323.372C396.288 322.896 396.657 322.546 397.105 322.322C397.562 322.089 398.043 321.972 398.547 321.972V323.022C398.136 323.022 397.739 323.092 397.357 323.232C396.983 323.363 396.675 323.582 396.433 323.89C396.19 324.198 396.069 324.618 396.069 325.15L395.565 325.206ZM394.949 329V322H396.069V329H394.949ZM399.749 329V322H400.869V329H399.749ZM400.323 320.376C400.137 320.376 399.973 320.306 399.833 320.166C399.693 320.026 399.623 319.863 399.623 319.676C399.623 319.48 399.693 319.317 399.833 319.186C399.973 319.046 400.137 318.976 400.323 318.976C400.519 318.976 400.683 319.046 400.813 319.186C400.953 319.317 401.023 319.48 401.023 319.676C401.023 319.863 400.953 320.026 400.813 320.166C400.683 320.306 400.519 320.376 400.323 320.376ZM405.075 329L407.931 322H409.107L406.181 329H405.075ZM405.005 329L402.079 322H403.241L406.097 329H405.005ZM413.109 329.168C412.427 329.168 411.825 329.014 411.303 328.706C410.78 328.389 410.369 327.955 410.071 327.404C409.781 326.853 409.637 326.219 409.637 325.5C409.637 324.781 409.781 324.147 410.071 323.596C410.369 323.045 410.775 322.616 411.289 322.308C411.811 321.991 412.409 321.832 413.081 321.832C413.734 321.832 414.299 321.995 414.775 322.322C415.251 322.639 415.619 323.087 415.881 323.666C416.142 324.245 416.273 324.926 416.273 325.71H410.491L410.771 325.472C410.771 326.032 410.869 326.513 411.065 326.914C411.27 327.315 411.555 327.623 411.919 327.838C412.283 328.043 412.698 328.146 413.165 328.146C413.659 328.146 414.075 328.029 414.411 327.796C414.756 327.563 415.022 327.255 415.209 326.872L416.175 327.362C415.997 327.726 415.759 328.043 415.461 328.314C415.171 328.585 414.826 328.795 414.425 328.944C414.033 329.093 413.594 329.168 413.109 329.168ZM410.841 324.996L410.547 324.772H415.377L415.083 325.01C415.083 324.562 414.994 324.175 414.817 323.848C414.639 323.521 414.401 323.269 414.103 323.092C413.804 322.915 413.459 322.826 413.067 322.826C412.684 322.826 412.32 322.915 411.975 323.092C411.639 323.269 411.363 323.521 411.149 323.848C410.943 324.165 410.841 324.548 410.841 324.996ZM421.774 331.968C421.597 331.968 421.391 331.931 421.158 331.856C420.925 331.791 420.677 331.702 420.416 331.59L420.836 330.652C421.051 330.745 421.237 330.815 421.396 330.862C421.564 330.909 421.695 330.932 421.788 330.932C422.04 330.932 422.245 330.862 422.404 330.722C422.572 330.591 422.712 330.4 422.824 330.148L423.622 328.244L426.212 322H427.416L424.056 329.98C423.879 330.391 423.692 330.745 423.496 331.044C423.309 331.343 423.081 331.571 422.81 331.73C422.539 331.889 422.194 331.968 421.774 331.968ZM423.314 329L420.29 322H421.48L424.084 328.23L424.42 329H423.314ZM431.443 329.168C430.762 329.168 430.155 329.014 429.623 328.706C429.1 328.389 428.69 327.955 428.391 327.404C428.092 326.853 427.943 326.219 427.943 325.5C427.943 324.781 428.088 324.147 428.377 323.596C428.676 323.045 429.086 322.616 429.609 322.308C430.141 321.991 430.743 321.832 431.415 321.832C432.106 321.832 432.712 321.991 433.235 322.308C433.767 322.616 434.178 323.045 434.467 323.596C434.766 324.147 434.915 324.781 434.915 325.5C434.915 326.219 434.766 326.853 434.467 327.404C434.178 327.955 433.772 328.389 433.249 328.706C432.726 329.014 432.124 329.168 431.443 329.168ZM431.443 328.132C431.91 328.132 432.316 328.02 432.661 327.796C433.006 327.572 433.277 327.264 433.473 326.872C433.678 326.48 433.781 326.023 433.781 325.5C433.781 324.977 433.678 324.52 433.473 324.128C433.277 323.736 433.002 323.428 432.647 323.204C432.292 322.98 431.882 322.868 431.415 322.868C430.958 322.868 430.552 322.98 430.197 323.204C429.852 323.428 429.576 323.736 429.371 324.128C429.175 324.52 429.077 324.977 429.077 325.5C429.077 326.013 429.175 326.471 429.371 326.872C429.576 327.264 429.856 327.572 430.211 327.796C430.575 328.02 430.986 328.132 431.443 328.132ZM441.272 329L441.202 327.712V322H442.322V329H441.272ZM436.288 325.584V322H437.408V325.584H436.288ZM437.408 325.584C437.408 326.275 437.488 326.802 437.646 327.166C437.805 327.53 438.024 327.782 438.304 327.922C438.594 328.053 438.916 328.118 439.27 328.118C439.877 328.118 440.348 327.899 440.684 327.46C441.03 327.021 441.202 326.41 441.202 325.626H441.748C441.748 326.363 441.641 326.998 441.426 327.53C441.212 328.062 440.899 328.468 440.488 328.748C440.087 329.028 439.592 329.168 439.004 329.168C438.463 329.168 437.987 329.061 437.576 328.846C437.166 328.622 436.848 328.272 436.624 327.796C436.4 327.311 436.288 326.685 436.288 325.92V325.584H437.408ZM444.893 325.206C444.893 324.45 445.038 323.839 445.327 323.372C445.616 322.896 445.985 322.546 446.433 322.322C446.89 322.089 447.371 321.972 447.875 321.972V323.022C447.464 323.022 447.068 323.092 446.685 323.232C446.312 323.363 446.004 323.582 445.761 323.89C445.518 324.198 445.397 324.618 445.397 325.15L444.893 325.206ZM444.277 329V322H445.397V329H444.277ZM214.135 348.968C213.687 348.968 213.277 348.921 212.903 348.828C212.539 348.744 212.227 348.646 211.965 348.534C211.713 348.431 211.531 348.343 211.419 348.268L211.839 347.358C211.961 347.423 212.133 347.503 212.357 347.596C212.581 347.699 212.843 347.783 213.141 347.848C213.449 347.923 213.776 347.96 214.121 347.96C214.569 347.96 214.971 347.867 215.325 347.68C215.689 347.503 215.969 347.218 216.165 346.826C216.371 346.443 216.473 345.949 216.473 345.342V339H217.593V345.328C217.593 346.131 217.444 346.803 217.145 347.344C216.847 347.885 216.436 348.291 215.913 348.562C215.391 348.833 214.798 348.968 214.135 348.968ZM214.093 345.944C213.468 345.944 212.917 345.795 212.441 345.496C211.965 345.197 211.592 344.782 211.321 344.25C211.06 343.709 210.929 343.093 210.929 342.402C210.929 341.693 211.06 341.072 211.321 340.54C211.592 339.999 211.965 339.579 212.441 339.28C212.917 338.981 213.468 338.832 214.093 338.832C214.681 338.832 215.195 338.981 215.633 339.28C216.072 339.579 216.413 339.999 216.655 340.54C216.907 341.072 217.033 341.693 217.033 342.402C217.033 343.102 216.907 343.718 216.655 344.25C216.413 344.782 216.072 345.197 215.633 345.496C215.195 345.795 214.681 345.944 214.093 345.944ZM214.359 344.978C214.77 344.978 215.134 344.866 215.451 344.642C215.769 344.418 216.016 344.115 216.193 343.732C216.371 343.34 216.459 342.887 216.459 342.374C216.459 341.879 216.366 341.441 216.179 341.058C216.002 340.666 215.755 340.363 215.437 340.148C215.129 339.924 214.765 339.812 214.345 339.812C213.907 339.812 213.515 339.924 213.169 340.148C212.833 340.363 212.567 340.666 212.371 341.058C212.185 341.441 212.091 341.879 212.091 342.374C212.091 342.887 212.189 343.34 212.385 343.732C212.581 344.115 212.847 344.418 213.183 344.642C213.529 344.866 213.921 344.978 214.359 344.978ZM220.168 342.206C220.168 341.45 220.313 340.839 220.602 340.372C220.892 339.896 221.26 339.546 221.708 339.322C222.166 339.089 222.646 338.972 223.15 338.972V340.022C222.74 340.022 222.343 340.092 221.96 340.232C221.587 340.363 221.279 340.582 221.036 340.89C220.794 341.198 220.672 341.618 220.672 342.15L220.168 342.206ZM219.552 346V339H220.672V346H219.552ZM227.377 346.168C226.695 346.168 226.089 346.014 225.557 345.706C225.034 345.389 224.623 344.955 224.325 344.404C224.026 343.853 223.877 343.219 223.877 342.5C223.877 341.781 224.021 341.147 224.311 340.596C224.609 340.045 225.02 339.616 225.543 339.308C226.075 338.991 226.677 338.832 227.349 338.832C228.039 338.832 228.646 338.991 229.169 339.308C229.701 339.616 230.111 340.045 230.401 340.596C230.699 341.147 230.849 341.781 230.849 342.5C230.849 343.219 230.699 343.853 230.401 344.404C230.111 344.955 229.705 345.389 229.183 345.706C228.66 346.014 228.058 346.168 227.377 346.168ZM227.377 345.132C227.843 345.132 228.249 345.02 228.595 344.796C228.94 344.572 229.211 344.264 229.407 343.872C229.612 343.48 229.715 343.023 229.715 342.5C229.715 341.977 229.612 341.52 229.407 341.128C229.211 340.736 228.935 340.428 228.581 340.204C228.226 339.98 227.815 339.868 227.349 339.868C226.891 339.868 226.485 339.98 226.131 340.204C225.785 340.428 225.51 340.736 225.305 341.128C225.109 341.52 225.011 341.977 225.011 342.5C225.011 343.013 225.109 343.471 225.305 343.872C225.51 344.264 225.79 344.572 226.145 344.796C226.509 345.02 226.919 345.132 227.377 345.132ZM238.582 346L240.948 339H242.082L239.702 346H238.582ZM233.822 346L236.188 339H237.238L234.9 346H233.822ZM233.766 346L231.386 339H232.52L234.858 346H233.766ZM238.582 346L236.244 339H237.308L239.646 346H238.582ZM245.837 346.168C245.155 346.168 244.628 345.991 244.255 345.636C243.881 345.281 243.695 344.782 243.695 344.138V336.816H244.815V344.026C244.815 344.381 244.908 344.656 245.095 344.852C245.291 345.039 245.561 345.132 245.907 345.132C246.019 345.132 246.126 345.118 246.229 345.09C246.341 345.053 246.485 344.969 246.663 344.838L247.097 345.748C246.854 345.907 246.635 346.014 246.439 346.07C246.243 346.135 246.042 346.168 245.837 346.168ZM242.477 339.994V339H246.915V339.994H242.477ZM248.496 346V336.2H249.616V346H248.496ZM253.424 346V342.416H254.544V346H253.424ZM253.424 342.416C253.424 341.725 253.34 341.198 253.172 340.834C253.013 340.47 252.794 340.223 252.514 340.092C252.234 339.952 251.916 339.882 251.562 339.882C250.946 339.882 250.465 340.101 250.12 340.54C249.784 340.969 249.616 341.581 249.616 342.374H249.07C249.07 341.637 249.177 341.002 249.392 340.47C249.616 339.938 249.933 339.532 250.344 339.252C250.754 338.972 251.249 338.832 251.828 338.832C252.369 338.832 252.845 338.944 253.256 339.168C253.666 339.383 253.984 339.728 254.208 340.204C254.441 340.68 254.553 341.305 254.544 342.08V342.416H253.424ZM256.834 343.158L256.792 336.2H258.01L257.982 343.158H256.834ZM257.408 346.196C257.194 346.196 257.007 346.121 256.848 345.972C256.699 345.823 256.624 345.641 256.624 345.426C256.624 345.211 256.699 345.029 256.848 344.88C257.007 344.721 257.194 344.642 257.408 344.642C257.623 344.642 257.805 344.721 257.954 344.88C258.104 345.029 258.178 345.211 258.178 345.426C258.178 345.641 258.104 345.823 257.954 345.972C257.805 346.121 257.623 346.196 257.408 346.196ZM268.425 346.168C267.483 346.168 266.647 345.953 265.919 345.524C265.191 345.095 264.622 344.497 264.211 343.732C263.801 342.967 263.595 342.089 263.595 341.1C263.595 340.101 263.796 339.224 264.197 338.468C264.608 337.703 265.173 337.105 265.891 336.676C266.61 336.247 267.441 336.032 268.383 336.032C269.326 336.032 270.157 336.251 270.875 336.69C271.603 337.119 272.168 337.717 272.569 338.482C272.971 339.238 273.171 340.111 273.171 341.1C273.171 342.089 272.971 342.967 272.569 343.732C272.168 344.497 271.608 345.095 270.889 345.524C270.18 345.953 269.359 346.168 268.425 346.168ZM268.425 345.09C269.125 345.09 269.741 344.922 270.273 344.586C270.805 344.241 271.221 343.769 271.519 343.172C271.827 342.575 271.981 341.884 271.981 341.1C271.981 340.325 271.827 339.639 271.519 339.042C271.211 338.435 270.787 337.964 270.245 337.628C269.713 337.283 269.093 337.11 268.383 337.11C267.683 337.11 267.063 337.283 266.521 337.628C265.98 337.964 265.555 338.435 265.247 339.042C264.939 339.639 264.785 340.325 264.785 341.1C264.785 341.884 264.939 342.575 265.247 343.172C265.555 343.769 265.985 344.241 266.535 344.586C267.086 344.922 267.716 345.09 268.425 345.09ZM279.602 346L279.532 344.712V339H280.652V346H279.602ZM274.618 342.584V339H275.738V342.584H274.618ZM275.738 342.584C275.738 343.275 275.818 343.802 275.976 344.166C276.135 344.53 276.354 344.782 276.634 344.922C276.924 345.053 277.246 345.118 277.6 345.118C278.207 345.118 278.678 344.899 279.014 344.46C279.36 344.021 279.532 343.41 279.532 342.626H280.078C280.078 343.363 279.971 343.998 279.756 344.53C279.542 345.062 279.229 345.468 278.818 345.748C278.417 346.028 277.922 346.168 277.334 346.168C276.793 346.168 276.317 346.061 275.906 345.846C275.496 345.622 275.178 345.272 274.954 344.796C274.73 344.311 274.618 343.685 274.618 342.92V342.584H275.738ZM283.223 342.206C283.223 341.45 283.368 340.839 283.657 340.372C283.946 339.896 284.315 339.546 284.763 339.322C285.22 339.089 285.701 338.972 286.205 338.972V340.022C285.794 340.022 285.398 340.092 285.015 340.232C284.642 340.363 284.334 340.582 284.091 340.89C283.848 341.198 283.727 341.618 283.727 342.15L283.223 342.206ZM282.607 346V339H283.727V346H282.607ZM290.796 346V339H291.846L291.902 339.98C292.117 339.607 292.392 339.322 292.728 339.126C293.064 338.93 293.456 338.832 293.904 338.832C294.464 338.832 294.94 338.963 295.332 339.224C295.734 339.485 296.023 339.882 296.2 340.414C296.396 339.901 296.681 339.509 297.054 339.238C297.437 338.967 297.89 338.832 298.412 338.832C299.196 338.832 299.812 339.093 300.26 339.616C300.718 340.139 300.942 340.932 300.932 341.996V346H299.812V342.416C299.812 341.725 299.738 341.198 299.588 340.834C299.448 340.47 299.257 340.223 299.014 340.092C298.772 339.952 298.492 339.882 298.174 339.882C297.624 339.882 297.194 340.101 296.886 340.54C296.578 340.969 296.424 341.581 296.424 342.374V346H295.304V342.416C295.304 341.725 295.23 341.198 295.08 340.834C294.94 340.47 294.744 340.223 294.492 340.092C294.25 339.952 293.97 339.882 293.652 339.882C293.111 339.882 292.686 340.101 292.378 340.54C292.07 340.969 291.916 341.581 291.916 342.374V346H290.796ZM302.775 346V339H303.895V346H302.775ZM303.349 337.376C303.162 337.376 302.999 337.306 302.859 337.166C302.719 337.026 302.649 336.863 302.649 336.676C302.649 336.48 302.719 336.317 302.859 336.186C302.999 336.046 303.162 335.976 303.349 335.976C303.545 335.976 303.708 336.046 303.839 336.186C303.979 336.317 304.049 336.48 304.049 336.676C304.049 336.863 303.979 337.026 303.839 337.166C303.708 337.306 303.545 337.376 303.349 337.376ZM308.409 346.168C307.895 346.168 307.447 346.093 307.065 345.944C306.682 345.785 306.36 345.58 306.099 345.328C305.847 345.076 305.665 344.801 305.553 344.502L306.533 344.096C306.691 344.413 306.929 344.67 307.247 344.866C307.564 345.062 307.914 345.16 308.297 345.16C308.735 345.16 309.104 345.076 309.403 344.908C309.701 344.731 309.851 344.483 309.851 344.166C309.851 343.877 309.739 343.643 309.515 343.466C309.3 343.289 308.978 343.144 308.549 343.032L307.877 342.85C307.242 342.682 306.747 342.43 306.393 342.094C306.038 341.749 305.861 341.361 305.861 340.932C305.861 340.269 306.075 339.756 306.505 339.392C306.943 339.019 307.592 338.832 308.451 338.832C308.861 338.832 309.235 338.893 309.571 339.014C309.907 339.135 310.196 339.308 310.439 339.532C310.681 339.747 310.859 340.003 310.971 340.302L309.991 340.736C309.869 340.419 309.669 340.19 309.389 340.05C309.109 339.91 308.768 339.84 308.367 339.84C307.937 339.84 307.601 339.933 307.359 340.12C307.116 340.297 306.995 340.549 306.995 340.876C306.995 341.063 307.093 341.24 307.289 341.408C307.494 341.567 307.793 341.697 308.185 341.8L308.885 341.982C309.342 342.094 309.725 342.262 310.033 342.486C310.341 342.701 310.574 342.948 310.733 343.228C310.891 343.508 310.971 343.807 310.971 344.124C310.971 344.544 310.859 344.908 310.635 345.216C310.411 345.524 310.107 345.762 309.725 345.93C309.342 346.089 308.903 346.168 308.409 346.168ZM314.93 346.168C314.417 346.168 313.969 346.093 313.586 345.944C313.203 345.785 312.881 345.58 312.62 345.328C312.368 345.076 312.186 344.801 312.074 344.502L313.054 344.096C313.213 344.413 313.451 344.67 313.768 344.866C314.085 345.062 314.435 345.16 314.818 345.16C315.257 345.16 315.625 345.076 315.924 344.908C316.223 344.731 316.372 344.483 316.372 344.166C316.372 343.877 316.26 343.643 316.036 343.466C315.821 343.289 315.499 343.144 315.07 343.032L314.398 342.85C313.763 342.682 313.269 342.43 312.914 342.094C312.559 341.749 312.382 341.361 312.382 340.932C312.382 340.269 312.597 339.756 313.026 339.392C313.465 339.019 314.113 338.832 314.972 338.832C315.383 338.832 315.756 338.893 316.092 339.014C316.428 339.135 316.717 339.308 316.96 339.532C317.203 339.747 317.38 340.003 317.492 340.302L316.512 340.736C316.391 340.419 316.19 340.19 315.91 340.05C315.63 339.91 315.289 339.84 314.888 339.84C314.459 339.84 314.123 339.933 313.88 340.12C313.637 340.297 313.516 340.549 313.516 340.876C313.516 341.063 313.614 341.24 313.81 341.408C314.015 341.567 314.314 341.697 314.706 341.8L315.406 341.982C315.863 342.094 316.246 342.262 316.554 342.486C316.862 342.701 317.095 342.948 317.254 343.228C317.413 343.508 317.492 343.807 317.492 344.124C317.492 344.544 317.38 344.908 317.156 345.216C316.932 345.524 316.629 345.762 316.246 345.93C315.863 346.089 315.425 346.168 314.93 346.168ZM319.071 346V339H320.191V346H319.071ZM319.645 337.376C319.459 337.376 319.295 337.306 319.155 337.166C319.015 337.026 318.945 336.863 318.945 336.676C318.945 336.48 319.015 336.317 319.155 336.186C319.295 336.046 319.459 335.976 319.645 335.976C319.841 335.976 320.005 336.046 320.135 336.186C320.275 336.317 320.345 336.48 320.345 336.676C320.345 336.863 320.275 337.026 320.135 337.166C320.005 337.306 319.841 337.376 319.645 337.376ZM325.349 346.168C324.668 346.168 324.061 346.014 323.529 345.706C323.007 345.389 322.596 344.955 322.297 344.404C321.999 343.853 321.849 343.219 321.849 342.5C321.849 341.781 321.994 341.147 322.283 340.596C322.582 340.045 322.993 339.616 323.515 339.308C324.047 338.991 324.649 338.832 325.321 338.832C326.012 338.832 326.619 338.991 327.141 339.308C327.673 339.616 328.084 340.045 328.373 340.596C328.672 341.147 328.821 341.781 328.821 342.5C328.821 343.219 328.672 343.853 328.373 344.404C328.084 344.955 327.678 345.389 327.155 345.706C326.633 346.014 326.031 346.168 325.349 346.168ZM325.349 345.132C325.816 345.132 326.222 345.02 326.567 344.796C326.913 344.572 327.183 344.264 327.379 343.872C327.585 343.48 327.687 343.023 327.687 342.5C327.687 341.977 327.585 341.52 327.379 341.128C327.183 340.736 326.908 340.428 326.553 340.204C326.199 339.98 325.788 339.868 325.321 339.868C324.864 339.868 324.458 339.98 324.103 340.204C323.758 340.428 323.483 340.736 323.277 341.128C323.081 341.52 322.983 341.977 322.983 342.5C322.983 343.013 323.081 343.471 323.277 343.872C323.483 344.264 323.763 344.572 324.117 344.796C324.481 345.02 324.892 345.132 325.349 345.132ZM330.376 346V339H331.426L331.496 340.288V346H330.376ZM335.29 346V342.416H336.41V346H335.29ZM335.29 342.416C335.29 341.725 335.211 341.198 335.052 340.834C334.894 340.47 334.674 340.223 334.394 340.092C334.114 339.952 333.797 339.882 333.442 339.882C332.826 339.882 332.346 340.101 332 340.54C331.664 340.969 331.496 341.581 331.496 342.374H330.95C330.95 341.637 331.058 341.002 331.272 340.47C331.487 339.938 331.8 339.532 332.21 339.252C332.621 338.972 333.116 338.832 333.694 338.832C334.245 338.832 334.721 338.944 335.122 339.168C335.533 339.383 335.85 339.728 336.074 340.204C336.308 340.68 336.42 341.305 336.41 342.08V342.416H335.29ZM341.712 346V339H342.832V346H341.712ZM342.286 337.376C342.099 337.376 341.936 337.306 341.796 337.166C341.656 337.026 341.586 336.863 341.586 336.676C341.586 336.48 341.656 336.317 341.796 336.186C341.936 336.046 342.099 335.976 342.286 335.976C342.482 335.976 342.645 336.046 342.776 336.186C342.916 336.317 342.986 336.48 342.986 336.676C342.986 336.863 342.916 337.026 342.776 337.166C342.645 337.306 342.482 337.376 342.286 337.376ZM347.346 346.168C346.833 346.168 346.385 346.093 346.002 345.944C345.619 345.785 345.297 345.58 345.036 345.328C344.784 345.076 344.602 344.801 344.49 344.502L345.47 344.096C345.629 344.413 345.867 344.67 346.184 344.866C346.501 345.062 346.851 345.16 347.234 345.16C347.673 345.16 348.041 345.076 348.34 344.908C348.639 344.731 348.788 344.483 348.788 344.166C348.788 343.877 348.676 343.643 348.452 343.466C348.237 343.289 347.915 343.144 347.486 343.032L346.814 342.85C346.179 342.682 345.685 342.43 345.33 342.094C344.975 341.749 344.798 341.361 344.798 340.932C344.798 340.269 345.013 339.756 345.442 339.392C345.881 339.019 346.529 338.832 347.388 338.832C347.799 338.832 348.172 338.893 348.508 339.014C348.844 339.135 349.133 339.308 349.376 339.532C349.619 339.747 349.796 340.003 349.908 340.302L348.928 340.736C348.807 340.419 348.606 340.19 348.326 340.05C348.046 339.91 347.705 339.84 347.304 339.84C346.875 339.84 346.539 339.933 346.296 340.12C346.053 340.297 345.932 340.549 345.932 340.876C345.932 341.063 346.03 341.24 346.226 341.408C346.431 341.567 346.73 341.697 347.122 341.8L347.822 341.982C348.279 342.094 348.662 342.262 348.97 342.486C349.278 342.701 349.511 342.948 349.67 343.228C349.829 343.508 349.908 343.807 349.908 344.124C349.908 344.544 349.796 344.908 349.572 345.216C349.348 345.524 349.045 345.762 348.662 345.93C348.279 346.089 347.841 346.168 347.346 346.168ZM357.508 346.168C356.827 346.168 356.3 345.991 355.926 345.636C355.553 345.281 355.366 344.782 355.366 344.138V336.816H356.486V344.026C356.486 344.381 356.58 344.656 356.766 344.852C356.962 345.039 357.233 345.132 357.578 345.132C357.69 345.132 357.798 345.118 357.9 345.09C358.012 345.053 358.157 344.969 358.334 344.838L358.768 345.748C358.526 345.907 358.306 346.014 358.11 346.07C357.914 346.135 357.714 346.168 357.508 346.168ZM354.148 339.994V339H358.586V339.994H354.148ZM363.22 346.168C362.539 346.168 361.932 346.014 361.4 345.706C360.878 345.389 360.467 344.955 360.168 344.404C359.87 343.853 359.72 343.219 359.72 342.5C359.72 341.781 359.865 341.147 360.154 340.596C360.453 340.045 360.864 339.616 361.386 339.308C361.918 338.991 362.52 338.832 363.192 338.832C363.883 338.832 364.49 338.991 365.012 339.308C365.544 339.616 365.955 340.045 366.244 340.596C366.543 341.147 366.692 341.781 366.692 342.5C366.692 343.219 366.543 343.853 366.244 344.404C365.955 344.955 365.549 345.389 365.026 345.706C364.504 346.014 363.902 346.168 363.22 346.168ZM363.22 345.132C363.687 345.132 364.093 345.02 364.438 344.796C364.784 344.572 365.054 344.264 365.25 343.872C365.456 343.48 365.558 343.023 365.558 342.5C365.558 341.977 365.456 341.52 365.25 341.128C365.054 340.736 364.779 340.428 364.424 340.204C364.07 339.98 363.659 339.868 363.192 339.868C362.735 339.868 362.329 339.98 361.974 340.204C361.629 340.428 361.354 340.736 361.148 341.128C360.952 341.52 360.854 341.977 360.854 342.5C360.854 343.013 360.952 343.471 361.148 343.872C361.354 344.264 361.634 344.572 361.988 344.796C362.352 345.02 362.763 345.132 363.22 345.132ZM374.773 346.168C374.091 346.168 373.489 346.014 372.967 345.706C372.444 345.389 372.033 344.955 371.735 344.404C371.445 343.853 371.301 343.219 371.301 342.5C371.301 341.781 371.445 341.147 371.735 340.596C372.033 340.045 372.439 339.616 372.953 339.308C373.475 338.991 374.073 338.832 374.745 338.832C375.398 338.832 375.963 338.995 376.439 339.322C376.915 339.639 377.283 340.087 377.545 340.666C377.806 341.245 377.937 341.926 377.937 342.71H372.155L372.435 342.472C372.435 343.032 372.533 343.513 372.729 343.914C372.934 344.315 373.219 344.623 373.583 344.838C373.947 345.043 374.362 345.146 374.829 345.146C375.323 345.146 375.739 345.029 376.075 344.796C376.42 344.563 376.686 344.255 376.873 343.872L377.839 344.362C377.661 344.726 377.423 345.043 377.125 345.314C376.835 345.585 376.49 345.795 376.089 345.944C375.697 346.093 375.258 346.168 374.773 346.168ZM372.505 341.996L372.211 341.772H377.041L376.747 342.01C376.747 341.562 376.658 341.175 376.481 340.848C376.303 340.521 376.065 340.269 375.767 340.092C375.468 339.915 375.123 339.826 374.731 339.826C374.348 339.826 373.984 339.915 373.639 340.092C373.303 340.269 373.027 340.521 372.813 340.848C372.607 341.165 372.505 341.548 372.505 341.996ZM379.349 346V339H380.399L380.469 340.288V346H379.349ZM384.263 346V342.416H385.383V346H384.263ZM384.263 342.416C384.263 341.725 384.184 341.198 384.025 340.834C383.866 340.47 383.647 340.223 383.367 340.092C383.087 339.952 382.77 339.882 382.415 339.882C381.799 339.882 381.318 340.101 380.973 340.54C380.637 340.969 380.469 341.581 380.469 342.374H379.923C379.923 341.637 380.03 341.002 380.245 340.47C380.46 339.938 380.772 339.532 381.183 339.252C381.594 338.972 382.088 338.832 382.667 338.832C383.218 338.832 383.694 338.944 384.095 339.168C384.506 339.383 384.823 339.728 385.047 340.204C385.28 340.68 385.392 341.305 385.383 342.08V342.416H384.263ZM389.606 346.168C389.092 346.168 388.644 346.093 388.262 345.944C387.879 345.785 387.557 345.58 387.296 345.328C387.044 345.076 386.862 344.801 386.75 344.502L387.73 344.096C387.888 344.413 388.126 344.67 388.444 344.866C388.761 345.062 389.111 345.16 389.494 345.16C389.932 345.16 390.301 345.076 390.6 344.908C390.898 344.731 391.048 344.483 391.048 344.166C391.048 343.877 390.936 343.643 390.712 343.466C390.497 343.289 390.175 343.144 389.746 343.032L389.074 342.85C388.439 342.682 387.944 342.43 387.59 342.094C387.235 341.749 387.058 341.361 387.058 340.932C387.058 340.269 387.272 339.756 387.702 339.392C388.14 339.019 388.789 338.832 389.648 338.832C390.058 338.832 390.432 338.893 390.768 339.014C391.104 339.135 391.393 339.308 391.636 339.532C391.878 339.747 392.056 340.003 392.168 340.302L391.188 340.736C391.066 340.419 390.866 340.19 390.586 340.05C390.306 339.91 389.965 339.84 389.564 339.84C389.134 339.84 388.798 339.933 388.556 340.12C388.313 340.297 388.192 340.549 388.192 340.876C388.192 341.063 388.29 341.24 388.486 341.408C388.691 341.567 388.99 341.697 389.382 341.8L390.082 341.982C390.539 342.094 390.922 342.262 391.23 342.486C391.538 342.701 391.771 342.948 391.93 343.228C392.088 343.508 392.168 343.807 392.168 344.124C392.168 344.544 392.056 344.908 391.832 345.216C391.608 345.524 391.304 345.762 390.922 345.93C390.539 346.089 390.1 346.168 389.606 346.168ZM398.479 346L398.409 344.712V339H399.529V346H398.479ZM393.495 342.584V339H394.615V342.584H393.495ZM394.615 342.584C394.615 343.275 394.695 343.802 394.853 344.166C395.012 344.53 395.231 344.782 395.511 344.922C395.801 345.053 396.123 345.118 396.477 345.118C397.084 345.118 397.555 344.899 397.891 344.46C398.237 344.021 398.409 343.41 398.409 342.626H398.955C398.955 343.363 398.848 343.998 398.633 344.53C398.419 345.062 398.106 345.468 397.695 345.748C397.294 346.028 396.799 346.168 396.211 346.168C395.67 346.168 395.194 346.061 394.783 345.846C394.373 345.622 394.055 345.272 393.831 344.796C393.607 344.311 393.495 343.685 393.495 342.92V342.584H394.615ZM402.1 342.206C402.1 341.45 402.245 340.839 402.534 340.372C402.823 339.896 403.192 339.546 403.64 339.322C404.097 339.089 404.578 338.972 405.082 338.972V340.022C404.671 340.022 404.275 340.092 403.892 340.232C403.519 340.363 403.211 340.582 402.968 340.89C402.725 341.198 402.604 341.618 402.604 342.15L402.1 342.206ZM401.484 346V339H402.604V346H401.484ZM409.28 346.168C408.599 346.168 407.997 346.014 407.474 345.706C406.952 345.389 406.541 344.955 406.242 344.404C405.953 343.853 405.808 343.219 405.808 342.5C405.808 341.781 405.953 341.147 406.242 340.596C406.541 340.045 406.947 339.616 407.46 339.308C407.983 338.991 408.58 338.832 409.252 338.832C409.906 338.832 410.47 338.995 410.946 339.322C411.422 339.639 411.791 340.087 412.052 340.666C412.314 341.245 412.444 341.926 412.444 342.71H406.662L406.942 342.472C406.942 343.032 407.04 343.513 407.236 343.914C407.442 344.315 407.726 344.623 408.09 344.838C408.454 345.043 408.87 345.146 409.336 345.146C409.831 345.146 410.246 345.029 410.582 344.796C410.928 344.563 411.194 344.255 411.38 343.872L412.346 344.362C412.169 344.726 411.931 345.043 411.632 345.314C411.343 345.585 410.998 345.795 410.596 345.944C410.204 346.093 409.766 346.168 409.28 346.168ZM407.012 341.996L406.718 341.772H411.548L411.254 342.01C411.254 341.562 411.166 341.175 410.988 340.848C410.811 340.521 410.573 340.269 410.274 340.092C409.976 339.915 409.63 339.826 409.238 339.826C408.856 339.826 408.492 339.915 408.146 340.092C407.81 340.269 407.535 340.521 407.32 340.848C407.115 341.165 407.012 341.548 407.012 341.996ZM417.946 348.968C417.769 348.968 417.563 348.931 417.33 348.856C417.097 348.791 416.849 348.702 416.588 348.59L417.008 347.652C417.223 347.745 417.409 347.815 417.568 347.862C417.736 347.909 417.867 347.932 417.96 347.932C418.212 347.932 418.417 347.862 418.576 347.722C418.744 347.591 418.884 347.4 418.996 347.148L419.794 345.244L422.384 339H423.588L420.228 346.98C420.051 347.391 419.864 347.745 419.668 348.044C419.481 348.343 419.253 348.571 418.982 348.73C418.711 348.889 418.366 348.968 417.946 348.968ZM419.486 346L416.462 339H417.652L420.256 345.23L420.592 346H419.486ZM427.615 346.168C426.934 346.168 426.327 346.014 425.795 345.706C425.272 345.389 424.862 344.955 424.563 344.404C424.264 343.853 424.115 343.219 424.115 342.5C424.115 341.781 424.26 341.147 424.549 340.596C424.848 340.045 425.258 339.616 425.781 339.308C426.313 338.991 426.915 338.832 427.587 338.832C428.278 338.832 428.884 338.991 429.407 339.308C429.939 339.616 430.35 340.045 430.639 340.596C430.938 341.147 431.087 341.781 431.087 342.5C431.087 343.219 430.938 343.853 430.639 344.404C430.35 344.955 429.944 345.389 429.421 345.706C428.898 346.014 428.296 346.168 427.615 346.168ZM427.615 345.132C428.082 345.132 428.488 345.02 428.833 344.796C429.178 344.572 429.449 344.264 429.645 343.872C429.85 343.48 429.953 343.023 429.953 342.5C429.953 341.977 429.85 341.52 429.645 341.128C429.449 340.736 429.174 340.428 428.819 340.204C428.464 339.98 428.054 339.868 427.587 339.868C427.13 339.868 426.724 339.98 426.369 340.204C426.024 340.428 425.748 340.736 425.543 341.128C425.347 341.52 425.249 341.977 425.249 342.5C425.249 343.013 425.347 343.471 425.543 343.872C425.748 344.264 426.028 344.572 426.383 344.796C426.747 345.02 427.158 345.132 427.615 345.132ZM437.444 346L437.374 344.712V339H438.494V346H437.444ZM432.46 342.584V339H433.58V342.584H432.46ZM433.58 342.584C433.58 343.275 433.659 343.802 433.818 344.166C433.977 344.53 434.196 344.782 434.476 344.922C434.765 345.053 435.087 345.118 435.442 345.118C436.049 345.118 436.52 344.899 436.856 344.46C437.201 344.021 437.374 343.41 437.374 342.626H437.92C437.92 343.363 437.813 343.998 437.598 344.53C437.383 345.062 437.071 345.468 436.66 345.748C436.259 346.028 435.764 346.168 435.176 346.168C434.635 346.168 434.159 346.061 433.748 345.846C433.337 345.622 433.02 345.272 432.796 344.796C432.572 344.311 432.46 343.685 432.46 342.92V342.584H433.58ZM440.421 339.252L440.309 335.976H441.429L441.317 339.252H440.421ZM443.867 342.206C443.867 341.45 444.012 340.839 444.301 340.372C444.591 339.896 444.959 339.546 445.407 339.322C445.865 339.089 446.345 338.972 446.849 338.972V340.022C446.439 340.022 446.042 340.092 445.659 340.232C445.286 340.363 444.978 340.582 444.735 340.89C444.493 341.198 444.371 341.618 444.371 342.15L443.867 342.206ZM443.251 346V339H444.371V346H443.251ZM451.048 346.168C450.367 346.168 449.765 346.014 449.242 345.706C448.719 345.389 448.309 344.955 448.01 344.404C447.721 343.853 447.576 343.219 447.576 342.5C447.576 341.781 447.721 341.147 448.01 340.596C448.309 340.045 448.715 339.616 449.228 339.308C449.751 338.991 450.348 338.832 451.02 338.832C451.673 338.832 452.238 338.995 452.714 339.322C453.19 339.639 453.559 340.087 453.82 340.666C454.081 341.245 454.212 341.926 454.212 342.71H448.43L448.71 342.472C448.71 343.032 448.808 343.513 449.004 343.914C449.209 344.315 449.494 344.623 449.858 344.838C450.222 345.043 450.637 345.146 451.104 345.146C451.599 345.146 452.014 345.029 452.35 344.796C452.695 344.563 452.961 344.255 453.148 343.872L454.114 344.362C453.937 344.726 453.699 345.043 453.4 345.314C453.111 345.585 452.765 345.795 452.364 345.944C451.972 346.093 451.533 346.168 451.048 346.168ZM448.78 341.996L448.486 341.772H453.316L453.022 342.01C453.022 341.562 452.933 341.175 452.756 340.848C452.579 340.521 452.341 340.269 452.042 340.092C451.743 339.915 451.398 339.826 451.006 339.826C450.623 339.826 450.259 339.915 449.914 340.092C449.578 340.269 449.303 340.521 449.088 340.848C448.883 341.165 448.78 341.548 448.78 341.996ZM220.609 363.168C219.927 363.168 219.325 363.014 218.803 362.706C218.28 362.389 217.869 361.955 217.571 361.404C217.281 360.853 217.137 360.219 217.137 359.5C217.137 358.781 217.281 358.147 217.571 357.596C217.869 357.045 218.275 356.616 218.789 356.308C219.311 355.991 219.909 355.832 220.581 355.832C221.234 355.832 221.799 355.995 222.275 356.322C222.751 356.639 223.119 357.087 223.381 357.666C223.642 358.245 223.773 358.926 223.773 359.71H217.991L218.271 359.472C218.271 360.032 218.369 360.513 218.565 360.914C218.77 361.315 219.055 361.623 219.419 361.838C219.783 362.043 220.198 362.146 220.665 362.146C221.159 362.146 221.575 362.029 221.911 361.796C222.256 361.563 222.522 361.255 222.709 360.872L223.675 361.362C223.497 361.726 223.259 362.043 222.961 362.314C222.671 362.585 222.326 362.795 221.925 362.944C221.533 363.093 221.094 363.168 220.609 363.168ZM218.341 358.996L218.047 358.772H222.877L222.583 359.01C222.583 358.562 222.494 358.175 222.317 357.848C222.139 357.521 221.901 357.269 221.603 357.092C221.304 356.915 220.959 356.826 220.567 356.826C220.184 356.826 219.82 356.915 219.475 357.092C219.139 357.269 218.863 357.521 218.649 357.848C218.443 358.165 218.341 358.548 218.341 358.996ZM230.309 365.8V357.302L230.365 356H231.429V365.8H230.309ZM227.943 363.168C227.318 363.168 226.767 363.014 226.291 362.706C225.815 362.398 225.442 361.969 225.171 361.418C224.91 360.858 224.779 360.219 224.779 359.5C224.779 358.772 224.91 358.133 225.171 357.582C225.442 357.031 225.815 356.602 226.291 356.294C226.767 355.986 227.318 355.832 227.943 355.832C228.531 355.832 229.044 355.986 229.483 356.294C229.931 356.602 230.276 357.031 230.519 357.582C230.762 358.133 230.883 358.772 230.883 359.5C230.883 360.219 230.762 360.858 230.519 361.418C230.276 361.969 229.931 362.398 229.483 362.706C229.044 363.014 228.531 363.168 227.943 363.168ZM228.195 362.146C228.606 362.146 228.97 362.034 229.287 361.81C229.604 361.586 229.852 361.273 230.029 360.872C230.216 360.471 230.309 360.013 230.309 359.5C230.309 358.987 230.216 358.529 230.029 358.128C229.852 357.727 229.604 357.414 229.287 357.19C228.97 356.966 228.601 356.854 228.181 356.854C227.742 356.854 227.35 356.966 227.005 357.19C226.669 357.414 226.403 357.727 226.207 358.128C226.011 358.529 225.913 358.987 225.913 359.5C225.913 360.013 226.011 360.471 226.207 360.872C226.403 361.273 226.674 361.586 227.019 361.81C227.364 362.034 227.756 362.146 228.195 362.146ZM238.081 363L238.011 361.712V356H239.131V363H238.081ZM233.097 359.584V356H234.217V359.584H233.097ZM234.217 359.584C234.217 360.275 234.296 360.802 234.455 361.166C234.613 361.53 234.833 361.782 235.113 361.922C235.402 362.053 235.724 362.118 236.079 362.118C236.685 362.118 237.157 361.899 237.493 361.46C237.838 361.021 238.011 360.41 238.011 359.626H238.557C238.557 360.363 238.449 360.998 238.235 361.53C238.02 362.062 237.707 362.468 237.297 362.748C236.895 363.028 236.401 363.168 235.813 363.168C235.271 363.168 234.795 363.061 234.385 362.846C233.974 362.622 233.657 362.272 233.433 361.796C233.209 361.311 233.097 360.685 233.097 359.92V359.584H234.217ZM241.155 363V356H242.275V363H241.155ZM241.729 354.376C241.543 354.376 241.379 354.306 241.239 354.166C241.099 354.026 241.029 353.863 241.029 353.676C241.029 353.48 241.099 353.317 241.239 353.186C241.379 353.046 241.543 352.976 241.729 352.976C241.925 352.976 242.089 353.046 242.219 353.186C242.359 353.317 242.429 353.48 242.429 353.676C242.429 353.863 242.359 354.026 242.219 354.166C242.089 354.306 241.925 354.376 241.729 354.376ZM244.409 365.8V356H245.459L245.529 357.288V365.8H244.409ZM247.895 363.168C247.307 363.168 246.789 363.014 246.341 362.706C245.903 362.398 245.562 361.969 245.319 361.418C245.077 360.858 244.955 360.219 244.955 359.5C244.955 358.772 245.077 358.133 245.319 357.582C245.562 357.031 245.903 356.602 246.341 356.294C246.789 355.986 247.307 355.832 247.895 355.832C248.521 355.832 249.071 355.986 249.547 356.294C250.023 356.602 250.392 357.031 250.653 357.582C250.924 358.133 251.059 358.772 251.059 359.5C251.059 360.219 250.924 360.858 250.653 361.418C250.392 361.969 250.023 362.398 249.547 362.706C249.071 363.014 248.521 363.168 247.895 363.168ZM247.643 362.146C248.082 362.146 248.469 362.034 248.805 361.81C249.151 361.586 249.421 361.273 249.617 360.872C249.823 360.471 249.925 360.013 249.925 359.5C249.925 358.987 249.827 358.529 249.631 358.128C249.445 357.727 249.179 357.414 248.833 357.19C248.488 356.966 248.096 356.854 247.657 356.854C247.247 356.854 246.878 356.966 246.551 357.19C246.234 357.414 245.982 357.727 245.795 358.128C245.618 358.529 245.529 358.987 245.529 359.5C245.529 360.013 245.618 360.471 245.795 360.872C245.982 361.273 246.234 361.586 246.551 361.81C246.869 362.034 247.233 362.146 247.643 362.146ZM252.681 365.8V356H253.731L253.801 357.288V365.8H252.681ZM256.167 363.168C255.579 363.168 255.061 363.014 254.613 362.706C254.174 362.398 253.834 361.969 253.591 361.418C253.348 360.858 253.227 360.219 253.227 359.5C253.227 358.772 253.348 358.133 253.591 357.582C253.834 357.031 254.174 356.602 254.613 356.294C255.061 355.986 255.579 355.832 256.167 355.832C256.792 355.832 257.343 355.986 257.819 356.294C258.295 356.602 258.664 357.031 258.925 357.582C259.196 358.133 259.331 358.772 259.331 359.5C259.331 360.219 259.196 360.858 258.925 361.418C258.664 361.969 258.295 362.398 257.819 362.706C257.343 363.014 256.792 363.168 256.167 363.168ZM255.915 362.146C256.354 362.146 256.741 362.034 257.077 361.81C257.422 361.586 257.693 361.273 257.889 360.872C258.094 360.471 258.197 360.013 258.197 359.5C258.197 358.987 258.099 358.529 257.903 358.128C257.716 357.727 257.45 357.414 257.105 357.19C256.76 356.966 256.368 356.854 255.929 356.854C255.518 356.854 255.15 356.966 254.823 357.19C254.506 357.414 254.254 357.727 254.067 358.128C253.89 358.529 253.801 358.987 253.801 359.5C253.801 360.013 253.89 360.471 254.067 360.872C254.254 361.273 254.506 361.586 254.823 361.81C255.14 362.034 255.504 362.146 255.915 362.146ZM263.948 363.168C263.267 363.168 262.665 363.014 262.142 362.706C261.62 362.389 261.209 361.955 260.91 361.404C260.621 360.853 260.476 360.219 260.476 359.5C260.476 358.781 260.621 358.147 260.91 357.596C261.209 357.045 261.615 356.616 262.128 356.308C262.651 355.991 263.248 355.832 263.92 355.832C264.574 355.832 265.138 355.995 265.614 356.322C266.09 356.639 266.459 357.087 266.72 357.666C266.982 358.245 267.112 358.926 267.112 359.71H261.33L261.61 359.472C261.61 360.032 261.708 360.513 261.904 360.914C262.11 361.315 262.394 361.623 262.758 361.838C263.122 362.043 263.538 362.146 264.004 362.146C264.499 362.146 264.914 362.029 265.25 361.796C265.596 361.563 265.862 361.255 266.048 360.872L267.014 361.362C266.837 361.726 266.599 362.043 266.3 362.314C266.011 362.585 265.666 362.795 265.264 362.944C264.872 363.093 264.434 363.168 263.948 363.168ZM261.68 358.996L261.386 358.772H266.216L265.922 359.01C265.922 358.562 265.834 358.175 265.656 357.848C265.479 357.521 265.241 357.269 264.942 357.092C264.644 356.915 264.298 356.826 263.906 356.826C263.524 356.826 263.16 356.915 262.814 357.092C262.478 357.269 262.203 357.521 261.988 357.848C261.783 358.165 261.68 358.548 261.68 358.996ZM273.705 363L273.649 361.698V353.2H274.769V363H273.705ZM271.283 363.168C270.658 363.168 270.107 363.014 269.631 362.706C269.155 362.398 268.782 361.969 268.511 361.418C268.25 360.858 268.119 360.219 268.119 359.5C268.119 358.772 268.25 358.133 268.511 357.582C268.782 357.031 269.155 356.602 269.631 356.294C270.107 355.986 270.658 355.832 271.283 355.832C271.871 355.832 272.384 355.986 272.823 356.294C273.271 356.602 273.616 357.031 273.859 357.582C274.102 358.133 274.223 358.772 274.223 359.5C274.223 360.219 274.102 360.858 273.859 361.418C273.616 361.969 273.271 362.398 272.823 362.706C272.384 363.014 271.871 363.168 271.283 363.168ZM271.535 362.146C271.946 362.146 272.31 362.034 272.627 361.81C272.944 361.586 273.192 361.273 273.369 360.872C273.556 360.471 273.649 360.013 273.649 359.5C273.649 358.987 273.556 358.529 273.369 358.128C273.192 357.727 272.944 357.414 272.627 357.19C272.31 356.966 271.941 356.854 271.521 356.854C271.082 356.854 270.69 356.966 270.345 357.19C270.009 357.414 269.743 357.727 269.547 358.128C269.351 358.529 269.253 358.987 269.253 359.5C269.253 360.013 269.351 360.471 269.547 360.872C269.743 361.273 270.014 361.586 270.359 361.81C270.704 362.034 271.096 362.146 271.535 362.146ZM286.543 363L288.909 356H290.043L287.663 363H286.543ZM281.783 363L284.149 356H285.199L282.861 363H281.783ZM281.727 363L279.347 356H280.481L282.819 363H281.727ZM286.543 363L284.205 356H285.269L287.607 363H286.543ZM291.236 363V356H292.356V363H291.236ZM291.81 354.376C291.623 354.376 291.46 354.306 291.32 354.166C291.18 354.026 291.11 353.863 291.11 353.676C291.11 353.48 291.18 353.317 291.32 353.186C291.46 353.046 291.623 352.976 291.81 352.976C292.006 352.976 292.169 353.046 292.3 353.186C292.44 353.317 292.51 353.48 292.51 353.676C292.51 353.863 292.44 354.026 292.3 354.166C292.169 354.306 292.006 354.376 291.81 354.376ZM297.051 363.168C296.37 363.168 295.843 362.991 295.469 362.636C295.096 362.281 294.909 361.782 294.909 361.138V353.816H296.029V361.026C296.029 361.381 296.123 361.656 296.309 361.852C296.505 362.039 296.776 362.132 297.121 362.132C297.233 362.132 297.341 362.118 297.443 362.09C297.555 362.053 297.7 361.969 297.877 361.838L298.311 362.748C298.069 362.907 297.849 363.014 297.653 363.07C297.457 363.135 297.257 363.168 297.051 363.168ZM293.691 356.994V356H298.129V356.994H293.691ZM299.71 363V353.2H300.83V363H299.71ZM304.638 363V359.416H305.758V363H304.638ZM304.638 359.416C304.638 358.725 304.554 358.198 304.386 357.834C304.228 357.47 304.008 357.223 303.728 357.092C303.448 356.952 303.131 356.882 302.776 356.882C302.16 356.882 301.68 357.101 301.334 357.54C300.998 357.969 300.83 358.581 300.83 359.374H300.284C300.284 358.637 300.392 358.002 300.606 357.47C300.83 356.938 301.148 356.532 301.558 356.252C301.969 355.972 302.464 355.832 303.042 355.832C303.584 355.832 304.06 355.944 304.47 356.168C304.881 356.383 305.198 356.728 305.422 357.204C305.656 357.68 305.768 358.305 305.758 359.08V359.416H304.638ZM315.288 363L315.232 361.852V359.304C315.232 358.753 315.171 358.301 315.05 357.946C314.929 357.582 314.737 357.307 314.476 357.12C314.215 356.933 313.874 356.84 313.454 356.84C313.071 356.84 312.74 356.919 312.46 357.078C312.189 357.227 311.965 357.47 311.788 357.806L310.78 357.414C310.957 357.087 311.172 356.807 311.424 356.574C311.676 356.331 311.97 356.149 312.306 356.028C312.642 355.897 313.025 355.832 313.454 355.832C314.107 355.832 314.644 355.963 315.064 356.224C315.493 356.476 315.815 356.854 316.03 357.358C316.245 357.853 316.347 358.469 316.338 359.206L316.324 363H315.288ZM313.188 363.168C312.367 363.168 311.723 362.981 311.256 362.608C310.799 362.225 310.57 361.698 310.57 361.026C310.57 360.317 310.803 359.775 311.27 359.402C311.746 359.019 312.409 358.828 313.258 358.828H315.26V359.766H313.51C312.857 359.766 312.39 359.873 312.11 360.088C311.839 360.303 311.704 360.611 311.704 361.012C311.704 361.376 311.839 361.665 312.11 361.88C312.381 362.085 312.759 362.188 313.244 362.188C313.645 362.188 313.995 362.104 314.294 361.936C314.593 361.759 314.821 361.511 314.98 361.194C315.148 360.867 315.232 360.485 315.232 360.046H315.708C315.708 360.998 315.493 361.759 315.064 362.328C314.635 362.888 314.009 363.168 313.188 363.168ZM318.113 363V353.2H319.233V363H318.113ZM321.189 363V353.2H322.309V363H321.189ZM330.356 363.168C329.675 363.168 329.147 362.991 328.774 362.636C328.401 362.281 328.214 361.782 328.214 361.138V353.816H329.334V361.026C329.334 361.381 329.427 361.656 329.614 361.852C329.81 362.039 330.081 362.132 330.426 362.132C330.538 362.132 330.645 362.118 330.748 362.09C330.86 362.053 331.005 361.969 331.182 361.838L331.616 362.748C331.373 362.907 331.154 363.014 330.958 363.07C330.762 363.135 330.561 363.168 330.356 363.168ZM326.996 356.994V356H331.434V356.994H326.996ZM333.015 363V353.2H334.135V363H333.015ZM337.943 363V359.416H339.063V363H337.943ZM337.943 359.416C337.943 358.725 337.859 358.198 337.691 357.834C337.532 357.47 337.313 357.223 337.033 357.092C336.753 356.952 336.436 356.882 336.081 356.882C335.465 356.882 334.984 357.101 334.639 357.54C334.303 357.969 334.135 358.581 334.135 359.374H333.589C333.589 358.637 333.696 358.002 333.911 357.47C334.135 356.938 334.452 356.532 334.863 356.252C335.274 355.972 335.768 355.832 336.347 355.832C336.888 355.832 337.364 355.944 337.775 356.168C338.186 356.383 338.503 356.728 338.727 357.204C338.96 357.68 339.072 358.305 339.063 359.08V359.416H337.943ZM343.888 363.168C343.206 363.168 342.604 363.014 342.082 362.706C341.559 362.389 341.148 361.955 340.85 361.404C340.56 360.853 340.416 360.219 340.416 359.5C340.416 358.781 340.56 358.147 340.85 357.596C341.148 357.045 341.554 356.616 342.068 356.308C342.59 355.991 343.188 355.832 343.86 355.832C344.513 355.832 345.078 355.995 345.554 356.322C346.03 356.639 346.398 357.087 346.66 357.666C346.921 358.245 347.052 358.926 347.052 359.71H341.27L341.55 359.472C341.55 360.032 341.648 360.513 341.844 360.914C342.049 361.315 342.334 361.623 342.698 361.838C343.062 362.043 343.477 362.146 343.944 362.146C344.438 362.146 344.854 362.029 345.19 361.796C345.535 361.563 345.801 361.255 345.988 360.872L346.954 361.362C346.776 361.726 346.538 362.043 346.24 362.314C345.95 362.585 345.605 362.795 345.204 362.944C344.812 363.093 344.373 363.168 343.888 363.168ZM341.62 358.996L341.326 358.772H346.156L345.862 359.01C345.862 358.562 345.773 358.175 345.596 357.848C345.418 357.521 345.18 357.269 344.882 357.092C344.583 356.915 344.238 356.826 343.846 356.826C343.463 356.826 343.099 356.915 342.754 357.092C342.418 357.269 342.142 357.521 341.928 357.848C341.722 358.165 341.62 358.548 341.62 358.996ZM354.555 363.168C353.874 363.168 353.347 362.991 352.973 362.636C352.6 362.281 352.413 361.782 352.413 361.138V353.816H353.533V361.026C353.533 361.381 353.627 361.656 353.813 361.852C354.009 362.039 354.28 362.132 354.625 362.132C354.737 362.132 354.845 362.118 354.947 362.09C355.059 362.053 355.204 361.969 355.381 361.838L355.815 362.748C355.573 362.907 355.353 363.014 355.157 363.07C354.961 363.135 354.761 363.168 354.555 363.168ZM351.195 356.994V356H355.633V356.994H351.195ZM360.267 363.168C359.586 363.168 358.979 363.014 358.447 362.706C357.925 362.389 357.514 361.955 357.215 361.404C356.917 360.853 356.767 360.219 356.767 359.5C356.767 358.781 356.912 358.147 357.201 357.596C357.5 357.045 357.911 356.616 358.433 356.308C358.965 355.991 359.567 355.832 360.239 355.832C360.93 355.832 361.537 355.991 362.059 356.308C362.591 356.616 363.002 357.045 363.291 357.596C363.59 358.147 363.739 358.781 363.739 359.5C363.739 360.219 363.59 360.853 363.291 361.404C363.002 361.955 362.596 362.389 362.073 362.706C361.551 363.014 360.949 363.168 360.267 363.168ZM360.267 362.132C360.734 362.132 361.14 362.02 361.485 361.796C361.831 361.572 362.101 361.264 362.297 360.872C362.503 360.48 362.605 360.023 362.605 359.5C362.605 358.977 362.503 358.52 362.297 358.128C362.101 357.736 361.826 357.428 361.471 357.204C361.117 356.98 360.706 356.868 360.239 356.868C359.782 356.868 359.376 356.98 359.021 357.204C358.676 357.428 358.401 357.736 358.195 358.128C357.999 358.52 357.901 358.977 357.901 359.5C357.901 360.013 357.999 360.471 358.195 360.872C358.401 361.264 358.681 361.572 359.035 361.796C359.399 362.02 359.81 362.132 360.267 362.132ZM368.388 363.168C367.707 363.168 367.1 363.014 366.568 362.706C366.046 362.389 365.635 361.955 365.336 361.404C365.038 360.853 364.888 360.219 364.888 359.5C364.888 358.781 365.033 358.147 365.322 357.596C365.621 357.045 366.032 356.616 366.554 356.308C367.086 355.991 367.688 355.832 368.36 355.832C369.051 355.832 369.658 355.991 370.18 356.308C370.712 356.616 371.123 357.045 371.412 357.596C371.711 358.147 371.86 358.781 371.86 359.5C371.86 360.219 371.711 360.853 371.412 361.404C371.123 361.955 370.717 362.389 370.194 362.706C369.672 363.014 369.07 363.168 368.388 363.168ZM368.388 362.132C368.855 362.132 369.261 362.02 369.606 361.796C369.952 361.572 370.222 361.264 370.418 360.872C370.624 360.48 370.726 360.023 370.726 359.5C370.726 358.977 370.624 358.52 370.418 358.128C370.222 357.736 369.947 357.428 369.592 357.204C369.238 356.98 368.827 356.868 368.36 356.868C367.903 356.868 367.497 356.98 367.142 357.204C366.797 357.428 366.522 357.736 366.316 358.128C366.12 358.52 366.022 358.977 366.022 359.5C366.022 360.013 366.12 360.471 366.316 360.872C366.522 361.264 366.802 361.572 367.156 361.796C367.52 362.02 367.931 362.132 368.388 362.132ZM373.416 363V353.2H374.536V363H373.416ZM378.942 363.168C378.428 363.168 377.98 363.093 377.598 362.944C377.215 362.785 376.893 362.58 376.632 362.328C376.38 362.076 376.198 361.801 376.086 361.502L377.066 361.096C377.224 361.413 377.462 361.67 377.78 361.866C378.097 362.062 378.447 362.16 378.83 362.16C379.268 362.16 379.637 362.076 379.936 361.908C380.234 361.731 380.384 361.483 380.384 361.166C380.384 360.877 380.272 360.643 380.048 360.466C379.833 360.289 379.511 360.144 379.082 360.032L378.41 359.85C377.775 359.682 377.28 359.43 376.926 359.094C376.571 358.749 376.394 358.361 376.394 357.932C376.394 357.269 376.608 356.756 377.038 356.392C377.476 356.019 378.125 355.832 378.984 355.832C379.394 355.832 379.768 355.893 380.104 356.014C380.44 356.135 380.729 356.308 380.972 356.532C381.214 356.747 381.392 357.003 381.504 357.302L380.524 357.736C380.402 357.419 380.202 357.19 379.922 357.05C379.642 356.91 379.301 356.84 378.9 356.84C378.47 356.84 378.134 356.933 377.892 357.12C377.649 357.297 377.528 357.549 377.528 357.876C377.528 358.063 377.626 358.24 377.822 358.408C378.027 358.567 378.326 358.697 378.718 358.8L379.418 358.982C379.875 359.094 380.258 359.262 380.566 359.486C380.874 359.701 381.107 359.948 381.266 360.228C381.424 360.508 381.504 360.807 381.504 361.124C381.504 361.544 381.392 361.908 381.168 362.216C380.944 362.524 380.64 362.762 380.258 362.93C379.875 363.089 379.436 363.168 378.942 363.168ZM386.472 363V356H387.522L387.592 357.288V363H386.472ZM391.386 363V359.416H392.506V363H391.386ZM391.386 359.416C391.386 358.725 391.307 358.198 391.148 357.834C390.99 357.47 390.77 357.223 390.49 357.092C390.21 356.952 389.893 356.882 389.538 356.882C388.922 356.882 388.442 357.101 388.096 357.54C387.76 357.969 387.592 358.581 387.592 359.374H387.046C387.046 358.637 387.154 358.002 387.368 357.47C387.583 356.938 387.896 356.532 388.306 356.252C388.717 355.972 389.212 355.832 389.79 355.832C390.341 355.832 390.817 355.944 391.218 356.168C391.629 356.383 391.946 356.728 392.17 357.204C392.404 357.68 392.516 358.305 392.506 359.08V359.416H391.386ZM397.345 363.168C396.663 363.168 396.061 363.014 395.539 362.706C395.016 362.389 394.605 361.955 394.307 361.404C394.017 360.853 393.873 360.219 393.873 359.5C393.873 358.781 394.017 358.147 394.307 357.596C394.605 357.045 395.011 356.616 395.525 356.308C396.047 355.991 396.645 355.832 397.317 355.832C397.97 355.832 398.535 355.995 399.011 356.322C399.487 356.639 399.855 357.087 400.117 357.666C400.378 358.245 400.509 358.926 400.509 359.71H394.727L395.007 359.472C395.007 360.032 395.105 360.513 395.301 360.914C395.506 361.315 395.791 361.623 396.155 361.838C396.519 362.043 396.934 362.146 397.401 362.146C397.895 362.146 398.311 362.029 398.647 361.796C398.992 361.563 399.258 361.255 399.445 360.872L400.411 361.362C400.233 361.726 399.995 362.043 399.697 362.314C399.407 362.585 399.062 362.795 398.661 362.944C398.269 363.093 397.83 363.168 397.345 363.168ZM395.077 358.996L394.783 358.772H399.613L399.319 359.01C399.319 358.562 399.23 358.175 399.053 357.848C398.875 357.521 398.637 357.269 398.339 357.092C398.04 356.915 397.695 356.826 397.303 356.826C396.92 356.826 396.556 356.915 396.211 357.092C395.875 357.269 395.599 357.521 395.385 357.848C395.179 358.165 395.077 358.548 395.077 358.996ZM405.043 363.168C404.353 363.168 403.741 363.014 403.209 362.706C402.677 362.389 402.262 361.955 401.963 361.404C401.665 360.853 401.515 360.219 401.515 359.5C401.515 358.781 401.66 358.147 401.949 357.596C402.248 357.045 402.663 356.616 403.195 356.308C403.727 355.991 404.334 355.832 405.015 355.832C405.687 355.832 406.289 355.986 406.821 356.294C407.353 356.602 407.759 357.036 408.039 357.596L407.017 358.058C406.831 357.685 406.56 357.395 406.205 357.19C405.851 356.975 405.445 356.868 404.987 356.868C404.53 356.868 404.124 356.98 403.769 357.204C403.424 357.428 403.149 357.741 402.943 358.142C402.747 358.534 402.649 358.987 402.649 359.5C402.649 360.013 402.747 360.471 402.943 360.872C403.149 361.264 403.429 361.572 403.783 361.796C404.147 362.02 404.558 362.132 405.015 362.132C405.473 362.132 405.879 362.015 406.233 361.782C406.597 361.549 406.873 361.222 407.059 360.802L408.081 361.264C407.801 361.861 407.395 362.328 406.863 362.664C406.331 363 405.725 363.168 405.043 363.168ZM412.562 363.168C411.88 363.168 411.278 363.014 410.756 362.706C410.233 362.389 409.822 361.955 409.524 361.404C409.234 360.853 409.09 360.219 409.09 359.5C409.09 358.781 409.234 358.147 409.524 357.596C409.822 357.045 410.228 356.616 410.742 356.308C411.264 355.991 411.862 355.832 412.534 355.832C413.187 355.832 413.752 355.995 414.228 356.322C414.704 356.639 415.072 357.087 415.334 357.666C415.595 358.245 415.726 358.926 415.726 359.71H409.944L410.224 359.472C410.224 360.032 410.322 360.513 410.518 360.914C410.723 361.315 411.008 361.623 411.372 361.838C411.736 362.043 412.151 362.146 412.618 362.146C413.112 362.146 413.528 362.029 413.864 361.796C414.209 361.563 414.475 361.255 414.662 360.872L415.628 361.362C415.45 361.726 415.212 362.043 414.914 362.314C414.624 362.585 414.279 362.795 413.878 362.944C413.486 363.093 413.047 363.168 412.562 363.168ZM410.294 358.996L410 358.772H414.83L414.536 359.01C414.536 358.562 414.447 358.175 414.27 357.848C414.092 357.521 413.854 357.269 413.556 357.092C413.257 356.915 412.912 356.826 412.52 356.826C412.137 356.826 411.773 356.915 411.428 357.092C411.092 357.269 410.816 357.521 410.602 357.848C410.396 358.165 410.294 358.548 410.294 358.996ZM419.588 363.168C419.075 363.168 418.627 363.093 418.244 362.944C417.862 362.785 417.54 362.58 417.278 362.328C417.026 362.076 416.844 361.801 416.732 361.502L417.712 361.096C417.871 361.413 418.109 361.67 418.426 361.866C418.744 362.062 419.094 362.16 419.476 362.16C419.915 362.16 420.284 362.076 420.582 361.908C420.881 361.731 421.03 361.483 421.03 361.166C421.03 360.877 420.918 360.643 420.694 360.466C420.48 360.289 420.158 360.144 419.728 360.032L419.056 359.85C418.422 359.682 417.927 359.43 417.572 359.094C417.218 358.749 417.04 358.361 417.04 357.932C417.04 357.269 417.255 356.756 417.684 356.392C418.123 356.019 418.772 355.832 419.63 355.832C420.041 355.832 420.414 355.893 420.75 356.014C421.086 356.135 421.376 356.308 421.618 356.532C421.861 356.747 422.038 357.003 422.15 357.302L421.17 357.736C421.049 357.419 420.848 357.19 420.568 357.05C420.288 356.91 419.948 356.84 419.546 356.84C419.117 356.84 418.781 356.933 418.538 357.12C418.296 357.297 418.174 357.549 418.174 357.876C418.174 358.063 418.272 358.24 418.468 358.408C418.674 358.567 418.972 358.697 419.364 358.8L420.064 358.982C420.522 359.094 420.904 359.262 421.212 359.486C421.52 359.701 421.754 359.948 421.912 360.228C422.071 360.508 422.15 360.807 422.15 361.124C422.15 361.544 422.038 361.908 421.814 362.216C421.59 362.524 421.287 362.762 420.904 362.93C420.522 363.089 420.083 363.168 419.588 363.168ZM426.11 363.168C425.596 363.168 425.148 363.093 424.766 362.944C424.383 362.785 424.061 362.58 423.8 362.328C423.548 362.076 423.366 361.801 423.254 361.502L424.234 361.096C424.392 361.413 424.63 361.67 424.948 361.866C425.265 362.062 425.615 362.16 425.998 362.16C426.436 362.16 426.805 362.076 427.104 361.908C427.402 361.731 427.552 361.483 427.552 361.166C427.552 360.877 427.44 360.643 427.216 360.466C427.001 360.289 426.679 360.144 426.25 360.032L425.578 359.85C424.943 359.682 424.448 359.43 424.094 359.094C423.739 358.749 423.562 358.361 423.562 357.932C423.562 357.269 423.776 356.756 424.206 356.392C424.644 356.019 425.293 355.832 426.152 355.832C426.562 355.832 426.936 355.893 427.272 356.014C427.608 356.135 427.897 356.308 428.14 356.532C428.382 356.747 428.56 357.003 428.672 357.302L427.692 357.736C427.57 357.419 427.37 357.19 427.09 357.05C426.81 356.91 426.469 356.84 426.068 356.84C425.638 356.84 425.302 356.933 425.06 357.12C424.817 357.297 424.696 357.549 424.696 357.876C424.696 358.063 424.794 358.24 424.99 358.408C425.195 358.567 425.494 358.697 425.886 358.8L426.586 358.982C427.043 359.094 427.426 359.262 427.734 359.486C428.042 359.701 428.275 359.948 428.434 360.228C428.592 360.508 428.672 360.807 428.672 361.124C428.672 361.544 428.56 361.908 428.336 362.216C428.112 362.524 427.808 362.762 427.426 362.93C427.043 363.089 426.604 363.168 426.11 363.168ZM434.493 363L434.437 361.852V359.304C434.437 358.753 434.377 358.301 434.255 357.946C434.134 357.582 433.943 357.307 433.681 357.12C433.42 356.933 433.079 356.84 432.659 356.84C432.277 356.84 431.945 356.919 431.665 357.078C431.395 357.227 431.171 357.47 430.993 357.806L429.985 357.414C430.163 357.087 430.377 356.807 430.629 356.574C430.881 356.331 431.175 356.149 431.511 356.028C431.847 355.897 432.23 355.832 432.659 355.832C433.313 355.832 433.849 355.963 434.269 356.224C434.699 356.476 435.021 356.854 435.235 357.358C435.45 357.853 435.553 358.469 435.543 359.206L435.529 363H434.493ZM432.393 363.168C431.572 363.168 430.928 362.981 430.461 362.608C430.004 362.225 429.775 361.698 429.775 361.026C429.775 360.317 430.009 359.775 430.475 359.402C430.951 359.019 431.614 358.828 432.463 358.828H434.465V359.766H432.715C432.062 359.766 431.595 359.873 431.315 360.088C431.045 360.303 430.909 360.611 430.909 361.012C430.909 361.376 431.045 361.665 431.315 361.88C431.586 362.085 431.964 362.188 432.449 362.188C432.851 362.188 433.201 362.104 433.499 361.936C433.798 361.759 434.027 361.511 434.185 361.194C434.353 360.867 434.437 360.485 434.437 360.046H434.913C434.913 360.998 434.699 361.759 434.269 362.328C433.84 362.888 433.215 363.168 432.393 363.168ZM437.934 359.206C437.934 358.45 438.079 357.839 438.368 357.372C438.657 356.896 439.026 356.546 439.474 356.322C439.931 356.089 440.412 355.972 440.916 355.972V357.022C440.505 357.022 440.109 357.092 439.726 357.232C439.353 357.363 439.045 357.582 438.802 357.89C438.559 358.198 438.438 358.618 438.438 359.15L437.934 359.206ZM437.318 363V356H438.438V363H437.318ZM442.678 365.968C442.501 365.968 442.296 365.931 442.062 365.856C441.829 365.791 441.582 365.702 441.32 365.59L441.74 364.652C441.955 364.745 442.142 364.815 442.3 364.862C442.468 364.909 442.599 364.932 442.692 364.932C442.944 364.932 443.15 364.862 443.308 364.722C443.476 364.591 443.616 364.4 443.728 364.148L444.526 362.244L447.116 356H448.32L444.96 363.98C444.783 364.391 444.596 364.745 444.4 365.044C444.214 365.343 443.985 365.571 443.714 365.73C443.444 365.889 443.098 365.968 442.678 365.968ZM444.218 363L441.194 356H442.384L444.988 362.23L445.324 363H444.218Z" fill="#4B4C4C"/>
<line y1="-0.5" x2="90" y2="-0.5" transform="matrix(4.37114e-08 1 1 -4.37114e-08 333 493)" stroke="url(#paint1_linear_288_5732)"/>
<line x1="332.5" y1="107" x2="332.5" y2="17" stroke="url(#paint2_linear_288_5732)"/>
<line y1="-0.5" x2="181.177" y2="-0.5" transform="matrix(-0.883116 0.469155 0.469155 0.883116 161 427)" stroke="url(#paint3_linear_288_5732)"/>
<line y1="-0.5" x2="120" y2="-0.5" transform="matrix(-1 -8.74228e-08 -8.74228e-08 1 133 335)" stroke="url(#paint4_linear_288_5732)"/>
<line y1="-0.5" x2="154.156" y2="-0.5" transform="matrix(-0.713564 -0.70059 -0.70059 0.713564 123 236)" stroke="url(#paint5_linear_288_5732)"/>
<line y1="-0.5" x2="196.576" y2="-0.5" transform="matrix(-0.707107 0.707107 0.707107 0.707107 240 469)" stroke="url(#paint6_linear_288_5732)"/>
<line y1="-0.5" x2="230.517" y2="-0.5" transform="matrix(-0.707107 -0.707107 -0.707107 0.707107 243 164)" stroke="url(#paint7_linear_288_5732)"/>
<line x1="505.235" y1="426.558" x2="665.235" y2="511.558" stroke="url(#paint8_linear_288_5732)"/>
<line x1="533" y1="334.5" x2="653" y2="334.5" stroke="url(#paint9_linear_288_5732)"/>
<line x1="542.65" y1="235.643" x2="652.65" y2="127.643" stroke="url(#paint10_linear_288_5732)"/>
<line x1="426.354" y1="468.646" x2="565.354" y2="607.646" stroke="url(#paint11_linear_288_5732)"/>
<line x1="422.646" y1="163.646" x2="585.646" y2="0.646446" stroke="url(#paint12_linear_288_5732)"/>
<defs>
<filter id="filter0_d_288_5732" x="145.316" y="90.166" width="374.367" height="418.668" filterUnits="userSpaceOnUse" color-interpolation-filters="sRGB">
<feFlood flood-opacity="0" result="BackgroundImageFix"/>
<feColorMatrix in="SourceAlpha" type="matrix" values="0 0 0 0 0 0 0 0 0 0 0 0 0 0 0 0 0 0 127 0" result="hardAlpha"/>
<feOffset/>
<feGaussianBlur stdDeviation="15"/>
<feComposite in2="hardAlpha" operator="out"/>
<feColorMatrix type="matrix" values="0 0 0 0 0 0 0 0 0 0 0 0 0 0 0 0 0 0 0.1 0"/>
<feBlend mode="normal" in2="BackgroundImageFix" result="effect1_dropShadow_288_5732"/>
<feBlend mode="normal" in="SourceGraphic" in2="effect1_dropShadow_288_5732" result="shape"/>
</filter>
<linearGradient id="paint0_linear_288_5732" x1="332.5" y1="118" x2="332.5" y2="481" gradientUnits="userSpaceOnUse">
<stop stop-color="white"/>
<stop offset="1" stop-color="#F9F9F9"/>
</linearGradient>
<linearGradient id="paint1_linear_288_5732" x1="0" y1="0.5" x2="90" y2="0.5" gradientUnits="userSpaceOnUse">
<stop offset="0.192308" stop-color="white" stop-opacity="0"/>
<stop offset="1" stop-color="#989898"/>
</linearGradient>
<linearGradient id="paint2_linear_288_5732" x1="333.5" y1="107" x2="333.5" y2="17" gradientUnits="userSpaceOnUse">
<stop offset="0.192308" stop-color="white" stop-opacity="0"/>
<stop offset="1" stop-color="#989898"/>
</linearGradient>
<linearGradient id="paint3_linear_288_5732" x1="0" y1="0.5" x2="181.177" y2="0.5" gradientUnits="userSpaceOnUse">
<stop offset="0.192308" stop-color="white" stop-opacity="0"/>
<stop offset="1" stop-color="#989898"/>
</linearGradient>
<linearGradient id="paint4_linear_288_5732" x1="0" y1="0.5" x2="120" y2="0.5" gradientUnits="userSpaceOnUse">
<stop offset="0.192308" stop-color="white" stop-opacity="0"/>
<stop offset="1" stop-color="#989898"/>
</linearGradient>
<linearGradient id="paint5_linear_288_5732" x1="0" y1="0.5" x2="154.156" y2="0.5" gradientUnits="userSpaceOnUse">
<stop offset="0.192308" stop-color="white" stop-opacity="0"/>
<stop offset="1" stop-color="#989898"/>
</linearGradient>
<linearGradient id="paint6_linear_288_5732" x1="0" y1="0.5" x2="196.576" y2="0.5" gradientUnits="userSpaceOnUse">
<stop offset="0.192308" stop-color="white" stop-opacity="0"/>
<stop offset="1" stop-color="#989898"/>
</linearGradient>
<linearGradient id="paint7_linear_288_5732" x1="0" y1="0.5" x2="230.517" y2="0.5" gradientUnits="userSpaceOnUse">
<stop offset="0.192308" stop-color="white" stop-opacity="0"/>
<stop offset="1" stop-color="#989898"/>
</linearGradient>
<linearGradient id="paint8_linear_288_5732" x1="504.765" y1="427.442" x2="664.765" y2="512.442" gradientUnits="userSpaceOnUse">
<stop offset="0.192308" stop-color="white" stop-opacity="0"/>
<stop offset="1" stop-color="#989898"/>
</linearGradient>
<linearGradient id="paint9_linear_288_5732" x1="533" y1="335.5" x2="653" y2="335.5" gradientUnits="userSpaceOnUse">
<stop offset="0.192308" stop-color="white" stop-opacity="0"/>
<stop offset="1" stop-color="#989898"/>
</linearGradient>
<linearGradient id="paint10_linear_288_5732" x1="543.35" y1="236.357" x2="653.35" y2="128.357" gradientUnits="userSpaceOnUse">
<stop offset="0.192308" stop-color="white" stop-opacity="0"/>
<stop offset="1" stop-color="#989898"/>
</linearGradient>
<linearGradient id="paint11_linear_288_5732" x1="425.646" y1="469.354" x2="564.646" y2="608.354" gradientUnits="userSpaceOnUse">
<stop offset="0.192308" stop-color="white" stop-opacity="0"/>
<stop offset="1" stop-color="#989898"/>
</linearGradient>
<linearGradient id="paint12_linear_288_5732" x1="423.354" y1="164.354" x2="586.354" y2="1.35355" gradientUnits="userSpaceOnUse">
<stop offset="0.192308" stop-color="white" stop-opacity="0"/>
<stop offset="1" stop-color="#989898"/>
</linearGradient>
</defs>
</svg>
