<svg width="32" height="32" viewBox="0 0 32 32" fill="none" xmlns="http://www.w3.org/2000/svg">
<rect width="32" height="32" rx="16" fill="#F8F2FF"/>
<g clip-path="url(#clip0_406_9482)">
<path d="M16 8.6207C18.4047 8.6207 18.6895 8.63125 19.6352 8.67344C20.5141 8.71211 20.9887 8.85977 21.3051 8.98281C21.7234 9.14453 22.0258 9.34141 22.3387 9.6543C22.6551 9.9707 22.8484 10.2695 23.0102 10.6879C23.1332 11.0043 23.2809 11.4824 23.3195 12.3578C23.3617 13.307 23.3723 13.5918 23.3723 15.993C23.3723 18.3977 23.3617 18.6824 23.3195 19.6281C23.2809 20.507 23.1332 20.9816 23.0102 21.298C22.8484 21.7164 22.6516 22.0187 22.3387 22.3316C22.0223 22.648 21.7234 22.8414 21.3051 23.0031C20.9887 23.1262 20.5105 23.2738 19.6352 23.3125C18.6859 23.3547 18.4012 23.3652 16 23.3652C13.5953 23.3652 13.3105 23.3547 12.3648 23.3125C11.4859 23.2738 11.0113 23.1262 10.6949 23.0031C10.2766 22.8414 9.97422 22.6445 9.66133 22.3316C9.34492 22.0152 9.15156 21.7164 8.98984 21.298C8.8668 20.9816 8.71914 20.5035 8.68047 19.6281C8.63828 18.6789 8.62773 18.3941 8.62773 15.993C8.62773 13.5883 8.63828 13.3035 8.68047 12.3578C8.71914 11.4789 8.8668 11.0043 8.98984 10.6879C9.15156 10.2695 9.34844 9.96719 9.66133 9.6543C9.97773 9.33789 10.2766 9.14453 10.6949 8.98281C11.0113 8.85977 11.4895 8.71211 12.3648 8.67344C13.3105 8.63125 13.5953 8.6207 16 8.6207ZM16 7C13.5566 7 13.2508 7.01055 12.291 7.05273C11.3348 7.09492 10.6773 7.24961 10.1078 7.47109C9.51367 7.70312 9.01094 8.00898 8.51172 8.51172C8.00898 9.01094 7.70312 9.51367 7.47109 10.1043C7.24961 10.6773 7.09492 11.3312 7.05273 12.2875C7.01055 13.2508 7 13.5566 7 16C7 18.4434 7.01055 18.7492 7.05273 19.709C7.09492 20.6652 7.24961 21.3227 7.47109 21.8922C7.70312 22.4863 8.00898 22.9891 8.51172 23.4883C9.01094 23.9875 9.51367 24.2969 10.1043 24.5254C10.6773 24.7469 11.3313 24.9016 12.2875 24.9437C13.2473 24.9859 13.5531 24.9965 15.9965 24.9965C18.4398 24.9965 18.7457 24.9859 19.7055 24.9437C20.6617 24.9016 21.3191 24.7469 21.8887 24.5254C22.4793 24.2969 22.982 23.9875 23.4813 23.4883C23.9805 22.9891 24.2898 22.4863 24.5184 21.8957C24.7398 21.3227 24.8945 20.6687 24.9367 19.7125C24.9789 18.7527 24.9895 18.4469 24.9895 16.0035C24.9895 13.5602 24.9789 13.2543 24.9367 12.2945C24.8945 11.3383 24.7398 10.6809 24.5184 10.1113C24.2969 9.51367 23.991 9.01094 23.4883 8.51172C22.9891 8.0125 22.4863 7.70312 21.8957 7.47461C21.3227 7.25312 20.6688 7.09844 19.7125 7.05625C18.7492 7.01055 18.4434 7 16 7Z" fill="#000100"/>
<path d="M16 11.377C13.4477 11.377 11.377 13.4477 11.377 16C11.377 18.5523 13.4477 20.623 16 20.623C18.5523 20.623 20.623 18.5523 20.623 16C20.623 13.4477 18.5523 11.377 16 11.377ZM16 18.9988C14.3441 18.9988 13.0012 17.6559 13.0012 16C13.0012 14.3441 14.3441 13.0012 16 13.0012C17.6559 13.0012 18.9988 14.3441 18.9988 16C18.9988 17.6559 17.6559 18.9988 16 18.9988Z" fill="#000100"/>
<path d="M21.8852 11.1945C21.8852 11.7922 21.4 12.2738 20.8059 12.2738C20.2082 12.2738 19.7266 11.7887 19.7266 11.1945C19.7266 10.5969 20.2117 10.1152 20.8059 10.1152C21.4 10.1152 21.8852 10.6004 21.8852 11.1945Z" fill="#000100"/>
</g>
<defs>
<clipPath id="clip0_406_9482">
<rect width="18" height="18" fill="white" transform="translate(7 7)"/>
</clipPath>
</defs>
</svg>
