<svg width="28" height="28" viewBox="0 0 28 28" fill="none" xmlns="http://www.w3.org/2000/svg">
<rect x="0.5" y="0.5" width="27" height="27" rx="13.5" stroke="#231136"/>
<path d="M14 11.833C13.4254 11.833 12.8743 12.0613 12.468 12.4676C12.0616 12.8739 11.8334 13.425 11.8334 13.9997C11.8334 14.5743 12.0616 15.1254 12.468 15.5317C12.8743 15.9381 13.4254 16.1663 14 16.1663C14.5747 16.1663 15.1258 15.9381 15.5321 15.5317C15.9384 15.1254 16.1667 14.5743 16.1667 13.9997C16.1667 13.425 15.9384 12.8739 15.5321 12.4676C15.1258 12.0613 14.5747 11.833 14 11.833Z" fill="#231136"/>
<path fill-rule="evenodd" clip-rule="evenodd" d="M10.5133 8.05484C12.8306 7.79813 15.1693 7.79813 17.4866 8.05484C18.7526 8.19617 19.7733 9.19284 19.922 10.4635C20.1966 12.8133 20.1966 15.1871 19.922 17.5368C19.7733 18.8075 18.7526 19.8042 17.4873 19.9462C15.1697 20.2029 12.8309 20.2029 10.5133 19.9462C9.24729 19.8042 8.22662 18.8075 8.07796 17.5375C7.80328 15.1875 7.80328 12.8135 8.07796 10.4635C8.22662 9.19284 9.24729 8.19617 10.5133 8.05484ZM17.3333 10.0002C17.1565 10.0002 16.9869 10.0704 16.8619 10.1954C16.7369 10.3205 16.6666 10.49 16.6666 10.6668C16.6666 10.8437 16.7369 11.0132 16.8619 11.1382C16.9869 11.2633 17.1565 11.3335 17.3333 11.3335C17.5101 11.3335 17.6797 11.2633 17.8047 11.1382C17.9297 11.0132 18 10.8437 18 10.6668C18 10.49 17.9297 10.3205 17.8047 10.1954C17.6797 10.0704 17.5101 10.0002 17.3333 10.0002ZM10.8333 14.0002C10.8333 13.1603 11.1669 12.3549 11.7608 11.761C12.3547 11.1671 13.1601 10.8335 14 10.8335C14.8398 10.8335 15.6453 11.1671 16.2391 11.761C16.833 12.3549 17.1666 13.1603 17.1666 14.0002C17.1666 14.84 16.833 15.6455 16.2391 16.2393C15.6453 16.8332 14.8398 17.1668 14 17.1668C13.1601 17.1668 12.3547 16.8332 11.7608 16.2393C11.1669 15.6455 10.8333 14.84 10.8333 14.0002Z" fill="#231136"/>
</svg>
