<svg width="28" height="28" viewBox="0 0 28 28" fill="none" xmlns="http://www.w3.org/2000/svg">
<rect x="0.5" y="0.5" width="27" height="27" rx="13.5" stroke="#231136"/>
<path d="M18.6667 8C19.0203 8 19.3594 8.14048 19.6095 8.39052C19.8595 8.64057 20 8.97971 20 9.33333V18.6667C20 19.0203 19.8595 19.3594 19.6095 19.6095C19.3594 19.8595 19.0203 20 18.6667 20H9.33333C8.97971 20 8.64057 19.8595 8.39052 19.6095C8.14048 19.3594 8 19.0203 8 18.6667V9.33333C8 8.97971 8.14048 8.64057 8.39052 8.39052C8.64057 8.14048 8.97971 8 9.33333 8H18.6667ZM18.3333 18.3333V14.8C18.3333 14.2236 18.1044 13.6708 17.6968 13.2632C17.2892 12.8556 16.7364 12.6267 16.16 12.6267C15.5933 12.6267 14.9333 12.9733 14.6133 13.4933V12.7533H12.7533V18.3333H14.6133V15.0467C14.6133 14.5333 15.0267 14.1133 15.54 14.1133C15.7875 14.1133 16.0249 14.2117 16.2 14.3867C16.375 14.5617 16.4733 14.7991 16.4733 15.0467V18.3333H18.3333ZM10.5867 11.7067C10.8837 11.7067 11.1686 11.5887 11.3786 11.3786C11.5887 11.1686 11.7067 10.8837 11.7067 10.5867C11.7067 9.96667 11.2067 9.46 10.5867 9.46C10.2879 9.46 10.0013 9.5787 9.78999 9.78999C9.5787 10.0013 9.46 10.2879 9.46 10.5867C9.46 11.2067 9.96667 11.7067 10.5867 11.7067ZM11.5133 18.3333V12.7533H9.66667V18.3333H11.5133Z" fill="#231136"/>
</svg>
