<svg width="32" height="32" viewBox="0 0 32 32" fill="none" xmlns="http://www.w3.org/2000/svg">
<rect width="32" height="32" rx="16" fill="#F8F2FF"/>
<g clip-path="url(#clip0_406_9484)">
<path d="M23.6712 7H8.32875C7.97634 7 7.63837 7.13999 7.38918 7.38918C7.13999 7.63837 7 7.97634 7 8.32875V23.6712C7 24.0237 7.13999 24.3616 7.38918 24.6108C7.63837 24.86 7.97634 25 8.32875 25H23.6712C24.0237 25 24.3616 24.86 24.6108 24.6108C24.86 24.3616 25 24.0237 25 23.6712V8.32875C25 7.97634 24.86 7.63837 24.6108 7.38918C24.3616 7.13999 24.0237 7 23.6712 7ZM12.365 22.3337H9.65875V13.7375H12.365V22.3337ZM11.01 12.5463C10.703 12.5445 10.4034 12.4519 10.1491 12.2801C9.89466 12.1082 9.69688 11.8649 9.58066 11.5808C9.46444 11.2966 9.43499 10.9844 9.49602 10.6836C9.55706 10.3827 9.70585 10.1067 9.92362 9.89034C10.1414 9.67396 10.4184 9.52695 10.7196 9.46785C11.0208 9.40874 11.3328 9.4402 11.6162 9.55824C11.8996 9.67628 12.1417 9.87563 12.3118 10.1311C12.482 10.3866 12.5727 10.6868 12.5725 10.9938C12.5754 11.1993 12.5369 11.4033 12.4593 11.5936C12.3816 11.7839 12.2665 11.9567 12.1207 12.1016C11.9749 12.2464 11.8014 12.3605 11.6106 12.4369C11.4197 12.5133 11.2155 12.5505 11.01 12.5463ZM22.34 22.3412H19.635V17.645C19.635 16.26 19.0463 15.8325 18.2863 15.8325C17.4838 15.8325 16.6962 16.4375 16.6962 17.68V22.3412H13.99V13.7438H16.5925V14.935H16.6275C16.8888 14.4063 17.8038 13.5025 19.2 13.5025C20.71 13.5025 22.3412 14.3988 22.3412 17.0238L22.34 22.3412Z" fill="#0A66C2"/>
</g>
<defs>
<clipPath id="clip0_406_9484">
<rect width="18" height="18" fill="white" transform="translate(7 7)"/>
</clipPath>
</defs>
</svg>
