<svg width="28" height="28" viewBox="0 0 28 28" fill="none" xmlns="http://www.w3.org/2000/svg">
<rect x="0.5" y="0.5" width="27" height="27" rx="13.5" stroke="#231136"/>
<path fill-rule="evenodd" clip-rule="evenodd" d="M13.5081 20.7557C13.5081 20.7557 8.66675 16.6783 8.66675 12.6663C8.66675 11.2519 9.22865 9.8953 10.2288 8.89511C11.229 7.89491 12.5856 7.33301 14.0001 7.33301C15.4146 7.33301 16.7711 7.89491 17.7713 8.89511C18.7715 9.8953 19.3334 11.2519 19.3334 12.6663C19.3334 16.6783 14.4921 20.7557 14.4921 20.7557C14.2227 21.0037 13.7794 21.001 13.5081 20.7557ZM14.0001 14.9997C14.3065 14.9997 14.6099 14.9393 14.893 14.8221C15.1761 14.7048 15.4333 14.5329 15.65 14.3163C15.8667 14.0996 16.0385 13.8424 16.1558 13.5593C16.2731 13.2762 16.3334 12.9728 16.3334 12.6663C16.3334 12.3599 16.2731 12.0565 16.1558 11.7734C16.0385 11.4903 15.8667 11.2331 15.65 11.0164C15.4333 10.7998 15.1761 10.6279 14.893 10.5106C14.6099 10.3934 14.3065 10.333 14.0001 10.333C13.3812 10.333 12.7878 10.5788 12.3502 11.0164C11.9126 11.454 11.6667 12.0475 11.6667 12.6663C11.6667 13.2852 11.9126 13.8787 12.3502 14.3163C12.7878 14.7538 13.3812 14.9997 14.0001 14.9997Z" fill="#231136"/>
</svg>
