<svg width="28" height="28" viewBox="0 0 28 28" fill="none" xmlns="http://www.w3.org/2000/svg">
<rect x="0.5" y="0.5" width="27" height="27" rx="13.5" stroke="#231136"/>
<path d="M9.07733 18.6663C8.77022 18.6663 8.514 18.5637 8.30867 18.3583C8.10333 18.153 8.00044 17.8966 8 17.589V10.4103C8 10.1032 8.10289 9.84701 8.30867 9.64167C8.51444 9.43634 8.77044 9.33345 9.07667 9.33301H18.9233C19.23 9.33301 19.486 9.4359 19.6913 9.64167C19.8967 9.84745 19.9996 10.1037 20 10.4103V17.5897C20 17.8963 19.8971 18.1526 19.6913 18.3583C19.4856 18.5641 19.2296 18.6668 18.9233 18.6663H9.07733ZM14 14.077L19.3333 10.5897L19.128 9.99967L14 13.333L8.872 9.99967L8.66667 10.5897L14 14.077Z" fill="#231136"/>
</svg>
