<svg width="32" height="32" viewBox="0 0 32 32" fill="none" xmlns="http://www.w3.org/2000/svg">
<rect width="32" height="32" rx="16" fill="#F8F2FF"/>
<g clip-path="url(#clip0_406_9486)">
<path d="M16 25C20.9706 25 25 20.9706 25 16C25 11.0294 20.9706 7 16 7C11.0294 7 7 11.0294 7 16C7 20.9706 11.0294 25 16 25Z" fill="white"/>
<path d="M16 7C11.0296 7 7 11.0296 7 16C7 19.8148 9.37037 23.0741 12.7185 24.3852C12.637 23.6741 12.5704 22.5778 12.7481 21.8C12.9111 21.0963 13.8 17.3259 13.8 17.3259C13.8 17.3259 13.5333 16.7852 13.5333 15.9926C13.5333 14.7407 14.2593 13.8074 15.163 13.8074C15.9333 13.8074 16.3037 14.3852 16.3037 15.0741C16.3037 15.8444 15.8148 17 15.5556 18.0741C15.3407 18.9704 16.0074 19.7037 16.8889 19.7037C18.4889 19.7037 19.7185 18.0148 19.7185 15.5852C19.7185 13.4296 18.1704 11.9259 15.9556 11.9259C13.3926 11.9259 11.8889 13.8444 11.8889 15.8296C11.8889 16.6 12.1852 17.4296 12.5556 17.8815C12.6296 17.9704 12.637 18.0519 12.6148 18.1407C12.5481 18.4222 12.3926 19.037 12.363 19.163C12.3259 19.3259 12.2296 19.363 12.0593 19.2815C10.9333 18.7556 10.2296 17.1185 10.2296 15.7926C10.2296 12.9556 12.2889 10.3481 16.1778 10.3481C19.2963 10.3481 21.7259 12.5704 21.7259 15.5481C21.7259 18.6519 19.7704 21.1481 17.0593 21.1481C16.1481 21.1481 15.2889 20.6741 15 20.1111C15 20.1111 14.5481 21.8296 14.437 22.2519C14.237 23.037 13.6889 24.0148 13.3185 24.6148C14.163 24.8741 15.0519 25.0148 15.9852 25.0148C20.9556 25.0148 24.9852 20.9852 24.9852 16.0148C25 11.0296 20.9704 7 16 7Z" fill="#E60019"/>
</g>
<defs>
<clipPath id="clip0_406_9486">
<rect width="18" height="18" fill="white" transform="translate(7 7)"/>
</clipPath>
</defs>
</svg>
