<svg width="216" height="236" viewBox="0 0 216 236" fill="none" xmlns="http://www.w3.org/2000/svg">
<g filter="url(#filter0_d_246_2694)">
<path d="M101 32.0415C105.332 29.5406 110.668 29.5406 115 32.0415L178.942 68.9585C183.274 71.4594 185.942 76.0812 185.942 81.0829V154.917C185.942 159.919 183.274 164.541 178.942 167.041L115 203.959C110.668 206.459 105.332 206.459 101 203.959L37.0577 167.041C32.7261 164.541 30.0577 159.919 30.0577 154.917V81.0829C30.0577 76.0812 32.7261 71.4594 37.0577 68.9585L101 32.0415Z" fill="#FEFDFF"/>
</g>
<g clip-path="url(#clip0_246_2694)">
<path d="M117.125 110C110.853 110 105.75 104.897 105.75 98.625C105.75 92.353 110.853 87.25 117.125 87.25C123.397 87.25 128.5 92.353 128.5 98.625C128.5 104.897 123.397 110 117.125 110ZM117.125 90.75C112.783 90.75 109.25 94.2833 109.25 98.625C109.25 102.967 112.783 106.5 117.125 106.5C121.467 106.5 125 102.967 125 98.625C125 94.2833 121.467 90.75 117.125 90.75ZM118.873 101.869L122.174 98.6618C122.867 97.988 122.882 96.8803 122.21 96.1873C121.537 95.496 120.429 95.4767 119.736 96.1523L116.425 99.3687C116.252 99.5437 115.967 99.5437 115.792 99.3687L114.259 97.8672C113.567 97.1917 112.461 97.204 111.784 97.8953C111.107 98.5865 111.119 99.6925 111.81 100.37L113.343 101.871C114.108 102.62 115.111 102.993 116.112 102.993C117.113 102.993 118.117 102.617 118.875 101.868L118.873 101.869ZM102.25 89C96.4592 89 91.75 84.2908 91.75 78.5C91.75 72.7092 96.4592 68 102.25 68C108.041 68 112.75 72.7092 112.75 78.5C112.75 84.2908 108.041 89 102.25 89ZM102.25 71.5C98.3895 71.5 95.25 74.6395 95.25 78.5C95.25 82.3605 98.3895 85.5 102.25 85.5C106.111 85.5 109.25 82.3605 109.25 78.5C109.25 74.6395 106.111 71.5 102.25 71.5ZM90 108.25C90 102.083 94.6077 96.8558 100.717 96.0945C101.676 95.9755 102.357 95.1005 102.238 94.1415C102.119 93.1825 101.233 92.5122 100.285 92.6225C92.4255 93.6007 86.5 100.321 86.5 108.25C86.5 109.218 87.284 110 88.25 110C89.216 110 90 109.218 90 108.25Z" fill="#FF562F"/>
</g>
<line x1="94.25" y1="121.25" x2="120.75" y2="121.25" stroke="#FF562F" stroke-width="1.5" stroke-linecap="round"/>
<path d="M86.4835 147L90.3195 137.2H92.0555L88.0935 147H86.4835ZM86.3155 147L82.3535 137.2H84.0755L87.9115 147H86.3155ZM95.6101 147.168C94.9288 147.168 94.3221 147.014 93.7901 146.706C93.2675 146.389 92.8521 145.955 92.5441 145.404C92.2455 144.853 92.0961 144.219 92.0961 143.5C92.0961 142.781 92.2501 142.147 92.5581 141.596C92.8661 141.045 93.2861 140.616 93.8181 140.308C94.3595 139.991 94.9755 139.832 95.6661 139.832C96.2915 139.832 96.8561 139.995 97.3601 140.322C97.8641 140.639 98.2608 141.101 98.5501 141.708C98.8488 142.315 98.9981 143.038 98.9981 143.878H93.4961L93.7061 143.682C93.7061 144.111 93.7995 144.485 93.9861 144.802C94.1728 145.11 94.4201 145.348 94.7281 145.516C95.0361 145.684 95.3768 145.768 95.7501 145.768C96.1795 145.768 96.5341 145.675 96.8141 145.488C97.0941 145.292 97.3135 145.04 97.4721 144.732L98.8581 145.32C98.6621 145.693 98.4101 146.02 98.1021 146.3C97.8035 146.58 97.4441 146.795 97.0241 146.944C96.6135 147.093 96.1421 147.168 95.6101 147.168ZM93.8041 142.87L93.5801 142.674H97.5281L97.3181 142.87C97.3181 142.487 97.2341 142.175 97.0661 141.932C96.8981 141.68 96.6835 141.493 96.4221 141.372C96.1701 141.241 95.9041 141.176 95.6241 141.176C95.3441 141.176 95.0641 141.241 94.7841 141.372C94.5041 141.493 94.2708 141.68 94.0841 141.932C93.8975 142.175 93.8041 142.487 93.8041 142.87ZM101.235 143.276C101.235 142.52 101.38 141.899 101.669 141.414C101.958 140.929 102.332 140.569 102.789 140.336C103.256 140.093 103.741 139.972 104.245 139.972V141.47C103.816 141.47 103.41 141.531 103.027 141.652C102.654 141.764 102.35 141.951 102.117 142.212C101.884 142.473 101.767 142.819 101.767 143.248L101.235 143.276ZM100.199 147V140H101.767V147H100.199ZM105.383 147V140H106.937V147H105.383ZM106.167 138.67C105.915 138.67 105.696 138.581 105.509 138.404C105.332 138.217 105.243 137.998 105.243 137.746C105.243 137.494 105.332 137.279 105.509 137.102C105.696 136.925 105.915 136.836 106.167 136.836C106.419 136.836 106.634 136.925 106.811 137.102C106.998 137.279 107.091 137.494 107.091 137.746C107.091 137.998 106.998 138.217 106.811 138.404C106.634 138.581 106.419 138.67 106.167 138.67ZM109.485 147V139.258C109.485 138.521 109.667 137.956 110.031 137.564C110.404 137.163 110.964 136.962 111.711 136.962C111.954 136.962 112.21 137.004 112.481 137.088C112.761 137.163 113.027 137.265 113.279 137.396L112.705 138.558C112.528 138.474 112.369 138.413 112.229 138.376C112.098 138.339 111.982 138.32 111.879 138.32C111.599 138.32 111.389 138.413 111.249 138.6C111.118 138.777 111.053 139.071 111.053 139.482V147H109.485ZM108.281 141.288V140H112.887V141.288H108.281ZM114.256 147V140H115.81V147H114.256ZM115.04 138.67C114.788 138.67 114.569 138.581 114.382 138.404C114.205 138.217 114.116 137.998 114.116 137.746C114.116 137.494 114.205 137.279 114.382 137.102C114.569 136.925 114.788 136.836 115.04 136.836C115.292 136.836 115.507 136.925 115.684 137.102C115.871 137.279 115.964 137.494 115.964 137.746C115.964 137.998 115.871 138.217 115.684 138.404C115.507 138.581 115.292 138.67 115.04 138.67ZM120.78 147.168C120.099 147.168 119.492 147.014 118.96 146.706C118.437 146.389 118.022 145.955 117.714 145.404C117.415 144.853 117.266 144.219 117.266 143.5C117.266 142.781 117.42 142.147 117.728 141.596C118.036 141.045 118.456 140.616 118.988 140.308C119.529 139.991 120.145 139.832 120.836 139.832C121.461 139.832 122.026 139.995 122.53 140.322C123.034 140.639 123.431 141.101 123.72 141.708C124.019 142.315 124.168 143.038 124.168 143.878H118.666L118.876 143.682C118.876 144.111 118.969 144.485 119.156 144.802C119.343 145.11 119.59 145.348 119.898 145.516C120.206 145.684 120.547 145.768 120.92 145.768C121.349 145.768 121.704 145.675 121.984 145.488C122.264 145.292 122.483 145.04 122.642 144.732L124.028 145.32C123.832 145.693 123.58 146.02 123.272 146.3C122.973 146.58 122.614 146.795 122.194 146.944C121.783 147.093 121.312 147.168 120.78 147.168ZM118.974 142.87L118.75 142.674H122.698L122.488 142.87C122.488 142.487 122.404 142.175 122.236 141.932C122.068 141.68 121.853 141.493 121.592 141.372C121.34 141.241 121.074 141.176 120.794 141.176C120.514 141.176 120.234 141.241 119.954 141.372C119.674 141.493 119.441 141.68 119.254 141.932C119.067 142.175 118.974 142.487 118.974 142.87ZM130.423 147L130.353 145.698V137.2H131.907V147H130.423ZM128.141 147.168C127.506 147.168 126.951 147.019 126.475 146.72C126.008 146.412 125.64 145.983 125.369 145.432C125.108 144.881 124.977 144.237 124.977 143.5C124.977 142.753 125.108 142.109 125.369 141.568C125.64 141.017 126.008 140.593 126.475 140.294C126.951 139.986 127.506 139.832 128.141 139.832C128.729 139.832 129.233 139.986 129.653 140.294C130.082 140.593 130.409 141.017 130.633 141.568C130.857 142.109 130.969 142.753 130.969 143.5C130.969 144.237 130.857 144.881 130.633 145.432C130.409 145.983 130.082 146.412 129.653 146.72C129.233 147.019 128.729 147.168 128.141 147.168ZM128.533 145.74C128.888 145.74 129.2 145.647 129.471 145.46C129.751 145.264 129.966 144.998 130.115 144.662C130.274 144.326 130.353 143.939 130.353 143.5C130.353 143.061 130.274 142.674 130.115 142.338C129.966 142.002 129.751 141.741 129.471 141.554C129.2 141.367 128.883 141.274 128.519 141.274C128.146 141.274 127.814 141.367 127.525 141.554C127.236 141.741 127.007 142.002 126.839 142.338C126.68 142.674 126.596 143.061 126.587 143.5C126.596 143.939 126.68 144.326 126.839 144.662C127.007 144.998 127.236 145.264 127.525 145.46C127.824 145.647 128.16 145.74 128.533 145.74ZM66.163 164V154.2H69.621C70.293 154.2 70.8856 154.335 71.399 154.606C71.9123 154.877 72.3136 155.255 72.603 155.74C72.8923 156.216 73.037 156.771 73.037 157.406C73.037 158.022 72.9016 158.573 72.631 159.058C72.3603 159.543 71.9823 159.926 71.497 160.206C71.021 160.477 70.4656 160.612 69.831 160.612H67.787V164H66.163ZM67.787 159.114H69.803C70.2696 159.114 70.6523 158.955 70.951 158.638C71.2496 158.321 71.399 157.91 71.399 157.406C71.399 156.893 71.231 156.477 70.895 156.16C70.559 155.843 70.125 155.684 69.593 155.684H67.787V159.114ZM75.1765 160.276C75.1765 159.52 75.3211 158.899 75.6105 158.414C75.8998 157.929 76.2731 157.569 76.7305 157.336C77.1971 157.093 77.6825 156.972 78.1865 156.972V158.47C77.7571 158.47 77.3511 158.531 76.9685 158.652C76.5951 158.764 76.2918 158.951 76.0585 159.212C75.8251 159.473 75.7085 159.819 75.7085 160.248L75.1765 160.276ZM74.1405 164V157H75.7085V164H74.1405ZM82.4464 164.168C81.7464 164.168 81.1211 164.014 80.5704 163.706C80.0291 163.389 79.6044 162.955 79.2964 162.404C78.9884 161.853 78.8344 161.219 78.8344 160.5C78.8344 159.781 78.9837 159.147 79.2824 158.596C79.5904 158.045 80.0151 157.616 80.5564 157.308C81.0977 156.991 81.7184 156.832 82.4184 156.832C83.1184 156.832 83.7391 156.991 84.2804 157.308C84.8217 157.616 85.2417 158.045 85.5404 158.596C85.8484 159.147 86.0024 159.781 86.0024 160.5C86.0024 161.219 85.8531 161.853 85.5544 162.404C85.2557 162.955 84.8357 163.389 84.2944 163.706C83.7531 164.014 83.1371 164.168 82.4464 164.168ZM82.4464 162.726C82.8291 162.726 83.1697 162.633 83.4684 162.446C83.7671 162.25 84.0004 161.989 84.1684 161.662C84.3364 161.326 84.4204 160.939 84.4204 160.5C84.4204 160.061 84.3317 159.679 84.1544 159.352C83.9864 159.016 83.7531 158.755 83.4544 158.568C83.1557 158.372 82.8104 158.274 82.4184 158.274C82.0264 158.274 81.6811 158.367 81.3824 158.554C81.0837 158.741 80.8504 159.002 80.6824 159.338C80.5144 159.674 80.4304 160.061 80.4304 160.5C80.4304 160.939 80.5144 161.326 80.6824 161.662C80.8597 161.989 81.0977 162.25 81.3964 162.446C81.7044 162.633 82.0544 162.726 82.4464 162.726ZM88.0612 164V156.258C88.0612 155.521 88.2432 154.956 88.6072 154.564C88.9805 154.163 89.5405 153.962 90.2872 153.962C90.5298 153.962 90.7865 154.004 91.0572 154.088C91.3372 154.163 91.6032 154.265 91.8552 154.396L91.2812 155.558C91.1038 155.474 90.9452 155.413 90.8052 155.376C90.6745 155.339 90.5578 155.32 90.4552 155.32C90.1752 155.32 89.9652 155.413 89.8252 155.6C89.6945 155.777 89.6292 156.071 89.6292 156.482V164H88.0612ZM86.8572 158.288V157H91.4632V158.288H86.8572ZM92.8322 164V157H94.3862V164H92.8322ZM93.6162 155.67C93.3642 155.67 93.1449 155.581 92.9582 155.404C92.7809 155.217 92.6922 154.998 92.6922 154.746C92.6922 154.494 92.7809 154.279 92.9582 154.102C93.1449 153.925 93.3642 153.836 93.6162 153.836C93.8682 153.836 94.0829 153.925 94.2602 154.102C94.4469 154.279 94.5402 154.494 94.5402 154.746C94.5402 154.998 94.4469 155.217 94.2602 155.404C94.0829 155.581 93.8682 155.67 93.6162 155.67ZM96.2342 164V154.2H97.8022V164H96.2342ZM102.665 164.168C101.983 164.168 101.377 164.014 100.845 163.706C100.322 163.389 99.9068 162.955 99.5988 162.404C99.3001 161.853 99.1508 161.219 99.1508 160.5C99.1508 159.781 99.3048 159.147 99.6128 158.596C99.9208 158.045 100.341 157.616 100.873 157.308C101.414 156.991 102.03 156.832 102.721 156.832C103.346 156.832 103.911 156.995 104.415 157.322C104.919 157.639 105.315 158.101 105.605 158.708C105.903 159.315 106.053 160.038 106.053 160.878H100.551L100.761 160.682C100.761 161.111 100.854 161.485 101.041 161.802C101.227 162.11 101.475 162.348 101.783 162.516C102.091 162.684 102.431 162.768 102.805 162.768C103.234 162.768 103.589 162.675 103.869 162.488C104.149 162.292 104.368 162.04 104.527 161.732L105.913 162.32C105.717 162.693 105.465 163.02 105.157 163.3C104.858 163.58 104.499 163.795 104.079 163.944C103.668 164.093 103.197 164.168 102.665 164.168ZM100.859 159.87L100.635 159.674H104.583L104.373 159.87C104.373 159.487 104.289 159.175 104.121 158.932C103.953 158.68 103.738 158.493 103.477 158.372C103.225 158.241 102.959 158.176 102.679 158.176C102.399 158.176 102.119 158.241 101.839 158.372C101.559 158.493 101.325 158.68 101.139 158.932C100.952 159.175 100.859 159.487 100.859 159.87ZM110.925 164V154.2H114.159C114.831 154.2 115.409 154.303 115.895 154.508C116.389 154.713 116.772 155.021 117.043 155.432C117.313 155.833 117.449 156.337 117.449 156.944C117.449 157.364 117.346 157.742 117.141 158.078C116.945 158.414 116.665 158.694 116.301 158.918C116.777 159.151 117.141 159.464 117.393 159.856C117.645 160.248 117.771 160.715 117.771 161.256C117.771 161.835 117.64 162.329 117.379 162.74C117.117 163.151 116.749 163.463 116.273 163.678C115.797 163.893 115.232 164 114.579 164H110.925ZM112.521 162.544H114.453C114.966 162.544 115.372 162.418 115.671 162.166C115.969 161.914 116.119 161.573 116.119 161.144C116.119 160.677 115.951 160.313 115.615 160.052C115.288 159.791 114.826 159.66 114.229 159.66H112.521V162.544ZM112.521 158.316H114.299C114.765 158.316 115.129 158.195 115.391 157.952C115.661 157.7 115.797 157.355 115.797 156.916C115.797 156.468 115.643 156.127 115.335 155.894C115.036 155.651 114.616 155.53 114.075 155.53H112.521V158.316ZM123.473 164L123.403 162.684V160.402C123.403 159.926 123.352 159.529 123.249 159.212C123.156 158.885 122.997 158.638 122.773 158.47C122.558 158.293 122.269 158.204 121.905 158.204C121.569 158.204 121.275 158.274 121.023 158.414C120.771 158.554 120.556 158.773 120.379 159.072L119.007 158.568C119.156 158.26 119.352 157.975 119.595 157.714C119.847 157.443 120.16 157.229 120.533 157.07C120.916 156.911 121.373 156.832 121.905 156.832C122.586 156.832 123.156 156.967 123.613 157.238C124.07 157.499 124.406 157.877 124.621 158.372C124.845 158.867 124.957 159.464 124.957 160.164L124.915 164H123.473ZM121.457 164.168C120.617 164.168 119.964 163.981 119.497 163.608C119.04 163.235 118.811 162.707 118.811 162.026C118.811 161.298 119.054 160.743 119.539 160.36C120.034 159.977 120.72 159.786 121.597 159.786H123.473V160.99H122.101C121.476 160.99 121.037 161.079 120.785 161.256C120.533 161.424 120.407 161.667 120.407 161.984C120.407 162.255 120.514 162.469 120.729 162.628C120.953 162.777 121.261 162.852 121.653 162.852C122.008 162.852 122.316 162.773 122.577 162.614C122.838 162.455 123.039 162.245 123.179 161.984C123.328 161.723 123.403 161.429 123.403 161.102H123.865C123.865 162.054 123.674 162.805 123.291 163.356C122.908 163.897 122.297 164.168 121.457 164.168ZM131.599 164L131.529 162.698V154.2H133.083V164H131.599ZM129.317 164.168C128.682 164.168 128.127 164.019 127.651 163.72C127.184 163.412 126.815 162.983 126.545 162.432C126.283 161.881 126.153 161.237 126.153 160.5C126.153 159.753 126.283 159.109 126.545 158.568C126.815 158.017 127.184 157.593 127.651 157.294C128.127 156.986 128.682 156.832 129.317 156.832C129.905 156.832 130.409 156.986 130.829 157.294C131.258 157.593 131.585 158.017 131.809 158.568C132.033 159.109 132.145 159.753 132.145 160.5C132.145 161.237 132.033 161.881 131.809 162.432C131.585 162.983 131.258 163.412 130.829 163.72C130.409 164.019 129.905 164.168 129.317 164.168ZM129.709 162.74C130.063 162.74 130.376 162.647 130.647 162.46C130.927 162.264 131.141 161.998 131.291 161.662C131.449 161.326 131.529 160.939 131.529 160.5C131.529 160.061 131.449 159.674 131.291 159.338C131.141 159.002 130.927 158.741 130.647 158.554C130.376 158.367 130.059 158.274 129.695 158.274C129.321 158.274 128.99 158.367 128.701 158.554C128.411 158.741 128.183 159.002 128.015 159.338C127.856 159.674 127.772 160.061 127.763 160.5C127.772 160.939 127.856 161.326 128.015 161.662C128.183 161.998 128.411 162.264 128.701 162.46C128.999 162.647 129.335 162.74 129.709 162.74ZM137.826 166.982C137.332 166.982 136.884 166.94 136.482 166.856C136.09 166.772 135.759 166.674 135.488 166.562C135.218 166.45 135.008 166.343 134.858 166.24L135.46 164.98C135.591 165.045 135.764 165.125 135.978 165.218C136.202 165.321 136.464 165.409 136.762 165.484C137.061 165.559 137.397 165.596 137.77 165.596C138.172 165.596 138.531 165.512 138.848 165.344C139.166 165.185 139.413 164.938 139.59 164.602C139.768 164.266 139.856 163.837 139.856 163.314V157H141.424V163.272C141.424 164.065 141.275 164.737 140.976 165.288C140.678 165.848 140.258 166.268 139.716 166.548C139.175 166.837 138.545 166.982 137.826 166.982ZM137.588 163.86C136.954 163.86 136.398 163.715 135.922 163.426C135.456 163.137 135.087 162.735 134.816 162.222C134.555 161.699 134.424 161.097 134.424 160.416C134.424 159.688 134.555 159.058 134.816 158.526C135.087 157.994 135.456 157.579 135.922 157.28C136.398 156.981 136.954 156.832 137.588 156.832C138.158 156.832 138.652 156.981 139.072 157.28C139.502 157.579 139.833 157.999 140.066 158.54C140.3 159.072 140.416 159.702 140.416 160.43C140.416 161.121 140.3 161.723 140.066 162.236C139.833 162.749 139.502 163.151 139.072 163.44C138.652 163.72 138.158 163.86 137.588 163.86ZM138.022 162.53C138.377 162.53 138.685 162.437 138.946 162.25C139.217 162.063 139.427 161.811 139.576 161.494C139.726 161.167 139.8 160.794 139.8 160.374C139.8 159.945 139.726 159.571 139.576 159.254C139.427 158.927 139.217 158.675 138.946 158.498C138.676 158.311 138.363 158.218 138.008 158.218C137.635 158.218 137.304 158.311 137.014 158.498C136.734 158.675 136.51 158.927 136.342 159.254C136.184 159.571 136.104 159.945 136.104 160.374C136.104 160.794 136.184 161.167 136.342 161.494C136.51 161.811 136.739 162.063 137.028 162.25C137.318 162.437 137.649 162.53 138.022 162.53ZM146.278 164.168C145.597 164.168 144.99 164.014 144.458 163.706C143.935 163.389 143.52 162.955 143.212 162.404C142.913 161.853 142.764 161.219 142.764 160.5C142.764 159.781 142.918 159.147 143.226 158.596C143.534 158.045 143.954 157.616 144.486 157.308C145.027 156.991 145.643 156.832 146.334 156.832C146.959 156.832 147.524 156.995 148.028 157.322C148.532 157.639 148.929 158.101 149.218 158.708C149.517 159.315 149.666 160.038 149.666 160.878H144.164L144.374 160.682C144.374 161.111 144.467 161.485 144.654 161.802C144.841 162.11 145.088 162.348 145.396 162.516C145.704 162.684 146.045 162.768 146.418 162.768C146.847 162.768 147.202 162.675 147.482 162.488C147.762 162.292 147.981 162.04 148.14 161.732L149.526 162.32C149.33 162.693 149.078 163.02 148.77 163.3C148.471 163.58 148.112 163.795 147.692 163.944C147.281 164.093 146.81 164.168 146.278 164.168ZM144.472 159.87L144.248 159.674H148.196L147.986 159.87C147.986 159.487 147.902 159.175 147.734 158.932C147.566 158.68 147.351 158.493 147.09 158.372C146.838 158.241 146.572 158.176 146.292 158.176C146.012 158.176 145.732 158.241 145.452 158.372C145.172 158.493 144.939 158.68 144.752 158.932C144.565 159.175 144.472 159.487 144.472 159.87Z" fill="#542980"/>
<defs>
<filter id="filter0_d_246_2694" x="0.0577393" y="0.166016" width="215.885" height="235.668" filterUnits="userSpaceOnUse" color-interpolation-filters="sRGB">
<feFlood flood-opacity="0" result="BackgroundImageFix"/>
<feColorMatrix in="SourceAlpha" type="matrix" values="0 0 0 0 0 0 0 0 0 0 0 0 0 0 0 0 0 0 127 0" result="hardAlpha"/>
<feOffset/>
<feGaussianBlur stdDeviation="15"/>
<feComposite in2="hardAlpha" operator="out"/>
<feColorMatrix type="matrix" values="0 0 0 0 0 0 0 0 0 0 0 0 0 0 0 0 0 0 0.1 0"/>
<feBlend mode="normal" in2="BackgroundImageFix" result="effect1_dropShadow_246_2694"/>
<feBlend mode="normal" in="SourceGraphic" in2="effect1_dropShadow_246_2694" result="shape"/>
</filter>
<clipPath id="clip0_246_2694">
<rect width="42" height="42" fill="white" transform="translate(86.5 68)"/>
</clipPath>
</defs>
</svg>
