<svg width="544" height="187" viewBox="0 0 544 187" fill="none" xmlns="http://www.w3.org/2000/svg">
<path d="M544 0.0898438C480.232 79.8826 382.086 131 272 131C161.914 131 63.768 79.8825 0 0.0898438V0H544V0.0898438Z" fill="#E1FCEF"/>
<path d="M324.814 119.984C323.164 118.26 321.458 116.484 320.815 114.922C320.22 113.491 320.185 111.12 320.15 108.823C320.084 104.553 320.014 99.7144 316.65 96.35C313.286 92.9856 308.447 92.9156 304.177 92.85C301.88 92.815 299.509 92.78 298.078 92.185C296.521 91.5419 294.74 89.8356 293.016 88.1862C289.997 85.2856 286.567 82 282 82C277.433 82 274.007 85.2856 270.984 88.1862C269.26 89.8356 267.484 91.5419 265.922 92.185C264.5 92.78 262.12 92.815 259.823 92.85C255.553 92.9156 250.714 92.9856 247.35 96.35C243.986 99.7144 243.937 104.553 243.85 108.823C243.815 111.12 243.78 113.491 243.185 114.922C242.542 116.479 240.836 118.26 239.186 119.984C236.286 123.002 233 126.433 233 131C233 135.567 236.286 138.993 239.186 142.016C240.836 143.74 242.542 145.516 243.185 147.078C243.78 148.509 243.815 150.88 243.85 153.177C243.916 157.447 243.986 162.286 247.35 165.65C250.714 169.014 255.553 169.084 259.823 169.15C262.12 169.185 264.491 169.22 265.922 169.815C267.479 170.458 269.26 172.164 270.984 173.814C274.002 176.714 277.433 180 282 180C286.567 180 289.993 176.714 293.016 173.814C294.74 172.164 296.516 170.458 298.078 169.815C299.509 169.22 301.88 169.185 304.177 169.15C308.447 169.084 313.286 169.014 316.65 165.65C320.014 162.286 320.084 157.447 320.15 153.177C320.185 150.88 320.22 148.509 320.815 147.078C321.458 145.521 323.164 143.74 324.814 142.016C327.714 138.997 331 135.567 331 131C331 126.433 327.714 123.007 324.814 119.984ZM301.976 122.976L277.476 147.476C277.151 147.802 276.765 148.06 276.34 148.236C275.915 148.412 275.46 148.503 275 148.503C274.54 148.503 274.085 148.412 273.66 148.236C273.235 148.06 272.849 147.802 272.524 147.476L262.024 136.976C261.699 136.651 261.441 136.265 261.265 135.84C261.089 135.415 260.998 134.96 260.998 134.5C260.998 134.04 261.089 133.585 261.265 133.16C261.441 132.735 261.699 132.349 262.024 132.024C262.68 131.367 263.571 130.998 264.5 130.998C264.96 130.998 265.415 131.089 265.84 131.265C266.265 131.441 266.651 131.699 266.976 132.024L275 140.052L297.024 118.024C297.349 117.699 297.735 117.441 298.16 117.265C298.585 117.089 299.04 116.998 299.5 116.998C299.96 116.998 300.415 117.089 300.84 117.265C301.265 117.441 301.651 117.699 301.976 118.024C302.301 118.349 302.559 118.735 302.735 119.16C302.911 119.585 303.002 120.04 303.002 120.5C303.002 120.96 302.911 121.415 302.735 121.84C302.559 122.265 302.301 122.651 301.976 122.976Z" fill="#14804A"/>
</svg>
