<svg width="24" height="24" viewBox="0 0 24 24" fill="none" xmlns="http://www.w3.org/2000/svg">
<rect width="24" height="24" rx="12" fill="#F5EBFF"/>
<path d="M11.667 14.4999C11.4712 14.5 11.2798 14.4426 11.1163 14.3349C10.9529 14.2271 10.8246 14.0738 10.7475 13.8939C10.5862 13.8558 10.4274 13.8077 10.272 13.7499L10.2635 13.7469C9.80728 13.5756 9.3862 13.3225 9.02099 12.9999C8.53169 12.5682 8.1554 12.0234 7.92495 11.4129C7.69449 10.8025 7.61686 10.1449 7.69883 9.4976C7.7808 8.85027 8.01987 8.23282 8.39521 7.69908C8.77055 7.16534 9.27075 6.73153 9.8522 6.43547C10.4337 6.1394 11.0787 5.99008 11.7311 6.00051C12.3835 6.01094 13.0234 6.18082 13.5951 6.49533C14.1668 6.80983 14.6529 7.25942 15.011 7.80488C15.3691 8.35035 15.5883 8.97513 15.6495 9.62475C15.669 9.83126 15.4995 9.99977 15.292 9.99977C15.085 9.99977 14.9195 9.83126 14.8955 9.62525C14.8294 9.05688 14.6144 8.51604 14.2723 8.05739C13.9302 7.59874 13.473 7.23855 12.9471 7.01322C12.4211 6.78789 11.845 6.70542 11.277 6.77413C10.7089 6.84285 10.1691 7.06032 9.71202 7.40457C9.25496 7.74881 8.89689 8.20762 8.67399 8.73462C8.45109 9.26162 8.37127 9.83813 8.4426 10.4059C8.51393 10.9736 8.73388 11.5124 9.08021 11.9679C9.42655 12.4234 9.88699 12.7794 10.415 12.9999L10.435 13.0084C10.535 13.0494 10.6377 13.0855 10.743 13.1169C10.8393 12.8822 11.0212 12.6928 11.2519 12.5873C11.4826 12.4817 11.7447 12.4677 11.9853 12.5482C12.2259 12.6286 12.4269 12.7975 12.5476 13.0207C12.6683 13.2438 12.6998 13.5045 12.6355 13.7499C12.5801 13.9646 12.4548 14.1548 12.2795 14.2905C12.1042 14.4263 11.8887 14.5 11.667 14.4999ZM8.16699 13.7499H8.75149C8.47195 13.532 8.2174 13.2838 7.99249 13.0099C7.62735 13.0526 7.29063 13.228 7.04627 13.5027C6.80192 13.7774 6.66695 14.1322 6.66699 14.4999V14.8574C6.66699 16.7165 8.77199 18 11.667 18C14.562 18 16.667 16.646 16.667 14.8574V14.4999C16.667 14.1021 16.509 13.7205 16.2277 13.4392C15.9463 13.1579 15.5648 12.9999 15.167 12.9999H13.3445C13.417 13.2429 13.4357 13.4988 13.3995 13.7499H15.167L15.2395 13.7534C15.425 13.7714 15.5971 13.8578 15.7224 13.9958C15.8476 14.1338 15.917 14.3135 15.917 14.4999V14.8574L15.9145 14.9379C15.8445 16.1979 14.13 17.25 11.667 17.25C9.11149 17.25 7.41699 16.1944 7.41699 14.8574V14.4999L7.42049 14.4274C7.43851 14.2419 7.52494 14.0698 7.66294 13.9445C7.80094 13.8193 7.98063 13.7499 8.16699 13.7499ZM14.167 9.99977C14.1671 10.4527 14.0441 10.8971 13.8113 11.2855C13.5784 11.674 13.2445 11.9919 12.845 12.2053C12.5227 11.9121 12.1027 11.7497 11.667 11.7498C11.8968 11.7498 12.1244 11.7046 12.3367 11.6166C12.549 11.5287 12.7419 11.3997 12.9044 11.2372C13.0669 11.0747 13.1958 10.8818 13.2838 10.6695C13.3717 10.4572 13.417 10.2296 13.417 9.99977C13.417 9.76995 13.3717 9.54238 13.2838 9.33005C13.1958 9.11772 13.0669 8.9248 12.9044 8.76229C12.7419 8.59979 12.549 8.47088 12.3367 8.38293C12.1244 8.29498 11.8968 8.24971 11.667 8.24971C11.2029 8.24971 10.7577 8.43409 10.4296 8.76229C10.1014 9.09049 9.91699 9.53562 9.91699 9.99977C9.91699 10.4639 10.1014 10.909 10.4296 11.2372C10.7577 11.5654 11.2029 11.7498 11.667 11.7498C11.213 11.7498 10.8 11.9228 10.4895 12.2058C10.0902 11.9926 9.75636 11.6749 9.52349 11.2868C9.32522 10.9565 9.20598 10.5848 9.17506 10.2008C9.14414 9.81677 9.20238 9.43081 9.34525 9.07302C9.48811 8.71523 9.71173 8.3953 9.99864 8.1382C10.2856 7.8811 10.628 7.69379 10.9993 7.59089C11.3705 7.48799 11.7605 7.47229 12.1388 7.545C12.5172 7.61771 12.8736 7.77688 13.1802 8.01008C13.4869 8.24327 13.7355 8.54419 13.9067 8.88933C14.0778 9.23447 14.1669 9.61451 14.167 9.99977Z" fill="#542980"/>
</svg>
