<svg width="24" height="24" viewBox="0 0 24 24" fill="none" xmlns="http://www.w3.org/2000/svg">
<rect width="24" height="24" rx="12" fill="#F5EBFF"/>
<path d="M18.3334 8L14.3334 12M13.6669 15.3334H9M11.6669 12.6666H9" stroke="#542980" stroke-width="0.5" stroke-linecap="round" stroke-linejoin="round"/>
<path d="M14.6328 8.33301H14.6994M17.9659 11.6661H18.0328" stroke="#542980" stroke-width="1.44" stroke-linecap="round" stroke-linejoin="round"/>
<path d="M16.333 14.6666V17.3334C16.333 17.5102 16.2628 17.6798 16.1378 17.8048C16.0128 17.9298 15.8432 18 15.6664 18H6.99957C6.82279 18 6.65324 17.9298 6.52824 17.8048C6.40323 17.6798 6.33301 17.5102 6.33301 17.3334V6.66656C6.33301 6.48978 6.40323 6.32024 6.52824 6.19523C6.65324 6.07023 6.82279 6 6.99957 6H11.6664" stroke="#542980" stroke-width="0.5" stroke-linecap="round" stroke-linejoin="round"/>
</svg>
