<svg width="32" height="32" viewBox="0 0 32 32" fill="none" xmlns="http://www.w3.org/2000/svg">
<rect width="32" height="32" rx="16" fill="#F8F2FF"/>
<g clip-path="url(#clip0_406_9488)">
<path d="M16 25C20.9706 25 25 20.9706 25 16C25 11.0294 20.9706 7 16 7C11.0294 7 7 11.0294 7 16C7 20.9706 11.0294 25 16 25Z" fill="url(#paint0_linear_406_9488)"/>
<path fill-rule="evenodd" clip-rule="evenodd" d="M11.074 15.905C13.6977 14.7619 15.4472 14.0083 16.3226 13.6442C18.822 12.6046 19.3414 12.424 19.6799 12.418C19.7543 12.4167 19.9208 12.4352 20.0286 12.5227C20.1197 12.5966 20.1447 12.6964 20.1567 12.7664C20.1687 12.8364 20.1836 12.996 20.1718 13.1207C20.0363 14.5438 19.4503 17.9973 19.1521 19.5912C19.0259 20.2657 18.7775 20.4918 18.537 20.5139C18.0144 20.562 17.6175 20.1685 17.1113 19.8367C16.3192 19.3175 15.8717 18.9942 15.1028 18.4876C14.2142 17.902 14.7902 17.5802 15.2967 17.0542C15.4292 16.9165 17.732 14.822 17.7765 14.632C17.7821 14.6082 17.7873 14.5196 17.7347 14.4729C17.682 14.4261 17.6044 14.4421 17.5483 14.4548C17.4689 14.4728 16.2035 15.3092 13.7521 16.964C13.3929 17.2106 13.0675 17.3308 12.7761 17.3245C12.4547 17.3175 11.8366 17.1428 11.377 16.9934C10.8134 16.8102 10.3655 16.7133 10.4045 16.4022C10.4248 16.2401 10.648 16.0744 11.074 15.905Z" fill="white"/>
</g>
<defs>
<linearGradient id="paint0_linear_406_9488" x1="16" y1="7" x2="16" y2="24.8665" gradientUnits="userSpaceOnUse">
<stop stop-color="#2AABEE"/>
<stop offset="1" stop-color="#229ED9"/>
</linearGradient>
<clipPath id="clip0_406_9488">
<rect width="18" height="18" fill="white" transform="translate(7 7)"/>
</clipPath>
</defs>
</svg>
