<svg width="32" height="32" viewBox="0 0 32 32" fill="none" xmlns="http://www.w3.org/2000/svg">
<rect width="32" height="32" rx="16" fill="#F8F2FF"/>
<path d="M19.8824 13.4974C21.0399 14.3277 22.4579 14.8163 23.9894 14.8163V11.8587C23.6996 11.8588 23.4105 11.8284 23.1269 11.7682V14.0962C21.5955 14.0962 20.1777 13.6076 19.0199 12.7773V18.8129C19.0199 21.8322 16.581 24.2797 13.5726 24.2797C12.4501 24.2797 11.4067 23.9391 10.54 23.355C11.5292 24.3701 12.9087 24.9997 14.4349 24.9997C17.4435 24.9997 19.8825 22.5523 19.8825 19.5328V13.4974H19.8824ZM20.9464 10.5135C20.3549 9.86493 19.9664 9.02676 19.8824 8.10014V7.71973H19.0651C19.2708 8.89747 19.9725 9.90366 20.9464 10.5135ZM12.4429 21.0381C12.1123 20.6032 11.9337 20.0712 11.9345 19.5242C11.9345 18.1433 13.0501 17.0236 14.4264 17.0236C14.6829 17.0235 14.9378 17.0629 15.1823 17.1408V14.1171C14.8966 14.0778 14.6083 14.0611 14.3201 14.0672V16.4207C14.0755 16.3429 13.8204 16.3034 13.5639 16.3036C12.1876 16.3036 11.0721 17.4232 11.0721 18.8043C11.0721 19.7808 11.6297 20.6263 12.4429 21.0381Z" fill="#FF004F"/>
<path d="M19.0197 12.7772C20.1775 13.6076 21.5954 14.0961 23.1268 14.0961V11.7681C22.2719 11.5854 21.5152 11.1371 20.9462 10.5135C19.9723 9.9036 19.2706 8.89741 19.0649 7.71973H16.9179V19.5327C16.9131 20.9099 15.7994 22.025 14.4261 22.025C13.6168 22.025 12.8978 21.6378 12.4425 21.0381C11.6294 20.6263 11.0718 19.7807 11.0718 18.8043C11.0718 17.4233 12.1873 16.3037 13.5636 16.3037C13.8273 16.3037 14.0814 16.3449 14.3198 16.4208V14.0673C11.3643 14.1286 8.9873 16.5521 8.9873 19.5328C8.9873 21.0207 9.57923 22.3695 10.5399 23.3551C11.4066 23.9391 12.4499 24.2798 13.5724 24.2798C16.5809 24.2798 19.0198 21.8322 19.0198 18.8129V12.7772H19.0197Z" fill="black"/>
<path d="M23.1269 11.7684V11.1389C22.3561 11.14 21.6004 10.9234 20.9464 10.5137C21.5253 11.1498 22.2877 11.5884 23.1269 11.7684ZM19.065 7.71999C19.0454 7.60743 19.0303 7.49414 19.0199 7.38041V7H16.0555V18.8131C16.0508 20.1901 14.9372 21.3052 13.5637 21.3052C13.1605 21.3052 12.7798 21.2091 12.4426 21.0384C12.898 21.6381 13.6169 22.0252 14.4262 22.0252C15.7994 22.0252 16.9133 20.9102 16.9181 19.533V7.71999H19.065ZM14.3201 14.0676V13.3974C14.0724 13.3634 13.8227 13.3464 13.5726 13.3465C10.5639 13.3465 8.125 15.794 8.125 18.8131C8.125 20.7059 9.08354 22.374 10.5401 23.3552C9.57943 22.3697 8.98751 21.0208 8.98751 19.533C8.98751 16.5524 11.3644 14.1288 14.3201 14.0676Z" fill="#00F2EA"/>
</svg>
