<svg width="34" height="34" viewBox="0 0 34 34" fill="none" xmlns="http://www.w3.org/2000/svg">
<rect width="34" height="34" rx="6" fill="#FF562F"/>
<g clip-path="url(#clip0_406_9372)">
<path d="M23 11.754L24.935 13.626C25.0538 13.7394 25.2118 13.8026 25.376 13.8026C25.5402 13.8026 25.6981 13.7394 25.817 13.626C25.875 13.571 25.9212 13.5047 25.9528 13.4312C25.9843 13.3577 26.0006 13.2785 26.0006 13.1985C26.0006 13.1186 25.9843 13.0394 25.9528 12.9659C25.9212 12.8924 25.875 12.8261 25.817 12.771L23.885 10.9005L25.82 9.02704C25.9282 8.91366 25.9869 8.76194 25.9833 8.60526C25.9796 8.44857 25.9139 8.29976 25.8005 8.19154C25.6849 8.08102 25.5322 8.01773 25.3723 8.01412C25.2124 8.01051 25.0569 8.06684 24.9365 8.17204L23 10.0455L21.065 8.17654C20.9861 8.10224 20.8898 8.049 20.785 8.02173C20.6801 7.99447 20.5701 7.99406 20.465 8.02054C20.3604 8.04654 20.2644 8.09958 20.1868 8.17435C20.1091 8.24911 20.0524 8.34298 20.0225 8.44654C19.9953 8.54943 19.996 8.65769 20.0245 8.76023C20.0529 8.86277 20.1082 8.95589 20.1845 9.03004L22.115 10.899L20.183 12.7695C20.125 12.8246 20.0788 12.8909 20.0472 12.9644C20.0157 13.0379 19.9994 13.1171 19.9994 13.197C19.9994 13.277 20.0157 13.3562 20.0472 13.4297C20.0788 13.5032 20.125 13.5695 20.183 13.6245C20.3014 13.7394 20.4598 13.8036 20.6247 13.8036C20.7897 13.8036 20.9481 13.7394 21.0665 13.6245L23 11.754ZM14 19.9995C12.5546 19.9949 11.1554 20.5083 10.056 21.4467C8.95661 22.3851 8.22986 23.6863 8.00749 25.1145C7.94749 25.5795 8.29399 25.9995 8.76349 25.9995H19.2365C19.706 25.9995 20.054 25.5795 19.9925 25.1145C19.547 22.1745 17 19.9995 14 19.9995ZM14 18.4995C13.0054 18.4995 12.0516 18.1045 11.3483 17.4012C10.6451 16.6979 10.25 15.7441 10.25 14.7495C10.25 13.755 10.6451 12.8012 11.3483 12.0979C12.0516 11.3946 13.0054 10.9995 14 10.9995C14.9946 10.9995 15.9484 11.3946 16.6516 12.0979C17.3549 12.8012 17.75 13.755 17.75 14.7495C17.75 15.7441 17.3549 16.6979 16.6516 17.4012C15.9484 18.1045 14.9946 18.4995 14 18.4995Z" fill="#FEFDFF"/>
</g>
<defs>
<clipPath id="clip0_406_9372">
<rect width="18" height="18" fill="white" transform="translate(8 8)"/>
</clipPath>
</defs>
</svg>
