<svg width="42" height="42" viewBox="0 0 42 42" fill="none" xmlns="http://www.w3.org/2000/svg">
<rect width="42" height="42" rx="6" fill="#542980"/>
<path fill-rule="evenodd" clip-rule="evenodd" d="M29.0999 17.0042C29.0432 17.0008 28.9829 16.9995 28.9189 17.0002H26.3939C24.3259 17.0002 22.5569 18.6282 22.5569 20.7502C22.5569 22.8722 24.3269 24.5002 26.3939 24.5002H28.9189C28.9829 24.5008 29.0436 24.4995 29.1009 24.4962C29.5259 24.4705 29.9271 24.2913 30.2298 23.9917C30.5324 23.6922 30.7158 23.2929 30.7459 22.8682C30.7499 22.8082 30.7499 22.7432 30.7499 22.6832V18.8172C30.7499 18.7572 30.7499 18.6922 30.7459 18.6322C30.7158 18.2074 30.5324 17.8081 30.2298 17.5086C29.9271 17.2091 29.5249 17.0298 29.0999 17.0042ZM26.1729 21.7502C26.7049 21.7502 27.1359 21.3022 27.1359 20.7502C27.1359 20.1982 26.7049 19.7502 26.1729 19.7502C25.6399 19.7502 25.2089 20.1982 25.2089 20.7502C25.2089 21.3022 25.6399 21.7502 26.1729 21.7502Z" fill="#FEFDFF"/>
<path fill-rule="evenodd" clip-rule="evenodd" d="M28.918 26C28.9526 25.9986 28.987 26.0054 29.0184 26.0198C29.0499 26.0342 29.0775 26.0558 29.099 26.0829C29.1206 26.11 29.1354 26.1418 29.1424 26.1757C29.1493 26.2096 29.1481 26.2446 29.139 26.278C28.939 26.99 28.62 27.598 28.109 28.108C27.36 28.858 26.411 29.189 25.239 29.347C24.099 29.5 22.644 29.5 20.806 29.5H18.694C16.856 29.5 15.4 29.5 14.261 29.347C13.089 29.189 12.14 28.857 11.391 28.109C10.643 27.36 10.311 26.411 10.153 25.239C10 24.099 10 22.644 10 20.806V20.694C10 18.856 10 17.4 10.153 16.26C10.311 15.088 10.643 14.139 11.391 13.39C12.14 12.642 13.089 12.31 14.261 12.152C15.401 12 16.856 12 18.694 12H20.806C22.644 12 24.1 12 25.239 12.153C26.411 12.311 27.36 12.643 28.109 13.391C28.62 13.903 28.939 14.51 29.139 15.222C29.1481 15.2554 29.1493 15.2904 29.1424 15.3243C29.1354 15.3582 29.1206 15.39 29.099 15.4171C29.0775 15.4442 29.0499 15.4658 29.0184 15.4802C28.987 15.4946 28.9526 15.5014 28.918 15.5H26.394C23.557 15.5 21.057 17.74 21.057 20.75C21.057 23.76 23.557 26 26.394 26H28.918ZM13.75 16C13.5511 16 13.3603 16.079 13.2197 16.2197C13.079 16.3603 13 16.5511 13 16.75C13 16.9489 13.079 17.1397 13.2197 17.2803C13.3603 17.421 13.5511 17.5 13.75 17.5H17.75C17.9489 17.5 18.1397 17.421 18.2803 17.2803C18.421 17.1397 18.5 16.9489 18.5 16.75C18.5 16.5511 18.421 16.3603 18.2803 16.2197C18.1397 16.079 17.9489 16 17.75 16H13.75Z" fill="#FEFDFF"/>
</svg>
