<svg width="1139" height="210" viewBox="0 0 1139 210" fill="none" xmlns="http://www.w3.org/2000/svg">
<g clip-path="url(#clip0_495_4923)">
<rect width="1139" height="210" fill="#FFEEEA"/>
<path d="M544.939 209.978L788.657 209.911V30.3945C783.577 32.5877 779.149 36.1714 776.215 40.6978C773.236 45.2847 771.605 50.847 767.314 54.3654C761.014 59.5263 750.85 58.7191 744.908 64.2533C739.348 69.4329 739.593 78.1683 735.057 84.1878C730.967 89.6147 721.958 93.4831 715.933 90.0674C712.151 87.9255 707.037 89.6101 704.064 92.6992C701.095 95.7883 699.719 99.9319 698.274 103.884C696.829 107.841 695.094 111.934 691.685 114.584C686.463 118.635 678.919 118.168 672.301 116.969C665.684 115.774 658.698 114.08 652.384 116.315C645.364 118.798 641.088 125.466 637.806 131.878C634.519 138.289 631.413 145.228 625.315 149.367C614.645 156.618 598.152 153.016 588.757 161.723C582.286 167.724 581.531 177.654 575.447 184.01C570.568 189.11 563.152 191.046 556.696 194.177C550.239 197.309 543.92 203.146 544.939 209.978Z" fill="#FFBBAC"/>
<path d="M1014.84 21.4254C1008.48 32.9932 989.678 32.5452 981.36 42.9184C974.198 51.8497 977.441 65.4847 970.676 74.6867C962.593 85.6759 944.097 85.4892 935.691 96.2544C929.141 104.644 930.831 117.206 923.743 125.195C914.191 135.965 894.102 132.736 884.55 143.51C879.72 148.951 878.951 156.543 877.525 163.538C877.383 164.224 877.231 164.915 877.055 165.61C876.149 164.201 875.105 162.889 873.851 161.723C864.456 153.015 847.962 156.618 837.293 149.366C831.195 145.227 828.089 138.289 824.802 131.877C821.52 125.466 817.244 118.797 810.224 116.315C803.91 114.08 796.924 115.774 790.306 116.968C783.688 118.167 776.145 118.634 770.923 114.584C767.513 111.933 765.779 107.841 764.334 103.884C762.968 100.141 761.66 96.2264 759 93.198C762.532 90.3562 766.573 88.107 770.962 86.6698C778.305 84.2666 786.388 83.9447 793.295 80.5709C804.101 75.2933 809.69 63.8655 814.388 53.1983C819.081 42.5311 824.337 31.0473 834.883 25.3171C847.36 18.5416 864.025 21.71 875.997 14.1599C881.655 10.5949 885.708 5.08162 889.935 0H1017.39C1017.26 1.09658 1017.19 2.1815 1017.17 3.22676C1017.02 9.40029 1017.85 15.9565 1014.84 21.4254Z" fill="#FEFCFF"/>
<path d="M680.353 209.978C677.518 201.131 676.354 192.312 676.634 183.066C676.732 179.82 677.053 176.48 678.612 173.592C680.171 170.703 683.228 168.342 686.638 168.386C690.047 168.43 693.323 171.562 692.594 174.735C691.017 164.433 691.683 153.824 694.539 143.775C695.377 140.825 696.562 137.712 699.206 135.983C701.851 134.254 706.312 134.872 707.254 137.793C707.237 132.462 707.279 127.037 708.948 121.949C710.618 116.86 714.178 112.072 719.37 110.082C724.561 108.092 731.384 109.685 734.011 114.392C733.624 108.942 733.254 103.349 734.935 98.126C736.616 92.904 740.823 88.0547 746.466 87.0841C752.108 86.1135 758.589 90.4476 758.159 95.8941C758.605 91.8288 759.087 87.6483 761.098 84.0375C763.11 80.4272 767.045 77.4771 771.326 77.7566C776.323 78.0833 779.929 82.4822 781.926 86.8574C783.923 91.2325 785.091 96.1004 788.38 99.6981C789.358 95.4154 790.42 91.0743 792.696 87.2657C794.973 83.457 798.665 80.1915 803.18 79.3483C809.672 78.1355 816.222 82.2783 819.61 87.6926C822.996 93.1069 823.914 99.5567 824.761 105.807H898.61C898.825 101.995 899.6 97.3734 900.645 93.6874C901.689 90.0015 903.634 86.4388 906.757 84.0464C909.88 81.6539 914.3 80.6138 918.032 82.0035C922.933 83.8284 925.365 89.0613 926.537 93.9483C928.097 92.155 931.097 91.6837 933.124 92.9861C935.151 94.2885 936.21 96.6449 936.439 98.9641C936.669 101.283 936.18 103.606 935.693 105.888C937.6 102.963 939.9 100.409 942.701 98.2334C945.502 96.0575 949.351 94.7962 952.794 95.8433C956.122 96.8554 958.459 99.8362 959.497 103.014C960.536 106.191 960.481 109.586 960.417 112.913C960.908 109.796 965.122 108.785 968.415 109.09C971.708 109.394 974.534 111.672 976.126 114.435C977.718 117.197 978.249 120.397 978.502 123.539C978.955 129.146 978.605 134.811 977.465 140.329C978.182 137.457 982.216 136.694 985.215 137.437C988.214 138.181 990.43 140.75 991.396 143.555C992.361 146.36 992.263 149.391 991.983 152.331C991.703 155.271 991.252 158.224 991.545 161.163C991.771 157.964 995.67 156.396 999.008 156.81C1002.35 157.223 1005.07 159.766 1006.41 162.706C1007.76 165.647 1007.93 168.943 1007.86 172.149C1007.59 185.104 1003.08 198.881 996.073 209.984L680.353 209.978Z" fill="#FFD7CE"/>
<path d="M947.297 28.9893L948.301 31.6071L943.653 29.0051L947.297 28.9893Z" fill="white"/>
<path d="M957.221 24.835H972.584C975.817 24.835 978.463 22.3151 978.463 19.2354V18.0791C978.463 14.9993 975.817 12.4795 972.584 12.4795H957.221C953.988 12.4795 951.342 14.9993 951.342 18.0791V19.2354C951.342 22.3151 953.988 24.835 957.221 24.835Z" fill="#FFD7CE"/>
<path d="M733.907 33.8872L742.916 29.6992H735.689L733.907 33.8872Z" fill="#FFD7CE"/>
<path d="M755.608 29.6993H735.689C732.456 29.6993 729.811 27.1795 729.811 24.0998V14.7265C729.811 11.6468 732.456 9.12695 735.689 9.12695H755.608C758.841 9.12695 761.487 11.6468 761.487 14.7265V24.0998C761.487 27.1795 758.841 29.6993 755.608 29.6993Z" fill="#FFD7CE"/>
<path d="M994.015 94.4268H989.746C987.747 94.4268 986.112 92.8692 986.112 90.9654C986.112 89.0615 987.747 87.5039 989.746 87.5039H994.015C996.014 87.5039 997.649 89.0615 997.649 90.9654C997.649 92.8692 996.014 94.4268 994.015 94.4268Z" fill="#FFD7CE"/>
<path d="M687.517 135.325H682.249C679.516 135.325 677.28 133.195 677.28 130.591C677.28 127.988 679.516 125.857 682.249 125.857H687.517C690.25 125.857 692.486 127.988 692.486 130.591C692.486 133.195 690.25 135.325 687.517 135.325Z" fill="white"/>
<path d="M975.029 174.335H970.981C968.881 174.335 967.163 172.665 967.163 170.623C967.163 168.581 968.881 166.91 970.981 166.91H975.029C977.129 166.91 978.847 168.581 978.847 170.623C978.847 172.665 977.129 174.335 975.029 174.335Z" fill="white"/>
<path d="M672.013 209.984H1014.91" stroke="#211F20" stroke-width="0.5" stroke-miterlimit="10" stroke-linecap="round" stroke-linejoin="round"/>
<path d="M951.684 209.977C950.777 208.248 949.72 205.548 949.81 203.616C949.899 201.684 951.405 199.666 953.434 199.657C954.775 199.651 955.986 200.516 956.71 201.592C957.433 202.667 957.757 203.935 958.069 205.178C956.775 200.194 956.876 194.888 958.359 189.953C958.768 188.594 959.297 187.232 960.257 186.154C961.217 185.077 962.681 184.322 964.154 184.49C965.428 184.636 966.538 185.449 967.27 186.453C968.002 187.457 968.406 188.641 968.748 189.819C970.111 194.524 970.631 199.45 970.276 204.319C970.661 200.211 971.877 196.175 973.837 192.498C974.535 191.188 975.363 189.884 976.621 189.034C977.878 188.184 979.661 187.891 980.965 188.675C982.304 189.481 982.766 191.115 982.989 192.608C983.543 196.309 983.304 200.117 982.291 203.729C982.959 201.822 983.69 199.823 985.269 198.488C986.849 197.154 989.562 196.813 990.965 198.315C991.704 199.105 991.929 200.212 992.022 201.266C992.285 204.263 991.316 207.275 989.946 209.984L951.684 209.977Z" stroke="#211F20" stroke-width="0.5" stroke-miterlimit="10" stroke-linecap="round" stroke-linejoin="round"/>
<path d="M685.693 210C684.953 209.135 684.023 207.582 683.83 206.482C683.636 205.381 684.256 204.066 685.408 203.863C686.46 203.677 687.546 204.666 687.398 205.676C686.078 203.272 686.005 200.281 687.208 197.822C687.606 197.006 688.287 196.163 689.232 196.137C690.316 196.108 691.06 197.146 691.514 198.084C692.541 200.203 693.21 202.478 693.488 204.797C693.44 203.784 693.402 202.725 693.856 201.808C694.309 200.891 695.425 200.185 696.434 200.509C697.515 200.856 697.907 202.111 698.01 203.193C698.216 205.365 698.122 207.969 697.291 210H685.693Z" stroke="#211F20" stroke-width="0.5" stroke-miterlimit="10" stroke-linecap="round" stroke-linejoin="round"/>
<path d="M831.137 209.985C831.485 209.548 831.748 209.012 831.972 208.507C832.196 208.002 832.283 207.42 832.087 206.905C831.85 206.284 831.189 205.834 830.496 205.82C829.802 205.807 829.123 206.233 828.861 206.845C828.953 206.261 829.045 205.67 828.982 205.082C828.92 204.495 828.685 203.902 828.219 203.513C827.432 202.855 826.153 202.965 825.319 203.568C824.486 204.171 824.04 205.153 823.843 206.132C823.859 205.185 823.857 204.213 823.509 203.326C823.161 202.439 822.391 201.641 821.407 201.504C820.206 201.337 819.059 202.21 818.564 203.266C818.069 204.322 818.075 205.52 818.09 206.677C817.955 205.88 817.279 205.191 816.453 205.009C815.628 204.827 814.703 205.164 814.215 205.824C813.775 206.417 813.699 207.201 813.839 207.915C813.98 208.629 814.511 209.33 814.844 209.984H831.137V209.985Z" stroke="#211F20" stroke-width="0.5" stroke-miterlimit="10" stroke-linecap="round" stroke-linejoin="round"/>
<path d="M904.183 193.652H781.719C774.956 193.652 769.473 188.429 769.473 181.986V41.9968C769.473 35.5541 774.956 30.3311 781.719 30.3311H916.429V181.986C916.429 188.429 910.946 193.652 904.183 193.652Z" fill="#FAF8F3"/>
<path d="M916.429 30.3311H928.676L916.429 41.9968V30.3311Z" fill="#FAF8F3"/>
<path d="M928.676 53.6626C935.439 53.6626 940.922 48.4397 940.922 41.9968C940.922 35.554 935.439 30.3311 928.676 30.3311C921.912 30.3311 916.429 35.554 916.429 41.9968C916.429 48.4397 921.912 53.6626 928.676 53.6626Z" fill="#E3DED6"/>
<path d="M936.024 64.8979H916.429V41.9971H940.922V60.2316C940.922 62.8088 938.729 64.8979 936.024 64.8979Z" fill="#E3DED6"/>
<path d="M833.898 55.9971H900.348" stroke="#211F20" stroke-width="0.5" stroke-miterlimit="10" stroke-linecap="round" stroke-linejoin="round"/>
<path d="M833.898 46.6641H886.149" stroke="#211F20" stroke-width="0.5" stroke-miterlimit="10" stroke-linecap="round" stroke-linejoin="round"/>
<path d="M833.898 65.3291H900.348" stroke="#211F20" stroke-width="0.5" stroke-miterlimit="10" stroke-linecap="round" stroke-linejoin="round"/>
<path d="M833.898 74.6621H900.348" stroke="#211F20" stroke-width="0.5" stroke-miterlimit="10" stroke-linecap="round" stroke-linejoin="round"/>
<path d="M900.348 51.3298V39.6641H890.551V51.3298H900.348Z" stroke="#211F20" stroke-width="0.5" stroke-miterlimit="10" stroke-linecap="round" stroke-linejoin="round"/>
<path d="M892.612 45.2648C893.358 46.604 894.357 47.8149 895.548 48.821C896.46 46.6049 897.374 44.3889 898.287 42.1729" stroke="#F56438" stroke-width="3" stroke-miterlimit="10"/>
<path d="M833.898 110.825H900.348" stroke="#211F20" stroke-width="0.75" stroke-miterlimit="10" stroke-linecap="round" stroke-linejoin="round"/>
<path d="M833.898 101.492H886.149" stroke="#211F20" stroke-width="0.75" stroke-miterlimit="10" stroke-linecap="round" stroke-linejoin="round"/>
<path d="M833.898 120.157H900.348" stroke="#211F20" stroke-width="0.75" stroke-miterlimit="10" stroke-linecap="round" stroke-linejoin="round"/>
<path d="M833.898 129.49H900.348" stroke="#211F20" stroke-width="0.75" stroke-miterlimit="10" stroke-linecap="round" stroke-linejoin="round"/>
<path d="M900.348 106.159V94.4932H890.551V106.159H900.348Z" stroke="#211F20" stroke-width="0.75" stroke-miterlimit="10" stroke-linecap="round" stroke-linejoin="round"/>
<path d="M833.898 157.488H900.348" stroke="#211F20" stroke-width="0.75" stroke-miterlimit="10" stroke-linecap="round" stroke-linejoin="round"/>
<path d="M833.898 148.155H886.149" stroke="#211F20" stroke-width="0.75" stroke-miterlimit="10" stroke-linecap="round" stroke-linejoin="round"/>
<path d="M833.898 166.82H900.348" stroke="#211F20" stroke-width="0.75" stroke-miterlimit="10" stroke-linecap="round" stroke-linejoin="round"/>
<path d="M833.898 176.153H900.348" stroke="#211F20" stroke-width="0.75" stroke-miterlimit="10" stroke-linecap="round" stroke-linejoin="round"/>
<path d="M900.348 152.822V141.156H890.551V152.822H900.348Z" stroke="#211F20" stroke-width="0.75" stroke-miterlimit="10" stroke-linecap="round" stroke-linejoin="round"/>
<path d="M796.363 109.373C796.961 112.473 796.049 115.808 793.938 118.235C795.248 118.399 796.558 118.561 797.869 118.725C799.158 118.885 800.446 119.046 801.735 119.206C802.747 119.332 803.771 119.458 804.785 119.348C805.833 119.234 806.845 118.87 807.899 118.829C809.522 118.766 811.173 119.47 812.734 119.041C811.619 116.041 811.122 112.953 811.241 109.772C806.324 109.597 801.281 109.547 796.363 109.373Z" fill="#ECC4D9"/>
<path d="M819.129 123.566C815.549 127.887 809.998 130.658 803.763 130.658C797.527 130.658 791.977 127.887 788.396 123.566L798.884 121.19H808.642L819.129 123.566Z" fill="#B19AED"/>
<path d="M803.76 126.522C798.749 126.522 798.881 121.189 798.881 121.189C799.459 120.022 799.871 118.781 800.096 117.512C800.179 117.05 800.238 116.583 800.272 116.117C800.277 116.117 800.292 116.103 800.297 116.103H807.228C807.233 116.103 807.248 116.117 807.253 116.117C807.38 117.871 807.855 119.598 808.644 121.189C808.644 121.189 808.776 126.522 803.76 126.522Z" fill="#FC916D"/>
<path d="M805.22 117.138C804.97 117.465 804.529 117.6 804.113 117.684C802.785 117.946 801.389 117.89 800.096 117.512C800.179 117.05 800.238 116.583 800.272 116.117C800.277 116.117 800.292 116.103 800.297 116.103H800.419C800.968 116.355 801.571 116.504 802.163 116.616C803.158 116.798 804.221 116.956 805.22 117.138Z" fill="#211F20"/>
<path d="M796.586 101.293C796.605 103.992 796.781 106.691 797.112 109.371C797.341 111.223 797.669 113.131 798.737 114.695C799.788 116.231 801.564 117.328 803.481 117.495C805.397 117.661 807.405 116.848 808.511 115.347C809.355 114.203 809.644 112.778 809.848 111.393C810.325 108.144 810.44 104.846 810.192 101.573C805.617 101.041 801.191 101.125 796.586 101.293Z" fill="#FC916D"/>
<path d="M813.116 109.035C813.116 110.507 811.864 111.7 810.319 111.7C808.774 111.7 807.521 110.507 807.521 109.035C807.521 107.563 808.774 106.37 810.319 106.37C811.864 106.37 813.116 107.563 813.116 109.035Z" fill="#FC916D"/>
<path d="M800.018 108.866C800.018 110.338 798.766 111.531 797.221 111.531C795.676 111.531 794.423 110.338 794.423 108.866C794.423 107.394 795.676 106.201 797.221 106.201C798.766 106.201 800.018 107.394 800.018 108.866Z" fill="#FC916D"/>
<path d="M811.444 104.602C811.483 105.302 811.262 105.908 810.87 106.426C810.694 106.389 810.508 106.37 810.317 106.37C810.052 106.37 809.793 106.408 809.553 106.473C809.127 105.316 808.176 104.336 806.981 103.878C805.742 103.398 804.35 103.472 803.013 103.43C801.671 103.388 800.334 103.127 799.373 102.236C799.28 103.71 798.634 105.138 797.595 106.23C797.473 106.212 797.345 106.202 797.218 106.202C796.772 106.202 796.356 106.3 795.984 106.482C794.803 104.676 794.588 102.255 795.494 100.299C796.513 98.0922 798.805 96.4963 801.308 96.123C803.812 95.7543 806.452 96.5803 808.328 98.1995C810.204 99.8234 811.306 102.194 811.444 104.602Z" fill="#ECC4D9"/>
<path d="M803.131 107.438C803.125 108.235 802.931 109.031 802.567 109.748C802.365 109.638 802.054 109.673 801.894 109.834C801.735 109.995 801.687 110.24 801.744 110.454C801.8 110.669 801.949 110.855 802.133 110.99C802.316 111.126 802.533 111.216 802.753 111.288" stroke="#231F20" stroke-width="0.4256" stroke-miterlimit="10" stroke-linecap="round" stroke-linejoin="round"/>
<path d="M805.535 108.065C805.549 108.425 805.786 108.71 806.065 108.7C806.343 108.69 806.558 108.391 806.544 108.03C806.53 107.67 806.293 107.385 806.015 107.395C805.736 107.405 805.521 107.705 805.535 108.065Z" fill="#231F20"/>
<path d="M800.69 108.25C800.704 108.611 800.941 108.895 801.219 108.885C801.498 108.876 801.713 108.576 801.699 108.215C801.685 107.855 801.448 107.571 801.17 107.58C800.891 107.59 800.677 107.89 800.69 108.25Z" fill="#231F20"/>
<path d="M806.502 106.893C806.755 106.939 807.067 106.942 807.216 106.741C807.347 106.563 807.28 106.315 807.174 106.122C806.828 105.495 806.099 105.091 805.361 105.072C805.012 105.063 804.438 105.126 804.316 105.507C804.19 105.905 804.782 106.205 805.074 106.372C805.512 106.623 805.998 106.802 806.502 106.893Z" fill="#211F20"/>
<path d="M801.285 106.663C800.928 106.953 800.46 107.118 799.991 107.117C799.8 107.117 799.579 107.071 799.496 106.908C799.412 106.745 799.508 106.552 799.616 106.402C799.978 105.9 800.768 105.181 801.465 105.195C802.42 105.214 801.615 106.395 801.285 106.663Z" fill="#211F20"/>
<path d="M802.956 113.582L806.758 112.35" stroke="#231F20" stroke-width="0.4256" stroke-miterlimit="10" stroke-linecap="round" stroke-linejoin="round"/>
<path d="M823.357 111.988C823.357 116.347 821.789 120.355 819.159 123.533C819.149 123.542 819.139 123.556 819.129 123.566C815.549 127.887 809.999 130.658 803.763 130.658C797.527 130.658 791.977 127.887 788.396 123.566C788.386 123.556 788.376 123.542 788.367 123.533C785.736 120.355 784.168 116.347 784.168 111.988C784.168 101.681 792.937 93.3232 803.763 93.3232C814.588 93.3232 823.357 101.681 823.357 111.988Z" stroke="#211F20" stroke-miterlimit="10" stroke-linecap="round" stroke-linejoin="round"/>
<path d="M819.129 72.2365C815.549 76.5575 809.998 79.3293 803.763 79.3293C797.527 79.3293 791.977 76.5575 788.396 72.2365L798.884 69.8613H808.642L819.129 72.2365Z" fill="#8C84D9"/>
<path d="M803.76 75.1933C798.749 75.1933 798.881 69.8597 798.881 69.8597C799.459 68.6931 799.871 67.4519 800.096 66.1827C800.179 65.7207 800.238 65.2541 800.272 64.7874C800.277 64.7874 800.292 64.7734 800.297 64.7734H807.228C807.233 64.7734 807.248 64.7874 807.253 64.7874C807.38 66.542 807.855 68.2685 808.644 69.8597C808.644 69.8597 808.776 75.1933 803.76 75.1933Z" fill="#FC916D"/>
<path d="M805.22 65.8094C804.97 66.136 804.529 66.2713 804.113 66.3553C802.785 66.6166 801.389 66.5606 800.096 66.1827C800.179 65.7207 800.238 65.2541 800.272 64.7874C800.277 64.7874 800.292 64.7734 800.297 64.7734H800.419C800.968 65.0254 801.571 65.1747 802.163 65.2867C803.158 65.4687 804.221 65.6274 805.22 65.8094Z" fill="#211F20"/>
<path d="M796.586 49.9643C796.605 52.6633 796.781 55.3614 797.112 58.0422C797.341 59.8943 797.669 61.8023 798.737 63.3655C799.788 64.9022 801.564 65.9992 803.481 66.1658C805.397 66.3324 807.405 65.5186 808.511 64.0184C809.355 62.8742 809.644 61.4491 809.848 60.0641C810.325 56.8145 810.44 53.5168 810.192 50.2439C805.617 49.7119 801.191 49.7954 796.586 49.9643Z" fill="#FC916D"/>
<path d="M796.679 55.5478C796.853 55.7335 797.192 55.6836 797.378 55.5086C797.563 55.3331 797.632 55.077 797.682 54.8325C797.854 53.9841 797.893 53.111 797.796 52.2515C801.126 53.6901 805.208 53.482 808.461 51.8908C808.389 53.2758 808.895 54.7363 809.777 55.8399C810.282 55.8329 810.595 55.4311 810.806 54.9939C811.52 53.5184 811.727 51.8241 811.386 50.2319C811.312 49.8848 811.196 49.5175 810.902 49.3005C810.608 49.0836 810.091 49.1223 809.954 49.4517C810.115 48.3267 809.592 47.1078 808.8 46.2595C808.008 45.4112 806.912 44.8554 805.764 44.5484C804.616 44.2413 803.413 44.1699 802.222 44.1751C801.029 44.1802 799.786 44.274 798.757 44.8479C797.941 45.3029 797.309 46.0505 797.018 46.9072C796.726 47.7639 796.777 48.7224 797.157 49.5469C796.942 49.2221 796.392 49.1479 796.007 49.2637C795.623 49.3794 795.328 49.6906 795.167 50.0429C795.005 50.3948 794.964 50.7858 794.956 51.1699C794.93 52.7233 795.593 54.3887 796.679 55.5478Z" fill="#6B311A"/>
<path d="M813.116 57.7059C813.116 59.1777 811.864 60.3709 810.319 60.3709C808.774 60.3709 807.521 59.1777 807.521 57.7059C807.521 56.2342 808.774 55.041 810.319 55.041C811.864 55.041 813.116 56.2342 813.116 57.7059Z" fill="#FC916D"/>
<path d="M800.018 57.537C800.018 59.0088 798.766 60.2019 797.221 60.2019C795.676 60.2019 794.423 59.0088 794.423 57.537C794.423 56.0652 795.676 54.8721 797.221 54.8721C798.766 54.8721 800.018 56.0652 800.018 57.537Z" fill="#FC916D"/>
<path d="M802.877 56.3457C802.872 57.1427 802.677 57.9379 802.312 58.6551C802.11 58.5454 801.799 58.5804 801.64 58.7414C801.48 58.9024 801.433 59.1469 801.489 59.3615C801.546 59.5762 801.695 59.7619 801.878 59.8977C802.061 60.0335 802.278 60.1236 802.498 60.1949" stroke="#231F20" stroke-width="0.4256" stroke-miterlimit="10" stroke-linecap="round" stroke-linejoin="round"/>
<path d="M805.28 56.9721C805.294 57.3323 805.531 57.617 805.809 57.6072C806.088 57.5974 806.303 57.2978 806.289 56.9371C806.275 56.5768 806.038 56.2926 805.76 56.302C805.481 56.3118 805.266 56.6118 805.28 56.9721Z" fill="#231F20"/>
<path d="M800.436 57.1576C800.45 57.5179 800.687 57.8025 800.965 57.7927C801.244 57.7829 801.458 57.4833 801.445 57.1226C801.431 56.7624 801.194 56.4778 800.916 56.4876C800.637 56.4973 800.422 56.7974 800.436 57.1576Z" fill="#231F20"/>
<path d="M803.901 62.0284C804.344 62.3569 804.968 62.4488 805.494 62.2622C806.02 62.0755 806.429 61.6173 806.539 61.0928" stroke="#231F20" stroke-width="0.4256" stroke-miterlimit="10" stroke-linecap="round" stroke-linejoin="round"/>
<path d="M804.221 55.1914C804.299 55.225 804.389 55.2161 804.474 55.2077C805.544 55.1018 806.631 55.1536 807.684 55.3617C807.711 55.1088 807.578 54.8554 807.375 54.6893C807.173 54.5236 806.909 54.4373 806.645 54.4028C806.38 54.3687 806.112 54.3832 805.845 54.3976C805.334 54.4256 804.812 54.4261 804.304 54.483C804.146 54.5008 804.063 54.5484 804.043 54.7056C804.022 54.8685 804.038 55.1125 804.221 55.1914Z" fill="#211F20"/>
<path d="M802.405 55.1855C802.33 55.2247 802.24 55.2219 802.154 55.2196C801.079 55.1902 799.999 55.3195 798.965 55.6018C798.919 55.3512 799.032 55.0889 799.221 54.9093C799.409 54.7296 799.665 54.6246 799.927 54.5714C800.188 54.5187 800.457 54.5141 800.724 54.5094C801.235 54.501 801.756 54.4641 802.267 54.4847C802.426 54.4912 802.513 54.5327 802.545 54.6881C802.578 54.8496 802.582 55.0941 802.405 55.1855Z" fill="#211F20"/>
<path d="M823.357 60.6594C823.357 65.0177 821.789 69.0261 819.159 72.2039C819.149 72.2132 819.139 72.2272 819.129 72.2365C815.549 76.5575 809.999 79.3293 803.763 79.3293C797.527 79.3293 791.977 76.5575 788.396 72.2365C788.386 72.2272 788.376 72.2132 788.367 72.2039C785.736 69.0261 784.168 65.0177 784.168 60.6594C784.168 50.3515 792.937 41.9941 803.763 41.9941C814.588 41.9941 823.357 50.3515 823.357 60.6594Z" stroke="#211F20" stroke-miterlimit="10" stroke-linecap="round" stroke-linejoin="round"/>
<path d="M819.129 174.896C815.549 179.217 809.998 181.988 803.763 181.988C797.527 181.988 791.977 179.217 788.396 174.896L798.884 172.521H808.642L819.129 174.896Z" fill="#FFCF2E"/>
<path d="M800.171 162.265C800.462 163.472 800.682 164.797 800.096 165.902C799.598 166.841 798.605 167.444 797.608 167.894C796.611 168.344 795.548 168.699 794.679 169.347C793.81 169.995 793.152 171.038 793.367 172.069C792.446 170.995 791.927 169.614 791.926 168.226C791.925 166.839 792.441 165.457 793.36 164.382C793.895 163.756 794.558 163.235 795.071 162.592C795.583 161.948 795.941 161.119 795.728 160.338C797.244 160.837 798.734 161.586 800.171 162.265Z" fill="#49316B"/>
<path d="M803.76 177.852C798.749 177.852 798.881 172.519 798.881 172.519C799.459 171.352 799.871 170.111 800.096 168.842C800.179 168.38 800.238 167.913 800.272 167.447C800.277 167.447 800.292 167.433 800.297 167.433H807.228C807.233 167.433 807.248 167.447 807.253 167.447C807.38 169.201 807.855 170.928 808.644 172.519C808.644 172.519 808.776 177.852 803.76 177.852Z" fill="#FC916D"/>
<path d="M805.22 168.469C804.97 168.795 804.529 168.93 804.113 169.014C802.785 169.276 801.389 169.22 800.096 168.842C800.179 168.38 800.238 167.913 800.272 167.447C800.277 167.447 800.292 167.433 800.297 167.433H800.419C800.968 167.685 801.571 167.834 802.163 167.946C803.158 168.128 804.221 168.287 805.22 168.469Z" fill="#211F20"/>
<path d="M796.586 152.624C796.605 155.323 796.781 158.021 797.112 160.701C797.341 162.553 797.669 164.462 798.737 166.025C799.788 167.561 801.564 168.658 803.481 168.825C805.397 168.992 807.405 168.178 808.511 166.678C809.355 165.533 809.644 164.108 809.848 162.723C810.325 159.474 810.44 156.176 810.192 152.903C805.617 152.371 801.191 152.455 796.586 152.624Z" fill="#FC916D"/>
<path d="M813.116 160.365C813.116 161.837 811.864 163.03 810.319 163.03C808.774 163.03 807.521 161.837 807.521 160.365C807.521 158.893 808.774 157.7 810.319 157.7C811.864 157.7 813.116 158.893 813.116 160.365Z" fill="#FC916D"/>
<path d="M800.018 160.196C800.018 161.668 798.766 162.861 797.221 162.861C795.676 162.861 794.423 161.668 794.423 160.196C794.423 158.724 795.676 157.531 797.221 157.531C798.766 157.531 800.018 158.724 800.018 160.196Z" fill="#FC916D"/>
<path d="M811.38 157.901C811.052 157.77 810.694 157.7 810.317 157.7C809.998 157.7 809.69 157.752 809.406 157.85C809.151 156.87 808.362 156.011 807.348 155.698C806.437 155.414 805.453 155.544 804.497 155.516C802.621 155.465 800.809 154.625 799.393 153.454C799.525 154.943 799.119 156.464 798.306 157.742C797.973 157.607 797.605 157.532 797.218 157.532C796.704 157.532 796.224 157.663 795.812 157.896C795.019 156.361 794.524 154.681 794.48 152.983C794.465 152.446 794.49 151.895 794.681 151.391C794.867 150.883 795.239 150.416 795.758 150.206C796.278 149.992 796.949 150.09 797.306 150.51C797.292 149.338 798.012 148.27 798.942 147.5C800.917 145.871 803.865 145.479 806.31 146.357C808.754 147.234 810.655 149.278 811.473 151.643C812.178 153.678 812.061 155.866 811.38 157.901Z" fill="#49316B"/>
<path d="M803.148 159.04C803.142 159.837 802.948 160.632 802.584 161.349C802.382 161.239 802.071 161.275 801.912 161.436C801.752 161.597 801.705 161.841 801.761 162.056C801.817 162.271 801.967 162.456 802.15 162.592C802.333 162.728 802.55 162.818 802.77 162.889" stroke="#231F20" stroke-width="0.4256" stroke-miterlimit="10" stroke-linecap="round" stroke-linejoin="round"/>
<path d="M805.552 159.666C805.566 160.027 805.803 160.311 806.081 160.301C806.36 160.292 806.574 159.992 806.561 159.631C806.547 159.271 806.31 158.987 806.032 158.996C805.753 159.006 805.538 159.306 805.552 159.666Z" fill="#231F20"/>
<path d="M800.708 159.852C800.722 160.212 800.959 160.497 801.237 160.487C801.516 160.477 801.73 160.178 801.717 159.817C801.703 159.457 801.466 159.172 801.187 159.182C800.909 159.192 800.694 159.492 800.708 159.852Z" fill="#231F20"/>
<path d="M804.262 157.492C804.153 157.123 804.23 156.708 804.465 156.398C805.907 156.367 807.401 156.993 808.377 158.005C808.154 158.385 805.632 157.52 804.262 157.492Z" fill="#231F20"/>
<path d="M802.467 157.227C802.466 156.844 802.273 156.466 801.958 156.228C800.562 156.573 799.305 157.565 798.656 158.793C798.98 159.1 801.159 157.611 802.467 157.227Z" fill="#231F20"/>
<path d="M802.726 165.039C803.556 165.004 804.386 164.969 805.216 164.935" stroke="#231F20" stroke-width="0.4256" stroke-miterlimit="10" stroke-linecap="round" stroke-linejoin="round"/>
<path d="M823.357 163.319C823.357 167.677 821.789 171.685 819.159 174.863C819.149 174.872 819.139 174.886 819.129 174.896C815.549 179.217 809.999 181.989 803.763 181.989C797.527 181.989 791.977 179.217 788.396 174.896C788.386 174.886 788.376 174.872 788.367 174.863C785.736 171.685 784.168 167.677 784.168 163.319C784.168 153.011 792.937 144.653 803.763 144.653C814.588 144.653 823.357 153.011 823.357 163.319Z" stroke="#211F20" stroke-miterlimit="10" stroke-linecap="round" stroke-linejoin="round"/>
<path d="M755.001 203.285C755.001 203.285 756.521 205.051 756.123 206.974C755.725 208.896 753.814 209.984 750.601 209.984C747.388 209.984 745.083 209.017 743.219 209.048C741.707 209.073 739.874 209.984 737.139 209.984C734.405 209.984 731.697 208.871 731.697 207.884C731.697 206.898 731.662 204.108 732.555 203.505C733.449 202.902 755.001 203.285 755.001 203.285Z" fill="#211F20"/>
<path d="M741.189 188.334C741.066 190.219 740.537 192.366 740.415 194.251C739.121 195.375 737.123 195.856 735.487 195.259C735.247 193.99 734.865 192.618 734.585 191.26C734.502 190.858 734.429 190.462 734.37 190.065C734.291 189.529 734.242 189.001 734.238 188.488C736.212 188.18 739.2 188.138 741.189 188.334Z" fill="#FC916D"/>
<path d="M732.556 203.505C732.228 200.524 732.404 197.492 733.077 194.563C733.17 194.157 733.278 193.74 733.536 193.405C733.794 193.069 734.239 192.83 734.665 192.922C735.135 193.022 735.419 193.462 735.759 193.788C736.614 194.606 738.104 194.724 739.089 194.051C739.759 193.594 740.301 192.795 741.125 192.82C741.577 192.834 741.979 193.115 742.253 193.458C742.528 193.8 742.701 194.204 742.908 194.587C743.522 195.722 744.46 196.697 745.594 197.378C746.704 198.044 747.974 198.422 749.223 198.804C750.473 199.186 751.738 199.586 752.823 200.29C753.908 200.993 754.808 202.049 755.001 203.286C754.019 204.617 752.62 205.66 750.978 206.108C749.336 206.555 747.534 206.45 745.962 205.815C744.927 205.397 743.938 204.746 742.814 204.738C741.977 204.732 741.192 205.087 740.391 205.318C737.772 206.073 734.575 205.266 732.556 203.505Z" fill="white"/>
<path d="M725.671 203.285C725.671 203.285 727.191 205.051 726.793 206.974C726.395 208.896 724.483 209.984 721.271 209.984C718.058 209.984 715.753 209.017 713.89 209.048C712.378 209.073 710.545 209.984 707.81 209.984C705.075 209.984 702.367 208.871 702.367 207.884C702.367 206.898 702.333 204.108 703.226 203.505C704.119 202.902 725.671 203.285 725.671 203.285Z" fill="#211F20"/>
<path d="M712.101 188.488C711.978 190.373 711.205 192.366 711.082 194.251C709.794 195.376 707.79 195.856 706.154 195.259C705.914 193.976 705.473 192.711 705.155 191.433C705.042 190.98 704.944 190.527 704.876 190.065C704.812 189.65 704.773 189.23 704.768 188.81C706.742 188.502 710.112 188.292 712.101 188.488Z" fill="#FC916D"/>
<path d="M740.752 190.065L734.585 191.26C734.502 190.859 734.428 190.462 734.37 190.065H740.752Z" fill="#211F20"/>
<path d="M711.381 190.065L705.155 191.433C705.042 190.98 704.944 190.527 704.875 190.065H711.381Z" fill="#211F20"/>
<path d="M703.226 203.505C702.898 200.524 703.074 197.492 703.746 194.563C703.84 194.157 703.948 193.74 704.206 193.405C704.464 193.069 704.909 192.83 705.335 192.922C705.805 193.022 706.089 193.462 706.429 193.788C707.284 194.606 708.774 194.724 709.759 194.051C710.429 193.594 710.971 192.795 711.795 192.82C712.247 192.834 712.649 193.115 712.923 193.458C713.198 193.8 713.371 194.204 713.578 194.587C714.192 195.722 715.13 196.697 716.264 197.378C717.374 198.044 718.643 198.422 719.893 198.804C721.143 199.186 722.408 199.586 723.493 200.29C724.578 200.993 725.478 202.049 725.671 203.286C724.689 204.617 723.29 205.66 721.648 206.108C720.006 206.555 718.204 206.45 716.632 205.815C715.597 205.397 714.608 204.746 713.484 204.738C712.647 204.732 711.862 205.087 711.061 205.318C708.442 206.073 705.244 205.266 703.226 203.505Z" fill="white"/>
<path d="M713.586 190.068H704.025C703.352 182.27 701.431 174.607 700.768 166.808C700.104 159.01 700.552 150.681 704.735 143.948C701.9 137.892 703.514 130.738 701.507 124.388C700.885 122.417 699.92 120.553 699.338 118.57C698.382 115.313 698.496 111.837 699.154 108.514C699.812 105.19 700.999 101.984 702.181 98.795C705.252 96.8053 709.055 95.901 712.769 95.9738C716.482 96.047 720.161 97.2468 723.143 99.3559C723.188 115.407 720.512 129.994 718.664 145.948C717.909 152.479 715.68 175.904 713.586 190.068Z" fill="#5B4D7D"/>
<path d="M732.961 190.068H742.111C744.008 175.068 748.149 159.253 745.825 144.308C743.339 128.324 739.017 112.6 732.961 97.5068C730.028 98.1153 727.053 99.0831 724.325 100.279C721.598 101.475 719.075 103.246 717.484 105.672C715.893 108.097 715.342 111.23 716.474 113.879C721.146 124.813 725.206 135.978 733.257 144.952C730.518 147.788 729.053 151.988 728.653 155.823C728.252 159.657 728.719 163.521 729.186 167.349C730.091 174.77 732.056 182.647 732.961 190.068Z" fill="#5B4D7D"/>
<path d="M712.751 66.0908C709.467 66.438 703.173 68.2313 702.308 68.9807C701.443 69.7301 701.797 78.3096 703.252 83.8172C704.708 89.3249 702.072 98.8409 702.072 98.8409C707.004 104.68 728.473 105.228 733.812 98.4289C734.989 94.9753 730.554 70.4034 730.076 67.6727C728.302 66.9578 723.086 66.3965 723.086 66.3965L712.751 66.0908Z" fill="#FFC454"/>
<path d="M743.886 95.7214C744.642 96.0891 745.589 95.9067 746.301 95.4667C747.012 95.0266 747.536 94.3659 748.04 93.7159C753.273 86.9684 757.807 79.6446 762.003 72.269C763.561 71.871 764.948 70.7749 765.476 69.3227C766.004 67.8705 765.677 66.0166 764.41 65.0656C765.433 63.7418 766.456 62.4175 767.48 61.0937C767.699 60.8104 767.92 60.4133 767.694 60.1357C767.563 59.9761 767.322 59.9308 767.114 59.9728C766.906 60.0153 766.724 60.1291 766.547 60.2421C764.901 61.2938 763.282 62.403 761.784 63.6401C761.015 64.2751 760.448 65.1081 760.022 65.9891C759.597 66.8696 759.304 67.8024 759.013 68.7315C753.357 73.136 748.779 77.7393 744.619 83.4602C743.202 85.4089 743.011 88.9063 742.834 91.2707C742.719 92.8232 742.432 95.0136 743.886 95.7214Z" fill="#FC916D"/>
<path d="M732.456 84.1468C733.694 86.6228 735.421 88.8761 737.519 90.7543C737.259 91.6605 737.37 92.6862 737.91 93.472C738.451 94.2578 739.356 94.8075 740.331 94.9423C740.318 95.7739 740.86 96.5209 741.707 96.7249C742.553 96.9288 743.519 96.5153 743.921 95.7776C743.298 91.9587 743.445 88.031 744.36 84.2658C744.554 83.7166 744.741 83.221 744.674 82.7581C744.608 82.2952 744.424 82.0652 743.978 81.8706C743.577 81.6961 743.106 81.704 742.687 81.8318C739.29 76.6042 734.945 71.7083 730.076 67.6729C729.405 73.2104 729.941 79.1147 732.456 84.1468Z" fill="#FFC454"/>
<path d="M709.179 111.098C708.397 112.459 707.409 113.622 706.217 114.68C698.015 108.94 690.684 101.96 684.964 93.9406C687.904 91.6798 692.313 91.0102 695.683 92.6364C697.364 93.4469 698.398 94.9663 699.385 96.495C701.32 99.4931 703.254 102.491 705.189 105.489C706.425 107.404 707.943 109.183 709.179 111.098Z" fill="#FC916D"/>
<path d="M703.307 84.0394C700.839 86.3609 698.886 88.0664 696.174 90.2512C696.443 90.5013 696.717 90.7575 696.885 91.0776C697.053 91.3977 697.1 91.7985 696.908 92.1065C696.787 92.3016 696.583 92.4406 696.363 92.5279C696.144 92.6156 695.874 92.6931 695.644 92.6347C692.071 91.7313 688.17 92.1858 684.964 93.9408C684.261 93.6944 683.755 93.009 683.748 92.2955C683.741 91.582 684.231 90.8807 684.929 90.6217C684.543 89.8541 684.577 88.9077 685.017 88.1667C685.457 87.4262 686.24 86.8196 687.13 86.7398C690.191 79.4319 695.522 73.1323 702.465 68.8701C702.894 69.2145 703.403 69.6709 703.615 70.1655C705.316 74.1277 706.504 81.0324 703.307 84.0394Z" fill="#FFC454"/>
<path d="M718.838 71.7483C716.274 71.7483 713.951 69.1258 712.751 66.0908C713.914 64.4068 714.943 58.1348 714.769 55.3145L721.741 60.6453C721.737 60.7208 721.733 60.8039 721.733 60.8954C721.729 61.5626 721.824 62.5001 722.071 63.5925C722.25 64.3634 722.732 65.5103 723.086 66.396C723.415 68.8276 721.403 71.7483 718.838 71.7483Z" fill="#FC916D"/>
<path d="M722.07 63.5932C719.464 62.3496 717.446 60.0221 716.682 57.3408C718.176 58.715 719.931 59.8714 721.732 60.8961C721.728 61.5629 721.824 62.5004 722.07 63.5932Z" fill="#211F20"/>
<path d="M715.745 46.7728C717.647 45.896 719.799 45.5171 721.904 45.6888C724.01 45.8605 726.061 46.7219 727.779 47.8941C728.426 51.1638 728.684 54.5035 728.546 57.8282C728.501 58.9071 728.387 60.0569 727.682 60.9024C727.198 61.4843 726.473 61.8576 725.715 62.0293C724.957 62.201 724.163 62.1838 723.39 62.0876C720.178 61.6863 716.706 59.2491 714.991 56.6308L714.956 53.8413C715.003 53.1918 715.05 52.5418 715.097 51.8922L715.745 46.7728Z" fill="#FC916D"/>
<path d="M715.301 53.6715C715.683 53.4153 715.869 52.9706 716.007 52.545C716.383 51.3808 716.554 50.1573 716.512 48.9398C719.52 49.3659 722.491 49.755 725.529 49.6155C726.517 49.5702 727.509 49.4788 728.459 49.2151C729.408 48.9515 730.318 48.5059 731.006 47.8292C731.695 47.1526 732.144 46.2301 732.115 45.2884C732.086 44.3468 731.534 43.4074 730.648 42.9889C729.762 42.5703 728.572 42.7602 727.958 43.4994C727.946 42.7411 727.83 41.9632 727.438 41.3034C727.045 40.6436 726.335 40.1191 725.539 40.0892C724.848 40.0636 724.184 40.4107 723.718 40.8974C723.252 41.3841 722.961 41.9982 722.73 42.6188C722.531 41.4551 721.291 40.5451 720.059 40.6599C718.827 40.7747 717.795 41.897 717.837 43.0752C717.418 42.3179 716.404 41.9497 715.529 42.148C714.655 42.3459 713.954 43.0388 713.661 43.8479C713.367 44.6571 713.449 45.5619 713.764 46.3636C713.717 45.8241 712.915 45.4933 712.357 45.5973C711.799 45.7014 711.373 46.1657 711.189 46.6781C711.005 47.1904 711.022 47.7471 711.07 48.2865C711.343 51.3938 712.512 54.3565 713.671 57.2729C713.757 57.4899 713.853 57.719 714.049 57.8557C714.293 58.0251 714.665 57.9953 714.875 57.789C715.086 57.5832 715.106 57.2272 714.921 57.0004C715.01 55.9001 715.212 54.7718 715.301 53.6715Z" fill="#211F20"/>
<path d="M717.245 54.6304C717.245 56.0774 716.014 57.2501 714.495 57.2501C712.976 57.2501 711.745 56.077 711.745 54.6304C711.745 53.1834 712.977 52.0107 714.495 52.0107C716.014 52.0107 717.245 53.1834 717.245 54.6304Z" fill="#FC916D"/>
<path d="M724.625 52.6846C724.657 53.3887 724.856 54.0859 725.202 54.7083C725.376 54.6052 725.653 54.6267 725.799 54.7639C725.946 54.9015 725.996 55.1157 725.953 55.3075C725.911 55.4988 725.785 55.6673 725.628 55.7933C725.47 55.9188 725.282 56.0051 725.09 56.0751" stroke="#231F20" stroke-width="0.4256" stroke-miterlimit="10" stroke-linecap="round" stroke-linejoin="round"/>
<path d="M722.522 53.3111C722.522 53.6303 722.322 53.8888 722.075 53.8888C721.829 53.8888 721.629 53.6303 721.629 53.3111C721.629 52.9924 721.829 52.7334 722.075 52.7334C722.322 52.7339 722.522 52.9924 722.522 53.3111Z" fill="#231F20"/>
<path d="M726.81 53.3262C726.81 53.6454 726.61 53.9039 726.363 53.9039C726.117 53.9039 725.917 53.6454 725.917 53.3262C725.917 53.0075 726.117 52.749 726.363 52.749C726.61 52.749 726.81 53.0075 726.81 53.3262Z" fill="#231F20"/>
<path d="M721.762 51.7314C722.191 51.6502 722.631 51.6502 723.066 51.6175C723.207 51.6068 723.363 51.5853 723.451 51.4812C723.519 51.4015 723.531 51.2927 723.538 51.1905C723.546 51.0552 723.549 50.9124 723.486 50.7911C723.403 50.6329 723.218 50.54 723.033 50.5204C722.849 50.5009 722.664 50.5438 722.487 50.5984C721.935 50.7687 721.422 51.0538 720.996 51.428C720.825 51.5778 720.665 51.7454 720.568 51.9465C720.537 52.0104 720.512 52.0795 720.515 52.1499C720.516 52.1901 720.535 52.2881 720.587 52.2997C720.638 52.3114 720.691 52.2325 720.723 52.2036C720.816 52.1187 720.92 52.0459 721.031 51.9847C721.257 51.8587 721.508 51.7794 721.762 51.7314Z" fill="#231F20"/>
<path d="M726.78 51.6859C726.351 51.6047 725.911 51.6047 725.476 51.5721C725.335 51.5613 725.18 51.5399 725.091 51.4358C725.023 51.356 725.011 51.2473 725.005 51.1446C724.996 51.0093 724.993 50.8665 725.057 50.7452C725.139 50.587 725.324 50.4941 725.509 50.4746C725.693 50.455 725.879 50.4979 726.055 50.5525C726.608 50.7228 727.12 51.0079 727.547 51.3817C727.718 51.5315 727.877 51.699 727.975 51.9001C728.006 51.964 728.031 52.0331 728.028 52.1036C728.026 52.1437 728.007 52.2417 727.956 52.2534C727.904 52.265 727.851 52.1862 727.819 52.1572C727.726 52.0723 727.622 52 727.511 51.9384C727.284 51.8133 727.034 51.734 726.78 51.6859Z" fill="#231F20"/>
<path d="M722.364 56.3564C722.95 56.9985 723.828 57.3896 724.721 57.4059C724.621 57.7092 724.332 57.9757 724.018 58.0839C723.704 58.1917 723.338 58.152 723.057 57.9799C722.795 57.8193 722.617 57.5571 722.509 57.279C722.401 57.0013 722.407 56.65 722.364 56.3564Z" fill="#211F20"/>
<path d="M724.513 66.998C724.298 68.488 723.997 69.9966 723.248 71.3209C722.499 72.6452 721.235 73.7763 719.686 74.0731C717.788 74.4371 715.826 73.4768 714.546 72.0932C713.266 70.7092 712.535 68.9537 711.83 67.236" stroke="#211F20" stroke-width="0.5" stroke-miterlimit="10" stroke-linecap="round" stroke-linejoin="round"/>
<path d="M703.349 68.6807C706.086 73.2751 706.144 79.2158 703.497 83.8578" stroke="#211F20" stroke-width="0.5" stroke-miterlimit="10" stroke-linecap="round" stroke-linejoin="round"/>
<path d="M694.777 91.0743C691.668 90.3459 688.421 90.156 685.242 90.5162" stroke="#211F20" stroke-width="0.5" stroke-miterlimit="10" stroke-linecap="round" stroke-linejoin="round"/>
<path d="M695.704 89.9742C693.203 88.4026 690.366 87.3186 687.418 86.8076" stroke="#211F20" stroke-width="0.5" stroke-miterlimit="10" stroke-linecap="round" stroke-linejoin="round"/>
<path d="M708.76 97.0896C715.102 98.343 721.715 98.3379 728.054 97.0742" stroke="#211F20" stroke-width="0.5" stroke-miterlimit="10" stroke-linecap="round" stroke-linejoin="round"/>
<path d="M708.235 90.6748C713.048 93.9174 718.914 95.7196 724.809 95.7658" stroke="#211F20" stroke-width="0.5" stroke-miterlimit="10" stroke-linecap="round" stroke-linejoin="round"/>
<path d="M730.175 67.6768C732.071 73.1261 733.041 78.867 733.035 84.608" stroke="#211F20" stroke-width="0.5" stroke-miterlimit="10" stroke-linecap="round" stroke-linejoin="round"/>
<path d="M742.077 86.4355C741.154 89.0487 740.586 91.7757 740.391 94.5269" stroke="#211F20" stroke-width="0.5" stroke-miterlimit="10" stroke-linecap="round" stroke-linejoin="round"/>
<path d="M742.482 81.8936C740.307 84.3714 738.678 87.2817 737.731 90.3834" stroke="#211F20" stroke-width="0.5" stroke-miterlimit="10" stroke-linecap="round" stroke-linejoin="round"/>
<path d="M711.245 106.265C710.472 110.373 707.156 114.147 704.81 116.279" stroke="#211F20" stroke-width="0.5" stroke-miterlimit="10" stroke-linecap="round" stroke-linejoin="round"/>
<path d="M705.895 115.236C704.514 124.69 705.328 134.273 707.677 143.552C704.712 150.749 703.869 158.612 704.169 166.337C704.469 174.063 705.875 181.706 707.28 189.32" stroke="#211F20" stroke-width="0.5" stroke-miterlimit="10" stroke-linecap="round" stroke-linejoin="round"/>
<path d="M733.99 101.391C725.59 106.462 714.844 107.852 705.329 105.097" stroke="#211F20" stroke-width="0.5" stroke-miterlimit="10" stroke-linecap="round" stroke-linejoin="round"/>
<path d="M721.307 125.24C722.204 117.971 722.588 110.838 721.666 103.571" stroke="#211F20" stroke-width="0.5" stroke-miterlimit="10" stroke-linecap="round" stroke-linejoin="round"/>
<path d="M724.921 103.117C725.308 105.609 725.474 108.132 725.414 110.65C725.388 111.777 725.297 112.962 724.651 113.907C724.138 114.656 723.32 115.176 722.448 115.506C721.576 115.836 720.644 115.992 719.72 116.146" stroke="#211F20" stroke-width="0.5" stroke-miterlimit="10" stroke-linecap="round" stroke-linejoin="round"/>
<path d="M712.386 144.301C713.899 144.745 715.527 144.83 717.082 144.549" stroke="#211F20" stroke-width="0.5" stroke-miterlimit="10" stroke-linecap="round" stroke-linejoin="round"/>
<path d="M741.143 144.375C742.551 144.634 744.019 144.594 745.41 144.258" stroke="#211F20" stroke-width="0.5" stroke-miterlimit="10" stroke-linecap="round" stroke-linejoin="round"/>
<path d="M736.2 144.892C733.104 148.602 731.703 153.388 731.385 158.118C731.067 162.848 731.755 167.582 732.443 172.275C733.27 177.926 734.097 183.576 734.924 189.227" stroke="#211F20" stroke-width="0.5" stroke-miterlimit="10" stroke-linecap="round" stroke-linejoin="round"/>
<path d="M704.619 188.248C707.396 188.251 710.172 188.284 712.948 188.288V188.36" stroke="#211F20" stroke-width="0.5" stroke-miterlimit="10" stroke-linecap="round" stroke-linejoin="round"/>
<path d="M733.393 188.36H741.82" stroke="#211F20" stroke-width="0.5" stroke-miterlimit="10" stroke-linecap="round" stroke-linejoin="round"/>
<path d="M743.864 196.285C745.41 193.787 746.375 190.966 746.672 188.08C746.696 187.846 746.715 187.606 746.649 187.38C746.583 187.154 746.415 186.94 746.178 186.878C745.758 186.768 745.384 187.146 745.147 187.494C744.363 188.645 743.83 189.947 743.565 191.294C743.332 192.477 743.28 193.736 743.501 194.925C743.577 195.339 743.315 196.273 743.864 196.285ZM743.864 196.285C744.376 193.288 745.866 190.449 748.075 188.26C748.373 187.966 748.805 187.661 749.19 187.841C749.406 187.943 749.525 188.178 749.543 188.407C749.56 188.637 749.491 188.863 749.418 189.082C748.681 191.29 747.383 193.324 745.68 194.978C745.363 195.285 744.359 196.295 743.864 196.285Z" stroke="#211F20" stroke-width="0.5" stroke-miterlimit="10" stroke-linecap="round" stroke-linejoin="round"/>
<path d="M714.872 196.678C716.418 194.18 717.383 191.359 717.679 188.473C717.703 188.24 717.723 188 717.657 187.774C717.591 187.547 717.423 187.334 717.186 187.271C716.766 187.161 716.392 187.539 716.154 187.887C715.371 189.039 714.838 190.34 714.573 191.688C714.34 192.871 714.288 194.13 714.508 195.319C714.585 195.732 714.323 196.667 714.872 196.678ZM714.872 196.678C715.384 193.681 716.874 190.843 719.083 188.654C719.381 188.36 719.813 188.054 720.198 188.235C720.414 188.336 720.533 188.572 720.55 188.801C720.568 189.03 720.499 189.256 720.426 189.475C719.689 191.684 718.391 193.718 716.687 195.371C716.371 195.678 715.367 196.688 714.872 196.678Z" stroke="#211F20" stroke-width="0.5" stroke-miterlimit="10" stroke-linecap="round" stroke-linejoin="round"/>
<path d="M735.551 205.853C735.187 204.634 735.113 203.312 735.529 202.108C735.946 200.905 736.893 199.839 738.144 199.411C739.367 198.992 740.758 199.212 741.916 199.774C743.074 200.336 744.03 201.211 744.896 202.134C746.27 203.599 747.464 205.216 748.446 206.943" stroke="#211F20" stroke-width="0.5" stroke-miterlimit="10" stroke-linecap="round" stroke-linejoin="round"/>
<path d="M705.804 205.853C705.441 204.634 705.367 203.312 705.783 202.108C706.199 200.905 707.146 199.839 708.398 199.411C709.621 198.992 711.012 199.212 712.169 199.774C713.327 200.336 714.283 201.211 715.149 202.134C716.523 203.599 717.718 205.216 718.699 206.943" stroke="#211F20" stroke-width="0.5" stroke-miterlimit="10" stroke-linecap="round" stroke-linejoin="round"/>
<path d="M909.363 203.286C909.363 203.286 907.843 205.052 908.241 206.975C908.639 208.897 910.551 209.985 913.763 209.985C916.976 209.985 919.281 209.018 921.144 209.049C922.657 209.074 924.49 209.985 927.224 209.985C929.959 209.985 932.667 208.872 932.667 207.885C932.667 206.899 932.702 204.109 931.809 203.506C930.915 202.903 909.363 203.286 909.363 203.286Z" fill="#211F20"/>
<path d="M930.047 188.489C930.043 188.984 929.998 189.492 929.93 190.01C929.705 191.765 929.19 193.599 928.877 195.26C927.245 195.857 925.242 195.376 923.949 194.252C923.89 193.323 923.689 192.329 923.488 191.335C923.361 190.724 923.234 190.108 923.14 189.511C923.077 189.11 923.028 188.718 923.003 188.335C924.987 188.139 928.073 188.181 930.047 188.489Z" fill="#FC916D"/>
<path d="M931.808 203.505C932.136 200.524 931.959 197.492 931.287 194.563C931.194 194.157 931.085 193.74 930.828 193.405C930.57 193.069 930.125 192.83 929.699 192.922C929.228 193.022 928.945 193.462 928.605 193.788C927.75 194.606 926.26 194.724 925.275 194.051C924.605 193.594 924.062 192.795 923.238 192.82C922.787 192.834 922.385 193.115 922.11 193.458C921.836 193.8 921.663 194.204 921.456 194.587C920.842 195.722 919.904 196.697 918.77 197.378C917.659 198.044 916.39 198.422 915.141 198.804C913.891 199.186 912.626 199.586 911.541 200.29C910.456 200.993 909.555 202.049 909.363 203.286C910.345 204.617 911.744 205.66 913.386 206.108C915.028 206.555 916.83 206.45 918.403 205.815C919.438 205.397 920.426 204.746 921.55 204.738C922.387 204.732 923.172 205.087 923.973 205.318C926.592 206.073 929.789 205.266 931.808 203.505Z" fill="white"/>
<path d="M929.93 190.01L923.488 191.335C923.361 190.724 923.234 190.108 923.141 189.511L929.93 190.01Z" fill="#211F20"/>
<path d="M1012 137.309C1012 137.309 1014.38 137.535 1015.84 136.153C1017.3 134.771 1017.19 132.653 1015.41 130.107C1013.63 127.56 1011.51 126.269 1010.5 124.775C1009.68 123.562 1009.46 121.604 1007.94 119.437C1006.43 117.269 1003.95 115.739 1003.09 116.286C1002.23 116.833 999.774 118.354 999.743 119.396C999.711 120.438 1012 137.309 1012 137.309Z" fill="#211F20"/>
<path d="M996.016 130.757C995.502 131.13 994.997 131.573 994.498 132.035C994.15 132.362 993.807 132.693 993.464 133.029C992.773 133.682 992.088 134.326 991.377 134.84C990.104 133.374 988.566 130.761 987.743 129.025C989.668 127.831 992.058 127.164 994.165 126.291C995.595 127.257 996.281 129.109 996.016 130.757Z" fill="#FC916D"/>
<path d="M994.498 132.035C994.15 132.362 993.807 132.693 993.464 133.029L993.44 133.043L990.515 128.223L994.498 132.035Z" fill="#211F20"/>
<path d="M999.743 119.396C996.956 120.79 994.406 122.611 992.22 124.768C991.917 125.068 991.613 125.385 991.463 125.775C991.313 126.166 991.351 126.651 991.667 126.938C992.017 127.255 992.557 127.236 993.031 127.325C994.219 127.549 995.149 128.665 995.108 129.818C995.08 130.603 994.682 131.476 995.161 132.115C995.424 132.466 995.893 132.628 996.344 132.656C996.795 132.683 997.244 132.597 997.694 132.548C999.026 132.405 1000.4 132.608 1001.62 133.129C1002.82 133.64 1003.85 134.436 1004.88 135.215C1005.91 135.995 1006.96 136.775 1008.17 137.245C1009.39 137.715 1010.81 137.843 1012 137.309C1012.62 135.793 1012.75 134.105 1012.23 132.555C1011.71 131.005 1010.62 129.635 1009.19 128.741C1008.26 128.153 1007.14 127.73 1006.51 126.843C1006.04 126.184 1005.91 125.364 1005.67 124.601C1004.88 122.107 1002.4 120.02 999.743 119.396Z" fill="white"/>
<path d="M994.067 134.08C984.75 142.269 973.493 148.494 961.481 152.367C959.527 152.997 957.509 153.566 955.442 153.519C953.379 153.473 951.239 152.712 950.019 151.126C948.682 149.385 948.682 147.047 948.779 144.891C949.46 129.745 952.13 114.677 956.71 100.155C962.701 98.1909 969.887 97.8409 976.207 98.2796C978.793 102.017 979.924 106.646 979.332 111.084C978.744 115.522 976.437 119.735 972.954 122.74C970.074 125.228 969.799 129.651 968.207 133.03C969.133 132.745 970.059 132.46 970.99 132.18C977.162 130.304 983.373 128.494 989.531 126.595L994.067 134.08Z" fill="#5B4D7D"/>
<path d="M961.477 106.193C959.071 113.865 955.211 120.813 952.12 128.26C951.42 129.95 950.612 131.587 949.705 133.169V133.174C949 134.411 948.231 135.614 947.408 136.781V136.786C944.591 140.775 941.113 144.34 937.121 147.36C939.08 149.735 939.796 152.866 939.722 155.885C939.649 158.904 938.855 161.858 938.066 164.779C935.803 173.15 933.491 181.638 931.228 190.01H921.117C920.378 173.958 918.938 157.028 925.026 142.04C931.297 126.594 939.1 111.714 948.295 97.6539C950.514 97.0333 953.943 96.7487 956.245 96.9167C958.547 97.0847 960.918 98.2326 961.819 100.262C962.642 102.124 962.084 104.252 961.477 106.193Z" fill="#5B4D7D"/>
<path d="M948.128 83.2399C946.115 84.7845 943.269 86.4223 940.78 88.0135C940.041 88.4895 939.33 88.9608 938.689 89.4228C938.453 89.5908 938.228 89.7587 938.013 89.9221C937.239 90.5194 936.43 91.1306 935.465 91.3733C934.025 91.7373 932.516 91.2193 931.135 90.6873C923.547 87.7662 916.39 84.0892 909.469 79.9362C908.038 80.3935 906.343 79.9828 905.315 78.9282C904.281 77.8783 903.923 76.1798 904.501 74.8499C902.797 74.1593 901.327 72.96 900.348 71.4668C904.173 72.0174 907.896 73.1887 911.31 74.9152C915.401 76.987 920.309 77.253 924.811 78.3076C926.506 78.7043 928.206 79.1009 929.803 79.7542C931.404 80.4121 932.913 81.3407 933.991 82.6426C935.784 80.4728 941.006 75.5265 943.337 73.884C946.301 75.5358 946.747 80.2441 948.128 83.2399Z" fill="#BD6F57"/>
<path d="M956.034 67.0211C954.134 67.3729 952.76 67.4 950.859 67.7514C949 70.4284 947.961 71.9165 946.571 74.8409C945.418 77.2669 944.424 80.0359 945.373 82.5413C945.998 84.1908 947.388 85.4815 948.126 87.0876C948.93 88.8389 948.9 90.8328 948.66 92.7306C948.419 94.6284 947.826 96.403 947.864 98.3143C952.656 101.875 970.202 103.267 976.384 98.3363C976.384 98.3363 975.042 95.0493 974.803 87.9285C974.563 80.8073 978.783 73.714 977.537 70.1713C976.291 66.6282 970.585 67.2497 966.64 66.876L956.034 67.0211Z" fill="#EADFED"/>
<path d="M954.889 46.1899C953.132 49.2846 951.741 52.5683 950.751 55.9579C950.574 56.5654 950.049 59.2485 950.076 59.8785C950.103 60.5085 950.349 61.1571 950.866 61.5509C951.383 61.9447 952.197 62.0063 952.693 61.5887C952.716 62.3656 953.139 63.123 953.803 63.5747C954.466 64.0264 955.355 64.1622 956.135 63.9312C956.631 64.864 957.946 64.1202 959.035 64.2555C960.123 64.3908 961.313 63.339 962.044 62.5588C962.879 63.424 963.823 65.0642 965.055 65.1337C966.287 65.2032 967.542 64.801 968.479 64.0362C969.406 64.2914 970.365 64.507 971.328 64.444C972.291 64.381 973.27 64.0021 973.845 63.2634C974.495 62.4296 974.778 60.2079 974.711 59.1716C974.544 56.6069 973.669 52.5991 972.631 50.2272C971.155 49.6392 969.581 50.6863 968.088 50.3107C964.807 49.4838 961.825 47.8161 958.694 46.5683C958.087 46.3266 957.472 46.0825 956.822 45.9874C956.171 45.8922 955.202 45.6383 954.889 46.1899Z" fill="#211F20"/>
<path d="M959.594 71.4111C962.118 71.8455 964.892 69.6579 966.641 66.875C965.81 65.0206 965.968 58.6744 966.667 55.9287L958.811 59.9935C958.801 60.0687 958.789 60.1513 958.772 60.2413C958.652 60.8988 958.382 61.805 957.936 62.8381C957.616 63.5661 956.549 66.2091 956.035 67.0205C955.256 69.3574 957.07 70.9766 959.594 71.4111Z" fill="#CB775E"/>
<path d="M957.936 62.8389C960.733 62.0568 963.154 60.1082 964.405 57.5986C962.68 58.698 960.736 59.5384 958.772 60.2416C958.652 60.8996 958.382 61.8058 957.936 62.8389Z" fill="#211F20"/>
<path d="M966.948 47.323C965.174 46.2287 963.088 45.5992 960.976 45.5213C958.865 45.4434 956.718 46.0565 954.861 47.0173C953.794 50.1858 953.104 53.4694 952.81 56.7849C952.714 57.8604 952.678 59.0149 953.267 59.9369C953.672 60.5711 954.343 61.027 955.073 61.2869C955.803 61.5468 956.593 61.6234 957.372 61.6187C960.612 61.5991 964.374 59.5898 966.415 57.1936L966.813 54.4298C966.85 53.7793 966.888 53.1293 966.926 52.4788L966.948 47.323Z" fill="#CB775E"/>
<path d="M964.358 54.8359C964.087 56.2596 965.08 57.6226 966.575 57.8797C968.07 58.1369 969.5 57.1915 969.77 55.7678C970.04 54.3441 969.048 52.981 967.553 52.7239C966.059 52.4663 964.628 53.4122 964.358 54.8359Z" fill="#CB775E"/>
<path d="M957.459 51.6709C957.297 52.3582 956.971 53.0106 956.514 53.565C956.362 53.4338 956.086 53.4082 955.916 53.5188C955.746 53.6294 955.657 53.8319 955.663 54.0274C955.668 54.2229 955.761 54.41 955.893 54.5607C956.024 54.711 956.194 54.8277 956.369 54.9289" stroke="#231F20" stroke-width="0.4256" stroke-miterlimit="10" stroke-linecap="round" stroke-linejoin="round"/>
<path d="M959.412 52.6443C959.352 52.9583 959.501 53.2462 959.744 53.2882C959.986 53.3302 960.231 53.1095 960.291 52.7955C960.35 52.4814 960.202 52.1935 959.959 52.1515C959.717 52.11 959.472 52.3302 959.412 52.6443Z" fill="#231F20"/>
<path d="M955.189 51.9333C955.129 52.2474 955.278 52.5353 955.521 52.5773C955.763 52.6193 956.008 52.3986 956.068 52.0845C956.128 51.7705 955.979 51.4826 955.736 51.4406C955.493 51.399 955.249 51.6193 955.189 51.9333Z" fill="#231F20"/>
<path d="M960.454 51.2188C960.047 51.0662 959.614 50.9916 959.191 50.8856C959.055 50.8516 958.906 50.804 958.838 50.6864C958.786 50.5968 958.795 50.4871 958.807 50.3854C958.824 50.2506 958.847 50.1101 958.932 50.0009C959.043 49.8591 959.242 49.7993 959.428 49.811C959.613 49.8227 959.787 49.8969 959.951 49.9804C960.462 50.2412 960.913 50.6085 961.263 51.0494C961.403 51.2258 961.529 51.4176 961.587 51.6318C961.606 51.6999 961.617 51.7718 961.602 51.8408C961.593 51.88 961.555 51.9734 961.503 51.9757C961.45 51.978 961.412 51.8922 961.386 51.8576C961.311 51.7587 961.221 51.6691 961.124 51.5898C960.927 51.4297 960.695 51.3093 960.454 51.2188Z" fill="#231F20"/>
<path d="M955.525 50.324C955.962 50.3165 956.395 50.3912 956.83 50.4327C956.97 50.4462 957.127 50.4514 957.234 50.3636C957.316 50.2969 957.348 50.1914 957.374 50.0921C957.407 49.96 957.437 49.8205 957.397 49.6903C957.345 49.5204 957.181 49.3977 957.003 49.3473C956.825 49.2969 956.634 49.3076 956.45 49.3314C955.876 49.4056 955.318 49.5993 954.828 49.8951C954.632 50.0137 954.443 50.1513 954.31 50.3328C954.267 50.3907 954.231 50.4542 954.22 50.5242C954.214 50.5643 954.214 50.6637 954.263 50.6837C954.312 50.7038 954.379 50.6357 954.415 50.6123C954.522 50.5447 954.639 50.4906 954.759 50.449C955.004 50.3636 955.266 50.3282 955.525 50.324Z" fill="#231F20"/>
<path d="M966.096 61.529C966.092 61.5197 966.092 61.5103 966.087 61.501C966.106 60.2364 966.194 58.9439 966.332 57.8286C966.41 57.8473 966.493 57.8659 966.577 57.8799C968.071 58.1366 969.501 57.1893 969.77 55.7661C970.04 54.3429 969.05 52.9803 967.551 52.7237C966.64 52.565 965.754 52.859 965.141 53.433C965.195 52.1824 965.337 50.9411 965.577 49.7139C965.107 49.8959 964.573 49.8212 964.137 49.5739C963.696 49.3266 963.339 48.8693 963.275 48.384C962.584 48.622 961.884 48.8646 961.149 48.9113C960.414 48.958 959.836 48.7106 959.302 48.2253C958.788 48.5287 958.151 48.636 957.563 48.5193C956.97 48.4027 956.461 47.964 956.113 47.4927C955.795 47.88 955.168 47.9594 954.707 47.7354C954.247 47.5114 953.953 47.0401 953.879 46.5501C953.806 46.0648 953.919 45.5655 954.11 45.1082C954.815 43.4284 956.505 42.2478 958.332 41.7672C960.159 41.2819 962.109 41.4265 963.966 41.8092C964.911 42.0051 965.837 42.2571 966.768 42.5138C967.262 42.6491 967.772 42.7891 968.183 43.0831C968.595 43.3724 968.947 43.783 968.874 44.2683C969.677 44.2963 970.402 44.7909 970.863 45.4209C971.328 46.0462 972.999 50.5114 973.279 51.9757C974.081 56.1581 966.88 61.5943 966.096 61.529Z" fill="#211F20"/>
<path d="M958.931 57.5159C959.484 57.4534 960.009 57.1842 960.368 56.7782C960.5 56.6293 960.614 56.4324 960.549 56.2476C960.466 56.0124 960.124 55.9462 959.889 56.0544C959.655 56.1627 959.506 56.3844 959.369 56.5953C959.378 56.5817 958.384 56.4931 958.282 56.5019C958.018 56.5253 957.629 56.5621 957.529 56.8449C957.299 57.4931 958.546 57.5593 958.931 57.5159Z" fill="white"/>
<path d="M940.78 88.0134C940.04 88.4894 939.33 88.9607 938.688 89.4226L933.521 85.5869L940.78 88.0134Z" fill="#211F20"/>
<path d="M950.925 67.8057C947.145 68.9512 943.774 71.2877 941.466 74.3609C940.993 74.1547 940.355 74.3049 939.997 74.6651C939.64 75.0254 939.557 75.6073 939.8 76.0454C939.311 75.9414 938.564 76.1588 938.313 76.5709C938.061 76.9829 938.125 77.5475 938.462 77.8994C940.715 80.2521 943.303 82.4957 946.566 83.1863C949.549 78.5555 950.973 73.2391 950.925 67.8057Z" fill="#EADFED"/>
<path d="M966.691 86.5121C965.661 83.507 964.237 80.5738 962.554 77.8501C959.066 79.2546 956.126 81.8748 954.198 84.9793C953.542 83.8369 952.377 83.0213 951.12 82.5084C949.864 81.9956 948.507 81.7544 947.163 81.5173C941.681 80.5495 936.164 79.5383 930.681 78.5705C929.81 77.3354 928.283 76.3704 926.931 75.6256C925.04 74.5846 923.277 73.7227 921.386 72.6816C921.188 72.572 920.935 72.4623 920.742 72.5799C920.493 72.7311 920.579 73.0932 920.705 73.3475C921.456 74.859 922.61 76.1874 924.027 77.1744C923.121 78.7367 923.472 80.8855 924.754 82.1869C925.767 83.2144 927.232 83.6946 928.636 84.1384C935.659 86.3577 942.335 89.5312 949.235 92.079C951.235 92.8177 953.3 93.5676 955.445 93.5191C957.658 93.4687 959.774 92.5578 961.558 91.31C963.343 90.0623 965.207 88.0772 966.691 86.5121Z" fill="#CB775E"/>
<path d="M963.913 75.7595C963.426 75.6983 962.915 75.8346 962.532 76.1272C962.149 76.4198 961.891 76.8509 961.847 77.3171C961.283 77.1379 960.631 77.2354 960.152 77.5705C959.672 77.9055 959.379 78.4692 959.389 79.0352C962.496 81.472 964.604 85.0776 965.138 88.8774C965.712 89.0673 966.435 89.0365 967.002 88.8284C967.569 88.6203 968.054 88.2157 968.346 87.708C969.183 87.527 969.983 86.7748 970.192 85.9824C970.745 83.8845 970.229 81.6572 969.104 79.7781C967.98 77.899 966.165 76.0418 963.913 75.7595Z" fill="#DCC7E0"/>
<path d="M970.99 132.18C970.265 134.606 968.761 136.729 966.708 138.349C967.453 136.669 967.972 134.844 968.207 133.029C969.133 132.744 970.059 132.46 970.99 132.18Z" fill="#211F20"/>
<path d="M956.284 101.032C952.568 111.56 950.926 121.694 949.705 133.174" stroke="#211F20" stroke-width="0.5" stroke-miterlimit="10" stroke-linecap="round" stroke-linejoin="round"/>
<path d="M968.755 101.658C969.852 102.567 970.072 104.153 969.72 105.497C969.369 106.841 968.551 108.022 967.833 109.227C967.115 110.431 966.473 111.75 966.53 113.134C966.58 114.343 967.164 115.497 967.15 116.706C967.109 120.14 962.5 122.24 962.246 125.666C962.064 128.116 964.227 130.356 963.886 132.791C963.654 134.447 962.327 135.736 961.46 137.188C959.934 139.744 959.869 143.039 961.295 145.647C961.128 144.639 962.298 143.697 963.265 143.257C964.232 142.818 965.339 142.783 966.409 142.727C967.479 142.671 968.594 142.572 969.504 142.033C971.001 141.144 971.67 139.222 973.308 138.597C975.214 137.87 977.631 139.234 979.338 138.147C980.168 137.62 980.603 136.615 981.503 136.206C982.353 135.82 983.354 136.075 984.293 136.009C985.428 135.93 986.459 135.378 987.447 134.84C988.982 134.003 990.519 133.166 992.055 132.328" stroke="#211F20" stroke-width="0.5" stroke-miterlimit="10" stroke-linecap="round" stroke-linejoin="round"/>
<path d="M987.031 128.123C989.131 130.099 990.755 132.532 991.741 135.183" stroke="#211F20" stroke-width="0.5" stroke-miterlimit="10" stroke-linecap="round" stroke-linejoin="round"/>
<path d="M921.515 187.614C924.566 188.238 927.69 188.54 930.812 188.514" stroke="#211F20" stroke-width="0.5" stroke-miterlimit="10" stroke-linecap="round" stroke-linejoin="round"/>
<path d="M929.287 189.788C929.205 188.217 929.124 186.646 929.042 185.075C928.959 183.475 928.881 181.834 929.4 180.311C930.302 177.663 932.952 175.471 932.684 172.699C932.541 171.218 931.545 169.842 931.706 168.363C931.966 165.978 935.048 164.565 935.324 162.182C935.507 160.604 934.379 159.137 934.317 157.55C934.263 156.161 935.026 154.873 935.335 153.514C935.838 151.294 935.023 148.846 933.269 147.308C934.405 147.636 935.71 146.576 936.256 145.573C936.803 144.57 936.886 143.406 937.122 142.299C937.357 141.191 937.823 140.027 938.838 139.442C940.047 138.747 941.814 139.001 942.706 137.959C943.542 136.983 943.055 135.545 943.147 134.289C943.311 132.054 945.797 130.244 948.104 130.679" stroke="#211F20" stroke-width="0.5" stroke-miterlimit="10" stroke-linecap="round" stroke-linejoin="round"/>
<path d="M946.367 101.02C951.086 103.083 956.299 104.037 961.491 104.082C966.683 104.127 971.859 103.278 976.835 101.866" stroke="#211F20" stroke-width="0.5" stroke-miterlimit="10" stroke-linecap="round" stroke-linejoin="round"/>
<path d="M953.703 101.274C953.074 103.685 952.446 106.096 951.817 108.506C951.612 109.291 951.407 110.108 951.583 110.899C951.759 111.69 952.438 112.441 953.286 112.446" stroke="#211F20" stroke-width="0.5" stroke-miterlimit="10" stroke-linecap="round" stroke-linejoin="round"/>
<path d="M961.934 77.3955C964.102 78.8047 965.869 80.7697 966.996 83.0278" stroke="#211F20" stroke-width="0.5" stroke-miterlimit="10" stroke-linecap="round" stroke-linejoin="round"/>
<path d="M963.509 75.7185C964.787 74.2608 966.069 72.8007 967.511 71.4894C968.953 70.1782 970.566 69.0139 972.382 68.2305" stroke="#211F20" stroke-width="0.5" stroke-miterlimit="10" stroke-linecap="round" stroke-linejoin="round"/>
<path d="M974.766 81.1553C973.575 83.1357 971.999 84.9061 970.143 86.3498" stroke="#211F20" stroke-width="0.5" stroke-miterlimit="10" stroke-linecap="round" stroke-linejoin="round"/>
<path d="M939.925 76.0898C941.629 77.4085 943.041 79.067 944.045 80.9269" stroke="#211F20" stroke-width="0.5" stroke-miterlimit="10" stroke-linecap="round" stroke-linejoin="round"/>
<path d="M950.509 68.2842C949.513 69.9477 948.518 71.6108 947.522 73.2743C946.799 74.4829 946.073 75.698 945.558 76.9999C945.044 78.3018 944.746 79.7064 944.913 81.0885" stroke="#211F20" stroke-width="0.5" stroke-miterlimit="10" stroke-linecap="round" stroke-linejoin="round"/>
<path d="M941.562 74.4199C942.573 75.146 943.468 76.0191 944.204 77.0004" stroke="#211F20" stroke-width="0.5" stroke-miterlimit="10" stroke-linecap="round" stroke-linejoin="round"/>
<path d="M952.144 95.2863C956.849 96.6792 962.088 96.3675 966.575 94.4277" stroke="#211F20" stroke-width="0.5" stroke-miterlimit="10" stroke-linecap="round" stroke-linejoin="round"/>
<path d="M995.801 135.002C995.3 135.535 994.838 136.112 994.53 136.766C994.222 137.419 994.076 138.157 994.221 138.859C994.306 139.269 994.548 139.709 994.977 139.798C995.24 139.853 995.518 139.758 995.731 139.602C995.945 139.446 996.104 139.234 996.257 139.023C997.526 137.262 998.511 135.315 999.165 133.271C999.247 133.012 999.304 132.68 999.08 132.512C998.372 134.851 998.584 137.431 999.663 139.637C999.768 139.852 999.913 140.088 1000.16 140.135C1000.36 140.172 1000.56 140.064 1000.68 139.91C1000.81 139.757 1000.86 139.565 1000.91 139.378C1001.27 137.897 1001.19 136.323 1000.69 134.878C1000.45 134.157 1000.11 133.458 999.66 132.83C999.473 132.566 999.303 132.334 998.949 132.479C998.58 132.63 998.224 132.933 997.905 133.161C997.143 133.707 996.437 134.325 995.801 135.002Z" stroke="#211F20" stroke-width="0.5" stroke-miterlimit="10" stroke-linecap="round" stroke-linejoin="round"/>
<path d="M917.781 187.477C917.584 187.176 917.369 186.871 917.059 186.673C916.75 186.474 916.322 186.403 916.004 186.588C915.696 186.767 915.565 187.143 915.589 187.485C915.614 187.828 915.768 188.148 915.919 188.46C916.794 190.266 917.669 192.071 918.544 193.877C918.978 194.772 919.536 195.77 920.543 196.004C919.607 193.408 917.782 191.109 915.414 189.544C915.112 189.344 914.726 189.149 914.393 189.3C914.157 189.408 914.03 189.668 914.022 189.917C914.014 190.166 914.106 190.408 914.206 190.639C915.043 192.575 916.618 194.2 918.546 195.198C918.975 195.42 919.593 195.796 920.092 195.817C920.765 195.846 920.619 195.371 920.551 194.874C920.384 193.649 920.088 192.44 919.669 191.271C919.193 189.943 918.56 188.667 917.781 187.477Z" stroke="#211F20" stroke-width="0.5" stroke-miterlimit="10" stroke-linecap="round" stroke-linejoin="round"/>
</g>
<defs>
<clipPath id="clip0_495_4923">
<rect width="1139" height="210" fill="white"/>
</clipPath>
</defs>
</svg>
