<svg width="32" height="32" viewBox="0 0 32 32" fill="none" xmlns="http://www.w3.org/2000/svg">
<rect width="32" height="32" rx="16" fill="#F8F2FF"/>
<g clip-path="url(#clip0_406_9496)">
<path d="M24.6415 11.6392C24.5397 11.2562 24.3391 10.9067 24.0599 10.6257C23.7806 10.3446 23.4324 10.1418 23.0501 10.0376C21.6428 9.65918 16.0178 9.65918 16.0178 9.65918C16.0178 9.65918 10.3928 9.65918 8.98555 10.0376C8.60327 10.1418 8.25507 10.3446 7.97579 10.6257C7.69651 10.9067 7.49595 11.2562 7.39419 11.6392C7.01782 13.0526 7.01782 16.0001 7.01782 16.0001C7.01782 16.0001 7.01782 18.9476 7.39419 20.361C7.49595 20.7439 7.69651 21.0934 7.97579 21.3745C8.25507 21.6556 8.60327 21.8584 8.98555 21.9626C10.3928 22.341 16.0178 22.341 16.0178 22.341C16.0178 22.341 21.6428 22.341 23.0501 21.9626C23.4324 21.8584 23.7806 21.6556 24.0599 21.3745C24.3391 21.0934 24.5397 20.7439 24.6415 20.361C25.0178 18.9476 25.0178 16.0001 25.0178 16.0001C25.0178 16.0001 25.0178 13.0526 24.6415 11.6392Z" fill="#FF0302"/>
<path d="M14.177 18.6762V13.3232L18.8815 15.9997L14.177 18.6762Z" fill="#FEFEFE"/>
</g>
<defs>
<clipPath id="clip0_406_9496">
<rect width="18" height="18" fill="white" transform="translate(7 7)"/>
</clipPath>
</defs>
</svg>
