<svg width="28" height="28" viewBox="0 0 28 28" fill="none" xmlns="http://www.w3.org/2000/svg">
<rect x="0.5" y="0.5" width="27" height="27" rx="13.5" stroke="#231136"/>
<path d="M12.6667 15.9997L16.1267 13.9997L12.6667 11.9997V15.9997ZM20.3734 10.7797C20.46 11.093 20.52 11.513 20.56 12.0463C20.6067 12.5797 20.6267 13.0397 20.6267 13.4397L20.6667 13.9997C20.6667 15.4597 20.56 16.533 20.3734 17.2197C20.2067 17.8197 19.82 18.2063 19.22 18.373C18.9067 18.4597 18.3334 18.5197 17.4534 18.5597C16.5867 18.6063 15.7934 18.6263 15.06 18.6263L14 18.6663C11.2067 18.6663 9.46671 18.5597 8.78004 18.373C8.18004 18.2063 7.79337 17.8197 7.62671 17.2197C7.54004 16.9063 7.48004 16.4863 7.44004 15.953C7.39337 15.4197 7.37337 14.9597 7.37337 14.5597L7.33337 13.9997C7.33337 12.5397 7.44004 11.4663 7.62671 10.7797C7.79337 10.1797 8.18004 9.79301 8.78004 9.62634C9.09337 9.53967 9.66671 9.47967 10.5467 9.43967C11.4134 9.39301 12.2067 9.37301 12.94 9.37301L14 9.33301C16.7934 9.33301 18.5334 9.43967 19.22 9.62634C19.82 9.79301 20.2067 10.1797 20.3734 10.7797Z" fill="#231136"/>
</svg>
